%TF.GenerationSoftware,KiCad,Pcbnew,5.1.9+dfsg1-1~bpo10+1*%
%TF.CreationDate,2023-05-27T15:22:23+02:00*%
%TF.ProjectId,IIsi-to-ztex,49497369-2d74-46f2-9d7a-7465782e6b69,rev?*%
%TF.SameCoordinates,Original*%
%TF.FileFunction,Legend,Top*%
%TF.FilePolarity,Positive*%
%FSLAX46Y46*%
G04 Gerber Fmt 4.6, Leading zero omitted, Abs format (unit mm)*
G04 Created by KiCad (PCBNEW 5.1.9+dfsg1-1~bpo10+1) date 2023-05-27 15:22:23*
%MOMM*%
%LPD*%
G01*
G04 APERTURE LIST*
%ADD10C,0.150000*%
%ADD11C,0.100000*%
%ADD12C,0.120000*%
%ADD13C,0.127000*%
%ADD14C,0.200000*%
%ADD15C,0.254000*%
G04 APERTURE END LIST*
D10*
X171072380Y-38618095D02*
X170072380Y-38618095D01*
X170072380Y-38237142D01*
X170120000Y-38141904D01*
X170167619Y-38094285D01*
X170262857Y-38046666D01*
X170405714Y-38046666D01*
X170500952Y-38094285D01*
X170548571Y-38141904D01*
X170596190Y-38237142D01*
X170596190Y-38618095D01*
X171072380Y-37618095D02*
X170072380Y-37618095D01*
X170786666Y-37284761D01*
X170072380Y-36951428D01*
X171072380Y-36951428D01*
X171072380Y-36332380D02*
X171024761Y-36427619D01*
X170977142Y-36475238D01*
X170881904Y-36522857D01*
X170596190Y-36522857D01*
X170500952Y-36475238D01*
X170453333Y-36427619D01*
X170405714Y-36332380D01*
X170405714Y-36189523D01*
X170453333Y-36094285D01*
X170500952Y-36046666D01*
X170596190Y-35999047D01*
X170881904Y-35999047D01*
X170977142Y-36046666D01*
X171024761Y-36094285D01*
X171072380Y-36189523D01*
X171072380Y-36332380D01*
X171072380Y-35141904D02*
X170072380Y-35141904D01*
X171024761Y-35141904D02*
X171072380Y-35237142D01*
X171072380Y-35427619D01*
X171024761Y-35522857D01*
X170977142Y-35570476D01*
X170881904Y-35618095D01*
X170596190Y-35618095D01*
X170500952Y-35570476D01*
X170453333Y-35522857D01*
X170405714Y-35427619D01*
X170405714Y-35237142D01*
X170453333Y-35141904D01*
D11*
X187524285Y-104059285D02*
X187095714Y-104059285D01*
X187310000Y-104059285D02*
X187310000Y-103309285D01*
X187238571Y-103416428D01*
X187167142Y-103487857D01*
X187095714Y-103523571D01*
X174524285Y-104059285D02*
X174095714Y-104059285D01*
X174310000Y-104059285D02*
X174310000Y-103309285D01*
X174238571Y-103416428D01*
X174167142Y-103487857D01*
X174095714Y-103523571D01*
X161524285Y-104059285D02*
X161095714Y-104059285D01*
X161310000Y-104059285D02*
X161310000Y-103309285D01*
X161238571Y-103416428D01*
X161167142Y-103487857D01*
X161095714Y-103523571D01*
X148524285Y-104059285D02*
X148095714Y-104059285D01*
X148310000Y-104059285D02*
X148310000Y-103309285D01*
X148238571Y-103416428D01*
X148167142Y-103487857D01*
X148095714Y-103523571D01*
X157904285Y-77509285D02*
X157475714Y-77509285D01*
X157690000Y-77509285D02*
X157690000Y-76759285D01*
X157618571Y-76866428D01*
X157547142Y-76937857D01*
X157475714Y-76973571D01*
D12*
X112720000Y-107700000D02*
X112720000Y-56900000D01*
D11*
X168424285Y-85889285D02*
X167995714Y-85889285D01*
X168210000Y-85889285D02*
X168210000Y-85139285D01*
X168138571Y-85246428D01*
X168067142Y-85317857D01*
X167995714Y-85353571D01*
X176854285Y-127469285D02*
X176425714Y-127469285D01*
X176640000Y-127469285D02*
X176640000Y-126719285D01*
X176568571Y-126826428D01*
X176497142Y-126897857D01*
X176425714Y-126933571D01*
D10*
X190202380Y-42931428D02*
X189202380Y-42931428D01*
X189202380Y-42550476D01*
X189250000Y-42455238D01*
X189297619Y-42407619D01*
X189392857Y-42360000D01*
X189535714Y-42360000D01*
X189630952Y-42407619D01*
X189678571Y-42455238D01*
X189726190Y-42550476D01*
X189726190Y-42931428D01*
X190202380Y-41931428D02*
X189202380Y-41931428D01*
X189916666Y-41598095D01*
X189202380Y-41264761D01*
X190202380Y-41264761D01*
X190202380Y-40645714D02*
X190154761Y-40740952D01*
X190107142Y-40788571D01*
X190011904Y-40836190D01*
X189726190Y-40836190D01*
X189630952Y-40788571D01*
X189583333Y-40740952D01*
X189535714Y-40645714D01*
X189535714Y-40502857D01*
X189583333Y-40407619D01*
X189630952Y-40360000D01*
X189726190Y-40312380D01*
X190011904Y-40312380D01*
X190107142Y-40360000D01*
X190154761Y-40407619D01*
X190202380Y-40502857D01*
X190202380Y-40645714D01*
X190202380Y-39455238D02*
X189202380Y-39455238D01*
X190154761Y-39455238D02*
X190202380Y-39550476D01*
X190202380Y-39740952D01*
X190154761Y-39836190D01*
X190107142Y-39883809D01*
X190011904Y-39931428D01*
X189726190Y-39931428D01*
X189630952Y-39883809D01*
X189583333Y-39836190D01*
X189535714Y-39740952D01*
X189535714Y-39550476D01*
X189583333Y-39455238D01*
X189678571Y-38217142D02*
X189678571Y-37883809D01*
X190202380Y-37740952D02*
X190202380Y-38217142D01*
X189202380Y-38217142D01*
X189202380Y-37740952D01*
X189535714Y-37312380D02*
X190202380Y-37312380D01*
X189630952Y-37312380D02*
X189583333Y-37264761D01*
X189535714Y-37169523D01*
X189535714Y-37026666D01*
X189583333Y-36931428D01*
X189678571Y-36883809D01*
X190202380Y-36883809D01*
X190202380Y-35979047D02*
X189678571Y-35979047D01*
X189583333Y-36026666D01*
X189535714Y-36121904D01*
X189535714Y-36312380D01*
X189583333Y-36407619D01*
X190154761Y-35979047D02*
X190202380Y-36074285D01*
X190202380Y-36312380D01*
X190154761Y-36407619D01*
X190059523Y-36455238D01*
X189964285Y-36455238D01*
X189869047Y-36407619D01*
X189821428Y-36312380D01*
X189821428Y-36074285D01*
X189773809Y-35979047D01*
X190202380Y-35502857D02*
X189202380Y-35502857D01*
X189583333Y-35502857D02*
X189535714Y-35407619D01*
X189535714Y-35217142D01*
X189583333Y-35121904D01*
X189630952Y-35074285D01*
X189726190Y-35026666D01*
X190011904Y-35026666D01*
X190107142Y-35074285D01*
X190154761Y-35121904D01*
X190202380Y-35217142D01*
X190202380Y-35407619D01*
X190154761Y-35502857D01*
X190202380Y-34455238D02*
X190154761Y-34550476D01*
X190059523Y-34598095D01*
X189202380Y-34598095D01*
X190154761Y-33693333D02*
X190202380Y-33788571D01*
X190202380Y-33979047D01*
X190154761Y-34074285D01*
X190059523Y-34121904D01*
X189678571Y-34121904D01*
X189583333Y-34074285D01*
X189535714Y-33979047D01*
X189535714Y-33788571D01*
X189583333Y-33693333D01*
X189678571Y-33645714D01*
X189773809Y-33645714D01*
X189869047Y-34121904D01*
X190202380Y-32788571D02*
X189202380Y-32788571D01*
X190154761Y-32788571D02*
X190202380Y-32883809D01*
X190202380Y-33074285D01*
X190154761Y-33169523D01*
X190107142Y-33217142D01*
X190011904Y-33264761D01*
X189726190Y-33264761D01*
X189630952Y-33217142D01*
X189583333Y-33169523D01*
X189535714Y-33074285D01*
X189535714Y-32883809D01*
X189583333Y-32788571D01*
X200082142Y-37112380D02*
X200129761Y-37160000D01*
X200177380Y-37302857D01*
X200177380Y-37398095D01*
X200129761Y-37540952D01*
X200034523Y-37636190D01*
X199939285Y-37683809D01*
X199748809Y-37731428D01*
X199605952Y-37731428D01*
X199415476Y-37683809D01*
X199320238Y-37636190D01*
X199225000Y-37540952D01*
X199177380Y-37398095D01*
X199177380Y-37302857D01*
X199225000Y-37160000D01*
X199272619Y-37112380D01*
X200177380Y-36255238D02*
X199653571Y-36255238D01*
X199558333Y-36302857D01*
X199510714Y-36398095D01*
X199510714Y-36588571D01*
X199558333Y-36683809D01*
X200129761Y-36255238D02*
X200177380Y-36350476D01*
X200177380Y-36588571D01*
X200129761Y-36683809D01*
X200034523Y-36731428D01*
X199939285Y-36731428D01*
X199844047Y-36683809D01*
X199796428Y-36588571D01*
X199796428Y-36350476D01*
X199748809Y-36255238D01*
X200129761Y-35350476D02*
X200177380Y-35445714D01*
X200177380Y-35636190D01*
X200129761Y-35731428D01*
X200082142Y-35779047D01*
X199986904Y-35826666D01*
X199701190Y-35826666D01*
X199605952Y-35779047D01*
X199558333Y-35731428D01*
X199510714Y-35636190D01*
X199510714Y-35445714D01*
X199558333Y-35350476D01*
X200177380Y-34921904D02*
X199177380Y-34921904D01*
X200177380Y-34493333D02*
X199653571Y-34493333D01*
X199558333Y-34540952D01*
X199510714Y-34636190D01*
X199510714Y-34779047D01*
X199558333Y-34874285D01*
X199605952Y-34921904D01*
X200129761Y-33636190D02*
X200177380Y-33731428D01*
X200177380Y-33921904D01*
X200129761Y-34017142D01*
X200034523Y-34064761D01*
X199653571Y-34064761D01*
X199558333Y-34017142D01*
X199510714Y-33921904D01*
X199510714Y-33731428D01*
X199558333Y-33636190D01*
X199653571Y-33588571D01*
X199748809Y-33588571D01*
X199844047Y-34064761D01*
X201732142Y-37850476D02*
X201779761Y-37898095D01*
X201827380Y-38040952D01*
X201827380Y-38136190D01*
X201779761Y-38279047D01*
X201684523Y-38374285D01*
X201589285Y-38421904D01*
X201398809Y-38469523D01*
X201255952Y-38469523D01*
X201065476Y-38421904D01*
X200970238Y-38374285D01*
X200875000Y-38279047D01*
X200827380Y-38136190D01*
X200827380Y-38040952D01*
X200875000Y-37898095D01*
X200922619Y-37850476D01*
X201827380Y-37279047D02*
X201779761Y-37374285D01*
X201732142Y-37421904D01*
X201636904Y-37469523D01*
X201351190Y-37469523D01*
X201255952Y-37421904D01*
X201208333Y-37374285D01*
X201160714Y-37279047D01*
X201160714Y-37136190D01*
X201208333Y-37040952D01*
X201255952Y-36993333D01*
X201351190Y-36945714D01*
X201636904Y-36945714D01*
X201732142Y-36993333D01*
X201779761Y-37040952D01*
X201827380Y-37136190D01*
X201827380Y-37279047D01*
X201160714Y-36517142D02*
X201827380Y-36517142D01*
X201255952Y-36517142D02*
X201208333Y-36469523D01*
X201160714Y-36374285D01*
X201160714Y-36231428D01*
X201208333Y-36136190D01*
X201303571Y-36088571D01*
X201827380Y-36088571D01*
X201160714Y-35612380D02*
X201827380Y-35612380D01*
X201255952Y-35612380D02*
X201208333Y-35564761D01*
X201160714Y-35469523D01*
X201160714Y-35326666D01*
X201208333Y-35231428D01*
X201303571Y-35183809D01*
X201827380Y-35183809D01*
X201779761Y-34326666D02*
X201827380Y-34421904D01*
X201827380Y-34612380D01*
X201779761Y-34707619D01*
X201684523Y-34755238D01*
X201303571Y-34755238D01*
X201208333Y-34707619D01*
X201160714Y-34612380D01*
X201160714Y-34421904D01*
X201208333Y-34326666D01*
X201303571Y-34279047D01*
X201398809Y-34279047D01*
X201494047Y-34755238D01*
X201779761Y-33421904D02*
X201827380Y-33517142D01*
X201827380Y-33707619D01*
X201779761Y-33802857D01*
X201732142Y-33850476D01*
X201636904Y-33898095D01*
X201351190Y-33898095D01*
X201255952Y-33850476D01*
X201208333Y-33802857D01*
X201160714Y-33707619D01*
X201160714Y-33517142D01*
X201208333Y-33421904D01*
X201160714Y-33136190D02*
X201160714Y-32755238D01*
X200827380Y-32993333D02*
X201684523Y-32993333D01*
X201779761Y-32945714D01*
X201827380Y-32850476D01*
X201827380Y-32755238D01*
X159072380Y-38475238D02*
X158072380Y-38475238D01*
X158548571Y-38475238D02*
X158548571Y-37903809D01*
X159072380Y-37903809D02*
X158072380Y-37903809D01*
X159072380Y-37427619D02*
X158072380Y-37427619D01*
X158072380Y-37189523D01*
X158120000Y-37046666D01*
X158215238Y-36951428D01*
X158310476Y-36903809D01*
X158500952Y-36856190D01*
X158643809Y-36856190D01*
X158834285Y-36903809D01*
X158929523Y-36951428D01*
X159024761Y-37046666D01*
X159072380Y-37189523D01*
X159072380Y-37427619D01*
X159072380Y-36427619D02*
X158072380Y-36427619D01*
X158786666Y-36094285D01*
X158072380Y-35760952D01*
X159072380Y-35760952D01*
X159072380Y-35284761D02*
X158072380Y-35284761D01*
D11*
X115484285Y-117419285D02*
X115055714Y-117419285D01*
X115270000Y-117419285D02*
X115270000Y-116669285D01*
X115198571Y-116776428D01*
X115127142Y-116847857D01*
X115055714Y-116883571D01*
X115484285Y-65619285D02*
X115055714Y-65619285D01*
X115270000Y-65619285D02*
X115270000Y-64869285D01*
X115198571Y-64976428D01*
X115127142Y-65047857D01*
X115055714Y-65083571D01*
D10*
X203703333Y-86282380D02*
X203703333Y-86996666D01*
X203655714Y-87139523D01*
X203560476Y-87234761D01*
X203417619Y-87282380D01*
X203322380Y-87282380D01*
X204036666Y-86282380D02*
X204608095Y-86282380D01*
X204322380Y-87282380D02*
X204322380Y-86282380D01*
X204893809Y-86996666D02*
X205370000Y-86996666D01*
X204798571Y-87282380D02*
X205131904Y-86282380D01*
X205465238Y-87282380D01*
X206322380Y-86330000D02*
X206227142Y-86282380D01*
X206084285Y-86282380D01*
X205941428Y-86330000D01*
X205846190Y-86425238D01*
X205798571Y-86520476D01*
X205750952Y-86710952D01*
X205750952Y-86853809D01*
X205798571Y-87044285D01*
X205846190Y-87139523D01*
X205941428Y-87234761D01*
X206084285Y-87282380D01*
X206179523Y-87282380D01*
X206322380Y-87234761D01*
X206370000Y-87187142D01*
X206370000Y-86853809D01*
X206179523Y-86853809D01*
X109698571Y-34682380D02*
X110317619Y-34682380D01*
X109984285Y-35063333D01*
X110127142Y-35063333D01*
X110222380Y-35110952D01*
X110270000Y-35158571D01*
X110317619Y-35253809D01*
X110317619Y-35491904D01*
X110270000Y-35587142D01*
X110222380Y-35634761D01*
X110127142Y-35682380D01*
X109841428Y-35682380D01*
X109746190Y-35634761D01*
X109698571Y-35587142D01*
X110603333Y-34682380D02*
X110936666Y-35682380D01*
X111270000Y-34682380D01*
X111508095Y-34682380D02*
X112127142Y-34682380D01*
X111793809Y-35063333D01*
X111936666Y-35063333D01*
X112031904Y-35110952D01*
X112079523Y-35158571D01*
X112127142Y-35253809D01*
X112127142Y-35491904D01*
X112079523Y-35587142D01*
X112031904Y-35634761D01*
X111936666Y-35682380D01*
X111650952Y-35682380D01*
X111555714Y-35634761D01*
X111508095Y-35587142D01*
X113317619Y-35015714D02*
X113317619Y-36015714D01*
X113317619Y-35063333D02*
X113412857Y-35015714D01*
X113603333Y-35015714D01*
X113698571Y-35063333D01*
X113746190Y-35110952D01*
X113793809Y-35206190D01*
X113793809Y-35491904D01*
X113746190Y-35587142D01*
X113698571Y-35634761D01*
X113603333Y-35682380D01*
X113412857Y-35682380D01*
X113317619Y-35634761D01*
X114365238Y-35682380D02*
X114270000Y-35634761D01*
X114222380Y-35587142D01*
X114174761Y-35491904D01*
X114174761Y-35206190D01*
X114222380Y-35110952D01*
X114270000Y-35063333D01*
X114365238Y-35015714D01*
X114508095Y-35015714D01*
X114603333Y-35063333D01*
X114650952Y-35110952D01*
X114698571Y-35206190D01*
X114698571Y-35491904D01*
X114650952Y-35587142D01*
X114603333Y-35634761D01*
X114508095Y-35682380D01*
X114365238Y-35682380D01*
X115031904Y-35015714D02*
X115222380Y-35682380D01*
X115412857Y-35206190D01*
X115603333Y-35682380D01*
X115793809Y-35015714D01*
X116555714Y-35634761D02*
X116460476Y-35682380D01*
X116270000Y-35682380D01*
X116174761Y-35634761D01*
X116127142Y-35539523D01*
X116127142Y-35158571D01*
X116174761Y-35063333D01*
X116270000Y-35015714D01*
X116460476Y-35015714D01*
X116555714Y-35063333D01*
X116603333Y-35158571D01*
X116603333Y-35253809D01*
X116127142Y-35349047D01*
X117031904Y-35682380D02*
X117031904Y-35015714D01*
X117031904Y-35206190D02*
X117079523Y-35110952D01*
X117127142Y-35063333D01*
X117222380Y-35015714D01*
X117317619Y-35015714D01*
X118555714Y-35682380D02*
X118460476Y-35634761D01*
X118412857Y-35587142D01*
X118365238Y-35491904D01*
X118365238Y-35206190D01*
X118412857Y-35110952D01*
X118460476Y-35063333D01*
X118555714Y-35015714D01*
X118698571Y-35015714D01*
X118793809Y-35063333D01*
X118841428Y-35110952D01*
X118889047Y-35206190D01*
X118889047Y-35491904D01*
X118841428Y-35587142D01*
X118793809Y-35634761D01*
X118698571Y-35682380D01*
X118555714Y-35682380D01*
X119317619Y-35015714D02*
X119317619Y-35682380D01*
X119317619Y-35110952D02*
X119365238Y-35063333D01*
X119460476Y-35015714D01*
X119603333Y-35015714D01*
X119698571Y-35063333D01*
X119746190Y-35158571D01*
X119746190Y-35682380D01*
X204495714Y-140202380D02*
X203924285Y-140202380D01*
X204210000Y-140202380D02*
X204210000Y-139202380D01*
X204114761Y-139345238D01*
X204019523Y-139440476D01*
X203924285Y-139488095D01*
X212031904Y-147566666D02*
X212508095Y-147566666D01*
X211936666Y-147852380D02*
X212270000Y-146852380D01*
X212603333Y-147852380D01*
X212371428Y-144828571D02*
X212514285Y-144876190D01*
X212561904Y-144923809D01*
X212609523Y-145019047D01*
X212609523Y-145161904D01*
X212561904Y-145257142D01*
X212514285Y-145304761D01*
X212419047Y-145352380D01*
X212038095Y-145352380D01*
X212038095Y-144352380D01*
X212371428Y-144352380D01*
X212466666Y-144400000D01*
X212514285Y-144447619D01*
X212561904Y-144542857D01*
X212561904Y-144638095D01*
X212514285Y-144733333D01*
X212466666Y-144780952D01*
X212371428Y-144828571D01*
X212038095Y-144828571D01*
X212589523Y-142797142D02*
X212541904Y-142844761D01*
X212399047Y-142892380D01*
X212303809Y-142892380D01*
X212160952Y-142844761D01*
X212065714Y-142749523D01*
X212018095Y-142654285D01*
X211970476Y-142463809D01*
X211970476Y-142320952D01*
X212018095Y-142130476D01*
X212065714Y-142035238D01*
X212160952Y-141940000D01*
X212303809Y-141892380D01*
X212399047Y-141892380D01*
X212541904Y-141940000D01*
X212589523Y-141987619D01*
D11*
X142064285Y-75979285D02*
X141635714Y-75979285D01*
X141850000Y-75979285D02*
X141850000Y-75229285D01*
X141778571Y-75336428D01*
X141707142Y-75407857D01*
X141635714Y-75443571D01*
X101244285Y-134879285D02*
X100815714Y-134879285D01*
X101030000Y-134879285D02*
X101030000Y-134129285D01*
X100958571Y-134236428D01*
X100887142Y-134307857D01*
X100815714Y-134343571D01*
X112244285Y-134879285D02*
X111815714Y-134879285D01*
X112030000Y-134879285D02*
X112030000Y-134129285D01*
X111958571Y-134236428D01*
X111887142Y-134307857D01*
X111815714Y-134343571D01*
X123244285Y-134879285D02*
X122815714Y-134879285D01*
X123030000Y-134879285D02*
X123030000Y-134129285D01*
X122958571Y-134236428D01*
X122887142Y-134307857D01*
X122815714Y-134343571D01*
X134244285Y-134879285D02*
X133815714Y-134879285D01*
X134030000Y-134879285D02*
X134030000Y-134129285D01*
X133958571Y-134236428D01*
X133887142Y-134307857D01*
X133815714Y-134343571D01*
X145244285Y-134879285D02*
X144815714Y-134879285D01*
X145030000Y-134879285D02*
X145030000Y-134129285D01*
X144958571Y-134236428D01*
X144887142Y-134307857D01*
X144815714Y-134343571D01*
X156244285Y-134879285D02*
X155815714Y-134879285D01*
X156030000Y-134879285D02*
X156030000Y-134129285D01*
X155958571Y-134236428D01*
X155887142Y-134307857D01*
X155815714Y-134343571D01*
X167244285Y-134879285D02*
X166815714Y-134879285D01*
X167030000Y-134879285D02*
X167030000Y-134129285D01*
X166958571Y-134236428D01*
X166887142Y-134307857D01*
X166815714Y-134343571D01*
X178244285Y-134879285D02*
X177815714Y-134879285D01*
X178030000Y-134879285D02*
X178030000Y-134129285D01*
X177958571Y-134236428D01*
X177887142Y-134307857D01*
X177815714Y-134343571D01*
X189244285Y-134879285D02*
X188815714Y-134879285D01*
X189030000Y-134879285D02*
X189030000Y-134129285D01*
X188958571Y-134236428D01*
X188887142Y-134307857D01*
X188815714Y-134343571D01*
X200244285Y-134879285D02*
X199815714Y-134879285D01*
X200030000Y-134879285D02*
X200030000Y-134129285D01*
X199958571Y-134236428D01*
X199887142Y-134307857D01*
X199815714Y-134343571D01*
D10*
X112922380Y-55032380D02*
X113589047Y-55032380D01*
X112922380Y-56032380D01*
X113589047Y-56032380D01*
X113827142Y-55032380D02*
X114398571Y-55032380D01*
X114112857Y-56032380D02*
X114112857Y-55032380D01*
X115112857Y-55984761D02*
X115017619Y-56032380D01*
X114827142Y-56032380D01*
X114731904Y-55984761D01*
X114684285Y-55889523D01*
X114684285Y-55508571D01*
X114731904Y-55413333D01*
X114827142Y-55365714D01*
X115017619Y-55365714D01*
X115112857Y-55413333D01*
X115160476Y-55508571D01*
X115160476Y-55603809D01*
X114684285Y-55699047D01*
X115493809Y-56032380D02*
X116017619Y-55365714D01*
X115493809Y-55365714D02*
X116017619Y-56032380D01*
X117112857Y-55127619D02*
X117160476Y-55080000D01*
X117255714Y-55032380D01*
X117493809Y-55032380D01*
X117589047Y-55080000D01*
X117636666Y-55127619D01*
X117684285Y-55222857D01*
X117684285Y-55318095D01*
X117636666Y-55460952D01*
X117065238Y-56032380D01*
X117684285Y-56032380D01*
X118112857Y-55937142D02*
X118160476Y-55984761D01*
X118112857Y-56032380D01*
X118065238Y-55984761D01*
X118112857Y-55937142D01*
X118112857Y-56032380D01*
X119112857Y-56032380D02*
X118541428Y-56032380D01*
X118827142Y-56032380D02*
X118827142Y-55032380D01*
X118731904Y-55175238D01*
X118636666Y-55270476D01*
X118541428Y-55318095D01*
X119446190Y-55032380D02*
X120065238Y-55032380D01*
X119731904Y-55413333D01*
X119874761Y-55413333D01*
X119970000Y-55460952D01*
X120017619Y-55508571D01*
X120065238Y-55603809D01*
X120065238Y-55841904D01*
X120017619Y-55937142D01*
X119970000Y-55984761D01*
X119874761Y-56032380D01*
X119589047Y-56032380D01*
X119493809Y-55984761D01*
X119446190Y-55937142D01*
X121398571Y-56032380D02*
X121303333Y-55984761D01*
X121255714Y-55937142D01*
X121208095Y-55841904D01*
X121208095Y-55556190D01*
X121255714Y-55460952D01*
X121303333Y-55413333D01*
X121398571Y-55365714D01*
X121541428Y-55365714D01*
X121636666Y-55413333D01*
X121684285Y-55460952D01*
X121731904Y-55556190D01*
X121731904Y-55841904D01*
X121684285Y-55937142D01*
X121636666Y-55984761D01*
X121541428Y-56032380D01*
X121398571Y-56032380D01*
X122589047Y-55365714D02*
X122589047Y-56032380D01*
X122160476Y-55365714D02*
X122160476Y-55889523D01*
X122208095Y-55984761D01*
X122303333Y-56032380D01*
X122446190Y-56032380D01*
X122541428Y-55984761D01*
X122589047Y-55937142D01*
X122922380Y-55365714D02*
X123303333Y-55365714D01*
X123065238Y-55032380D02*
X123065238Y-55889523D01*
X123112857Y-55984761D01*
X123208095Y-56032380D01*
X123303333Y-56032380D01*
X123779523Y-56032380D02*
X123684285Y-55984761D01*
X123636666Y-55889523D01*
X123636666Y-55032380D01*
X124160476Y-56032380D02*
X124160476Y-55365714D01*
X124160476Y-55032380D02*
X124112857Y-55080000D01*
X124160476Y-55127619D01*
X124208095Y-55080000D01*
X124160476Y-55032380D01*
X124160476Y-55127619D01*
X124636666Y-55365714D02*
X124636666Y-56032380D01*
X124636666Y-55460952D02*
X124684285Y-55413333D01*
X124779523Y-55365714D01*
X124922380Y-55365714D01*
X125017619Y-55413333D01*
X125065238Y-55508571D01*
X125065238Y-56032380D01*
X125922380Y-55984761D02*
X125827142Y-56032380D01*
X125636666Y-56032380D01*
X125541428Y-55984761D01*
X125493809Y-55889523D01*
X125493809Y-55508571D01*
X125541428Y-55413333D01*
X125636666Y-55365714D01*
X125827142Y-55365714D01*
X125922380Y-55413333D01*
X125970000Y-55508571D01*
X125970000Y-55603809D01*
X125493809Y-55699047D01*
D12*
X196520000Y-56900000D02*
X196520000Y-107700000D01*
X196520000Y-107700000D02*
X112720000Y-107700000D01*
X196520000Y-56900000D02*
X112720000Y-56900000D01*
X203570000Y-7650000D02*
X203570000Y5150000D01*
X213570000Y-7650000D02*
X203570000Y-7650000D01*
X105570000Y-7650000D02*
X105570000Y5150000D01*
X95570000Y-7650000D02*
X105570000Y-7650000D01*
X200640000Y-55500000D02*
X213570000Y-55500000D01*
X200640000Y-75500000D02*
X200640000Y-55500000D01*
D10*
X200640000Y-75500000D02*
X213570000Y-75500000D01*
X89000000Y-55500000D02*
X89000000Y-75500000D01*
X108500000Y-55500000D02*
X89000000Y-55500000D01*
X108500000Y-75500000D02*
X108500000Y-55500000D01*
X89000000Y-75500000D02*
X108500000Y-75500000D01*
X97698095Y-147452380D02*
X97793333Y-147452380D01*
X97888571Y-147500000D01*
X97936190Y-147547619D01*
X97983809Y-147642857D01*
X98031428Y-147833333D01*
X98031428Y-148071428D01*
X97983809Y-148261904D01*
X97936190Y-148357142D01*
X97888571Y-148404761D01*
X97793333Y-148452380D01*
X97698095Y-148452380D01*
X97602857Y-148404761D01*
X97555238Y-148357142D01*
X97507619Y-148261904D01*
X97460000Y-148071428D01*
X97460000Y-147833333D01*
X97507619Y-147642857D01*
X97555238Y-147547619D01*
X97602857Y-147500000D01*
X97698095Y-147452380D01*
X98507619Y-148404761D02*
X98507619Y-148452380D01*
X98460000Y-148547619D01*
X98412380Y-148595238D01*
X99126666Y-147452380D02*
X99221904Y-147452380D01*
X99317142Y-147500000D01*
X99364761Y-147547619D01*
X99412380Y-147642857D01*
X99460000Y-147833333D01*
X99460000Y-148071428D01*
X99412380Y-148261904D01*
X99364761Y-148357142D01*
X99317142Y-148404761D01*
X99221904Y-148452380D01*
X99126666Y-148452380D01*
X99031428Y-148404761D01*
X98983809Y-148357142D01*
X98936190Y-148261904D01*
X98888571Y-148071428D01*
X98888571Y-147833333D01*
X98936190Y-147642857D01*
X98983809Y-147547619D01*
X99031428Y-147500000D01*
X99126666Y-147452380D01*
D11*
%TO.C,IC4*%
X148700000Y-104300000D02*
G75*
G02*
X148700000Y-104200000I0J50000D01*
G01*
X148700000Y-104200000D02*
G75*
G02*
X148700000Y-104300000I0J-50000D01*
G01*
X153000000Y-106500000D02*
X153000000Y-117500000D01*
X145000000Y-106500000D02*
X145000000Y-117500000D01*
X148700000Y-104300000D02*
X148700000Y-104300000D01*
X148700000Y-104200000D02*
X148700000Y-104200000D01*
%TO.C,IC3*%
X161700000Y-104300000D02*
G75*
G02*
X161700000Y-104200000I0J50000D01*
G01*
X161700000Y-104200000D02*
G75*
G02*
X161700000Y-104300000I0J-50000D01*
G01*
X166000000Y-106500000D02*
X166000000Y-117500000D01*
X158000000Y-106500000D02*
X158000000Y-117500000D01*
X161700000Y-104300000D02*
X161700000Y-104300000D01*
X161700000Y-104200000D02*
X161700000Y-104200000D01*
%TO.C,IC2*%
X174700000Y-104300000D02*
G75*
G02*
X174700000Y-104200000I0J50000D01*
G01*
X174700000Y-104200000D02*
G75*
G02*
X174700000Y-104300000I0J-50000D01*
G01*
X179000000Y-106500000D02*
X179000000Y-117500000D01*
X171000000Y-106500000D02*
X171000000Y-117500000D01*
X174700000Y-104300000D02*
X174700000Y-104300000D01*
X174700000Y-104200000D02*
X174700000Y-104200000D01*
%TO.C,IC1*%
X187700000Y-104300000D02*
G75*
G02*
X187700000Y-104200000I0J50000D01*
G01*
X187700000Y-104200000D02*
G75*
G02*
X187700000Y-104300000I0J-50000D01*
G01*
X192000000Y-106500000D02*
X192000000Y-117500000D01*
X184000000Y-106500000D02*
X184000000Y-117500000D01*
X187700000Y-104300000D02*
X187700000Y-104300000D01*
X187700000Y-104200000D02*
X187700000Y-104200000D01*
D12*
%TO.C,C31*%
X99640000Y-119892164D02*
X99640000Y-120107836D01*
X100360000Y-119892164D02*
X100360000Y-120107836D01*
%TO.C,C30*%
X196360000Y-99892164D02*
X196360000Y-100107836D01*
X195640000Y-99892164D02*
X195640000Y-100107836D01*
%TO.C,C29*%
X156240000Y-99892164D02*
X156240000Y-100107836D01*
X155520000Y-99892164D02*
X155520000Y-100107836D01*
%TO.C,R18*%
X150846359Y-102860000D02*
X151153641Y-102860000D01*
X150846359Y-102100000D02*
X151153641Y-102100000D01*
%TO.C,R17*%
X163846359Y-102860000D02*
X164153641Y-102860000D01*
X163846359Y-102100000D02*
X164153641Y-102100000D01*
%TO.C,R16*%
X176846359Y-102860000D02*
X177153641Y-102860000D01*
X176846359Y-102100000D02*
X177153641Y-102100000D01*
%TO.C,R13*%
X189846359Y-102860000D02*
X190153641Y-102860000D01*
X189846359Y-102100000D02*
X190153641Y-102100000D01*
%TO.C,C15*%
X142232836Y-46240000D02*
X142017164Y-46240000D01*
X142232836Y-45520000D02*
X142017164Y-45520000D01*
%TO.C,R15*%
X196380000Y-38338641D02*
X196380000Y-38031359D01*
X195620000Y-38338641D02*
X195620000Y-38031359D01*
%TO.C,R14*%
X194380000Y-38338641D02*
X194380000Y-38031359D01*
X193620000Y-38338641D02*
X193620000Y-38031359D01*
%TO.C,R11*%
X187990000Y-126403641D02*
X187990000Y-126096359D01*
X187230000Y-126403641D02*
X187230000Y-126096359D01*
%TO.C,R12*%
X164596359Y-101630000D02*
X164903641Y-101630000D01*
X164596359Y-100870000D02*
X164903641Y-100870000D01*
%TO.C,C24*%
X142232836Y-44740000D02*
X142017164Y-44740000D01*
X142232836Y-44020000D02*
X142017164Y-44020000D01*
%TO.C,C23*%
X187250000Y-134107836D02*
X187250000Y-133892164D01*
X187970000Y-134107836D02*
X187970000Y-133892164D01*
%TO.C,C22*%
X155107836Y-69740000D02*
X154892164Y-69740000D01*
X155107836Y-69020000D02*
X154892164Y-69020000D01*
%TO.C,C21*%
X173882164Y-47140000D02*
X174097836Y-47140000D01*
X173882164Y-47860000D02*
X174097836Y-47860000D01*
%TO.C,C19*%
X152152164Y-43020000D02*
X152367836Y-43020000D01*
X152152164Y-43740000D02*
X152367836Y-43740000D01*
%TO.C,C18*%
X152142164Y-52770000D02*
X152357836Y-52770000D01*
X152142164Y-53490000D02*
X152357836Y-53490000D01*
%TO.C,C17*%
X153142164Y-54320000D02*
X153357836Y-54320000D01*
X153142164Y-55040000D02*
X153357836Y-55040000D01*
%TO.C,C14*%
X157357836Y-85285000D02*
X157142164Y-85285000D01*
X157357836Y-84565000D02*
X157142164Y-84565000D01*
%TO.C,C13*%
X101175000Y-123652836D02*
X101175000Y-123437164D01*
X101895000Y-123652836D02*
X101895000Y-123437164D01*
%TO.C,C12*%
X112175000Y-123652836D02*
X112175000Y-123437164D01*
X112895000Y-123652836D02*
X112895000Y-123437164D01*
%TO.C,C11*%
X123175000Y-123652836D02*
X123175000Y-123437164D01*
X123895000Y-123652836D02*
X123895000Y-123437164D01*
%TO.C,C10*%
X134175000Y-123652836D02*
X134175000Y-123437164D01*
X134895000Y-123652836D02*
X134895000Y-123437164D01*
%TO.C,C9*%
X145175000Y-123652836D02*
X145175000Y-123437164D01*
X145895000Y-123652836D02*
X145895000Y-123437164D01*
%TO.C,C8*%
X178175000Y-123652836D02*
X178175000Y-123437164D01*
X178895000Y-123652836D02*
X178895000Y-123437164D01*
%TO.C,C7*%
X189175000Y-123652836D02*
X189175000Y-123437164D01*
X189895000Y-123652836D02*
X189895000Y-123437164D01*
%TO.C,C6*%
X200175000Y-123652836D02*
X200175000Y-123437164D01*
X200895000Y-123652836D02*
X200895000Y-123437164D01*
%TO.C,C5*%
X167175000Y-123652836D02*
X167175000Y-123437164D01*
X167895000Y-123652836D02*
X167895000Y-123437164D01*
%TO.C,C4*%
X156175000Y-123652836D02*
X156175000Y-123437164D01*
X156895000Y-123652836D02*
X156895000Y-123437164D01*
%TO.C,C2*%
X153712164Y-67350000D02*
X153927836Y-67350000D01*
X153712164Y-68070000D02*
X153927836Y-68070000D01*
%TO.C,C1*%
X151172164Y-87640000D02*
X151387836Y-87640000D01*
X151172164Y-88360000D02*
X151387836Y-88360000D01*
%TO.C,C28*%
X149635000Y-102107836D02*
X149635000Y-101892164D01*
X148915000Y-102107836D02*
X148915000Y-101892164D01*
%TO.C,C27*%
X162635000Y-102107836D02*
X162635000Y-101892164D01*
X161915000Y-102107836D02*
X161915000Y-101892164D01*
%TO.C,C26*%
X175635000Y-102107836D02*
X175635000Y-101892164D01*
X174915000Y-102107836D02*
X174915000Y-101892164D01*
%TO.C,C25*%
X188635000Y-102107836D02*
X188635000Y-101892164D01*
X187915000Y-102107836D02*
X187915000Y-101892164D01*
D13*
%TO.C,S1*%
X197750000Y-35745000D02*
X196620000Y-35745000D01*
X193380000Y-35745000D02*
X192250000Y-35745000D01*
X192250000Y-35745000D02*
X192250000Y-35095000D01*
X192250000Y-33245000D02*
X192250000Y-33755000D01*
X197750000Y-35095000D02*
X197750000Y-35745000D01*
X197750000Y-33245000D02*
X197750000Y-33755000D01*
X192250000Y-33245000D02*
X193700000Y-33245000D01*
X193700000Y-33245000D02*
X194900000Y-33245000D01*
X194900000Y-33245000D02*
X197750000Y-33245000D01*
X194900000Y-33245000D02*
X194900000Y-32145000D01*
X194900000Y-32145000D02*
X194700000Y-31945000D01*
X194700000Y-31945000D02*
X193900000Y-31945000D01*
X193900000Y-31945000D02*
X193700000Y-32145000D01*
X193700000Y-32145000D02*
X193700000Y-33245000D01*
D14*
X196100000Y-36635000D02*
G75*
G03*
X196100000Y-36635000I-100000J0D01*
G01*
D13*
%TO.C,U14*%
X188130000Y-129375000D02*
X188130000Y-130625000D01*
X185790000Y-130625000D02*
X185790000Y-129375000D01*
D14*
X187710000Y-127900000D02*
G75*
G03*
X187710000Y-127900000I-100000J0D01*
G01*
D12*
%TO.C,R10*%
X171380000Y-55846359D02*
X171380000Y-56153641D01*
X170620000Y-55846359D02*
X170620000Y-56153641D01*
%TO.C,R9*%
X166380000Y-55846359D02*
X166380000Y-56153641D01*
X165620000Y-55846359D02*
X165620000Y-56153641D01*
%TO.C,R8*%
X163380000Y-53346359D02*
X163380000Y-53653641D01*
X162620000Y-53346359D02*
X162620000Y-53653641D01*
%TO.C,R7*%
X159880000Y-53346359D02*
X159880000Y-53653641D01*
X159120000Y-53346359D02*
X159120000Y-53653641D01*
%TO.C,R6*%
X169120000Y-56153641D02*
X169120000Y-55846359D01*
X169880000Y-56153641D02*
X169880000Y-55846359D01*
%TO.C,R5*%
X167120000Y-56153641D02*
X167120000Y-55846359D01*
X167880000Y-56153641D02*
X167880000Y-55846359D01*
%TO.C,R4*%
X164120000Y-53653641D02*
X164120000Y-53346359D01*
X164880000Y-53653641D02*
X164880000Y-53346359D01*
%TO.C,R3*%
X160620000Y-53653641D02*
X160620000Y-53346359D01*
X161380000Y-53653641D02*
X161380000Y-53346359D01*
D13*
%TO.C,U13*%
X164200000Y-74450000D02*
X164200000Y-70050000D01*
X157300000Y-74450000D02*
X157300000Y-70050000D01*
D14*
X157925000Y-76440000D02*
G75*
G03*
X157925000Y-76440000I-100000J0D01*
G01*
D12*
%TO.C,J4*%
X187540000Y-43750000D02*
X187540000Y-44860000D01*
X187540000Y-44860000D02*
X186210000Y-44860000D01*
X187540000Y-31120000D02*
X172180000Y-31120000D01*
X172180000Y-31120000D02*
X172180000Y-39750000D01*
X187540000Y-39750000D02*
X172180000Y-39750000D01*
X187540000Y-31120000D02*
X187540000Y-39750000D01*
X174780000Y-31120000D02*
X174780000Y-39750000D01*
X177320000Y-31120000D02*
X177320000Y-39750000D01*
X179860000Y-31120000D02*
X179860000Y-39750000D01*
X182400000Y-31120000D02*
X182400000Y-39750000D01*
X184940000Y-31120000D02*
X184940000Y-39750000D01*
X173150000Y-42260000D02*
X173150000Y-42700000D01*
X173150000Y-39750000D02*
X173150000Y-40160000D01*
X173870000Y-42260000D02*
X173870000Y-42700000D01*
X173870000Y-39750000D02*
X173870000Y-40160000D01*
X175690000Y-42260000D02*
X175690000Y-42700000D01*
X175690000Y-39750000D02*
X175690000Y-40160000D01*
X176410000Y-42260000D02*
X176410000Y-42700000D01*
X176410000Y-39750000D02*
X176410000Y-40160000D01*
X178230000Y-42260000D02*
X178230000Y-42700000D01*
X178230000Y-39750000D02*
X178230000Y-40160000D01*
X178950000Y-42260000D02*
X178950000Y-42700000D01*
X178950000Y-39750000D02*
X178950000Y-40160000D01*
X180770000Y-42260000D02*
X180770000Y-42700000D01*
X180770000Y-39750000D02*
X180770000Y-40160000D01*
X181490000Y-42260000D02*
X181490000Y-42700000D01*
X181490000Y-39750000D02*
X181490000Y-40160000D01*
X183310000Y-42260000D02*
X183310000Y-42700000D01*
X183310000Y-39750000D02*
X183310000Y-40160000D01*
X184030000Y-42260000D02*
X184030000Y-42700000D01*
X184030000Y-39750000D02*
X184030000Y-40160000D01*
X185850000Y-42260000D02*
X185850000Y-42640000D01*
X185850000Y-39750000D02*
X185850000Y-40160000D01*
X186570000Y-42260000D02*
X186570000Y-42640000D01*
X186570000Y-39750000D02*
X186570000Y-40160000D01*
X185058100Y-31120000D02*
X185058100Y-39750000D01*
X185176195Y-31120000D02*
X185176195Y-39750000D01*
X185294290Y-31120000D02*
X185294290Y-39750000D01*
X185412385Y-31120000D02*
X185412385Y-39750000D01*
X185530480Y-31120000D02*
X185530480Y-39750000D01*
X185648575Y-31120000D02*
X185648575Y-39750000D01*
X185766670Y-31120000D02*
X185766670Y-39750000D01*
X185884765Y-31120000D02*
X185884765Y-39750000D01*
X186002860Y-31120000D02*
X186002860Y-39750000D01*
X186120955Y-31120000D02*
X186120955Y-39750000D01*
X186239050Y-31120000D02*
X186239050Y-39750000D01*
X186357145Y-31120000D02*
X186357145Y-39750000D01*
X186475240Y-31120000D02*
X186475240Y-39750000D01*
X186593335Y-31120000D02*
X186593335Y-39750000D01*
X186711430Y-31120000D02*
X186711430Y-39750000D01*
X186829525Y-31120000D02*
X186829525Y-39750000D01*
X186947620Y-31120000D02*
X186947620Y-39750000D01*
X187065715Y-31120000D02*
X187065715Y-39750000D01*
X187183810Y-31120000D02*
X187183810Y-39750000D01*
X187301905Y-31120000D02*
X187301905Y-39750000D01*
X187420000Y-31120000D02*
X187420000Y-39750000D01*
D14*
%TO.C,U12*%
X142670000Y-56250000D02*
G75*
G03*
X142670000Y-56250000I-100000J0D01*
G01*
D13*
X142455000Y-54010000D02*
X142455000Y-49610000D01*
X150655000Y-54010000D02*
X150655000Y-49610000D01*
D12*
%TO.C,R2*%
X127724564Y-40910000D02*
X126270436Y-40910000D01*
X127724564Y-39090000D02*
X126270436Y-39090000D01*
%TO.C,J3*%
X156430000Y-35970000D02*
X156430000Y-38970000D01*
X156430000Y-41070000D02*
X153230000Y-41070000D01*
X156430000Y-33470000D02*
X156430000Y-32470000D01*
X140030000Y-32470000D02*
X140030000Y-33470000D01*
X140030000Y-41070000D02*
X140030000Y-40470000D01*
X140030000Y-41070000D02*
X142730000Y-41070000D01*
X142730000Y-41070000D02*
X142730000Y-41720000D01*
X156430000Y-41070000D02*
X156430000Y-40470000D01*
X140030000Y-35970000D02*
X140030000Y-38970000D01*
%TO.C,C20*%
X127771252Y-36735000D02*
X127248748Y-36735000D01*
X127771252Y-35265000D02*
X127248748Y-35265000D01*
%TO.C,C16*%
X140316252Y-49290000D02*
X138893748Y-49290000D01*
X140316252Y-47470000D02*
X138893748Y-47470000D01*
D14*
%TO.C,U11*%
X167750000Y-84925000D02*
G75*
G03*
X167750000Y-84925000I-100000J0D01*
G01*
D13*
X165660000Y-85450000D02*
X161260000Y-85450000D01*
X165660000Y-78550000D02*
X161260000Y-78550000D01*
D14*
%TO.C,U10*%
X101635000Y-134190000D02*
G75*
G03*
X101635000Y-134190000I-100000J0D01*
G01*
D13*
X101010000Y-132200000D02*
X101010000Y-127800000D01*
X107910000Y-132200000D02*
X107910000Y-127800000D01*
D14*
%TO.C,U9*%
X112635000Y-134190000D02*
G75*
G03*
X112635000Y-134190000I-100000J0D01*
G01*
D13*
X112010000Y-132200000D02*
X112010000Y-127800000D01*
X118910000Y-132200000D02*
X118910000Y-127800000D01*
D14*
%TO.C,U8*%
X123635000Y-134190000D02*
G75*
G03*
X123635000Y-134190000I-100000J0D01*
G01*
D13*
X123010000Y-132200000D02*
X123010000Y-127800000D01*
X129910000Y-132200000D02*
X129910000Y-127800000D01*
D14*
%TO.C,U7*%
X134635000Y-134190000D02*
G75*
G03*
X134635000Y-134190000I-100000J0D01*
G01*
D13*
X134010000Y-132200000D02*
X134010000Y-127800000D01*
X140910000Y-132200000D02*
X140910000Y-127800000D01*
D14*
%TO.C,U6*%
X145635000Y-134190000D02*
G75*
G03*
X145635000Y-134190000I-100000J0D01*
G01*
D13*
X145010000Y-132200000D02*
X145010000Y-127800000D01*
X151910000Y-132200000D02*
X151910000Y-127800000D01*
D14*
%TO.C,U5*%
X178635000Y-134190000D02*
G75*
G03*
X178635000Y-134190000I-100000J0D01*
G01*
D13*
X178010000Y-132200000D02*
X178010000Y-127800000D01*
X184910000Y-132200000D02*
X184910000Y-127800000D01*
D14*
%TO.C,U4*%
X189635000Y-134190000D02*
G75*
G03*
X189635000Y-134190000I-100000J0D01*
G01*
D13*
X189010000Y-132200000D02*
X189010000Y-127800000D01*
X195910000Y-132200000D02*
X195910000Y-127800000D01*
D14*
%TO.C,U3*%
X200635000Y-134190000D02*
G75*
G03*
X200635000Y-134190000I-100000J0D01*
G01*
D13*
X200010000Y-132200000D02*
X200010000Y-127800000D01*
X206910000Y-132200000D02*
X206910000Y-127800000D01*
D14*
%TO.C,U2*%
X167635000Y-134190000D02*
G75*
G03*
X167635000Y-134190000I-100000J0D01*
G01*
D13*
X167010000Y-132200000D02*
X167010000Y-127800000D01*
X173910000Y-132200000D02*
X173910000Y-127800000D01*
D14*
%TO.C,U1*%
X156635000Y-134190000D02*
G75*
G03*
X156635000Y-134190000I-100000J0D01*
G01*
D13*
X156010000Y-132200000D02*
X156010000Y-127800000D01*
X162910000Y-132200000D02*
X162910000Y-127800000D01*
D12*
%TO.C,R1*%
X114937500Y-43237258D02*
X114937500Y-42762742D01*
X115982500Y-43237258D02*
X115982500Y-42762742D01*
%TO.C,J1*%
X202910000Y-33860000D02*
X203910000Y-33860000D01*
X202910000Y-34860000D02*
X202910000Y-33860000D01*
X204792114Y-47170000D02*
X205027886Y-47170000D01*
X204792114Y-46550000D02*
X205027886Y-46550000D01*
X206792114Y-47170000D02*
X207350000Y-47170000D01*
X206792114Y-46550000D02*
X207350000Y-46550000D01*
X213170000Y-47170000D02*
X208970000Y-47170000D01*
X213170000Y-46550000D02*
X213170000Y-47170000D01*
X208970000Y-46550000D02*
X213170000Y-46550000D01*
X207350000Y-45860000D02*
X208970000Y-45860000D01*
X204792114Y-45170000D02*
X205027886Y-45170000D01*
X204792114Y-44550000D02*
X205027886Y-44550000D01*
X206792114Y-45170000D02*
X207350000Y-45170000D01*
X206792114Y-44550000D02*
X207350000Y-44550000D01*
X213170000Y-45170000D02*
X208970000Y-45170000D01*
X213170000Y-44550000D02*
X213170000Y-45170000D01*
X208970000Y-44550000D02*
X213170000Y-44550000D01*
X207350000Y-43860000D02*
X208970000Y-43860000D01*
X204792114Y-43170000D02*
X205027886Y-43170000D01*
X204792114Y-42550000D02*
X205027886Y-42550000D01*
X206792114Y-43170000D02*
X207350000Y-43170000D01*
X206792114Y-42550000D02*
X207350000Y-42550000D01*
X213170000Y-43170000D02*
X208970000Y-43170000D01*
X213170000Y-42550000D02*
X213170000Y-43170000D01*
X208970000Y-42550000D02*
X213170000Y-42550000D01*
X207350000Y-41860000D02*
X208970000Y-41860000D01*
X204792114Y-41170000D02*
X205027886Y-41170000D01*
X204792114Y-40550000D02*
X205027886Y-40550000D01*
X206792114Y-41170000D02*
X207350000Y-41170000D01*
X206792114Y-40550000D02*
X207350000Y-40550000D01*
X213170000Y-41170000D02*
X208970000Y-41170000D01*
X213170000Y-40550000D02*
X213170000Y-41170000D01*
X208970000Y-40550000D02*
X213170000Y-40550000D01*
X207350000Y-39860000D02*
X208970000Y-39860000D01*
X204792114Y-39170000D02*
X205027886Y-39170000D01*
X204792114Y-38550000D02*
X205027886Y-38550000D01*
X206792114Y-39170000D02*
X207350000Y-39170000D01*
X206792114Y-38550000D02*
X207350000Y-38550000D01*
X213170000Y-39170000D02*
X208970000Y-39170000D01*
X213170000Y-38550000D02*
X213170000Y-39170000D01*
X208970000Y-38550000D02*
X213170000Y-38550000D01*
X207350000Y-37860000D02*
X208970000Y-37860000D01*
X204792114Y-37170000D02*
X205027886Y-37170000D01*
X204792114Y-36550000D02*
X205027886Y-36550000D01*
X206792114Y-37170000D02*
X207350000Y-37170000D01*
X206792114Y-36550000D02*
X207350000Y-36550000D01*
X213170000Y-37170000D02*
X208970000Y-37170000D01*
X213170000Y-36550000D02*
X213170000Y-37170000D01*
X208970000Y-36550000D02*
X213170000Y-36550000D01*
X207350000Y-35860000D02*
X208970000Y-35860000D01*
X204845000Y-35170000D02*
X205027886Y-35170000D01*
X204845000Y-34550000D02*
X205027886Y-34550000D01*
X206792114Y-35170000D02*
X207350000Y-35170000D01*
X206792114Y-34550000D02*
X207350000Y-34550000D01*
X208970000Y-35090000D02*
X213170000Y-35090000D01*
X208970000Y-34970000D02*
X213170000Y-34970000D01*
X208970000Y-34850000D02*
X213170000Y-34850000D01*
X208970000Y-34730000D02*
X213170000Y-34730000D01*
X208970000Y-34610000D02*
X213170000Y-34610000D01*
X213170000Y-35170000D02*
X208970000Y-35170000D01*
X213170000Y-34550000D02*
X213170000Y-35170000D01*
X208970000Y-34550000D02*
X213170000Y-34550000D01*
X208970000Y-33800000D02*
X207350000Y-33800000D01*
X208970000Y-47920000D02*
X208970000Y-33800000D01*
X207350000Y-47920000D02*
X208970000Y-47920000D01*
X207350000Y-33800000D02*
X207350000Y-47920000D01*
%TO.C,D1*%
X116195000Y-39800000D02*
X116195000Y-37515000D01*
X116195000Y-37515000D02*
X114725000Y-37515000D01*
X114725000Y-37515000D02*
X114725000Y-39800000D01*
%TO.C,C3*%
X116003748Y-87340000D02*
X117426252Y-87340000D01*
X116003748Y-89160000D02*
X117426252Y-89160000D01*
%TO.C,JCD1*%
X195310000Y-64580000D02*
X195310000Y-59380000D01*
X116510000Y-64580000D02*
X195310000Y-64580000D01*
X113910000Y-59380000D02*
X195310000Y-59380000D01*
X116510000Y-64580000D02*
X116510000Y-61980000D01*
X116510000Y-61980000D02*
X113910000Y-61980000D01*
X113910000Y-61980000D02*
X113910000Y-59380000D01*
X115240000Y-64580000D02*
X113910000Y-64580000D01*
X113910000Y-64580000D02*
X113910000Y-63250000D01*
%TO.C,JAB1*%
X195310000Y-96330000D02*
X195310000Y-91130000D01*
X116510000Y-96330000D02*
X195310000Y-96330000D01*
X113910000Y-91130000D02*
X195310000Y-91130000D01*
X116510000Y-96330000D02*
X116510000Y-93730000D01*
X116510000Y-93730000D02*
X113910000Y-93730000D01*
X113910000Y-93730000D02*
X113910000Y-91130000D01*
X115240000Y-96330000D02*
X113910000Y-96330000D01*
X113910000Y-96330000D02*
X113910000Y-95000000D01*
D11*
%TO.C,J2*%
X211760000Y-147480000D02*
X211760000Y-147480000D01*
X205640000Y-147480000D02*
X211760000Y-147480000D01*
X205640000Y-147480000D02*
X205640000Y-147480000D01*
X211760000Y-147480000D02*
X205640000Y-147480000D01*
X211760000Y-147480000D02*
X211760000Y-160100000D01*
X211760000Y-147480000D02*
X211760000Y-147480000D01*
X211760000Y-160100000D02*
X211760000Y-147480000D01*
X211760000Y-160100000D02*
X211760000Y-160100000D01*
X97460000Y-160100000D02*
X97460000Y-160100000D01*
X211760000Y-160100000D02*
X97460000Y-160100000D01*
X211760000Y-160100000D02*
X211760000Y-160100000D01*
X97460000Y-160100000D02*
X211760000Y-160100000D01*
X97460000Y-160100000D02*
X97460000Y-147480000D01*
X97460000Y-160100000D02*
X97460000Y-160100000D01*
X97460000Y-147480000D02*
X97460000Y-160100000D01*
X97460000Y-147480000D02*
X97460000Y-147480000D01*
X103640000Y-147480000D02*
X103640000Y-147480000D01*
X97460000Y-147480000D02*
X103640000Y-147480000D01*
X97460000Y-147480000D02*
X97460000Y-147480000D01*
X103640000Y-147480000D02*
X97460000Y-147480000D01*
%TO.C,IC4*%
D15*
X149574523Y-113239761D02*
X148304523Y-113239761D01*
X149453571Y-111909285D02*
X149514047Y-111969761D01*
X149574523Y-112151190D01*
X149574523Y-112272142D01*
X149514047Y-112453571D01*
X149393095Y-112574523D01*
X149272142Y-112635000D01*
X149030238Y-112695476D01*
X148848809Y-112695476D01*
X148606904Y-112635000D01*
X148485952Y-112574523D01*
X148365000Y-112453571D01*
X148304523Y-112272142D01*
X148304523Y-112151190D01*
X148365000Y-111969761D01*
X148425476Y-111909285D01*
X148727857Y-110820714D02*
X149574523Y-110820714D01*
X148244047Y-111123095D02*
X149151190Y-111425476D01*
X149151190Y-110639285D01*
%TO.C,IC3*%
X162574523Y-113239761D02*
X161304523Y-113239761D01*
X162453571Y-111909285D02*
X162514047Y-111969761D01*
X162574523Y-112151190D01*
X162574523Y-112272142D01*
X162514047Y-112453571D01*
X162393095Y-112574523D01*
X162272142Y-112635000D01*
X162030238Y-112695476D01*
X161848809Y-112695476D01*
X161606904Y-112635000D01*
X161485952Y-112574523D01*
X161365000Y-112453571D01*
X161304523Y-112272142D01*
X161304523Y-112151190D01*
X161365000Y-111969761D01*
X161425476Y-111909285D01*
X161304523Y-111485952D02*
X161304523Y-110699761D01*
X161788333Y-111123095D01*
X161788333Y-110941666D01*
X161848809Y-110820714D01*
X161909285Y-110760238D01*
X162030238Y-110699761D01*
X162332619Y-110699761D01*
X162453571Y-110760238D01*
X162514047Y-110820714D01*
X162574523Y-110941666D01*
X162574523Y-111304523D01*
X162514047Y-111425476D01*
X162453571Y-111485952D01*
%TO.C,IC2*%
X175574523Y-113239761D02*
X174304523Y-113239761D01*
X175453571Y-111909285D02*
X175514047Y-111969761D01*
X175574523Y-112151190D01*
X175574523Y-112272142D01*
X175514047Y-112453571D01*
X175393095Y-112574523D01*
X175272142Y-112635000D01*
X175030238Y-112695476D01*
X174848809Y-112695476D01*
X174606904Y-112635000D01*
X174485952Y-112574523D01*
X174365000Y-112453571D01*
X174304523Y-112272142D01*
X174304523Y-112151190D01*
X174365000Y-111969761D01*
X174425476Y-111909285D01*
X174425476Y-111425476D02*
X174365000Y-111365000D01*
X174304523Y-111244047D01*
X174304523Y-110941666D01*
X174365000Y-110820714D01*
X174425476Y-110760238D01*
X174546428Y-110699761D01*
X174667380Y-110699761D01*
X174848809Y-110760238D01*
X175574523Y-111485952D01*
X175574523Y-110699761D01*
%TO.C,IC1*%
X188574523Y-113239761D02*
X187304523Y-113239761D01*
X188453571Y-111909285D02*
X188514047Y-111969761D01*
X188574523Y-112151190D01*
X188574523Y-112272142D01*
X188514047Y-112453571D01*
X188393095Y-112574523D01*
X188272142Y-112635000D01*
X188030238Y-112695476D01*
X187848809Y-112695476D01*
X187606904Y-112635000D01*
X187485952Y-112574523D01*
X187365000Y-112453571D01*
X187304523Y-112272142D01*
X187304523Y-112151190D01*
X187365000Y-111969761D01*
X187425476Y-111909285D01*
X188574523Y-110699761D02*
X188574523Y-111425476D01*
X188574523Y-111062619D02*
X187304523Y-111062619D01*
X187485952Y-111183571D01*
X187606904Y-111304523D01*
X187667380Y-111425476D01*
%TO.C,C31*%
D10*
X101517142Y-120642857D02*
X101564761Y-120690476D01*
X101612380Y-120833333D01*
X101612380Y-120928571D01*
X101564761Y-121071428D01*
X101469523Y-121166666D01*
X101374285Y-121214285D01*
X101183809Y-121261904D01*
X101040952Y-121261904D01*
X100850476Y-121214285D01*
X100755238Y-121166666D01*
X100660000Y-121071428D01*
X100612380Y-120928571D01*
X100612380Y-120833333D01*
X100660000Y-120690476D01*
X100707619Y-120642857D01*
X100612380Y-120309523D02*
X100612380Y-119690476D01*
X100993333Y-120023809D01*
X100993333Y-119880952D01*
X101040952Y-119785714D01*
X101088571Y-119738095D01*
X101183809Y-119690476D01*
X101421904Y-119690476D01*
X101517142Y-119738095D01*
X101564761Y-119785714D01*
X101612380Y-119880952D01*
X101612380Y-120166666D01*
X101564761Y-120261904D01*
X101517142Y-120309523D01*
X101612380Y-118738095D02*
X101612380Y-119309523D01*
X101612380Y-119023809D02*
X100612380Y-119023809D01*
X100755238Y-119119047D01*
X100850476Y-119214285D01*
X100898095Y-119309523D01*
%TO.C,C30*%
X197517142Y-100642857D02*
X197564761Y-100690476D01*
X197612380Y-100833333D01*
X197612380Y-100928571D01*
X197564761Y-101071428D01*
X197469523Y-101166666D01*
X197374285Y-101214285D01*
X197183809Y-101261904D01*
X197040952Y-101261904D01*
X196850476Y-101214285D01*
X196755238Y-101166666D01*
X196660000Y-101071428D01*
X196612380Y-100928571D01*
X196612380Y-100833333D01*
X196660000Y-100690476D01*
X196707619Y-100642857D01*
X196612380Y-100309523D02*
X196612380Y-99690476D01*
X196993333Y-100023809D01*
X196993333Y-99880952D01*
X197040952Y-99785714D01*
X197088571Y-99738095D01*
X197183809Y-99690476D01*
X197421904Y-99690476D01*
X197517142Y-99738095D01*
X197564761Y-99785714D01*
X197612380Y-99880952D01*
X197612380Y-100166666D01*
X197564761Y-100261904D01*
X197517142Y-100309523D01*
X196612380Y-99071428D02*
X196612380Y-98976190D01*
X196660000Y-98880952D01*
X196707619Y-98833333D01*
X196802857Y-98785714D01*
X196993333Y-98738095D01*
X197231428Y-98738095D01*
X197421904Y-98785714D01*
X197517142Y-98833333D01*
X197564761Y-98880952D01*
X197612380Y-98976190D01*
X197612380Y-99071428D01*
X197564761Y-99166666D01*
X197517142Y-99214285D01*
X197421904Y-99261904D01*
X197231428Y-99309523D01*
X196993333Y-99309523D01*
X196802857Y-99261904D01*
X196707619Y-99214285D01*
X196660000Y-99166666D01*
X196612380Y-99071428D01*
%TO.C,C29*%
X157397142Y-100642857D02*
X157444761Y-100690476D01*
X157492380Y-100833333D01*
X157492380Y-100928571D01*
X157444761Y-101071428D01*
X157349523Y-101166666D01*
X157254285Y-101214285D01*
X157063809Y-101261904D01*
X156920952Y-101261904D01*
X156730476Y-101214285D01*
X156635238Y-101166666D01*
X156540000Y-101071428D01*
X156492380Y-100928571D01*
X156492380Y-100833333D01*
X156540000Y-100690476D01*
X156587619Y-100642857D01*
X156587619Y-100261904D02*
X156540000Y-100214285D01*
X156492380Y-100119047D01*
X156492380Y-99880952D01*
X156540000Y-99785714D01*
X156587619Y-99738095D01*
X156682857Y-99690476D01*
X156778095Y-99690476D01*
X156920952Y-99738095D01*
X157492380Y-100309523D01*
X157492380Y-99690476D01*
X157492380Y-99214285D02*
X157492380Y-99023809D01*
X157444761Y-98928571D01*
X157397142Y-98880952D01*
X157254285Y-98785714D01*
X157063809Y-98738095D01*
X156682857Y-98738095D01*
X156587619Y-98785714D01*
X156540000Y-98833333D01*
X156492380Y-98928571D01*
X156492380Y-99119047D01*
X156540000Y-99214285D01*
X156587619Y-99261904D01*
X156682857Y-99309523D01*
X156920952Y-99309523D01*
X157016190Y-99261904D01*
X157063809Y-99214285D01*
X157111428Y-99119047D01*
X157111428Y-98928571D01*
X157063809Y-98833333D01*
X157016190Y-98785714D01*
X156920952Y-98738095D01*
%TO.C,R18*%
X150357142Y-101762380D02*
X150023809Y-101286190D01*
X149785714Y-101762380D02*
X149785714Y-100762380D01*
X150166666Y-100762380D01*
X150261904Y-100810000D01*
X150309523Y-100857619D01*
X150357142Y-100952857D01*
X150357142Y-101095714D01*
X150309523Y-101190952D01*
X150261904Y-101238571D01*
X150166666Y-101286190D01*
X149785714Y-101286190D01*
X151309523Y-101762380D02*
X150738095Y-101762380D01*
X151023809Y-101762380D02*
X151023809Y-100762380D01*
X150928571Y-100905238D01*
X150833333Y-101000476D01*
X150738095Y-101048095D01*
X151880952Y-101190952D02*
X151785714Y-101143333D01*
X151738095Y-101095714D01*
X151690476Y-101000476D01*
X151690476Y-100952857D01*
X151738095Y-100857619D01*
X151785714Y-100810000D01*
X151880952Y-100762380D01*
X152071428Y-100762380D01*
X152166666Y-100810000D01*
X152214285Y-100857619D01*
X152261904Y-100952857D01*
X152261904Y-101000476D01*
X152214285Y-101095714D01*
X152166666Y-101143333D01*
X152071428Y-101190952D01*
X151880952Y-101190952D01*
X151785714Y-101238571D01*
X151738095Y-101286190D01*
X151690476Y-101381428D01*
X151690476Y-101571904D01*
X151738095Y-101667142D01*
X151785714Y-101714761D01*
X151880952Y-101762380D01*
X152071428Y-101762380D01*
X152166666Y-101714761D01*
X152214285Y-101667142D01*
X152261904Y-101571904D01*
X152261904Y-101381428D01*
X152214285Y-101286190D01*
X152166666Y-101238571D01*
X152071428Y-101190952D01*
%TO.C,R17*%
X165837142Y-102952380D02*
X165503809Y-102476190D01*
X165265714Y-102952380D02*
X165265714Y-101952380D01*
X165646666Y-101952380D01*
X165741904Y-102000000D01*
X165789523Y-102047619D01*
X165837142Y-102142857D01*
X165837142Y-102285714D01*
X165789523Y-102380952D01*
X165741904Y-102428571D01*
X165646666Y-102476190D01*
X165265714Y-102476190D01*
X166789523Y-102952380D02*
X166218095Y-102952380D01*
X166503809Y-102952380D02*
X166503809Y-101952380D01*
X166408571Y-102095238D01*
X166313333Y-102190476D01*
X166218095Y-102238095D01*
X167122857Y-101952380D02*
X167789523Y-101952380D01*
X167360952Y-102952380D01*
%TO.C,R16*%
X176357142Y-101762380D02*
X176023809Y-101286190D01*
X175785714Y-101762380D02*
X175785714Y-100762380D01*
X176166666Y-100762380D01*
X176261904Y-100810000D01*
X176309523Y-100857619D01*
X176357142Y-100952857D01*
X176357142Y-101095714D01*
X176309523Y-101190952D01*
X176261904Y-101238571D01*
X176166666Y-101286190D01*
X175785714Y-101286190D01*
X177309523Y-101762380D02*
X176738095Y-101762380D01*
X177023809Y-101762380D02*
X177023809Y-100762380D01*
X176928571Y-100905238D01*
X176833333Y-101000476D01*
X176738095Y-101048095D01*
X178166666Y-100762380D02*
X177976190Y-100762380D01*
X177880952Y-100810000D01*
X177833333Y-100857619D01*
X177738095Y-101000476D01*
X177690476Y-101190952D01*
X177690476Y-101571904D01*
X177738095Y-101667142D01*
X177785714Y-101714761D01*
X177880952Y-101762380D01*
X178071428Y-101762380D01*
X178166666Y-101714761D01*
X178214285Y-101667142D01*
X178261904Y-101571904D01*
X178261904Y-101333809D01*
X178214285Y-101238571D01*
X178166666Y-101190952D01*
X178071428Y-101143333D01*
X177880952Y-101143333D01*
X177785714Y-101190952D01*
X177738095Y-101238571D01*
X177690476Y-101333809D01*
%TO.C,R13*%
X189357142Y-101762380D02*
X189023809Y-101286190D01*
X188785714Y-101762380D02*
X188785714Y-100762380D01*
X189166666Y-100762380D01*
X189261904Y-100810000D01*
X189309523Y-100857619D01*
X189357142Y-100952857D01*
X189357142Y-101095714D01*
X189309523Y-101190952D01*
X189261904Y-101238571D01*
X189166666Y-101286190D01*
X188785714Y-101286190D01*
X190309523Y-101762380D02*
X189738095Y-101762380D01*
X190023809Y-101762380D02*
X190023809Y-100762380D01*
X189928571Y-100905238D01*
X189833333Y-101000476D01*
X189738095Y-101048095D01*
X190642857Y-100762380D02*
X191261904Y-100762380D01*
X190928571Y-101143333D01*
X191071428Y-101143333D01*
X191166666Y-101190952D01*
X191214285Y-101238571D01*
X191261904Y-101333809D01*
X191261904Y-101571904D01*
X191214285Y-101667142D01*
X191166666Y-101714761D01*
X191071428Y-101762380D01*
X190785714Y-101762380D01*
X190690476Y-101714761D01*
X190642857Y-101667142D01*
%TO.C,C15*%
X141482142Y-47397142D02*
X141434523Y-47444761D01*
X141291666Y-47492380D01*
X141196428Y-47492380D01*
X141053571Y-47444761D01*
X140958333Y-47349523D01*
X140910714Y-47254285D01*
X140863095Y-47063809D01*
X140863095Y-46920952D01*
X140910714Y-46730476D01*
X140958333Y-46635238D01*
X141053571Y-46540000D01*
X141196428Y-46492380D01*
X141291666Y-46492380D01*
X141434523Y-46540000D01*
X141482142Y-46587619D01*
X142434523Y-47492380D02*
X141863095Y-47492380D01*
X142148809Y-47492380D02*
X142148809Y-46492380D01*
X142053571Y-46635238D01*
X141958333Y-46730476D01*
X141863095Y-46778095D01*
X143339285Y-46492380D02*
X142863095Y-46492380D01*
X142815476Y-46968571D01*
X142863095Y-46920952D01*
X142958333Y-46873333D01*
X143196428Y-46873333D01*
X143291666Y-46920952D01*
X143339285Y-46968571D01*
X143386904Y-47063809D01*
X143386904Y-47301904D01*
X143339285Y-47397142D01*
X143291666Y-47444761D01*
X143196428Y-47492380D01*
X142958333Y-47492380D01*
X142863095Y-47444761D01*
X142815476Y-47397142D01*
%TO.C,R15*%
X197752380Y-38842857D02*
X197276190Y-39176190D01*
X197752380Y-39414285D02*
X196752380Y-39414285D01*
X196752380Y-39033333D01*
X196800000Y-38938095D01*
X196847619Y-38890476D01*
X196942857Y-38842857D01*
X197085714Y-38842857D01*
X197180952Y-38890476D01*
X197228571Y-38938095D01*
X197276190Y-39033333D01*
X197276190Y-39414285D01*
X197752380Y-37890476D02*
X197752380Y-38461904D01*
X197752380Y-38176190D02*
X196752380Y-38176190D01*
X196895238Y-38271428D01*
X196990476Y-38366666D01*
X197038095Y-38461904D01*
X196752380Y-36985714D02*
X196752380Y-37461904D01*
X197228571Y-37509523D01*
X197180952Y-37461904D01*
X197133333Y-37366666D01*
X197133333Y-37128571D01*
X197180952Y-37033333D01*
X197228571Y-36985714D01*
X197323809Y-36938095D01*
X197561904Y-36938095D01*
X197657142Y-36985714D01*
X197704761Y-37033333D01*
X197752380Y-37128571D01*
X197752380Y-37366666D01*
X197704761Y-37461904D01*
X197657142Y-37509523D01*
%TO.C,R14*%
X193282380Y-38827857D02*
X192806190Y-39161190D01*
X193282380Y-39399285D02*
X192282380Y-39399285D01*
X192282380Y-39018333D01*
X192330000Y-38923095D01*
X192377619Y-38875476D01*
X192472857Y-38827857D01*
X192615714Y-38827857D01*
X192710952Y-38875476D01*
X192758571Y-38923095D01*
X192806190Y-39018333D01*
X192806190Y-39399285D01*
X193282380Y-37875476D02*
X193282380Y-38446904D01*
X193282380Y-38161190D02*
X192282380Y-38161190D01*
X192425238Y-38256428D01*
X192520476Y-38351666D01*
X192568095Y-38446904D01*
X192615714Y-37018333D02*
X193282380Y-37018333D01*
X192234761Y-37256428D02*
X192949047Y-37494523D01*
X192949047Y-36875476D01*
%TO.C,R11*%
X186892380Y-126892857D02*
X186416190Y-127226190D01*
X186892380Y-127464285D02*
X185892380Y-127464285D01*
X185892380Y-127083333D01*
X185940000Y-126988095D01*
X185987619Y-126940476D01*
X186082857Y-126892857D01*
X186225714Y-126892857D01*
X186320952Y-126940476D01*
X186368571Y-126988095D01*
X186416190Y-127083333D01*
X186416190Y-127464285D01*
X186892380Y-125940476D02*
X186892380Y-126511904D01*
X186892380Y-126226190D02*
X185892380Y-126226190D01*
X186035238Y-126321428D01*
X186130476Y-126416666D01*
X186178095Y-126511904D01*
X186892380Y-124988095D02*
X186892380Y-125559523D01*
X186892380Y-125273809D02*
X185892380Y-125273809D01*
X186035238Y-125369047D01*
X186130476Y-125464285D01*
X186178095Y-125559523D01*
%TO.C,R12*%
X166607142Y-101732380D02*
X166273809Y-101256190D01*
X166035714Y-101732380D02*
X166035714Y-100732380D01*
X166416666Y-100732380D01*
X166511904Y-100780000D01*
X166559523Y-100827619D01*
X166607142Y-100922857D01*
X166607142Y-101065714D01*
X166559523Y-101160952D01*
X166511904Y-101208571D01*
X166416666Y-101256190D01*
X166035714Y-101256190D01*
X167559523Y-101732380D02*
X166988095Y-101732380D01*
X167273809Y-101732380D02*
X167273809Y-100732380D01*
X167178571Y-100875238D01*
X167083333Y-100970476D01*
X166988095Y-101018095D01*
X167940476Y-100827619D02*
X167988095Y-100780000D01*
X168083333Y-100732380D01*
X168321428Y-100732380D01*
X168416666Y-100780000D01*
X168464285Y-100827619D01*
X168511904Y-100922857D01*
X168511904Y-101018095D01*
X168464285Y-101160952D01*
X167892857Y-101732380D01*
X168511904Y-101732380D01*
%TO.C,C24*%
X141467142Y-43617142D02*
X141419523Y-43664761D01*
X141276666Y-43712380D01*
X141181428Y-43712380D01*
X141038571Y-43664761D01*
X140943333Y-43569523D01*
X140895714Y-43474285D01*
X140848095Y-43283809D01*
X140848095Y-43140952D01*
X140895714Y-42950476D01*
X140943333Y-42855238D01*
X141038571Y-42760000D01*
X141181428Y-42712380D01*
X141276666Y-42712380D01*
X141419523Y-42760000D01*
X141467142Y-42807619D01*
X141848095Y-42807619D02*
X141895714Y-42760000D01*
X141990952Y-42712380D01*
X142229047Y-42712380D01*
X142324285Y-42760000D01*
X142371904Y-42807619D01*
X142419523Y-42902857D01*
X142419523Y-42998095D01*
X142371904Y-43140952D01*
X141800476Y-43712380D01*
X142419523Y-43712380D01*
X143276666Y-43045714D02*
X143276666Y-43712380D01*
X143038571Y-42664761D02*
X142800476Y-43379047D01*
X143419523Y-43379047D01*
%TO.C,C23*%
X186807142Y-134642857D02*
X186854761Y-134690476D01*
X186902380Y-134833333D01*
X186902380Y-134928571D01*
X186854761Y-135071428D01*
X186759523Y-135166666D01*
X186664285Y-135214285D01*
X186473809Y-135261904D01*
X186330952Y-135261904D01*
X186140476Y-135214285D01*
X186045238Y-135166666D01*
X185950000Y-135071428D01*
X185902380Y-134928571D01*
X185902380Y-134833333D01*
X185950000Y-134690476D01*
X185997619Y-134642857D01*
X185997619Y-134261904D02*
X185950000Y-134214285D01*
X185902380Y-134119047D01*
X185902380Y-133880952D01*
X185950000Y-133785714D01*
X185997619Y-133738095D01*
X186092857Y-133690476D01*
X186188095Y-133690476D01*
X186330952Y-133738095D01*
X186902380Y-134309523D01*
X186902380Y-133690476D01*
X185902380Y-133357142D02*
X185902380Y-132738095D01*
X186283333Y-133071428D01*
X186283333Y-132928571D01*
X186330952Y-132833333D01*
X186378571Y-132785714D01*
X186473809Y-132738095D01*
X186711904Y-132738095D01*
X186807142Y-132785714D01*
X186854761Y-132833333D01*
X186902380Y-132928571D01*
X186902380Y-133214285D01*
X186854761Y-133309523D01*
X186807142Y-133357142D01*
%TO.C,C22*%
X154357142Y-70897142D02*
X154309523Y-70944761D01*
X154166666Y-70992380D01*
X154071428Y-70992380D01*
X153928571Y-70944761D01*
X153833333Y-70849523D01*
X153785714Y-70754285D01*
X153738095Y-70563809D01*
X153738095Y-70420952D01*
X153785714Y-70230476D01*
X153833333Y-70135238D01*
X153928571Y-70040000D01*
X154071428Y-69992380D01*
X154166666Y-69992380D01*
X154309523Y-70040000D01*
X154357142Y-70087619D01*
X154738095Y-70087619D02*
X154785714Y-70040000D01*
X154880952Y-69992380D01*
X155119047Y-69992380D01*
X155214285Y-70040000D01*
X155261904Y-70087619D01*
X155309523Y-70182857D01*
X155309523Y-70278095D01*
X155261904Y-70420952D01*
X154690476Y-70992380D01*
X155309523Y-70992380D01*
X155690476Y-70087619D02*
X155738095Y-70040000D01*
X155833333Y-69992380D01*
X156071428Y-69992380D01*
X156166666Y-70040000D01*
X156214285Y-70087619D01*
X156261904Y-70182857D01*
X156261904Y-70278095D01*
X156214285Y-70420952D01*
X155642857Y-70992380D01*
X156261904Y-70992380D01*
%TO.C,C21*%
X173347142Y-46697142D02*
X173299523Y-46744761D01*
X173156666Y-46792380D01*
X173061428Y-46792380D01*
X172918571Y-46744761D01*
X172823333Y-46649523D01*
X172775714Y-46554285D01*
X172728095Y-46363809D01*
X172728095Y-46220952D01*
X172775714Y-46030476D01*
X172823333Y-45935238D01*
X172918571Y-45840000D01*
X173061428Y-45792380D01*
X173156666Y-45792380D01*
X173299523Y-45840000D01*
X173347142Y-45887619D01*
X173728095Y-45887619D02*
X173775714Y-45840000D01*
X173870952Y-45792380D01*
X174109047Y-45792380D01*
X174204285Y-45840000D01*
X174251904Y-45887619D01*
X174299523Y-45982857D01*
X174299523Y-46078095D01*
X174251904Y-46220952D01*
X173680476Y-46792380D01*
X174299523Y-46792380D01*
X175251904Y-46792380D02*
X174680476Y-46792380D01*
X174966190Y-46792380D02*
X174966190Y-45792380D01*
X174870952Y-45935238D01*
X174775714Y-46030476D01*
X174680476Y-46078095D01*
%TO.C,C19*%
X151617142Y-42577142D02*
X151569523Y-42624761D01*
X151426666Y-42672380D01*
X151331428Y-42672380D01*
X151188571Y-42624761D01*
X151093333Y-42529523D01*
X151045714Y-42434285D01*
X150998095Y-42243809D01*
X150998095Y-42100952D01*
X151045714Y-41910476D01*
X151093333Y-41815238D01*
X151188571Y-41720000D01*
X151331428Y-41672380D01*
X151426666Y-41672380D01*
X151569523Y-41720000D01*
X151617142Y-41767619D01*
X152569523Y-42672380D02*
X151998095Y-42672380D01*
X152283809Y-42672380D02*
X152283809Y-41672380D01*
X152188571Y-41815238D01*
X152093333Y-41910476D01*
X151998095Y-41958095D01*
X153045714Y-42672380D02*
X153236190Y-42672380D01*
X153331428Y-42624761D01*
X153379047Y-42577142D01*
X153474285Y-42434285D01*
X153521904Y-42243809D01*
X153521904Y-41862857D01*
X153474285Y-41767619D01*
X153426666Y-41720000D01*
X153331428Y-41672380D01*
X153140952Y-41672380D01*
X153045714Y-41720000D01*
X152998095Y-41767619D01*
X152950476Y-41862857D01*
X152950476Y-42100952D01*
X152998095Y-42196190D01*
X153045714Y-42243809D01*
X153140952Y-42291428D01*
X153331428Y-42291428D01*
X153426666Y-42243809D01*
X153474285Y-42196190D01*
X153521904Y-42100952D01*
%TO.C,C18*%
X151557142Y-52417142D02*
X151509523Y-52464761D01*
X151366666Y-52512380D01*
X151271428Y-52512380D01*
X151128571Y-52464761D01*
X151033333Y-52369523D01*
X150985714Y-52274285D01*
X150938095Y-52083809D01*
X150938095Y-51940952D01*
X150985714Y-51750476D01*
X151033333Y-51655238D01*
X151128571Y-51560000D01*
X151271428Y-51512380D01*
X151366666Y-51512380D01*
X151509523Y-51560000D01*
X151557142Y-51607619D01*
X152509523Y-52512380D02*
X151938095Y-52512380D01*
X152223809Y-52512380D02*
X152223809Y-51512380D01*
X152128571Y-51655238D01*
X152033333Y-51750476D01*
X151938095Y-51798095D01*
X153080952Y-51940952D02*
X152985714Y-51893333D01*
X152938095Y-51845714D01*
X152890476Y-51750476D01*
X152890476Y-51702857D01*
X152938095Y-51607619D01*
X152985714Y-51560000D01*
X153080952Y-51512380D01*
X153271428Y-51512380D01*
X153366666Y-51560000D01*
X153414285Y-51607619D01*
X153461904Y-51702857D01*
X153461904Y-51750476D01*
X153414285Y-51845714D01*
X153366666Y-51893333D01*
X153271428Y-51940952D01*
X153080952Y-51940952D01*
X152985714Y-51988571D01*
X152938095Y-52036190D01*
X152890476Y-52131428D01*
X152890476Y-52321904D01*
X152938095Y-52417142D01*
X152985714Y-52464761D01*
X153080952Y-52512380D01*
X153271428Y-52512380D01*
X153366666Y-52464761D01*
X153414285Y-52417142D01*
X153461904Y-52321904D01*
X153461904Y-52131428D01*
X153414285Y-52036190D01*
X153366666Y-51988571D01*
X153271428Y-51940952D01*
%TO.C,C17*%
X152607142Y-56157142D02*
X152559523Y-56204761D01*
X152416666Y-56252380D01*
X152321428Y-56252380D01*
X152178571Y-56204761D01*
X152083333Y-56109523D01*
X152035714Y-56014285D01*
X151988095Y-55823809D01*
X151988095Y-55680952D01*
X152035714Y-55490476D01*
X152083333Y-55395238D01*
X152178571Y-55300000D01*
X152321428Y-55252380D01*
X152416666Y-55252380D01*
X152559523Y-55300000D01*
X152607142Y-55347619D01*
X153559523Y-56252380D02*
X152988095Y-56252380D01*
X153273809Y-56252380D02*
X153273809Y-55252380D01*
X153178571Y-55395238D01*
X153083333Y-55490476D01*
X152988095Y-55538095D01*
X153892857Y-55252380D02*
X154559523Y-55252380D01*
X154130952Y-56252380D01*
%TO.C,C14*%
X156607142Y-86442142D02*
X156559523Y-86489761D01*
X156416666Y-86537380D01*
X156321428Y-86537380D01*
X156178571Y-86489761D01*
X156083333Y-86394523D01*
X156035714Y-86299285D01*
X155988095Y-86108809D01*
X155988095Y-85965952D01*
X156035714Y-85775476D01*
X156083333Y-85680238D01*
X156178571Y-85585000D01*
X156321428Y-85537380D01*
X156416666Y-85537380D01*
X156559523Y-85585000D01*
X156607142Y-85632619D01*
X157559523Y-86537380D02*
X156988095Y-86537380D01*
X157273809Y-86537380D02*
X157273809Y-85537380D01*
X157178571Y-85680238D01*
X157083333Y-85775476D01*
X156988095Y-85823095D01*
X158416666Y-85870714D02*
X158416666Y-86537380D01*
X158178571Y-85489761D02*
X157940476Y-86204047D01*
X158559523Y-86204047D01*
%TO.C,C13*%
X100732142Y-124187857D02*
X100779761Y-124235476D01*
X100827380Y-124378333D01*
X100827380Y-124473571D01*
X100779761Y-124616428D01*
X100684523Y-124711666D01*
X100589285Y-124759285D01*
X100398809Y-124806904D01*
X100255952Y-124806904D01*
X100065476Y-124759285D01*
X99970238Y-124711666D01*
X99875000Y-124616428D01*
X99827380Y-124473571D01*
X99827380Y-124378333D01*
X99875000Y-124235476D01*
X99922619Y-124187857D01*
X100827380Y-123235476D02*
X100827380Y-123806904D01*
X100827380Y-123521190D02*
X99827380Y-123521190D01*
X99970238Y-123616428D01*
X100065476Y-123711666D01*
X100113095Y-123806904D01*
X99827380Y-122902142D02*
X99827380Y-122283095D01*
X100208333Y-122616428D01*
X100208333Y-122473571D01*
X100255952Y-122378333D01*
X100303571Y-122330714D01*
X100398809Y-122283095D01*
X100636904Y-122283095D01*
X100732142Y-122330714D01*
X100779761Y-122378333D01*
X100827380Y-122473571D01*
X100827380Y-122759285D01*
X100779761Y-122854523D01*
X100732142Y-122902142D01*
%TO.C,C12*%
X111732142Y-124187857D02*
X111779761Y-124235476D01*
X111827380Y-124378333D01*
X111827380Y-124473571D01*
X111779761Y-124616428D01*
X111684523Y-124711666D01*
X111589285Y-124759285D01*
X111398809Y-124806904D01*
X111255952Y-124806904D01*
X111065476Y-124759285D01*
X110970238Y-124711666D01*
X110875000Y-124616428D01*
X110827380Y-124473571D01*
X110827380Y-124378333D01*
X110875000Y-124235476D01*
X110922619Y-124187857D01*
X111827380Y-123235476D02*
X111827380Y-123806904D01*
X111827380Y-123521190D02*
X110827380Y-123521190D01*
X110970238Y-123616428D01*
X111065476Y-123711666D01*
X111113095Y-123806904D01*
X110922619Y-122854523D02*
X110875000Y-122806904D01*
X110827380Y-122711666D01*
X110827380Y-122473571D01*
X110875000Y-122378333D01*
X110922619Y-122330714D01*
X111017857Y-122283095D01*
X111113095Y-122283095D01*
X111255952Y-122330714D01*
X111827380Y-122902142D01*
X111827380Y-122283095D01*
%TO.C,C11*%
X122732142Y-124187857D02*
X122779761Y-124235476D01*
X122827380Y-124378333D01*
X122827380Y-124473571D01*
X122779761Y-124616428D01*
X122684523Y-124711666D01*
X122589285Y-124759285D01*
X122398809Y-124806904D01*
X122255952Y-124806904D01*
X122065476Y-124759285D01*
X121970238Y-124711666D01*
X121875000Y-124616428D01*
X121827380Y-124473571D01*
X121827380Y-124378333D01*
X121875000Y-124235476D01*
X121922619Y-124187857D01*
X122827380Y-123235476D02*
X122827380Y-123806904D01*
X122827380Y-123521190D02*
X121827380Y-123521190D01*
X121970238Y-123616428D01*
X122065476Y-123711666D01*
X122113095Y-123806904D01*
X122827380Y-122283095D02*
X122827380Y-122854523D01*
X122827380Y-122568809D02*
X121827380Y-122568809D01*
X121970238Y-122664047D01*
X122065476Y-122759285D01*
X122113095Y-122854523D01*
%TO.C,C10*%
X133732142Y-124187857D02*
X133779761Y-124235476D01*
X133827380Y-124378333D01*
X133827380Y-124473571D01*
X133779761Y-124616428D01*
X133684523Y-124711666D01*
X133589285Y-124759285D01*
X133398809Y-124806904D01*
X133255952Y-124806904D01*
X133065476Y-124759285D01*
X132970238Y-124711666D01*
X132875000Y-124616428D01*
X132827380Y-124473571D01*
X132827380Y-124378333D01*
X132875000Y-124235476D01*
X132922619Y-124187857D01*
X133827380Y-123235476D02*
X133827380Y-123806904D01*
X133827380Y-123521190D02*
X132827380Y-123521190D01*
X132970238Y-123616428D01*
X133065476Y-123711666D01*
X133113095Y-123806904D01*
X132827380Y-122616428D02*
X132827380Y-122521190D01*
X132875000Y-122425952D01*
X132922619Y-122378333D01*
X133017857Y-122330714D01*
X133208333Y-122283095D01*
X133446428Y-122283095D01*
X133636904Y-122330714D01*
X133732142Y-122378333D01*
X133779761Y-122425952D01*
X133827380Y-122521190D01*
X133827380Y-122616428D01*
X133779761Y-122711666D01*
X133732142Y-122759285D01*
X133636904Y-122806904D01*
X133446428Y-122854523D01*
X133208333Y-122854523D01*
X133017857Y-122806904D01*
X132922619Y-122759285D01*
X132875000Y-122711666D01*
X132827380Y-122616428D01*
%TO.C,C9*%
X144732142Y-123711666D02*
X144779761Y-123759285D01*
X144827380Y-123902142D01*
X144827380Y-123997380D01*
X144779761Y-124140238D01*
X144684523Y-124235476D01*
X144589285Y-124283095D01*
X144398809Y-124330714D01*
X144255952Y-124330714D01*
X144065476Y-124283095D01*
X143970238Y-124235476D01*
X143875000Y-124140238D01*
X143827380Y-123997380D01*
X143827380Y-123902142D01*
X143875000Y-123759285D01*
X143922619Y-123711666D01*
X144827380Y-123235476D02*
X144827380Y-123045000D01*
X144779761Y-122949761D01*
X144732142Y-122902142D01*
X144589285Y-122806904D01*
X144398809Y-122759285D01*
X144017857Y-122759285D01*
X143922619Y-122806904D01*
X143875000Y-122854523D01*
X143827380Y-122949761D01*
X143827380Y-123140238D01*
X143875000Y-123235476D01*
X143922619Y-123283095D01*
X144017857Y-123330714D01*
X144255952Y-123330714D01*
X144351190Y-123283095D01*
X144398809Y-123235476D01*
X144446428Y-123140238D01*
X144446428Y-122949761D01*
X144398809Y-122854523D01*
X144351190Y-122806904D01*
X144255952Y-122759285D01*
%TO.C,C8*%
X177732142Y-123711666D02*
X177779761Y-123759285D01*
X177827380Y-123902142D01*
X177827380Y-123997380D01*
X177779761Y-124140238D01*
X177684523Y-124235476D01*
X177589285Y-124283095D01*
X177398809Y-124330714D01*
X177255952Y-124330714D01*
X177065476Y-124283095D01*
X176970238Y-124235476D01*
X176875000Y-124140238D01*
X176827380Y-123997380D01*
X176827380Y-123902142D01*
X176875000Y-123759285D01*
X176922619Y-123711666D01*
X177255952Y-123140238D02*
X177208333Y-123235476D01*
X177160714Y-123283095D01*
X177065476Y-123330714D01*
X177017857Y-123330714D01*
X176922619Y-123283095D01*
X176875000Y-123235476D01*
X176827380Y-123140238D01*
X176827380Y-122949761D01*
X176875000Y-122854523D01*
X176922619Y-122806904D01*
X177017857Y-122759285D01*
X177065476Y-122759285D01*
X177160714Y-122806904D01*
X177208333Y-122854523D01*
X177255952Y-122949761D01*
X177255952Y-123140238D01*
X177303571Y-123235476D01*
X177351190Y-123283095D01*
X177446428Y-123330714D01*
X177636904Y-123330714D01*
X177732142Y-123283095D01*
X177779761Y-123235476D01*
X177827380Y-123140238D01*
X177827380Y-122949761D01*
X177779761Y-122854523D01*
X177732142Y-122806904D01*
X177636904Y-122759285D01*
X177446428Y-122759285D01*
X177351190Y-122806904D01*
X177303571Y-122854523D01*
X177255952Y-122949761D01*
%TO.C,C7*%
X188732142Y-123711666D02*
X188779761Y-123759285D01*
X188827380Y-123902142D01*
X188827380Y-123997380D01*
X188779761Y-124140238D01*
X188684523Y-124235476D01*
X188589285Y-124283095D01*
X188398809Y-124330714D01*
X188255952Y-124330714D01*
X188065476Y-124283095D01*
X187970238Y-124235476D01*
X187875000Y-124140238D01*
X187827380Y-123997380D01*
X187827380Y-123902142D01*
X187875000Y-123759285D01*
X187922619Y-123711666D01*
X187827380Y-123378333D02*
X187827380Y-122711666D01*
X188827380Y-123140238D01*
%TO.C,C6*%
X199732142Y-123711666D02*
X199779761Y-123759285D01*
X199827380Y-123902142D01*
X199827380Y-123997380D01*
X199779761Y-124140238D01*
X199684523Y-124235476D01*
X199589285Y-124283095D01*
X199398809Y-124330714D01*
X199255952Y-124330714D01*
X199065476Y-124283095D01*
X198970238Y-124235476D01*
X198875000Y-124140238D01*
X198827380Y-123997380D01*
X198827380Y-123902142D01*
X198875000Y-123759285D01*
X198922619Y-123711666D01*
X198827380Y-122854523D02*
X198827380Y-123045000D01*
X198875000Y-123140238D01*
X198922619Y-123187857D01*
X199065476Y-123283095D01*
X199255952Y-123330714D01*
X199636904Y-123330714D01*
X199732142Y-123283095D01*
X199779761Y-123235476D01*
X199827380Y-123140238D01*
X199827380Y-122949761D01*
X199779761Y-122854523D01*
X199732142Y-122806904D01*
X199636904Y-122759285D01*
X199398809Y-122759285D01*
X199303571Y-122806904D01*
X199255952Y-122854523D01*
X199208333Y-122949761D01*
X199208333Y-123140238D01*
X199255952Y-123235476D01*
X199303571Y-123283095D01*
X199398809Y-123330714D01*
%TO.C,C5*%
X166732142Y-123711666D02*
X166779761Y-123759285D01*
X166827380Y-123902142D01*
X166827380Y-123997380D01*
X166779761Y-124140238D01*
X166684523Y-124235476D01*
X166589285Y-124283095D01*
X166398809Y-124330714D01*
X166255952Y-124330714D01*
X166065476Y-124283095D01*
X165970238Y-124235476D01*
X165875000Y-124140238D01*
X165827380Y-123997380D01*
X165827380Y-123902142D01*
X165875000Y-123759285D01*
X165922619Y-123711666D01*
X165827380Y-122806904D02*
X165827380Y-123283095D01*
X166303571Y-123330714D01*
X166255952Y-123283095D01*
X166208333Y-123187857D01*
X166208333Y-122949761D01*
X166255952Y-122854523D01*
X166303571Y-122806904D01*
X166398809Y-122759285D01*
X166636904Y-122759285D01*
X166732142Y-122806904D01*
X166779761Y-122854523D01*
X166827380Y-122949761D01*
X166827380Y-123187857D01*
X166779761Y-123283095D01*
X166732142Y-123330714D01*
%TO.C,C4*%
X155732142Y-123711666D02*
X155779761Y-123759285D01*
X155827380Y-123902142D01*
X155827380Y-123997380D01*
X155779761Y-124140238D01*
X155684523Y-124235476D01*
X155589285Y-124283095D01*
X155398809Y-124330714D01*
X155255952Y-124330714D01*
X155065476Y-124283095D01*
X154970238Y-124235476D01*
X154875000Y-124140238D01*
X154827380Y-123997380D01*
X154827380Y-123902142D01*
X154875000Y-123759285D01*
X154922619Y-123711666D01*
X155160714Y-122854523D02*
X155827380Y-122854523D01*
X154779761Y-123092619D02*
X155494047Y-123330714D01*
X155494047Y-122711666D01*
%TO.C,C2*%
X153653333Y-66907142D02*
X153605714Y-66954761D01*
X153462857Y-67002380D01*
X153367619Y-67002380D01*
X153224761Y-66954761D01*
X153129523Y-66859523D01*
X153081904Y-66764285D01*
X153034285Y-66573809D01*
X153034285Y-66430952D01*
X153081904Y-66240476D01*
X153129523Y-66145238D01*
X153224761Y-66050000D01*
X153367619Y-66002380D01*
X153462857Y-66002380D01*
X153605714Y-66050000D01*
X153653333Y-66097619D01*
X154034285Y-66097619D02*
X154081904Y-66050000D01*
X154177142Y-66002380D01*
X154415238Y-66002380D01*
X154510476Y-66050000D01*
X154558095Y-66097619D01*
X154605714Y-66192857D01*
X154605714Y-66288095D01*
X154558095Y-66430952D01*
X153986666Y-67002380D01*
X154605714Y-67002380D01*
%TO.C,C1*%
X151113333Y-87197142D02*
X151065714Y-87244761D01*
X150922857Y-87292380D01*
X150827619Y-87292380D01*
X150684761Y-87244761D01*
X150589523Y-87149523D01*
X150541904Y-87054285D01*
X150494285Y-86863809D01*
X150494285Y-86720952D01*
X150541904Y-86530476D01*
X150589523Y-86435238D01*
X150684761Y-86340000D01*
X150827619Y-86292380D01*
X150922857Y-86292380D01*
X151065714Y-86340000D01*
X151113333Y-86387619D01*
X152065714Y-87292380D02*
X151494285Y-87292380D01*
X151780000Y-87292380D02*
X151780000Y-86292380D01*
X151684761Y-86435238D01*
X151589523Y-86530476D01*
X151494285Y-86578095D01*
%TO.C,C28*%
X148472142Y-102642857D02*
X148519761Y-102690476D01*
X148567380Y-102833333D01*
X148567380Y-102928571D01*
X148519761Y-103071428D01*
X148424523Y-103166666D01*
X148329285Y-103214285D01*
X148138809Y-103261904D01*
X147995952Y-103261904D01*
X147805476Y-103214285D01*
X147710238Y-103166666D01*
X147615000Y-103071428D01*
X147567380Y-102928571D01*
X147567380Y-102833333D01*
X147615000Y-102690476D01*
X147662619Y-102642857D01*
X147662619Y-102261904D02*
X147615000Y-102214285D01*
X147567380Y-102119047D01*
X147567380Y-101880952D01*
X147615000Y-101785714D01*
X147662619Y-101738095D01*
X147757857Y-101690476D01*
X147853095Y-101690476D01*
X147995952Y-101738095D01*
X148567380Y-102309523D01*
X148567380Y-101690476D01*
X147995952Y-101119047D02*
X147948333Y-101214285D01*
X147900714Y-101261904D01*
X147805476Y-101309523D01*
X147757857Y-101309523D01*
X147662619Y-101261904D01*
X147615000Y-101214285D01*
X147567380Y-101119047D01*
X147567380Y-100928571D01*
X147615000Y-100833333D01*
X147662619Y-100785714D01*
X147757857Y-100738095D01*
X147805476Y-100738095D01*
X147900714Y-100785714D01*
X147948333Y-100833333D01*
X147995952Y-100928571D01*
X147995952Y-101119047D01*
X148043571Y-101214285D01*
X148091190Y-101261904D01*
X148186428Y-101309523D01*
X148376904Y-101309523D01*
X148472142Y-101261904D01*
X148519761Y-101214285D01*
X148567380Y-101119047D01*
X148567380Y-100928571D01*
X148519761Y-100833333D01*
X148472142Y-100785714D01*
X148376904Y-100738095D01*
X148186428Y-100738095D01*
X148091190Y-100785714D01*
X148043571Y-100833333D01*
X147995952Y-100928571D01*
%TO.C,C27*%
X161472142Y-102642857D02*
X161519761Y-102690476D01*
X161567380Y-102833333D01*
X161567380Y-102928571D01*
X161519761Y-103071428D01*
X161424523Y-103166666D01*
X161329285Y-103214285D01*
X161138809Y-103261904D01*
X160995952Y-103261904D01*
X160805476Y-103214285D01*
X160710238Y-103166666D01*
X160615000Y-103071428D01*
X160567380Y-102928571D01*
X160567380Y-102833333D01*
X160615000Y-102690476D01*
X160662619Y-102642857D01*
X160662619Y-102261904D02*
X160615000Y-102214285D01*
X160567380Y-102119047D01*
X160567380Y-101880952D01*
X160615000Y-101785714D01*
X160662619Y-101738095D01*
X160757857Y-101690476D01*
X160853095Y-101690476D01*
X160995952Y-101738095D01*
X161567380Y-102309523D01*
X161567380Y-101690476D01*
X160567380Y-101357142D02*
X160567380Y-100690476D01*
X161567380Y-101119047D01*
%TO.C,C26*%
X174472142Y-102642857D02*
X174519761Y-102690476D01*
X174567380Y-102833333D01*
X174567380Y-102928571D01*
X174519761Y-103071428D01*
X174424523Y-103166666D01*
X174329285Y-103214285D01*
X174138809Y-103261904D01*
X173995952Y-103261904D01*
X173805476Y-103214285D01*
X173710238Y-103166666D01*
X173615000Y-103071428D01*
X173567380Y-102928571D01*
X173567380Y-102833333D01*
X173615000Y-102690476D01*
X173662619Y-102642857D01*
X173662619Y-102261904D02*
X173615000Y-102214285D01*
X173567380Y-102119047D01*
X173567380Y-101880952D01*
X173615000Y-101785714D01*
X173662619Y-101738095D01*
X173757857Y-101690476D01*
X173853095Y-101690476D01*
X173995952Y-101738095D01*
X174567380Y-102309523D01*
X174567380Y-101690476D01*
X173567380Y-100833333D02*
X173567380Y-101023809D01*
X173615000Y-101119047D01*
X173662619Y-101166666D01*
X173805476Y-101261904D01*
X173995952Y-101309523D01*
X174376904Y-101309523D01*
X174472142Y-101261904D01*
X174519761Y-101214285D01*
X174567380Y-101119047D01*
X174567380Y-100928571D01*
X174519761Y-100833333D01*
X174472142Y-100785714D01*
X174376904Y-100738095D01*
X174138809Y-100738095D01*
X174043571Y-100785714D01*
X173995952Y-100833333D01*
X173948333Y-100928571D01*
X173948333Y-101119047D01*
X173995952Y-101214285D01*
X174043571Y-101261904D01*
X174138809Y-101309523D01*
%TO.C,C25*%
X187472142Y-102642857D02*
X187519761Y-102690476D01*
X187567380Y-102833333D01*
X187567380Y-102928571D01*
X187519761Y-103071428D01*
X187424523Y-103166666D01*
X187329285Y-103214285D01*
X187138809Y-103261904D01*
X186995952Y-103261904D01*
X186805476Y-103214285D01*
X186710238Y-103166666D01*
X186615000Y-103071428D01*
X186567380Y-102928571D01*
X186567380Y-102833333D01*
X186615000Y-102690476D01*
X186662619Y-102642857D01*
X186662619Y-102261904D02*
X186615000Y-102214285D01*
X186567380Y-102119047D01*
X186567380Y-101880952D01*
X186615000Y-101785714D01*
X186662619Y-101738095D01*
X186757857Y-101690476D01*
X186853095Y-101690476D01*
X186995952Y-101738095D01*
X187567380Y-102309523D01*
X187567380Y-101690476D01*
X186567380Y-100785714D02*
X186567380Y-101261904D01*
X187043571Y-101309523D01*
X186995952Y-101261904D01*
X186948333Y-101166666D01*
X186948333Y-100928571D01*
X186995952Y-100833333D01*
X187043571Y-100785714D01*
X187138809Y-100738095D01*
X187376904Y-100738095D01*
X187472142Y-100785714D01*
X187519761Y-100833333D01*
X187567380Y-100928571D01*
X187567380Y-101166666D01*
X187519761Y-101261904D01*
X187472142Y-101309523D01*
%TO.C,S1*%
X190668095Y-37504761D02*
X190810952Y-37552380D01*
X191049047Y-37552380D01*
X191144285Y-37504761D01*
X191191904Y-37457142D01*
X191239523Y-37361904D01*
X191239523Y-37266666D01*
X191191904Y-37171428D01*
X191144285Y-37123809D01*
X191049047Y-37076190D01*
X190858571Y-37028571D01*
X190763333Y-36980952D01*
X190715714Y-36933333D01*
X190668095Y-36838095D01*
X190668095Y-36742857D01*
X190715714Y-36647619D01*
X190763333Y-36600000D01*
X190858571Y-36552380D01*
X191096666Y-36552380D01*
X191239523Y-36600000D01*
X192191904Y-37552380D02*
X191620476Y-37552380D01*
X191906190Y-37552380D02*
X191906190Y-36552380D01*
X191810952Y-36695238D01*
X191715714Y-36790476D01*
X191620476Y-36838095D01*
%TO.C,U14*%
X185177619Y-132019523D02*
X185177619Y-132537619D01*
X185208095Y-132598571D01*
X185238571Y-132629047D01*
X185299523Y-132659523D01*
X185421428Y-132659523D01*
X185482380Y-132629047D01*
X185512857Y-132598571D01*
X185543333Y-132537619D01*
X185543333Y-132019523D01*
X186183333Y-132659523D02*
X185817619Y-132659523D01*
X186000476Y-132659523D02*
X186000476Y-132019523D01*
X185939523Y-132110952D01*
X185878571Y-132171904D01*
X185817619Y-132202380D01*
X186731904Y-132232857D02*
X186731904Y-132659523D01*
X186579523Y-131989047D02*
X186427142Y-132446190D01*
X186823333Y-132446190D01*
%TO.C,R10*%
X171452380Y-54102857D02*
X170976190Y-54436190D01*
X171452380Y-54674285D02*
X170452380Y-54674285D01*
X170452380Y-54293333D01*
X170500000Y-54198095D01*
X170547619Y-54150476D01*
X170642857Y-54102857D01*
X170785714Y-54102857D01*
X170880952Y-54150476D01*
X170928571Y-54198095D01*
X170976190Y-54293333D01*
X170976190Y-54674285D01*
X171452380Y-53150476D02*
X171452380Y-53721904D01*
X171452380Y-53436190D02*
X170452380Y-53436190D01*
X170595238Y-53531428D01*
X170690476Y-53626666D01*
X170738095Y-53721904D01*
X170452380Y-52531428D02*
X170452380Y-52436190D01*
X170500000Y-52340952D01*
X170547619Y-52293333D01*
X170642857Y-52245714D01*
X170833333Y-52198095D01*
X171071428Y-52198095D01*
X171261904Y-52245714D01*
X171357142Y-52293333D01*
X171404761Y-52340952D01*
X171452380Y-52436190D01*
X171452380Y-52531428D01*
X171404761Y-52626666D01*
X171357142Y-52674285D01*
X171261904Y-52721904D01*
X171071428Y-52769523D01*
X170833333Y-52769523D01*
X170642857Y-52721904D01*
X170547619Y-52674285D01*
X170500000Y-52626666D01*
X170452380Y-52531428D01*
%TO.C,R9*%
X166442380Y-54156666D02*
X165966190Y-54490000D01*
X166442380Y-54728095D02*
X165442380Y-54728095D01*
X165442380Y-54347142D01*
X165490000Y-54251904D01*
X165537619Y-54204285D01*
X165632857Y-54156666D01*
X165775714Y-54156666D01*
X165870952Y-54204285D01*
X165918571Y-54251904D01*
X165966190Y-54347142D01*
X165966190Y-54728095D01*
X166442380Y-53680476D02*
X166442380Y-53490000D01*
X166394761Y-53394761D01*
X166347142Y-53347142D01*
X166204285Y-53251904D01*
X166013809Y-53204285D01*
X165632857Y-53204285D01*
X165537619Y-53251904D01*
X165490000Y-53299523D01*
X165442380Y-53394761D01*
X165442380Y-53585238D01*
X165490000Y-53680476D01*
X165537619Y-53728095D01*
X165632857Y-53775714D01*
X165870952Y-53775714D01*
X165966190Y-53728095D01*
X166013809Y-53680476D01*
X166061428Y-53585238D01*
X166061428Y-53394761D01*
X166013809Y-53299523D01*
X165966190Y-53251904D01*
X165870952Y-53204285D01*
%TO.C,R8*%
X163492380Y-51656666D02*
X163016190Y-51990000D01*
X163492380Y-52228095D02*
X162492380Y-52228095D01*
X162492380Y-51847142D01*
X162540000Y-51751904D01*
X162587619Y-51704285D01*
X162682857Y-51656666D01*
X162825714Y-51656666D01*
X162920952Y-51704285D01*
X162968571Y-51751904D01*
X163016190Y-51847142D01*
X163016190Y-52228095D01*
X162920952Y-51085238D02*
X162873333Y-51180476D01*
X162825714Y-51228095D01*
X162730476Y-51275714D01*
X162682857Y-51275714D01*
X162587619Y-51228095D01*
X162540000Y-51180476D01*
X162492380Y-51085238D01*
X162492380Y-50894761D01*
X162540000Y-50799523D01*
X162587619Y-50751904D01*
X162682857Y-50704285D01*
X162730476Y-50704285D01*
X162825714Y-50751904D01*
X162873333Y-50799523D01*
X162920952Y-50894761D01*
X162920952Y-51085238D01*
X162968571Y-51180476D01*
X163016190Y-51228095D01*
X163111428Y-51275714D01*
X163301904Y-51275714D01*
X163397142Y-51228095D01*
X163444761Y-51180476D01*
X163492380Y-51085238D01*
X163492380Y-50894761D01*
X163444761Y-50799523D01*
X163397142Y-50751904D01*
X163301904Y-50704285D01*
X163111428Y-50704285D01*
X163016190Y-50751904D01*
X162968571Y-50799523D01*
X162920952Y-50894761D01*
%TO.C,R7*%
X161572380Y-55616666D02*
X161096190Y-55950000D01*
X161572380Y-56188095D02*
X160572380Y-56188095D01*
X160572380Y-55807142D01*
X160620000Y-55711904D01*
X160667619Y-55664285D01*
X160762857Y-55616666D01*
X160905714Y-55616666D01*
X161000952Y-55664285D01*
X161048571Y-55711904D01*
X161096190Y-55807142D01*
X161096190Y-56188095D01*
X160572380Y-55283333D02*
X160572380Y-54616666D01*
X161572380Y-55045238D01*
%TO.C,R6*%
X169982380Y-54206666D02*
X169506190Y-54540000D01*
X169982380Y-54778095D02*
X168982380Y-54778095D01*
X168982380Y-54397142D01*
X169030000Y-54301904D01*
X169077619Y-54254285D01*
X169172857Y-54206666D01*
X169315714Y-54206666D01*
X169410952Y-54254285D01*
X169458571Y-54301904D01*
X169506190Y-54397142D01*
X169506190Y-54778095D01*
X168982380Y-53349523D02*
X168982380Y-53540000D01*
X169030000Y-53635238D01*
X169077619Y-53682857D01*
X169220476Y-53778095D01*
X169410952Y-53825714D01*
X169791904Y-53825714D01*
X169887142Y-53778095D01*
X169934761Y-53730476D01*
X169982380Y-53635238D01*
X169982380Y-53444761D01*
X169934761Y-53349523D01*
X169887142Y-53301904D01*
X169791904Y-53254285D01*
X169553809Y-53254285D01*
X169458571Y-53301904D01*
X169410952Y-53349523D01*
X169363333Y-53444761D01*
X169363333Y-53635238D01*
X169410952Y-53730476D01*
X169458571Y-53778095D01*
X169553809Y-53825714D01*
%TO.C,R5*%
X167942380Y-54136666D02*
X167466190Y-54470000D01*
X167942380Y-54708095D02*
X166942380Y-54708095D01*
X166942380Y-54327142D01*
X166990000Y-54231904D01*
X167037619Y-54184285D01*
X167132857Y-54136666D01*
X167275714Y-54136666D01*
X167370952Y-54184285D01*
X167418571Y-54231904D01*
X167466190Y-54327142D01*
X167466190Y-54708095D01*
X166942380Y-53231904D02*
X166942380Y-53708095D01*
X167418571Y-53755714D01*
X167370952Y-53708095D01*
X167323333Y-53612857D01*
X167323333Y-53374761D01*
X167370952Y-53279523D01*
X167418571Y-53231904D01*
X167513809Y-53184285D01*
X167751904Y-53184285D01*
X167847142Y-53231904D01*
X167894761Y-53279523D01*
X167942380Y-53374761D01*
X167942380Y-53612857D01*
X167894761Y-53708095D01*
X167847142Y-53755714D01*
%TO.C,R4*%
X164972380Y-51686666D02*
X164496190Y-52020000D01*
X164972380Y-52258095D02*
X163972380Y-52258095D01*
X163972380Y-51877142D01*
X164020000Y-51781904D01*
X164067619Y-51734285D01*
X164162857Y-51686666D01*
X164305714Y-51686666D01*
X164400952Y-51734285D01*
X164448571Y-51781904D01*
X164496190Y-51877142D01*
X164496190Y-52258095D01*
X164305714Y-50829523D02*
X164972380Y-50829523D01*
X163924761Y-51067619D02*
X164639047Y-51305714D01*
X164639047Y-50686666D01*
%TO.C,R3*%
X159932380Y-55586666D02*
X159456190Y-55920000D01*
X159932380Y-56158095D02*
X158932380Y-56158095D01*
X158932380Y-55777142D01*
X158980000Y-55681904D01*
X159027619Y-55634285D01*
X159122857Y-55586666D01*
X159265714Y-55586666D01*
X159360952Y-55634285D01*
X159408571Y-55681904D01*
X159456190Y-55777142D01*
X159456190Y-56158095D01*
X158932380Y-55253333D02*
X158932380Y-54634285D01*
X159313333Y-54967619D01*
X159313333Y-54824761D01*
X159360952Y-54729523D01*
X159408571Y-54681904D01*
X159503809Y-54634285D01*
X159741904Y-54634285D01*
X159837142Y-54681904D01*
X159884761Y-54729523D01*
X159932380Y-54824761D01*
X159932380Y-55110476D01*
X159884761Y-55205714D01*
X159837142Y-55253333D01*
%TO.C,U13*%
X155817380Y-73813095D02*
X156626904Y-73813095D01*
X156722142Y-73765476D01*
X156769761Y-73717857D01*
X156817380Y-73622619D01*
X156817380Y-73432142D01*
X156769761Y-73336904D01*
X156722142Y-73289285D01*
X156626904Y-73241666D01*
X155817380Y-73241666D01*
X156817380Y-72241666D02*
X156817380Y-72813095D01*
X156817380Y-72527380D02*
X155817380Y-72527380D01*
X155960238Y-72622619D01*
X156055476Y-72717857D01*
X156103095Y-72813095D01*
X155817380Y-71908333D02*
X155817380Y-71289285D01*
X156198333Y-71622619D01*
X156198333Y-71479761D01*
X156245952Y-71384523D01*
X156293571Y-71336904D01*
X156388809Y-71289285D01*
X156626904Y-71289285D01*
X156722142Y-71336904D01*
X156769761Y-71384523D01*
X156817380Y-71479761D01*
X156817380Y-71765476D01*
X156769761Y-71860714D01*
X156722142Y-71908333D01*
%TO.C,J4*%
X188462380Y-45183333D02*
X189176666Y-45183333D01*
X189319523Y-45230952D01*
X189414761Y-45326190D01*
X189462380Y-45469047D01*
X189462380Y-45564285D01*
X188795714Y-44278571D02*
X189462380Y-44278571D01*
X188414761Y-44516666D02*
X189129047Y-44754761D01*
X189129047Y-44135714D01*
%TO.C,U12*%
X151111904Y-47822380D02*
X151111904Y-48631904D01*
X151159523Y-48727142D01*
X151207142Y-48774761D01*
X151302380Y-48822380D01*
X151492857Y-48822380D01*
X151588095Y-48774761D01*
X151635714Y-48727142D01*
X151683333Y-48631904D01*
X151683333Y-47822380D01*
X152683333Y-48822380D02*
X152111904Y-48822380D01*
X152397619Y-48822380D02*
X152397619Y-47822380D01*
X152302380Y-47965238D01*
X152207142Y-48060476D01*
X152111904Y-48108095D01*
X153064285Y-47917619D02*
X153111904Y-47870000D01*
X153207142Y-47822380D01*
X153445238Y-47822380D01*
X153540476Y-47870000D01*
X153588095Y-47917619D01*
X153635714Y-48012857D01*
X153635714Y-48108095D01*
X153588095Y-48250952D01*
X153016666Y-48822380D01*
X153635714Y-48822380D01*
%TO.C,R2*%
X126830833Y-42272380D02*
X126497500Y-41796190D01*
X126259404Y-42272380D02*
X126259404Y-41272380D01*
X126640357Y-41272380D01*
X126735595Y-41320000D01*
X126783214Y-41367619D01*
X126830833Y-41462857D01*
X126830833Y-41605714D01*
X126783214Y-41700952D01*
X126735595Y-41748571D01*
X126640357Y-41796190D01*
X126259404Y-41796190D01*
X127211785Y-41367619D02*
X127259404Y-41320000D01*
X127354642Y-41272380D01*
X127592738Y-41272380D01*
X127687976Y-41320000D01*
X127735595Y-41367619D01*
X127783214Y-41462857D01*
X127783214Y-41558095D01*
X127735595Y-41700952D01*
X127164166Y-42272380D01*
X127783214Y-42272380D01*
%TO.C,J3*%
X147896666Y-41922380D02*
X147896666Y-42636666D01*
X147849047Y-42779523D01*
X147753809Y-42874761D01*
X147610952Y-42922380D01*
X147515714Y-42922380D01*
X148277619Y-41922380D02*
X148896666Y-41922380D01*
X148563333Y-42303333D01*
X148706190Y-42303333D01*
X148801428Y-42350952D01*
X148849047Y-42398571D01*
X148896666Y-42493809D01*
X148896666Y-42731904D01*
X148849047Y-42827142D01*
X148801428Y-42874761D01*
X148706190Y-42922380D01*
X148420476Y-42922380D01*
X148325238Y-42874761D01*
X148277619Y-42827142D01*
%TO.C,H5*%
X132858095Y-40332380D02*
X132858095Y-39332380D01*
X132858095Y-39808571D02*
X133429523Y-39808571D01*
X133429523Y-40332380D02*
X133429523Y-39332380D01*
X134381904Y-39332380D02*
X133905714Y-39332380D01*
X133858095Y-39808571D01*
X133905714Y-39760952D01*
X134000952Y-39713333D01*
X134239047Y-39713333D01*
X134334285Y-39760952D01*
X134381904Y-39808571D01*
X134429523Y-39903809D01*
X134429523Y-40141904D01*
X134381904Y-40237142D01*
X134334285Y-40284761D01*
X134239047Y-40332380D01*
X134000952Y-40332380D01*
X133905714Y-40284761D01*
X133858095Y-40237142D01*
%TO.C,C20*%
X126867142Y-38037142D02*
X126819523Y-38084761D01*
X126676666Y-38132380D01*
X126581428Y-38132380D01*
X126438571Y-38084761D01*
X126343333Y-37989523D01*
X126295714Y-37894285D01*
X126248095Y-37703809D01*
X126248095Y-37560952D01*
X126295714Y-37370476D01*
X126343333Y-37275238D01*
X126438571Y-37180000D01*
X126581428Y-37132380D01*
X126676666Y-37132380D01*
X126819523Y-37180000D01*
X126867142Y-37227619D01*
X127248095Y-37227619D02*
X127295714Y-37180000D01*
X127390952Y-37132380D01*
X127629047Y-37132380D01*
X127724285Y-37180000D01*
X127771904Y-37227619D01*
X127819523Y-37322857D01*
X127819523Y-37418095D01*
X127771904Y-37560952D01*
X127200476Y-38132380D01*
X127819523Y-38132380D01*
X128438571Y-37132380D02*
X128533809Y-37132380D01*
X128629047Y-37180000D01*
X128676666Y-37227619D01*
X128724285Y-37322857D01*
X128771904Y-37513333D01*
X128771904Y-37751428D01*
X128724285Y-37941904D01*
X128676666Y-38037142D01*
X128629047Y-38084761D01*
X128533809Y-38132380D01*
X128438571Y-38132380D01*
X128343333Y-38084761D01*
X128295714Y-38037142D01*
X128248095Y-37941904D01*
X128200476Y-37751428D01*
X128200476Y-37513333D01*
X128248095Y-37322857D01*
X128295714Y-37227619D01*
X128343333Y-37180000D01*
X128438571Y-37132380D01*
%TO.C,C16*%
X138962142Y-50587142D02*
X138914523Y-50634761D01*
X138771666Y-50682380D01*
X138676428Y-50682380D01*
X138533571Y-50634761D01*
X138438333Y-50539523D01*
X138390714Y-50444285D01*
X138343095Y-50253809D01*
X138343095Y-50110952D01*
X138390714Y-49920476D01*
X138438333Y-49825238D01*
X138533571Y-49730000D01*
X138676428Y-49682380D01*
X138771666Y-49682380D01*
X138914523Y-49730000D01*
X138962142Y-49777619D01*
X139914523Y-50682380D02*
X139343095Y-50682380D01*
X139628809Y-50682380D02*
X139628809Y-49682380D01*
X139533571Y-49825238D01*
X139438333Y-49920476D01*
X139343095Y-49968095D01*
X140771666Y-49682380D02*
X140581190Y-49682380D01*
X140485952Y-49730000D01*
X140438333Y-49777619D01*
X140343095Y-49920476D01*
X140295476Y-50110952D01*
X140295476Y-50491904D01*
X140343095Y-50587142D01*
X140390714Y-50634761D01*
X140485952Y-50682380D01*
X140676428Y-50682380D01*
X140771666Y-50634761D01*
X140819285Y-50587142D01*
X140866904Y-50491904D01*
X140866904Y-50253809D01*
X140819285Y-50158571D01*
X140771666Y-50110952D01*
X140676428Y-50063333D01*
X140485952Y-50063333D01*
X140390714Y-50110952D01*
X140343095Y-50158571D01*
X140295476Y-50253809D01*
%TO.C,H2*%
X207808095Y-59902380D02*
X207808095Y-58902380D01*
X207808095Y-59378571D02*
X208379523Y-59378571D01*
X208379523Y-59902380D02*
X208379523Y-58902380D01*
X208808095Y-58997619D02*
X208855714Y-58950000D01*
X208950952Y-58902380D01*
X209189047Y-58902380D01*
X209284285Y-58950000D01*
X209331904Y-58997619D01*
X209379523Y-59092857D01*
X209379523Y-59188095D01*
X209331904Y-59330952D01*
X208760476Y-59902380D01*
X209379523Y-59902380D01*
%TO.C,H1*%
X99808095Y-59902380D02*
X99808095Y-58902380D01*
X99808095Y-59378571D02*
X100379523Y-59378571D01*
X100379523Y-59902380D02*
X100379523Y-58902380D01*
X101379523Y-59902380D02*
X100808095Y-59902380D01*
X101093809Y-59902380D02*
X101093809Y-58902380D01*
X100998571Y-59045238D01*
X100903333Y-59140476D01*
X100808095Y-59188095D01*
%TO.C,U11*%
X162546904Y-85837380D02*
X162546904Y-86646904D01*
X162594523Y-86742142D01*
X162642142Y-86789761D01*
X162737380Y-86837380D01*
X162927857Y-86837380D01*
X163023095Y-86789761D01*
X163070714Y-86742142D01*
X163118333Y-86646904D01*
X163118333Y-85837380D01*
X164118333Y-86837380D02*
X163546904Y-86837380D01*
X163832619Y-86837380D02*
X163832619Y-85837380D01*
X163737380Y-85980238D01*
X163642142Y-86075476D01*
X163546904Y-86123095D01*
X165070714Y-86837380D02*
X164499285Y-86837380D01*
X164785000Y-86837380D02*
X164785000Y-85837380D01*
X164689761Y-85980238D01*
X164594523Y-86075476D01*
X164499285Y-86123095D01*
%TO.C,U10*%
X99527380Y-131563095D02*
X100336904Y-131563095D01*
X100432142Y-131515476D01*
X100479761Y-131467857D01*
X100527380Y-131372619D01*
X100527380Y-131182142D01*
X100479761Y-131086904D01*
X100432142Y-131039285D01*
X100336904Y-130991666D01*
X99527380Y-130991666D01*
X100527380Y-129991666D02*
X100527380Y-130563095D01*
X100527380Y-130277380D02*
X99527380Y-130277380D01*
X99670238Y-130372619D01*
X99765476Y-130467857D01*
X99813095Y-130563095D01*
X99527380Y-129372619D02*
X99527380Y-129277380D01*
X99575000Y-129182142D01*
X99622619Y-129134523D01*
X99717857Y-129086904D01*
X99908333Y-129039285D01*
X100146428Y-129039285D01*
X100336904Y-129086904D01*
X100432142Y-129134523D01*
X100479761Y-129182142D01*
X100527380Y-129277380D01*
X100527380Y-129372619D01*
X100479761Y-129467857D01*
X100432142Y-129515476D01*
X100336904Y-129563095D01*
X100146428Y-129610714D01*
X99908333Y-129610714D01*
X99717857Y-129563095D01*
X99622619Y-129515476D01*
X99575000Y-129467857D01*
X99527380Y-129372619D01*
%TO.C,U9*%
X110527380Y-131086904D02*
X111336904Y-131086904D01*
X111432142Y-131039285D01*
X111479761Y-130991666D01*
X111527380Y-130896428D01*
X111527380Y-130705952D01*
X111479761Y-130610714D01*
X111432142Y-130563095D01*
X111336904Y-130515476D01*
X110527380Y-130515476D01*
X111527380Y-129991666D02*
X111527380Y-129801190D01*
X111479761Y-129705952D01*
X111432142Y-129658333D01*
X111289285Y-129563095D01*
X111098809Y-129515476D01*
X110717857Y-129515476D01*
X110622619Y-129563095D01*
X110575000Y-129610714D01*
X110527380Y-129705952D01*
X110527380Y-129896428D01*
X110575000Y-129991666D01*
X110622619Y-130039285D01*
X110717857Y-130086904D01*
X110955952Y-130086904D01*
X111051190Y-130039285D01*
X111098809Y-129991666D01*
X111146428Y-129896428D01*
X111146428Y-129705952D01*
X111098809Y-129610714D01*
X111051190Y-129563095D01*
X110955952Y-129515476D01*
%TO.C,U8*%
X121527380Y-131086904D02*
X122336904Y-131086904D01*
X122432142Y-131039285D01*
X122479761Y-130991666D01*
X122527380Y-130896428D01*
X122527380Y-130705952D01*
X122479761Y-130610714D01*
X122432142Y-130563095D01*
X122336904Y-130515476D01*
X121527380Y-130515476D01*
X121955952Y-129896428D02*
X121908333Y-129991666D01*
X121860714Y-130039285D01*
X121765476Y-130086904D01*
X121717857Y-130086904D01*
X121622619Y-130039285D01*
X121575000Y-129991666D01*
X121527380Y-129896428D01*
X121527380Y-129705952D01*
X121575000Y-129610714D01*
X121622619Y-129563095D01*
X121717857Y-129515476D01*
X121765476Y-129515476D01*
X121860714Y-129563095D01*
X121908333Y-129610714D01*
X121955952Y-129705952D01*
X121955952Y-129896428D01*
X122003571Y-129991666D01*
X122051190Y-130039285D01*
X122146428Y-130086904D01*
X122336904Y-130086904D01*
X122432142Y-130039285D01*
X122479761Y-129991666D01*
X122527380Y-129896428D01*
X122527380Y-129705952D01*
X122479761Y-129610714D01*
X122432142Y-129563095D01*
X122336904Y-129515476D01*
X122146428Y-129515476D01*
X122051190Y-129563095D01*
X122003571Y-129610714D01*
X121955952Y-129705952D01*
%TO.C,U7*%
X132527380Y-131086904D02*
X133336904Y-131086904D01*
X133432142Y-131039285D01*
X133479761Y-130991666D01*
X133527380Y-130896428D01*
X133527380Y-130705952D01*
X133479761Y-130610714D01*
X133432142Y-130563095D01*
X133336904Y-130515476D01*
X132527380Y-130515476D01*
X132527380Y-130134523D02*
X132527380Y-129467857D01*
X133527380Y-129896428D01*
%TO.C,U6*%
X143527380Y-131086904D02*
X144336904Y-131086904D01*
X144432142Y-131039285D01*
X144479761Y-130991666D01*
X144527380Y-130896428D01*
X144527380Y-130705952D01*
X144479761Y-130610714D01*
X144432142Y-130563095D01*
X144336904Y-130515476D01*
X143527380Y-130515476D01*
X143527380Y-129610714D02*
X143527380Y-129801190D01*
X143575000Y-129896428D01*
X143622619Y-129944047D01*
X143765476Y-130039285D01*
X143955952Y-130086904D01*
X144336904Y-130086904D01*
X144432142Y-130039285D01*
X144479761Y-129991666D01*
X144527380Y-129896428D01*
X144527380Y-129705952D01*
X144479761Y-129610714D01*
X144432142Y-129563095D01*
X144336904Y-129515476D01*
X144098809Y-129515476D01*
X144003571Y-129563095D01*
X143955952Y-129610714D01*
X143908333Y-129705952D01*
X143908333Y-129896428D01*
X143955952Y-129991666D01*
X144003571Y-130039285D01*
X144098809Y-130086904D01*
%TO.C,U5*%
X176527380Y-130986904D02*
X177336904Y-130986904D01*
X177432142Y-130939285D01*
X177479761Y-130891666D01*
X177527380Y-130796428D01*
X177527380Y-130605952D01*
X177479761Y-130510714D01*
X177432142Y-130463095D01*
X177336904Y-130415476D01*
X176527380Y-130415476D01*
X176527380Y-129463095D02*
X176527380Y-129939285D01*
X177003571Y-129986904D01*
X176955952Y-129939285D01*
X176908333Y-129844047D01*
X176908333Y-129605952D01*
X176955952Y-129510714D01*
X177003571Y-129463095D01*
X177098809Y-129415476D01*
X177336904Y-129415476D01*
X177432142Y-129463095D01*
X177479761Y-129510714D01*
X177527380Y-129605952D01*
X177527380Y-129844047D01*
X177479761Y-129939285D01*
X177432142Y-129986904D01*
%TO.C,U4*%
X196272380Y-133801904D02*
X197081904Y-133801904D01*
X197177142Y-133754285D01*
X197224761Y-133706666D01*
X197272380Y-133611428D01*
X197272380Y-133420952D01*
X197224761Y-133325714D01*
X197177142Y-133278095D01*
X197081904Y-133230476D01*
X196272380Y-133230476D01*
X196605714Y-132325714D02*
X197272380Y-132325714D01*
X196224761Y-132563809D02*
X196939047Y-132801904D01*
X196939047Y-132182857D01*
%TO.C,U3*%
X198527380Y-131086904D02*
X199336904Y-131086904D01*
X199432142Y-131039285D01*
X199479761Y-130991666D01*
X199527380Y-130896428D01*
X199527380Y-130705952D01*
X199479761Y-130610714D01*
X199432142Y-130563095D01*
X199336904Y-130515476D01*
X198527380Y-130515476D01*
X198527380Y-130134523D02*
X198527380Y-129515476D01*
X198908333Y-129848809D01*
X198908333Y-129705952D01*
X198955952Y-129610714D01*
X199003571Y-129563095D01*
X199098809Y-129515476D01*
X199336904Y-129515476D01*
X199432142Y-129563095D01*
X199479761Y-129610714D01*
X199527380Y-129705952D01*
X199527380Y-129991666D01*
X199479761Y-130086904D01*
X199432142Y-130134523D01*
%TO.C,U2*%
X165527380Y-131086904D02*
X166336904Y-131086904D01*
X166432142Y-131039285D01*
X166479761Y-130991666D01*
X166527380Y-130896428D01*
X166527380Y-130705952D01*
X166479761Y-130610714D01*
X166432142Y-130563095D01*
X166336904Y-130515476D01*
X165527380Y-130515476D01*
X165622619Y-130086904D02*
X165575000Y-130039285D01*
X165527380Y-129944047D01*
X165527380Y-129705952D01*
X165575000Y-129610714D01*
X165622619Y-129563095D01*
X165717857Y-129515476D01*
X165813095Y-129515476D01*
X165955952Y-129563095D01*
X166527380Y-130134523D01*
X166527380Y-129515476D01*
%TO.C,U1*%
X154527380Y-131086904D02*
X155336904Y-131086904D01*
X155432142Y-131039285D01*
X155479761Y-130991666D01*
X155527380Y-130896428D01*
X155527380Y-130705952D01*
X155479761Y-130610714D01*
X155432142Y-130563095D01*
X155336904Y-130515476D01*
X154527380Y-130515476D01*
X155527380Y-129515476D02*
X155527380Y-130086904D01*
X155527380Y-129801190D02*
X154527380Y-129801190D01*
X154670238Y-129896428D01*
X154765476Y-129991666D01*
X154813095Y-130086904D01*
%TO.C,R1*%
X114482380Y-43166666D02*
X114006190Y-43500000D01*
X114482380Y-43738095D02*
X113482380Y-43738095D01*
X113482380Y-43357142D01*
X113530000Y-43261904D01*
X113577619Y-43214285D01*
X113672857Y-43166666D01*
X113815714Y-43166666D01*
X113910952Y-43214285D01*
X113958571Y-43261904D01*
X114006190Y-43357142D01*
X114006190Y-43738095D01*
X114482380Y-42214285D02*
X114482380Y-42785714D01*
X114482380Y-42500000D02*
X113482380Y-42500000D01*
X113625238Y-42595238D01*
X113720476Y-42690476D01*
X113768095Y-42785714D01*
%TO.C,J1*%
X207676666Y-32312380D02*
X207676666Y-33026666D01*
X207629047Y-33169523D01*
X207533809Y-33264761D01*
X207390952Y-33312380D01*
X207295714Y-33312380D01*
X208676666Y-33312380D02*
X208105238Y-33312380D01*
X208390952Y-33312380D02*
X208390952Y-32312380D01*
X208295714Y-32455238D01*
X208200476Y-32550476D01*
X208105238Y-32598095D01*
%TO.C,D1*%
X117342380Y-39738095D02*
X116342380Y-39738095D01*
X116342380Y-39500000D01*
X116390000Y-39357142D01*
X116485238Y-39261904D01*
X116580476Y-39214285D01*
X116770952Y-39166666D01*
X116913809Y-39166666D01*
X117104285Y-39214285D01*
X117199523Y-39261904D01*
X117294761Y-39357142D01*
X117342380Y-39500000D01*
X117342380Y-39738095D01*
X117342380Y-38214285D02*
X117342380Y-38785714D01*
X117342380Y-38500000D02*
X116342380Y-38500000D01*
X116485238Y-38595238D01*
X116580476Y-38690476D01*
X116628095Y-38785714D01*
%TO.C,C3*%
X116548333Y-86757142D02*
X116500714Y-86804761D01*
X116357857Y-86852380D01*
X116262619Y-86852380D01*
X116119761Y-86804761D01*
X116024523Y-86709523D01*
X115976904Y-86614285D01*
X115929285Y-86423809D01*
X115929285Y-86280952D01*
X115976904Y-86090476D01*
X116024523Y-85995238D01*
X116119761Y-85900000D01*
X116262619Y-85852380D01*
X116357857Y-85852380D01*
X116500714Y-85900000D01*
X116548333Y-85947619D01*
X116881666Y-85852380D02*
X117500714Y-85852380D01*
X117167380Y-86233333D01*
X117310238Y-86233333D01*
X117405476Y-86280952D01*
X117453095Y-86328571D01*
X117500714Y-86423809D01*
X117500714Y-86661904D01*
X117453095Y-86757142D01*
X117405476Y-86804761D01*
X117310238Y-86852380D01*
X117024523Y-86852380D01*
X116929285Y-86804761D01*
X116881666Y-86757142D01*
%TO.C,JCD1*%
X111092380Y-63233333D02*
X111806666Y-63233333D01*
X111949523Y-63280952D01*
X112044761Y-63376190D01*
X112092380Y-63519047D01*
X112092380Y-63614285D01*
X111997142Y-62185714D02*
X112044761Y-62233333D01*
X112092380Y-62376190D01*
X112092380Y-62471428D01*
X112044761Y-62614285D01*
X111949523Y-62709523D01*
X111854285Y-62757142D01*
X111663809Y-62804761D01*
X111520952Y-62804761D01*
X111330476Y-62757142D01*
X111235238Y-62709523D01*
X111140000Y-62614285D01*
X111092380Y-62471428D01*
X111092380Y-62376190D01*
X111140000Y-62233333D01*
X111187619Y-62185714D01*
X112092380Y-61757142D02*
X111092380Y-61757142D01*
X111092380Y-61519047D01*
X111140000Y-61376190D01*
X111235238Y-61280952D01*
X111330476Y-61233333D01*
X111520952Y-61185714D01*
X111663809Y-61185714D01*
X111854285Y-61233333D01*
X111949523Y-61280952D01*
X112044761Y-61376190D01*
X112092380Y-61519047D01*
X112092380Y-61757142D01*
X112092380Y-60233333D02*
X112092380Y-60804761D01*
X112092380Y-60519047D02*
X111092380Y-60519047D01*
X111235238Y-60614285D01*
X111330476Y-60709523D01*
X111378095Y-60804761D01*
%TO.C,JAB1*%
X111142380Y-95011904D02*
X111856666Y-95011904D01*
X111999523Y-95059523D01*
X112094761Y-95154761D01*
X112142380Y-95297619D01*
X112142380Y-95392857D01*
X111856666Y-94583333D02*
X111856666Y-94107142D01*
X112142380Y-94678571D02*
X111142380Y-94345238D01*
X112142380Y-94011904D01*
X111618571Y-93345238D02*
X111666190Y-93202380D01*
X111713809Y-93154761D01*
X111809047Y-93107142D01*
X111951904Y-93107142D01*
X112047142Y-93154761D01*
X112094761Y-93202380D01*
X112142380Y-93297619D01*
X112142380Y-93678571D01*
X111142380Y-93678571D01*
X111142380Y-93345238D01*
X111190000Y-93250000D01*
X111237619Y-93202380D01*
X111332857Y-93154761D01*
X111428095Y-93154761D01*
X111523333Y-93202380D01*
X111570952Y-93250000D01*
X111618571Y-93345238D01*
X111618571Y-93678571D01*
X112142380Y-92154761D02*
X112142380Y-92726190D01*
X112142380Y-92440476D02*
X111142380Y-92440476D01*
X111285238Y-92535714D01*
X111380476Y-92630952D01*
X111428095Y-92726190D01*
%TO.C,J2*%
D15*
X205736666Y-138334523D02*
X205736666Y-139241666D01*
X205676190Y-139423095D01*
X205555238Y-139544047D01*
X205373809Y-139604523D01*
X205252857Y-139604523D01*
X206280952Y-138455476D02*
X206341428Y-138395000D01*
X206462380Y-138334523D01*
X206764761Y-138334523D01*
X206885714Y-138395000D01*
X206946190Y-138455476D01*
X207006666Y-138576428D01*
X207006666Y-138697380D01*
X206946190Y-138878809D01*
X206220476Y-139604523D01*
X207006666Y-139604523D01*
%TD*%
M02*
