%TF.GenerationSoftware,KiCad,Pcbnew,(5.1.9-0-10_14)*%
%TF.CreationDate,2023-06-03T10:49:55+02:00*%
%TF.ProjectId,IIsi-to-ztex,49497369-2d74-46f2-9d7a-7465782e6b69,rev?*%
%TF.SameCoordinates,Original*%
%TF.FileFunction,Paste,Top*%
%TF.FilePolarity,Positive*%
%FSLAX46Y46*%
G04 Gerber Fmt 4.6, Leading zero omitted, Abs format (unit mm)*
G04 Created by KiCad (PCBNEW (5.1.9-0-10_14)) date 2023-06-03 10:49:55*
%MOMM*%
%LPD*%
G01*
G04 APERTURE LIST*
%ADD10R,0.900000X0.700000*%
%ADD11R,0.600000X0.510000*%
%ADD12R,0.410000X1.570000*%
%ADD13R,0.300000X1.900000*%
G04 APERTURE END LIST*
D10*
%TO.C,S1*%
X198000000Y-54425000D03*
X192000000Y-54425000D03*
D11*
X196000000Y-55780000D03*
X195000000Y-55780000D03*
X194000000Y-55780000D03*
%TD*%
%TO.C,C24*%
G36*
G01*
X141505000Y-63630000D02*
X141505000Y-64130000D01*
G75*
G02*
X141280000Y-64355000I-225000J0D01*
G01*
X140830000Y-64355000D01*
G75*
G02*
X140605000Y-64130000I0J225000D01*
G01*
X140605000Y-63630000D01*
G75*
G02*
X140830000Y-63405000I225000J0D01*
G01*
X141280000Y-63405000D01*
G75*
G02*
X141505000Y-63630000I0J-225000D01*
G01*
G37*
G36*
G01*
X143055000Y-63630000D02*
X143055000Y-64130000D01*
G75*
G02*
X142830000Y-64355000I-225000J0D01*
G01*
X142380000Y-64355000D01*
G75*
G02*
X142155000Y-64130000I0J225000D01*
G01*
X142155000Y-63630000D01*
G75*
G02*
X142380000Y-63405000I225000J0D01*
G01*
X142830000Y-63405000D01*
G75*
G02*
X143055000Y-63630000I0J-225000D01*
G01*
G37*
%TD*%
%TO.C,R11*%
G36*
G01*
X187885000Y-125325000D02*
X187335000Y-125325000D01*
G75*
G02*
X187135000Y-125125000I0J200000D01*
G01*
X187135000Y-124725000D01*
G75*
G02*
X187335000Y-124525000I200000J0D01*
G01*
X187885000Y-124525000D01*
G75*
G02*
X188085000Y-124725000I0J-200000D01*
G01*
X188085000Y-125125000D01*
G75*
G02*
X187885000Y-125325000I-200000J0D01*
G01*
G37*
G36*
G01*
X187885000Y-126975000D02*
X187335000Y-126975000D01*
G75*
G02*
X187135000Y-126775000I0J200000D01*
G01*
X187135000Y-126375000D01*
G75*
G02*
X187335000Y-126175000I200000J0D01*
G01*
X187885000Y-126175000D01*
G75*
G02*
X188085000Y-126375000I0J-200000D01*
G01*
X188085000Y-126775000D01*
G75*
G02*
X187885000Y-126975000I-200000J0D01*
G01*
G37*
%TD*%
%TO.C,U14*%
G36*
G01*
X187430000Y-130365000D02*
X187790000Y-130365000D01*
G75*
G02*
X187810000Y-130385000I0J-20000D01*
G01*
X187810000Y-131535000D01*
G75*
G02*
X187790000Y-131555000I-20000J0D01*
G01*
X187430000Y-131555000D01*
G75*
G02*
X187410000Y-131535000I0J20000D01*
G01*
X187410000Y-130385000D01*
G75*
G02*
X187430000Y-130365000I20000J0D01*
G01*
G37*
G36*
G01*
X186130000Y-130365000D02*
X186490000Y-130365000D01*
G75*
G02*
X186510000Y-130385000I0J-20000D01*
G01*
X186510000Y-131535000D01*
G75*
G02*
X186490000Y-131555000I-20000J0D01*
G01*
X186130000Y-131555000D01*
G75*
G02*
X186110000Y-131535000I0J20000D01*
G01*
X186110000Y-130385000D01*
G75*
G02*
X186130000Y-130365000I20000J0D01*
G01*
G37*
G36*
G01*
X186130000Y-128445000D02*
X186490000Y-128445000D01*
G75*
G02*
X186510000Y-128465000I0J-20000D01*
G01*
X186510000Y-129615000D01*
G75*
G02*
X186490000Y-129635000I-20000J0D01*
G01*
X186130000Y-129635000D01*
G75*
G02*
X186110000Y-129615000I0J20000D01*
G01*
X186110000Y-128465000D01*
G75*
G02*
X186130000Y-128445000I20000J0D01*
G01*
G37*
G36*
G01*
X186780000Y-128445000D02*
X187140000Y-128445000D01*
G75*
G02*
X187160000Y-128465000I0J-20000D01*
G01*
X187160000Y-129615000D01*
G75*
G02*
X187140000Y-129635000I-20000J0D01*
G01*
X186780000Y-129635000D01*
G75*
G02*
X186760000Y-129615000I0J20000D01*
G01*
X186760000Y-128465000D01*
G75*
G02*
X186780000Y-128445000I20000J0D01*
G01*
G37*
G36*
G01*
X187430000Y-128445000D02*
X187790000Y-128445000D01*
G75*
G02*
X187810000Y-128465000I0J-20000D01*
G01*
X187810000Y-129615000D01*
G75*
G02*
X187790000Y-129635000I-20000J0D01*
G01*
X187430000Y-129635000D01*
G75*
G02*
X187410000Y-129615000I0J20000D01*
G01*
X187410000Y-128465000D01*
G75*
G02*
X187430000Y-128445000I20000J0D01*
G01*
G37*
%TD*%
%TO.C,C23*%
G36*
G01*
X187860000Y-133675000D02*
X187360000Y-133675000D01*
G75*
G02*
X187135000Y-133450000I0J225000D01*
G01*
X187135000Y-133000000D01*
G75*
G02*
X187360000Y-132775000I225000J0D01*
G01*
X187860000Y-132775000D01*
G75*
G02*
X188085000Y-133000000I0J-225000D01*
G01*
X188085000Y-133450000D01*
G75*
G02*
X187860000Y-133675000I-225000J0D01*
G01*
G37*
G36*
G01*
X187860000Y-135225000D02*
X187360000Y-135225000D01*
G75*
G02*
X187135000Y-135000000I0J225000D01*
G01*
X187135000Y-134550000D01*
G75*
G02*
X187360000Y-134325000I225000J0D01*
G01*
X187860000Y-134325000D01*
G75*
G02*
X188085000Y-134550000I0J-225000D01*
G01*
X188085000Y-135000000D01*
G75*
G02*
X187860000Y-135225000I-225000J0D01*
G01*
G37*
%TD*%
%TO.C,R10*%
G36*
G01*
X170815000Y-76240000D02*
X171185000Y-76240000D01*
G75*
G02*
X171320000Y-76375000I0J-135000D01*
G01*
X171320000Y-76645000D01*
G75*
G02*
X171185000Y-76780000I-135000J0D01*
G01*
X170815000Y-76780000D01*
G75*
G02*
X170680000Y-76645000I0J135000D01*
G01*
X170680000Y-76375000D01*
G75*
G02*
X170815000Y-76240000I135000J0D01*
G01*
G37*
G36*
G01*
X170815000Y-75220000D02*
X171185000Y-75220000D01*
G75*
G02*
X171320000Y-75355000I0J-135000D01*
G01*
X171320000Y-75625000D01*
G75*
G02*
X171185000Y-75760000I-135000J0D01*
G01*
X170815000Y-75760000D01*
G75*
G02*
X170680000Y-75625000I0J135000D01*
G01*
X170680000Y-75355000D01*
G75*
G02*
X170815000Y-75220000I135000J0D01*
G01*
G37*
%TD*%
%TO.C,R9*%
G36*
G01*
X165815000Y-76240000D02*
X166185000Y-76240000D01*
G75*
G02*
X166320000Y-76375000I0J-135000D01*
G01*
X166320000Y-76645000D01*
G75*
G02*
X166185000Y-76780000I-135000J0D01*
G01*
X165815000Y-76780000D01*
G75*
G02*
X165680000Y-76645000I0J135000D01*
G01*
X165680000Y-76375000D01*
G75*
G02*
X165815000Y-76240000I135000J0D01*
G01*
G37*
G36*
G01*
X165815000Y-75220000D02*
X166185000Y-75220000D01*
G75*
G02*
X166320000Y-75355000I0J-135000D01*
G01*
X166320000Y-75625000D01*
G75*
G02*
X166185000Y-75760000I-135000J0D01*
G01*
X165815000Y-75760000D01*
G75*
G02*
X165680000Y-75625000I0J135000D01*
G01*
X165680000Y-75355000D01*
G75*
G02*
X165815000Y-75220000I135000J0D01*
G01*
G37*
%TD*%
%TO.C,R8*%
G36*
G01*
X162815000Y-73740000D02*
X163185000Y-73740000D01*
G75*
G02*
X163320000Y-73875000I0J-135000D01*
G01*
X163320000Y-74145000D01*
G75*
G02*
X163185000Y-74280000I-135000J0D01*
G01*
X162815000Y-74280000D01*
G75*
G02*
X162680000Y-74145000I0J135000D01*
G01*
X162680000Y-73875000D01*
G75*
G02*
X162815000Y-73740000I135000J0D01*
G01*
G37*
G36*
G01*
X162815000Y-72720000D02*
X163185000Y-72720000D01*
G75*
G02*
X163320000Y-72855000I0J-135000D01*
G01*
X163320000Y-73125000D01*
G75*
G02*
X163185000Y-73260000I-135000J0D01*
G01*
X162815000Y-73260000D01*
G75*
G02*
X162680000Y-73125000I0J135000D01*
G01*
X162680000Y-72855000D01*
G75*
G02*
X162815000Y-72720000I135000J0D01*
G01*
G37*
%TD*%
%TO.C,R7*%
G36*
G01*
X159315000Y-73740000D02*
X159685000Y-73740000D01*
G75*
G02*
X159820000Y-73875000I0J-135000D01*
G01*
X159820000Y-74145000D01*
G75*
G02*
X159685000Y-74280000I-135000J0D01*
G01*
X159315000Y-74280000D01*
G75*
G02*
X159180000Y-74145000I0J135000D01*
G01*
X159180000Y-73875000D01*
G75*
G02*
X159315000Y-73740000I135000J0D01*
G01*
G37*
G36*
G01*
X159315000Y-72720000D02*
X159685000Y-72720000D01*
G75*
G02*
X159820000Y-72855000I0J-135000D01*
G01*
X159820000Y-73125000D01*
G75*
G02*
X159685000Y-73260000I-135000J0D01*
G01*
X159315000Y-73260000D01*
G75*
G02*
X159180000Y-73125000I0J135000D01*
G01*
X159180000Y-72855000D01*
G75*
G02*
X159315000Y-72720000I135000J0D01*
G01*
G37*
%TD*%
%TO.C,R6*%
G36*
G01*
X169685000Y-75760000D02*
X169315000Y-75760000D01*
G75*
G02*
X169180000Y-75625000I0J135000D01*
G01*
X169180000Y-75355000D01*
G75*
G02*
X169315000Y-75220000I135000J0D01*
G01*
X169685000Y-75220000D01*
G75*
G02*
X169820000Y-75355000I0J-135000D01*
G01*
X169820000Y-75625000D01*
G75*
G02*
X169685000Y-75760000I-135000J0D01*
G01*
G37*
G36*
G01*
X169685000Y-76780000D02*
X169315000Y-76780000D01*
G75*
G02*
X169180000Y-76645000I0J135000D01*
G01*
X169180000Y-76375000D01*
G75*
G02*
X169315000Y-76240000I135000J0D01*
G01*
X169685000Y-76240000D01*
G75*
G02*
X169820000Y-76375000I0J-135000D01*
G01*
X169820000Y-76645000D01*
G75*
G02*
X169685000Y-76780000I-135000J0D01*
G01*
G37*
%TD*%
%TO.C,R5*%
G36*
G01*
X167685000Y-75760000D02*
X167315000Y-75760000D01*
G75*
G02*
X167180000Y-75625000I0J135000D01*
G01*
X167180000Y-75355000D01*
G75*
G02*
X167315000Y-75220000I135000J0D01*
G01*
X167685000Y-75220000D01*
G75*
G02*
X167820000Y-75355000I0J-135000D01*
G01*
X167820000Y-75625000D01*
G75*
G02*
X167685000Y-75760000I-135000J0D01*
G01*
G37*
G36*
G01*
X167685000Y-76780000D02*
X167315000Y-76780000D01*
G75*
G02*
X167180000Y-76645000I0J135000D01*
G01*
X167180000Y-76375000D01*
G75*
G02*
X167315000Y-76240000I135000J0D01*
G01*
X167685000Y-76240000D01*
G75*
G02*
X167820000Y-76375000I0J-135000D01*
G01*
X167820000Y-76645000D01*
G75*
G02*
X167685000Y-76780000I-135000J0D01*
G01*
G37*
%TD*%
%TO.C,R4*%
G36*
G01*
X164685000Y-73260000D02*
X164315000Y-73260000D01*
G75*
G02*
X164180000Y-73125000I0J135000D01*
G01*
X164180000Y-72855000D01*
G75*
G02*
X164315000Y-72720000I135000J0D01*
G01*
X164685000Y-72720000D01*
G75*
G02*
X164820000Y-72855000I0J-135000D01*
G01*
X164820000Y-73125000D01*
G75*
G02*
X164685000Y-73260000I-135000J0D01*
G01*
G37*
G36*
G01*
X164685000Y-74280000D02*
X164315000Y-74280000D01*
G75*
G02*
X164180000Y-74145000I0J135000D01*
G01*
X164180000Y-73875000D01*
G75*
G02*
X164315000Y-73740000I135000J0D01*
G01*
X164685000Y-73740000D01*
G75*
G02*
X164820000Y-73875000I0J-135000D01*
G01*
X164820000Y-74145000D01*
G75*
G02*
X164685000Y-74280000I-135000J0D01*
G01*
G37*
%TD*%
%TO.C,R3*%
G36*
G01*
X161185000Y-73260000D02*
X160815000Y-73260000D01*
G75*
G02*
X160680000Y-73125000I0J135000D01*
G01*
X160680000Y-72855000D01*
G75*
G02*
X160815000Y-72720000I135000J0D01*
G01*
X161185000Y-72720000D01*
G75*
G02*
X161320000Y-72855000I0J-135000D01*
G01*
X161320000Y-73125000D01*
G75*
G02*
X161185000Y-73260000I-135000J0D01*
G01*
G37*
G36*
G01*
X161185000Y-74280000D02*
X160815000Y-74280000D01*
G75*
G02*
X160680000Y-74145000I0J135000D01*
G01*
X160680000Y-73875000D01*
G75*
G02*
X160815000Y-73740000I135000J0D01*
G01*
X161185000Y-73740000D01*
G75*
G02*
X161320000Y-73875000I0J-135000D01*
G01*
X161320000Y-74145000D01*
G75*
G02*
X161185000Y-74280000I-135000J0D01*
G01*
G37*
%TD*%
%TO.C,U13*%
G36*
G01*
X158009500Y-90165000D02*
X157640500Y-90165000D01*
G75*
G02*
X157620000Y-90144500I0J20500D01*
G01*
X157620000Y-88615500D01*
G75*
G02*
X157640500Y-88595000I20500J0D01*
G01*
X158009500Y-88595000D01*
G75*
G02*
X158030000Y-88615500I0J-20500D01*
G01*
X158030000Y-90144500D01*
G75*
G02*
X158009500Y-90165000I-20500J0D01*
G01*
G37*
G36*
G01*
X158659500Y-90165000D02*
X158290500Y-90165000D01*
G75*
G02*
X158270000Y-90144500I0J20500D01*
G01*
X158270000Y-88615500D01*
G75*
G02*
X158290500Y-88595000I20500J0D01*
G01*
X158659500Y-88595000D01*
G75*
G02*
X158680000Y-88615500I0J-20500D01*
G01*
X158680000Y-90144500D01*
G75*
G02*
X158659500Y-90165000I-20500J0D01*
G01*
G37*
G36*
G01*
X159309500Y-90165000D02*
X158940500Y-90165000D01*
G75*
G02*
X158920000Y-90144500I0J20500D01*
G01*
X158920000Y-88615500D01*
G75*
G02*
X158940500Y-88595000I20500J0D01*
G01*
X159309500Y-88595000D01*
G75*
G02*
X159330000Y-88615500I0J-20500D01*
G01*
X159330000Y-90144500D01*
G75*
G02*
X159309500Y-90165000I-20500J0D01*
G01*
G37*
G36*
G01*
X159959500Y-90165000D02*
X159590500Y-90165000D01*
G75*
G02*
X159570000Y-90144500I0J20500D01*
G01*
X159570000Y-88615500D01*
G75*
G02*
X159590500Y-88595000I20500J0D01*
G01*
X159959500Y-88595000D01*
G75*
G02*
X159980000Y-88615500I0J-20500D01*
G01*
X159980000Y-90144500D01*
G75*
G02*
X159959500Y-90165000I-20500J0D01*
G01*
G37*
G36*
G01*
X160609500Y-90165000D02*
X160240500Y-90165000D01*
G75*
G02*
X160220000Y-90144500I0J20500D01*
G01*
X160220000Y-88615500D01*
G75*
G02*
X160240500Y-88595000I20500J0D01*
G01*
X160609500Y-88595000D01*
G75*
G02*
X160630000Y-88615500I0J-20500D01*
G01*
X160630000Y-90144500D01*
G75*
G02*
X160609500Y-90165000I-20500J0D01*
G01*
G37*
G36*
G01*
X161259500Y-90165000D02*
X160890500Y-90165000D01*
G75*
G02*
X160870000Y-90144500I0J20500D01*
G01*
X160870000Y-88615500D01*
G75*
G02*
X160890500Y-88595000I20500J0D01*
G01*
X161259500Y-88595000D01*
G75*
G02*
X161280000Y-88615500I0J-20500D01*
G01*
X161280000Y-90144500D01*
G75*
G02*
X161259500Y-90165000I-20500J0D01*
G01*
G37*
G36*
G01*
X161909500Y-90165000D02*
X161540500Y-90165000D01*
G75*
G02*
X161520000Y-90144500I0J20500D01*
G01*
X161520000Y-88615500D01*
G75*
G02*
X161540500Y-88595000I20500J0D01*
G01*
X161909500Y-88595000D01*
G75*
G02*
X161930000Y-88615500I0J-20500D01*
G01*
X161930000Y-90144500D01*
G75*
G02*
X161909500Y-90165000I-20500J0D01*
G01*
G37*
G36*
G01*
X162559500Y-90165000D02*
X162190500Y-90165000D01*
G75*
G02*
X162170000Y-90144500I0J20500D01*
G01*
X162170000Y-88615500D01*
G75*
G02*
X162190500Y-88595000I20500J0D01*
G01*
X162559500Y-88595000D01*
G75*
G02*
X162580000Y-88615500I0J-20500D01*
G01*
X162580000Y-90144500D01*
G75*
G02*
X162559500Y-90165000I-20500J0D01*
G01*
G37*
G36*
G01*
X163209500Y-90165000D02*
X162840500Y-90165000D01*
G75*
G02*
X162820000Y-90144500I0J20500D01*
G01*
X162820000Y-88615500D01*
G75*
G02*
X162840500Y-88595000I20500J0D01*
G01*
X163209500Y-88595000D01*
G75*
G02*
X163230000Y-88615500I0J-20500D01*
G01*
X163230000Y-90144500D01*
G75*
G02*
X163209500Y-90165000I-20500J0D01*
G01*
G37*
G36*
G01*
X163859500Y-90165000D02*
X163490500Y-90165000D01*
G75*
G02*
X163470000Y-90144500I0J20500D01*
G01*
X163470000Y-88615500D01*
G75*
G02*
X163490500Y-88595000I20500J0D01*
G01*
X163859500Y-88595000D01*
G75*
G02*
X163880000Y-88615500I0J-20500D01*
G01*
X163880000Y-90144500D01*
G75*
G02*
X163859500Y-90165000I-20500J0D01*
G01*
G37*
G36*
G01*
X163859500Y-95905000D02*
X163490500Y-95905000D01*
G75*
G02*
X163470000Y-95884500I0J20500D01*
G01*
X163470000Y-94355500D01*
G75*
G02*
X163490500Y-94335000I20500J0D01*
G01*
X163859500Y-94335000D01*
G75*
G02*
X163880000Y-94355500I0J-20500D01*
G01*
X163880000Y-95884500D01*
G75*
G02*
X163859500Y-95905000I-20500J0D01*
G01*
G37*
G36*
G01*
X163209500Y-95905000D02*
X162840500Y-95905000D01*
G75*
G02*
X162820000Y-95884500I0J20500D01*
G01*
X162820000Y-94355500D01*
G75*
G02*
X162840500Y-94335000I20500J0D01*
G01*
X163209500Y-94335000D01*
G75*
G02*
X163230000Y-94355500I0J-20500D01*
G01*
X163230000Y-95884500D01*
G75*
G02*
X163209500Y-95905000I-20500J0D01*
G01*
G37*
G36*
G01*
X162559500Y-95905000D02*
X162190500Y-95905000D01*
G75*
G02*
X162170000Y-95884500I0J20500D01*
G01*
X162170000Y-94355500D01*
G75*
G02*
X162190500Y-94335000I20500J0D01*
G01*
X162559500Y-94335000D01*
G75*
G02*
X162580000Y-94355500I0J-20500D01*
G01*
X162580000Y-95884500D01*
G75*
G02*
X162559500Y-95905000I-20500J0D01*
G01*
G37*
G36*
G01*
X161909500Y-95905000D02*
X161540500Y-95905000D01*
G75*
G02*
X161520000Y-95884500I0J20500D01*
G01*
X161520000Y-94355500D01*
G75*
G02*
X161540500Y-94335000I20500J0D01*
G01*
X161909500Y-94335000D01*
G75*
G02*
X161930000Y-94355500I0J-20500D01*
G01*
X161930000Y-95884500D01*
G75*
G02*
X161909500Y-95905000I-20500J0D01*
G01*
G37*
G36*
G01*
X161259500Y-95905000D02*
X160890500Y-95905000D01*
G75*
G02*
X160870000Y-95884500I0J20500D01*
G01*
X160870000Y-94355500D01*
G75*
G02*
X160890500Y-94335000I20500J0D01*
G01*
X161259500Y-94335000D01*
G75*
G02*
X161280000Y-94355500I0J-20500D01*
G01*
X161280000Y-95884500D01*
G75*
G02*
X161259500Y-95905000I-20500J0D01*
G01*
G37*
G36*
G01*
X160609500Y-95905000D02*
X160240500Y-95905000D01*
G75*
G02*
X160220000Y-95884500I0J20500D01*
G01*
X160220000Y-94355500D01*
G75*
G02*
X160240500Y-94335000I20500J0D01*
G01*
X160609500Y-94335000D01*
G75*
G02*
X160630000Y-94355500I0J-20500D01*
G01*
X160630000Y-95884500D01*
G75*
G02*
X160609500Y-95905000I-20500J0D01*
G01*
G37*
G36*
G01*
X159959500Y-95905000D02*
X159590500Y-95905000D01*
G75*
G02*
X159570000Y-95884500I0J20500D01*
G01*
X159570000Y-94355500D01*
G75*
G02*
X159590500Y-94335000I20500J0D01*
G01*
X159959500Y-94335000D01*
G75*
G02*
X159980000Y-94355500I0J-20500D01*
G01*
X159980000Y-95884500D01*
G75*
G02*
X159959500Y-95905000I-20500J0D01*
G01*
G37*
G36*
G01*
X159309500Y-95905000D02*
X158940500Y-95905000D01*
G75*
G02*
X158920000Y-95884500I0J20500D01*
G01*
X158920000Y-94355500D01*
G75*
G02*
X158940500Y-94335000I20500J0D01*
G01*
X159309500Y-94335000D01*
G75*
G02*
X159330000Y-94355500I0J-20500D01*
G01*
X159330000Y-95884500D01*
G75*
G02*
X159309500Y-95905000I-20500J0D01*
G01*
G37*
G36*
G01*
X158659500Y-95905000D02*
X158290500Y-95905000D01*
G75*
G02*
X158270000Y-95884500I0J20500D01*
G01*
X158270000Y-94355500D01*
G75*
G02*
X158290500Y-94335000I20500J0D01*
G01*
X158659500Y-94335000D01*
G75*
G02*
X158680000Y-94355500I0J-20500D01*
G01*
X158680000Y-95884500D01*
G75*
G02*
X158659500Y-95905000I-20500J0D01*
G01*
G37*
G36*
G01*
X158009500Y-95905000D02*
X157640500Y-95905000D01*
G75*
G02*
X157620000Y-95884500I0J20500D01*
G01*
X157620000Y-94355500D01*
G75*
G02*
X157640500Y-94335000I20500J0D01*
G01*
X158009500Y-94335000D01*
G75*
G02*
X158030000Y-94355500I0J-20500D01*
G01*
X158030000Y-95884500D01*
G75*
G02*
X158009500Y-95905000I-20500J0D01*
G01*
G37*
%TD*%
%TO.C,R15*%
G36*
G01*
X196275000Y-58075000D02*
X195725000Y-58075000D01*
G75*
G02*
X195525000Y-57875000I0J200000D01*
G01*
X195525000Y-57475000D01*
G75*
G02*
X195725000Y-57275000I200000J0D01*
G01*
X196275000Y-57275000D01*
G75*
G02*
X196475000Y-57475000I0J-200000D01*
G01*
X196475000Y-57875000D01*
G75*
G02*
X196275000Y-58075000I-200000J0D01*
G01*
G37*
G36*
G01*
X196275000Y-59725000D02*
X195725000Y-59725000D01*
G75*
G02*
X195525000Y-59525000I0J200000D01*
G01*
X195525000Y-59125000D01*
G75*
G02*
X195725000Y-58925000I200000J0D01*
G01*
X196275000Y-58925000D01*
G75*
G02*
X196475000Y-59125000I0J-200000D01*
G01*
X196475000Y-59525000D01*
G75*
G02*
X196275000Y-59725000I-200000J0D01*
G01*
G37*
%TD*%
%TO.C,R14*%
G36*
G01*
X194275000Y-58075000D02*
X193725000Y-58075000D01*
G75*
G02*
X193525000Y-57875000I0J200000D01*
G01*
X193525000Y-57475000D01*
G75*
G02*
X193725000Y-57275000I200000J0D01*
G01*
X194275000Y-57275000D01*
G75*
G02*
X194475000Y-57475000I0J-200000D01*
G01*
X194475000Y-57875000D01*
G75*
G02*
X194275000Y-58075000I-200000J0D01*
G01*
G37*
G36*
G01*
X194275000Y-59725000D02*
X193725000Y-59725000D01*
G75*
G02*
X193525000Y-59525000I0J200000D01*
G01*
X193525000Y-59125000D01*
G75*
G02*
X193725000Y-58925000I200000J0D01*
G01*
X194275000Y-58925000D01*
G75*
G02*
X194475000Y-59125000I0J-200000D01*
G01*
X194475000Y-59525000D01*
G75*
G02*
X194275000Y-59725000I-200000J0D01*
G01*
G37*
%TD*%
%TO.C,C22*%
G36*
G01*
X154425000Y-89130000D02*
X154425000Y-89630000D01*
G75*
G02*
X154200000Y-89855000I-225000J0D01*
G01*
X153750000Y-89855000D01*
G75*
G02*
X153525000Y-89630000I0J225000D01*
G01*
X153525000Y-89130000D01*
G75*
G02*
X153750000Y-88905000I225000J0D01*
G01*
X154200000Y-88905000D01*
G75*
G02*
X154425000Y-89130000I0J-225000D01*
G01*
G37*
G36*
G01*
X155975000Y-89130000D02*
X155975000Y-89630000D01*
G75*
G02*
X155750000Y-89855000I-225000J0D01*
G01*
X155300000Y-89855000D01*
G75*
G02*
X155075000Y-89630000I0J225000D01*
G01*
X155075000Y-89130000D01*
G75*
G02*
X155300000Y-88905000I225000J0D01*
G01*
X155750000Y-88905000D01*
G75*
G02*
X155975000Y-89130000I0J-225000D01*
G01*
G37*
%TD*%
%TO.C,C21*%
G36*
G01*
X174610000Y-67750000D02*
X174610000Y-67250000D01*
G75*
G02*
X174835000Y-67025000I225000J0D01*
G01*
X175285000Y-67025000D01*
G75*
G02*
X175510000Y-67250000I0J-225000D01*
G01*
X175510000Y-67750000D01*
G75*
G02*
X175285000Y-67975000I-225000J0D01*
G01*
X174835000Y-67975000D01*
G75*
G02*
X174610000Y-67750000I0J225000D01*
G01*
G37*
G36*
G01*
X173060000Y-67750000D02*
X173060000Y-67250000D01*
G75*
G02*
X173285000Y-67025000I225000J0D01*
G01*
X173735000Y-67025000D01*
G75*
G02*
X173960000Y-67250000I0J-225000D01*
G01*
X173960000Y-67750000D01*
G75*
G02*
X173735000Y-67975000I-225000J0D01*
G01*
X173285000Y-67975000D01*
G75*
G02*
X173060000Y-67750000I0J225000D01*
G01*
G37*
%TD*%
D12*
%TO.C,U12*%
X142980000Y-68940000D03*
X143630000Y-68940000D03*
X144280000Y-68940000D03*
X144930000Y-68940000D03*
X145580000Y-68940000D03*
X146230000Y-68940000D03*
X146880000Y-68940000D03*
X147530000Y-68940000D03*
X148180000Y-68940000D03*
X148830000Y-68940000D03*
X149480000Y-68940000D03*
X150130000Y-68940000D03*
X150130000Y-74680000D03*
X149480000Y-74680000D03*
X148830000Y-74680000D03*
X148180000Y-74680000D03*
X147530000Y-74680000D03*
X146880000Y-74680000D03*
X146230000Y-74680000D03*
X145580000Y-74680000D03*
X144930000Y-74680000D03*
X144280000Y-74680000D03*
X143630000Y-74680000D03*
X142980000Y-74680000D03*
%TD*%
%TO.C,R2*%
G36*
G01*
X126097500Y-59374997D02*
X126097500Y-60625003D01*
G75*
G02*
X125847503Y-60875000I-249997J0D01*
G01*
X125222497Y-60875000D01*
G75*
G02*
X124972500Y-60625003I0J249997D01*
G01*
X124972500Y-59374997D01*
G75*
G02*
X125222497Y-59125000I249997J0D01*
G01*
X125847503Y-59125000D01*
G75*
G02*
X126097500Y-59374997I0J-249997D01*
G01*
G37*
G36*
G01*
X129022500Y-59374997D02*
X129022500Y-60625003D01*
G75*
G02*
X128772503Y-60875000I-249997J0D01*
G01*
X128147497Y-60875000D01*
G75*
G02*
X127897500Y-60625003I0J249997D01*
G01*
X127897500Y-59374997D01*
G75*
G02*
X128147497Y-59125000I249997J0D01*
G01*
X128772503Y-59125000D01*
G75*
G02*
X129022500Y-59374997I0J-249997D01*
G01*
G37*
%TD*%
D13*
%TO.C,J3*%
X152480000Y-60620000D03*
X151980000Y-60620000D03*
X151480000Y-60620000D03*
X150980000Y-60620000D03*
X150480000Y-60620000D03*
X149980000Y-60620000D03*
X149480000Y-60620000D03*
X148980000Y-60620000D03*
X148480000Y-60620000D03*
X147980000Y-60620000D03*
X147480000Y-60620000D03*
X146980000Y-60620000D03*
X146480000Y-60620000D03*
X145980000Y-60620000D03*
X145480000Y-60620000D03*
X144980000Y-60620000D03*
X144480000Y-60620000D03*
X143980000Y-60620000D03*
X143480000Y-60620000D03*
%TD*%
%TO.C,C20*%
G36*
G01*
X127060000Y-55525000D02*
X127060000Y-56475000D01*
G75*
G02*
X126810000Y-56725000I-250000J0D01*
G01*
X126310000Y-56725000D01*
G75*
G02*
X126060000Y-56475000I0J250000D01*
G01*
X126060000Y-55525000D01*
G75*
G02*
X126310000Y-55275000I250000J0D01*
G01*
X126810000Y-55275000D01*
G75*
G02*
X127060000Y-55525000I0J-250000D01*
G01*
G37*
G36*
G01*
X128960000Y-55525000D02*
X128960000Y-56475000D01*
G75*
G02*
X128710000Y-56725000I-250000J0D01*
G01*
X128210000Y-56725000D01*
G75*
G02*
X127960000Y-56475000I0J250000D01*
G01*
X127960000Y-55525000D01*
G75*
G02*
X128210000Y-55275000I250000J0D01*
G01*
X128710000Y-55275000D01*
G75*
G02*
X128960000Y-55525000I0J-250000D01*
G01*
G37*
%TD*%
%TO.C,C19*%
G36*
G01*
X152880000Y-63630000D02*
X152880000Y-63130000D01*
G75*
G02*
X153105000Y-62905000I225000J0D01*
G01*
X153555000Y-62905000D01*
G75*
G02*
X153780000Y-63130000I0J-225000D01*
G01*
X153780000Y-63630000D01*
G75*
G02*
X153555000Y-63855000I-225000J0D01*
G01*
X153105000Y-63855000D01*
G75*
G02*
X152880000Y-63630000I0J225000D01*
G01*
G37*
G36*
G01*
X151330000Y-63630000D02*
X151330000Y-63130000D01*
G75*
G02*
X151555000Y-62905000I225000J0D01*
G01*
X152005000Y-62905000D01*
G75*
G02*
X152230000Y-63130000I0J-225000D01*
G01*
X152230000Y-63630000D01*
G75*
G02*
X152005000Y-63855000I-225000J0D01*
G01*
X151555000Y-63855000D01*
G75*
G02*
X151330000Y-63630000I0J225000D01*
G01*
G37*
%TD*%
%TO.C,C18*%
G36*
G01*
X153155000Y-72880000D02*
X153155000Y-72380000D01*
G75*
G02*
X153380000Y-72155000I225000J0D01*
G01*
X153830000Y-72155000D01*
G75*
G02*
X154055000Y-72380000I0J-225000D01*
G01*
X154055000Y-72880000D01*
G75*
G02*
X153830000Y-73105000I-225000J0D01*
G01*
X153380000Y-73105000D01*
G75*
G02*
X153155000Y-72880000I0J225000D01*
G01*
G37*
G36*
G01*
X151605000Y-72880000D02*
X151605000Y-72380000D01*
G75*
G02*
X151830000Y-72155000I225000J0D01*
G01*
X152280000Y-72155000D01*
G75*
G02*
X152505000Y-72380000I0J-225000D01*
G01*
X152505000Y-72880000D01*
G75*
G02*
X152280000Y-73105000I-225000J0D01*
G01*
X151830000Y-73105000D01*
G75*
G02*
X151605000Y-72880000I0J225000D01*
G01*
G37*
%TD*%
%TO.C,C17*%
G36*
G01*
X154850000Y-74930000D02*
X154850000Y-74430000D01*
G75*
G02*
X155075000Y-74205000I225000J0D01*
G01*
X155525000Y-74205000D01*
G75*
G02*
X155750000Y-74430000I0J-225000D01*
G01*
X155750000Y-74930000D01*
G75*
G02*
X155525000Y-75155000I-225000J0D01*
G01*
X155075000Y-75155000D01*
G75*
G02*
X154850000Y-74930000I0J225000D01*
G01*
G37*
G36*
G01*
X153300000Y-74930000D02*
X153300000Y-74430000D01*
G75*
G02*
X153525000Y-74205000I225000J0D01*
G01*
X153975000Y-74205000D01*
G75*
G02*
X154200000Y-74430000I0J-225000D01*
G01*
X154200000Y-74930000D01*
G75*
G02*
X153975000Y-75155000I-225000J0D01*
G01*
X153525000Y-75155000D01*
G75*
G02*
X153300000Y-74930000I0J225000D01*
G01*
G37*
%TD*%
%TO.C,C16*%
G36*
G01*
X138705000Y-67729999D02*
X138705000Y-69030001D01*
G75*
G02*
X138455001Y-69280000I-249999J0D01*
G01*
X137804999Y-69280000D01*
G75*
G02*
X137555000Y-69030001I0J249999D01*
G01*
X137555000Y-67729999D01*
G75*
G02*
X137804999Y-67480000I249999J0D01*
G01*
X138455001Y-67480000D01*
G75*
G02*
X138705000Y-67729999I0J-249999D01*
G01*
G37*
G36*
G01*
X141655000Y-67729999D02*
X141655000Y-69030001D01*
G75*
G02*
X141405001Y-69280000I-249999J0D01*
G01*
X140754999Y-69280000D01*
G75*
G02*
X140505000Y-69030001I0J249999D01*
G01*
X140505000Y-67729999D01*
G75*
G02*
X140754999Y-67480000I249999J0D01*
G01*
X141405001Y-67480000D01*
G75*
G02*
X141655000Y-67729999I0J-249999D01*
G01*
G37*
%TD*%
%TO.C,C15*%
G36*
G01*
X141505000Y-65630000D02*
X141505000Y-66130000D01*
G75*
G02*
X141280000Y-66355000I-225000J0D01*
G01*
X140830000Y-66355000D01*
G75*
G02*
X140605000Y-66130000I0J225000D01*
G01*
X140605000Y-65630000D01*
G75*
G02*
X140830000Y-65405000I225000J0D01*
G01*
X141280000Y-65405000D01*
G75*
G02*
X141505000Y-65630000I0J-225000D01*
G01*
G37*
G36*
G01*
X143055000Y-65630000D02*
X143055000Y-66130000D01*
G75*
G02*
X142830000Y-66355000I-225000J0D01*
G01*
X142380000Y-66355000D01*
G75*
G02*
X142155000Y-66130000I0J225000D01*
G01*
X142155000Y-65630000D01*
G75*
G02*
X142380000Y-65405000I225000J0D01*
G01*
X142830000Y-65405000D01*
G75*
G02*
X143055000Y-65630000I0J-225000D01*
G01*
G37*
%TD*%
%TO.C,U11*%
G36*
G01*
X161375000Y-104740500D02*
X161375000Y-105109500D01*
G75*
G02*
X161354500Y-105130000I-20500J0D01*
G01*
X159825500Y-105130000D01*
G75*
G02*
X159805000Y-105109500I0J20500D01*
G01*
X159805000Y-104740500D01*
G75*
G02*
X159825500Y-104720000I20500J0D01*
G01*
X161354500Y-104720000D01*
G75*
G02*
X161375000Y-104740500I0J-20500D01*
G01*
G37*
G36*
G01*
X161375000Y-104090500D02*
X161375000Y-104459500D01*
G75*
G02*
X161354500Y-104480000I-20500J0D01*
G01*
X159825500Y-104480000D01*
G75*
G02*
X159805000Y-104459500I0J20500D01*
G01*
X159805000Y-104090500D01*
G75*
G02*
X159825500Y-104070000I20500J0D01*
G01*
X161354500Y-104070000D01*
G75*
G02*
X161375000Y-104090500I0J-20500D01*
G01*
G37*
G36*
G01*
X161375000Y-103440500D02*
X161375000Y-103809500D01*
G75*
G02*
X161354500Y-103830000I-20500J0D01*
G01*
X159825500Y-103830000D01*
G75*
G02*
X159805000Y-103809500I0J20500D01*
G01*
X159805000Y-103440500D01*
G75*
G02*
X159825500Y-103420000I20500J0D01*
G01*
X161354500Y-103420000D01*
G75*
G02*
X161375000Y-103440500I0J-20500D01*
G01*
G37*
G36*
G01*
X161375000Y-102790500D02*
X161375000Y-103159500D01*
G75*
G02*
X161354500Y-103180000I-20500J0D01*
G01*
X159825500Y-103180000D01*
G75*
G02*
X159805000Y-103159500I0J20500D01*
G01*
X159805000Y-102790500D01*
G75*
G02*
X159825500Y-102770000I20500J0D01*
G01*
X161354500Y-102770000D01*
G75*
G02*
X161375000Y-102790500I0J-20500D01*
G01*
G37*
G36*
G01*
X161375000Y-102140500D02*
X161375000Y-102509500D01*
G75*
G02*
X161354500Y-102530000I-20500J0D01*
G01*
X159825500Y-102530000D01*
G75*
G02*
X159805000Y-102509500I0J20500D01*
G01*
X159805000Y-102140500D01*
G75*
G02*
X159825500Y-102120000I20500J0D01*
G01*
X161354500Y-102120000D01*
G75*
G02*
X161375000Y-102140500I0J-20500D01*
G01*
G37*
G36*
G01*
X161375000Y-101490500D02*
X161375000Y-101859500D01*
G75*
G02*
X161354500Y-101880000I-20500J0D01*
G01*
X159825500Y-101880000D01*
G75*
G02*
X159805000Y-101859500I0J20500D01*
G01*
X159805000Y-101490500D01*
G75*
G02*
X159825500Y-101470000I20500J0D01*
G01*
X161354500Y-101470000D01*
G75*
G02*
X161375000Y-101490500I0J-20500D01*
G01*
G37*
G36*
G01*
X161375000Y-100840500D02*
X161375000Y-101209500D01*
G75*
G02*
X161354500Y-101230000I-20500J0D01*
G01*
X159825500Y-101230000D01*
G75*
G02*
X159805000Y-101209500I0J20500D01*
G01*
X159805000Y-100840500D01*
G75*
G02*
X159825500Y-100820000I20500J0D01*
G01*
X161354500Y-100820000D01*
G75*
G02*
X161375000Y-100840500I0J-20500D01*
G01*
G37*
G36*
G01*
X161375000Y-100190500D02*
X161375000Y-100559500D01*
G75*
G02*
X161354500Y-100580000I-20500J0D01*
G01*
X159825500Y-100580000D01*
G75*
G02*
X159805000Y-100559500I0J20500D01*
G01*
X159805000Y-100190500D01*
G75*
G02*
X159825500Y-100170000I20500J0D01*
G01*
X161354500Y-100170000D01*
G75*
G02*
X161375000Y-100190500I0J-20500D01*
G01*
G37*
G36*
G01*
X161375000Y-99540500D02*
X161375000Y-99909500D01*
G75*
G02*
X161354500Y-99930000I-20500J0D01*
G01*
X159825500Y-99930000D01*
G75*
G02*
X159805000Y-99909500I0J20500D01*
G01*
X159805000Y-99540500D01*
G75*
G02*
X159825500Y-99520000I20500J0D01*
G01*
X161354500Y-99520000D01*
G75*
G02*
X161375000Y-99540500I0J-20500D01*
G01*
G37*
G36*
G01*
X161375000Y-98890500D02*
X161375000Y-99259500D01*
G75*
G02*
X161354500Y-99280000I-20500J0D01*
G01*
X159825500Y-99280000D01*
G75*
G02*
X159805000Y-99259500I0J20500D01*
G01*
X159805000Y-98890500D01*
G75*
G02*
X159825500Y-98870000I20500J0D01*
G01*
X161354500Y-98870000D01*
G75*
G02*
X161375000Y-98890500I0J-20500D01*
G01*
G37*
G36*
G01*
X167115000Y-98890500D02*
X167115000Y-99259500D01*
G75*
G02*
X167094500Y-99280000I-20500J0D01*
G01*
X165565500Y-99280000D01*
G75*
G02*
X165545000Y-99259500I0J20500D01*
G01*
X165545000Y-98890500D01*
G75*
G02*
X165565500Y-98870000I20500J0D01*
G01*
X167094500Y-98870000D01*
G75*
G02*
X167115000Y-98890500I0J-20500D01*
G01*
G37*
G36*
G01*
X167115000Y-99540500D02*
X167115000Y-99909500D01*
G75*
G02*
X167094500Y-99930000I-20500J0D01*
G01*
X165565500Y-99930000D01*
G75*
G02*
X165545000Y-99909500I0J20500D01*
G01*
X165545000Y-99540500D01*
G75*
G02*
X165565500Y-99520000I20500J0D01*
G01*
X167094500Y-99520000D01*
G75*
G02*
X167115000Y-99540500I0J-20500D01*
G01*
G37*
G36*
G01*
X167115000Y-100190500D02*
X167115000Y-100559500D01*
G75*
G02*
X167094500Y-100580000I-20500J0D01*
G01*
X165565500Y-100580000D01*
G75*
G02*
X165545000Y-100559500I0J20500D01*
G01*
X165545000Y-100190500D01*
G75*
G02*
X165565500Y-100170000I20500J0D01*
G01*
X167094500Y-100170000D01*
G75*
G02*
X167115000Y-100190500I0J-20500D01*
G01*
G37*
G36*
G01*
X167115000Y-100840500D02*
X167115000Y-101209500D01*
G75*
G02*
X167094500Y-101230000I-20500J0D01*
G01*
X165565500Y-101230000D01*
G75*
G02*
X165545000Y-101209500I0J20500D01*
G01*
X165545000Y-100840500D01*
G75*
G02*
X165565500Y-100820000I20500J0D01*
G01*
X167094500Y-100820000D01*
G75*
G02*
X167115000Y-100840500I0J-20500D01*
G01*
G37*
G36*
G01*
X167115000Y-101490500D02*
X167115000Y-101859500D01*
G75*
G02*
X167094500Y-101880000I-20500J0D01*
G01*
X165565500Y-101880000D01*
G75*
G02*
X165545000Y-101859500I0J20500D01*
G01*
X165545000Y-101490500D01*
G75*
G02*
X165565500Y-101470000I20500J0D01*
G01*
X167094500Y-101470000D01*
G75*
G02*
X167115000Y-101490500I0J-20500D01*
G01*
G37*
G36*
G01*
X167115000Y-102140500D02*
X167115000Y-102509500D01*
G75*
G02*
X167094500Y-102530000I-20500J0D01*
G01*
X165565500Y-102530000D01*
G75*
G02*
X165545000Y-102509500I0J20500D01*
G01*
X165545000Y-102140500D01*
G75*
G02*
X165565500Y-102120000I20500J0D01*
G01*
X167094500Y-102120000D01*
G75*
G02*
X167115000Y-102140500I0J-20500D01*
G01*
G37*
G36*
G01*
X167115000Y-102790500D02*
X167115000Y-103159500D01*
G75*
G02*
X167094500Y-103180000I-20500J0D01*
G01*
X165565500Y-103180000D01*
G75*
G02*
X165545000Y-103159500I0J20500D01*
G01*
X165545000Y-102790500D01*
G75*
G02*
X165565500Y-102770000I20500J0D01*
G01*
X167094500Y-102770000D01*
G75*
G02*
X167115000Y-102790500I0J-20500D01*
G01*
G37*
G36*
G01*
X167115000Y-103440500D02*
X167115000Y-103809500D01*
G75*
G02*
X167094500Y-103830000I-20500J0D01*
G01*
X165565500Y-103830000D01*
G75*
G02*
X165545000Y-103809500I0J20500D01*
G01*
X165545000Y-103440500D01*
G75*
G02*
X165565500Y-103420000I20500J0D01*
G01*
X167094500Y-103420000D01*
G75*
G02*
X167115000Y-103440500I0J-20500D01*
G01*
G37*
G36*
G01*
X167115000Y-104090500D02*
X167115000Y-104459500D01*
G75*
G02*
X167094500Y-104480000I-20500J0D01*
G01*
X165565500Y-104480000D01*
G75*
G02*
X165545000Y-104459500I0J20500D01*
G01*
X165545000Y-104090500D01*
G75*
G02*
X165565500Y-104070000I20500J0D01*
G01*
X167094500Y-104070000D01*
G75*
G02*
X167115000Y-104090500I0J-20500D01*
G01*
G37*
G36*
G01*
X167115000Y-104740500D02*
X167115000Y-105109500D01*
G75*
G02*
X167094500Y-105130000I-20500J0D01*
G01*
X165565500Y-105130000D01*
G75*
G02*
X165545000Y-105109500I0J20500D01*
G01*
X165545000Y-104740500D01*
G75*
G02*
X165565500Y-104720000I20500J0D01*
G01*
X167094500Y-104720000D01*
G75*
G02*
X167115000Y-104740500I0J-20500D01*
G01*
G37*
%TD*%
%TO.C,U10*%
G36*
G01*
X101719500Y-127915000D02*
X101350500Y-127915000D01*
G75*
G02*
X101330000Y-127894500I0J20500D01*
G01*
X101330000Y-126365500D01*
G75*
G02*
X101350500Y-126345000I20500J0D01*
G01*
X101719500Y-126345000D01*
G75*
G02*
X101740000Y-126365500I0J-20500D01*
G01*
X101740000Y-127894500D01*
G75*
G02*
X101719500Y-127915000I-20500J0D01*
G01*
G37*
G36*
G01*
X102369500Y-127915000D02*
X102000500Y-127915000D01*
G75*
G02*
X101980000Y-127894500I0J20500D01*
G01*
X101980000Y-126365500D01*
G75*
G02*
X102000500Y-126345000I20500J0D01*
G01*
X102369500Y-126345000D01*
G75*
G02*
X102390000Y-126365500I0J-20500D01*
G01*
X102390000Y-127894500D01*
G75*
G02*
X102369500Y-127915000I-20500J0D01*
G01*
G37*
G36*
G01*
X103019500Y-127915000D02*
X102650500Y-127915000D01*
G75*
G02*
X102630000Y-127894500I0J20500D01*
G01*
X102630000Y-126365500D01*
G75*
G02*
X102650500Y-126345000I20500J0D01*
G01*
X103019500Y-126345000D01*
G75*
G02*
X103040000Y-126365500I0J-20500D01*
G01*
X103040000Y-127894500D01*
G75*
G02*
X103019500Y-127915000I-20500J0D01*
G01*
G37*
G36*
G01*
X103669500Y-127915000D02*
X103300500Y-127915000D01*
G75*
G02*
X103280000Y-127894500I0J20500D01*
G01*
X103280000Y-126365500D01*
G75*
G02*
X103300500Y-126345000I20500J0D01*
G01*
X103669500Y-126345000D01*
G75*
G02*
X103690000Y-126365500I0J-20500D01*
G01*
X103690000Y-127894500D01*
G75*
G02*
X103669500Y-127915000I-20500J0D01*
G01*
G37*
G36*
G01*
X104319500Y-127915000D02*
X103950500Y-127915000D01*
G75*
G02*
X103930000Y-127894500I0J20500D01*
G01*
X103930000Y-126365500D01*
G75*
G02*
X103950500Y-126345000I20500J0D01*
G01*
X104319500Y-126345000D01*
G75*
G02*
X104340000Y-126365500I0J-20500D01*
G01*
X104340000Y-127894500D01*
G75*
G02*
X104319500Y-127915000I-20500J0D01*
G01*
G37*
G36*
G01*
X104969500Y-127915000D02*
X104600500Y-127915000D01*
G75*
G02*
X104580000Y-127894500I0J20500D01*
G01*
X104580000Y-126365500D01*
G75*
G02*
X104600500Y-126345000I20500J0D01*
G01*
X104969500Y-126345000D01*
G75*
G02*
X104990000Y-126365500I0J-20500D01*
G01*
X104990000Y-127894500D01*
G75*
G02*
X104969500Y-127915000I-20500J0D01*
G01*
G37*
G36*
G01*
X105619500Y-127915000D02*
X105250500Y-127915000D01*
G75*
G02*
X105230000Y-127894500I0J20500D01*
G01*
X105230000Y-126365500D01*
G75*
G02*
X105250500Y-126345000I20500J0D01*
G01*
X105619500Y-126345000D01*
G75*
G02*
X105640000Y-126365500I0J-20500D01*
G01*
X105640000Y-127894500D01*
G75*
G02*
X105619500Y-127915000I-20500J0D01*
G01*
G37*
G36*
G01*
X106269500Y-127915000D02*
X105900500Y-127915000D01*
G75*
G02*
X105880000Y-127894500I0J20500D01*
G01*
X105880000Y-126365500D01*
G75*
G02*
X105900500Y-126345000I20500J0D01*
G01*
X106269500Y-126345000D01*
G75*
G02*
X106290000Y-126365500I0J-20500D01*
G01*
X106290000Y-127894500D01*
G75*
G02*
X106269500Y-127915000I-20500J0D01*
G01*
G37*
G36*
G01*
X106919500Y-127915000D02*
X106550500Y-127915000D01*
G75*
G02*
X106530000Y-127894500I0J20500D01*
G01*
X106530000Y-126365500D01*
G75*
G02*
X106550500Y-126345000I20500J0D01*
G01*
X106919500Y-126345000D01*
G75*
G02*
X106940000Y-126365500I0J-20500D01*
G01*
X106940000Y-127894500D01*
G75*
G02*
X106919500Y-127915000I-20500J0D01*
G01*
G37*
G36*
G01*
X107569500Y-127915000D02*
X107200500Y-127915000D01*
G75*
G02*
X107180000Y-127894500I0J20500D01*
G01*
X107180000Y-126365500D01*
G75*
G02*
X107200500Y-126345000I20500J0D01*
G01*
X107569500Y-126345000D01*
G75*
G02*
X107590000Y-126365500I0J-20500D01*
G01*
X107590000Y-127894500D01*
G75*
G02*
X107569500Y-127915000I-20500J0D01*
G01*
G37*
G36*
G01*
X107569500Y-133655000D02*
X107200500Y-133655000D01*
G75*
G02*
X107180000Y-133634500I0J20500D01*
G01*
X107180000Y-132105500D01*
G75*
G02*
X107200500Y-132085000I20500J0D01*
G01*
X107569500Y-132085000D01*
G75*
G02*
X107590000Y-132105500I0J-20500D01*
G01*
X107590000Y-133634500D01*
G75*
G02*
X107569500Y-133655000I-20500J0D01*
G01*
G37*
G36*
G01*
X106919500Y-133655000D02*
X106550500Y-133655000D01*
G75*
G02*
X106530000Y-133634500I0J20500D01*
G01*
X106530000Y-132105500D01*
G75*
G02*
X106550500Y-132085000I20500J0D01*
G01*
X106919500Y-132085000D01*
G75*
G02*
X106940000Y-132105500I0J-20500D01*
G01*
X106940000Y-133634500D01*
G75*
G02*
X106919500Y-133655000I-20500J0D01*
G01*
G37*
G36*
G01*
X106269500Y-133655000D02*
X105900500Y-133655000D01*
G75*
G02*
X105880000Y-133634500I0J20500D01*
G01*
X105880000Y-132105500D01*
G75*
G02*
X105900500Y-132085000I20500J0D01*
G01*
X106269500Y-132085000D01*
G75*
G02*
X106290000Y-132105500I0J-20500D01*
G01*
X106290000Y-133634500D01*
G75*
G02*
X106269500Y-133655000I-20500J0D01*
G01*
G37*
G36*
G01*
X105619500Y-133655000D02*
X105250500Y-133655000D01*
G75*
G02*
X105230000Y-133634500I0J20500D01*
G01*
X105230000Y-132105500D01*
G75*
G02*
X105250500Y-132085000I20500J0D01*
G01*
X105619500Y-132085000D01*
G75*
G02*
X105640000Y-132105500I0J-20500D01*
G01*
X105640000Y-133634500D01*
G75*
G02*
X105619500Y-133655000I-20500J0D01*
G01*
G37*
G36*
G01*
X104969500Y-133655000D02*
X104600500Y-133655000D01*
G75*
G02*
X104580000Y-133634500I0J20500D01*
G01*
X104580000Y-132105500D01*
G75*
G02*
X104600500Y-132085000I20500J0D01*
G01*
X104969500Y-132085000D01*
G75*
G02*
X104990000Y-132105500I0J-20500D01*
G01*
X104990000Y-133634500D01*
G75*
G02*
X104969500Y-133655000I-20500J0D01*
G01*
G37*
G36*
G01*
X104319500Y-133655000D02*
X103950500Y-133655000D01*
G75*
G02*
X103930000Y-133634500I0J20500D01*
G01*
X103930000Y-132105500D01*
G75*
G02*
X103950500Y-132085000I20500J0D01*
G01*
X104319500Y-132085000D01*
G75*
G02*
X104340000Y-132105500I0J-20500D01*
G01*
X104340000Y-133634500D01*
G75*
G02*
X104319500Y-133655000I-20500J0D01*
G01*
G37*
G36*
G01*
X103669500Y-133655000D02*
X103300500Y-133655000D01*
G75*
G02*
X103280000Y-133634500I0J20500D01*
G01*
X103280000Y-132105500D01*
G75*
G02*
X103300500Y-132085000I20500J0D01*
G01*
X103669500Y-132085000D01*
G75*
G02*
X103690000Y-132105500I0J-20500D01*
G01*
X103690000Y-133634500D01*
G75*
G02*
X103669500Y-133655000I-20500J0D01*
G01*
G37*
G36*
G01*
X103019500Y-133655000D02*
X102650500Y-133655000D01*
G75*
G02*
X102630000Y-133634500I0J20500D01*
G01*
X102630000Y-132105500D01*
G75*
G02*
X102650500Y-132085000I20500J0D01*
G01*
X103019500Y-132085000D01*
G75*
G02*
X103040000Y-132105500I0J-20500D01*
G01*
X103040000Y-133634500D01*
G75*
G02*
X103019500Y-133655000I-20500J0D01*
G01*
G37*
G36*
G01*
X102369500Y-133655000D02*
X102000500Y-133655000D01*
G75*
G02*
X101980000Y-133634500I0J20500D01*
G01*
X101980000Y-132105500D01*
G75*
G02*
X102000500Y-132085000I20500J0D01*
G01*
X102369500Y-132085000D01*
G75*
G02*
X102390000Y-132105500I0J-20500D01*
G01*
X102390000Y-133634500D01*
G75*
G02*
X102369500Y-133655000I-20500J0D01*
G01*
G37*
G36*
G01*
X101719500Y-133655000D02*
X101350500Y-133655000D01*
G75*
G02*
X101330000Y-133634500I0J20500D01*
G01*
X101330000Y-132105500D01*
G75*
G02*
X101350500Y-132085000I20500J0D01*
G01*
X101719500Y-132085000D01*
G75*
G02*
X101740000Y-132105500I0J-20500D01*
G01*
X101740000Y-133634500D01*
G75*
G02*
X101719500Y-133655000I-20500J0D01*
G01*
G37*
%TD*%
%TO.C,U9*%
G36*
G01*
X112719500Y-127915000D02*
X112350500Y-127915000D01*
G75*
G02*
X112330000Y-127894500I0J20500D01*
G01*
X112330000Y-126365500D01*
G75*
G02*
X112350500Y-126345000I20500J0D01*
G01*
X112719500Y-126345000D01*
G75*
G02*
X112740000Y-126365500I0J-20500D01*
G01*
X112740000Y-127894500D01*
G75*
G02*
X112719500Y-127915000I-20500J0D01*
G01*
G37*
G36*
G01*
X113369500Y-127915000D02*
X113000500Y-127915000D01*
G75*
G02*
X112980000Y-127894500I0J20500D01*
G01*
X112980000Y-126365500D01*
G75*
G02*
X113000500Y-126345000I20500J0D01*
G01*
X113369500Y-126345000D01*
G75*
G02*
X113390000Y-126365500I0J-20500D01*
G01*
X113390000Y-127894500D01*
G75*
G02*
X113369500Y-127915000I-20500J0D01*
G01*
G37*
G36*
G01*
X114019500Y-127915000D02*
X113650500Y-127915000D01*
G75*
G02*
X113630000Y-127894500I0J20500D01*
G01*
X113630000Y-126365500D01*
G75*
G02*
X113650500Y-126345000I20500J0D01*
G01*
X114019500Y-126345000D01*
G75*
G02*
X114040000Y-126365500I0J-20500D01*
G01*
X114040000Y-127894500D01*
G75*
G02*
X114019500Y-127915000I-20500J0D01*
G01*
G37*
G36*
G01*
X114669500Y-127915000D02*
X114300500Y-127915000D01*
G75*
G02*
X114280000Y-127894500I0J20500D01*
G01*
X114280000Y-126365500D01*
G75*
G02*
X114300500Y-126345000I20500J0D01*
G01*
X114669500Y-126345000D01*
G75*
G02*
X114690000Y-126365500I0J-20500D01*
G01*
X114690000Y-127894500D01*
G75*
G02*
X114669500Y-127915000I-20500J0D01*
G01*
G37*
G36*
G01*
X115319500Y-127915000D02*
X114950500Y-127915000D01*
G75*
G02*
X114930000Y-127894500I0J20500D01*
G01*
X114930000Y-126365500D01*
G75*
G02*
X114950500Y-126345000I20500J0D01*
G01*
X115319500Y-126345000D01*
G75*
G02*
X115340000Y-126365500I0J-20500D01*
G01*
X115340000Y-127894500D01*
G75*
G02*
X115319500Y-127915000I-20500J0D01*
G01*
G37*
G36*
G01*
X115969500Y-127915000D02*
X115600500Y-127915000D01*
G75*
G02*
X115580000Y-127894500I0J20500D01*
G01*
X115580000Y-126365500D01*
G75*
G02*
X115600500Y-126345000I20500J0D01*
G01*
X115969500Y-126345000D01*
G75*
G02*
X115990000Y-126365500I0J-20500D01*
G01*
X115990000Y-127894500D01*
G75*
G02*
X115969500Y-127915000I-20500J0D01*
G01*
G37*
G36*
G01*
X116619500Y-127915000D02*
X116250500Y-127915000D01*
G75*
G02*
X116230000Y-127894500I0J20500D01*
G01*
X116230000Y-126365500D01*
G75*
G02*
X116250500Y-126345000I20500J0D01*
G01*
X116619500Y-126345000D01*
G75*
G02*
X116640000Y-126365500I0J-20500D01*
G01*
X116640000Y-127894500D01*
G75*
G02*
X116619500Y-127915000I-20500J0D01*
G01*
G37*
G36*
G01*
X117269500Y-127915000D02*
X116900500Y-127915000D01*
G75*
G02*
X116880000Y-127894500I0J20500D01*
G01*
X116880000Y-126365500D01*
G75*
G02*
X116900500Y-126345000I20500J0D01*
G01*
X117269500Y-126345000D01*
G75*
G02*
X117290000Y-126365500I0J-20500D01*
G01*
X117290000Y-127894500D01*
G75*
G02*
X117269500Y-127915000I-20500J0D01*
G01*
G37*
G36*
G01*
X117919500Y-127915000D02*
X117550500Y-127915000D01*
G75*
G02*
X117530000Y-127894500I0J20500D01*
G01*
X117530000Y-126365500D01*
G75*
G02*
X117550500Y-126345000I20500J0D01*
G01*
X117919500Y-126345000D01*
G75*
G02*
X117940000Y-126365500I0J-20500D01*
G01*
X117940000Y-127894500D01*
G75*
G02*
X117919500Y-127915000I-20500J0D01*
G01*
G37*
G36*
G01*
X118569500Y-127915000D02*
X118200500Y-127915000D01*
G75*
G02*
X118180000Y-127894500I0J20500D01*
G01*
X118180000Y-126365500D01*
G75*
G02*
X118200500Y-126345000I20500J0D01*
G01*
X118569500Y-126345000D01*
G75*
G02*
X118590000Y-126365500I0J-20500D01*
G01*
X118590000Y-127894500D01*
G75*
G02*
X118569500Y-127915000I-20500J0D01*
G01*
G37*
G36*
G01*
X118569500Y-133655000D02*
X118200500Y-133655000D01*
G75*
G02*
X118180000Y-133634500I0J20500D01*
G01*
X118180000Y-132105500D01*
G75*
G02*
X118200500Y-132085000I20500J0D01*
G01*
X118569500Y-132085000D01*
G75*
G02*
X118590000Y-132105500I0J-20500D01*
G01*
X118590000Y-133634500D01*
G75*
G02*
X118569500Y-133655000I-20500J0D01*
G01*
G37*
G36*
G01*
X117919500Y-133655000D02*
X117550500Y-133655000D01*
G75*
G02*
X117530000Y-133634500I0J20500D01*
G01*
X117530000Y-132105500D01*
G75*
G02*
X117550500Y-132085000I20500J0D01*
G01*
X117919500Y-132085000D01*
G75*
G02*
X117940000Y-132105500I0J-20500D01*
G01*
X117940000Y-133634500D01*
G75*
G02*
X117919500Y-133655000I-20500J0D01*
G01*
G37*
G36*
G01*
X117269500Y-133655000D02*
X116900500Y-133655000D01*
G75*
G02*
X116880000Y-133634500I0J20500D01*
G01*
X116880000Y-132105500D01*
G75*
G02*
X116900500Y-132085000I20500J0D01*
G01*
X117269500Y-132085000D01*
G75*
G02*
X117290000Y-132105500I0J-20500D01*
G01*
X117290000Y-133634500D01*
G75*
G02*
X117269500Y-133655000I-20500J0D01*
G01*
G37*
G36*
G01*
X116619500Y-133655000D02*
X116250500Y-133655000D01*
G75*
G02*
X116230000Y-133634500I0J20500D01*
G01*
X116230000Y-132105500D01*
G75*
G02*
X116250500Y-132085000I20500J0D01*
G01*
X116619500Y-132085000D01*
G75*
G02*
X116640000Y-132105500I0J-20500D01*
G01*
X116640000Y-133634500D01*
G75*
G02*
X116619500Y-133655000I-20500J0D01*
G01*
G37*
G36*
G01*
X115969500Y-133655000D02*
X115600500Y-133655000D01*
G75*
G02*
X115580000Y-133634500I0J20500D01*
G01*
X115580000Y-132105500D01*
G75*
G02*
X115600500Y-132085000I20500J0D01*
G01*
X115969500Y-132085000D01*
G75*
G02*
X115990000Y-132105500I0J-20500D01*
G01*
X115990000Y-133634500D01*
G75*
G02*
X115969500Y-133655000I-20500J0D01*
G01*
G37*
G36*
G01*
X115319500Y-133655000D02*
X114950500Y-133655000D01*
G75*
G02*
X114930000Y-133634500I0J20500D01*
G01*
X114930000Y-132105500D01*
G75*
G02*
X114950500Y-132085000I20500J0D01*
G01*
X115319500Y-132085000D01*
G75*
G02*
X115340000Y-132105500I0J-20500D01*
G01*
X115340000Y-133634500D01*
G75*
G02*
X115319500Y-133655000I-20500J0D01*
G01*
G37*
G36*
G01*
X114669500Y-133655000D02*
X114300500Y-133655000D01*
G75*
G02*
X114280000Y-133634500I0J20500D01*
G01*
X114280000Y-132105500D01*
G75*
G02*
X114300500Y-132085000I20500J0D01*
G01*
X114669500Y-132085000D01*
G75*
G02*
X114690000Y-132105500I0J-20500D01*
G01*
X114690000Y-133634500D01*
G75*
G02*
X114669500Y-133655000I-20500J0D01*
G01*
G37*
G36*
G01*
X114019500Y-133655000D02*
X113650500Y-133655000D01*
G75*
G02*
X113630000Y-133634500I0J20500D01*
G01*
X113630000Y-132105500D01*
G75*
G02*
X113650500Y-132085000I20500J0D01*
G01*
X114019500Y-132085000D01*
G75*
G02*
X114040000Y-132105500I0J-20500D01*
G01*
X114040000Y-133634500D01*
G75*
G02*
X114019500Y-133655000I-20500J0D01*
G01*
G37*
G36*
G01*
X113369500Y-133655000D02*
X113000500Y-133655000D01*
G75*
G02*
X112980000Y-133634500I0J20500D01*
G01*
X112980000Y-132105500D01*
G75*
G02*
X113000500Y-132085000I20500J0D01*
G01*
X113369500Y-132085000D01*
G75*
G02*
X113390000Y-132105500I0J-20500D01*
G01*
X113390000Y-133634500D01*
G75*
G02*
X113369500Y-133655000I-20500J0D01*
G01*
G37*
G36*
G01*
X112719500Y-133655000D02*
X112350500Y-133655000D01*
G75*
G02*
X112330000Y-133634500I0J20500D01*
G01*
X112330000Y-132105500D01*
G75*
G02*
X112350500Y-132085000I20500J0D01*
G01*
X112719500Y-132085000D01*
G75*
G02*
X112740000Y-132105500I0J-20500D01*
G01*
X112740000Y-133634500D01*
G75*
G02*
X112719500Y-133655000I-20500J0D01*
G01*
G37*
%TD*%
%TO.C,U8*%
G36*
G01*
X123719500Y-127915000D02*
X123350500Y-127915000D01*
G75*
G02*
X123330000Y-127894500I0J20500D01*
G01*
X123330000Y-126365500D01*
G75*
G02*
X123350500Y-126345000I20500J0D01*
G01*
X123719500Y-126345000D01*
G75*
G02*
X123740000Y-126365500I0J-20500D01*
G01*
X123740000Y-127894500D01*
G75*
G02*
X123719500Y-127915000I-20500J0D01*
G01*
G37*
G36*
G01*
X124369500Y-127915000D02*
X124000500Y-127915000D01*
G75*
G02*
X123980000Y-127894500I0J20500D01*
G01*
X123980000Y-126365500D01*
G75*
G02*
X124000500Y-126345000I20500J0D01*
G01*
X124369500Y-126345000D01*
G75*
G02*
X124390000Y-126365500I0J-20500D01*
G01*
X124390000Y-127894500D01*
G75*
G02*
X124369500Y-127915000I-20500J0D01*
G01*
G37*
G36*
G01*
X125019500Y-127915000D02*
X124650500Y-127915000D01*
G75*
G02*
X124630000Y-127894500I0J20500D01*
G01*
X124630000Y-126365500D01*
G75*
G02*
X124650500Y-126345000I20500J0D01*
G01*
X125019500Y-126345000D01*
G75*
G02*
X125040000Y-126365500I0J-20500D01*
G01*
X125040000Y-127894500D01*
G75*
G02*
X125019500Y-127915000I-20500J0D01*
G01*
G37*
G36*
G01*
X125669500Y-127915000D02*
X125300500Y-127915000D01*
G75*
G02*
X125280000Y-127894500I0J20500D01*
G01*
X125280000Y-126365500D01*
G75*
G02*
X125300500Y-126345000I20500J0D01*
G01*
X125669500Y-126345000D01*
G75*
G02*
X125690000Y-126365500I0J-20500D01*
G01*
X125690000Y-127894500D01*
G75*
G02*
X125669500Y-127915000I-20500J0D01*
G01*
G37*
G36*
G01*
X126319500Y-127915000D02*
X125950500Y-127915000D01*
G75*
G02*
X125930000Y-127894500I0J20500D01*
G01*
X125930000Y-126365500D01*
G75*
G02*
X125950500Y-126345000I20500J0D01*
G01*
X126319500Y-126345000D01*
G75*
G02*
X126340000Y-126365500I0J-20500D01*
G01*
X126340000Y-127894500D01*
G75*
G02*
X126319500Y-127915000I-20500J0D01*
G01*
G37*
G36*
G01*
X126969500Y-127915000D02*
X126600500Y-127915000D01*
G75*
G02*
X126580000Y-127894500I0J20500D01*
G01*
X126580000Y-126365500D01*
G75*
G02*
X126600500Y-126345000I20500J0D01*
G01*
X126969500Y-126345000D01*
G75*
G02*
X126990000Y-126365500I0J-20500D01*
G01*
X126990000Y-127894500D01*
G75*
G02*
X126969500Y-127915000I-20500J0D01*
G01*
G37*
G36*
G01*
X127619500Y-127915000D02*
X127250500Y-127915000D01*
G75*
G02*
X127230000Y-127894500I0J20500D01*
G01*
X127230000Y-126365500D01*
G75*
G02*
X127250500Y-126345000I20500J0D01*
G01*
X127619500Y-126345000D01*
G75*
G02*
X127640000Y-126365500I0J-20500D01*
G01*
X127640000Y-127894500D01*
G75*
G02*
X127619500Y-127915000I-20500J0D01*
G01*
G37*
G36*
G01*
X128269500Y-127915000D02*
X127900500Y-127915000D01*
G75*
G02*
X127880000Y-127894500I0J20500D01*
G01*
X127880000Y-126365500D01*
G75*
G02*
X127900500Y-126345000I20500J0D01*
G01*
X128269500Y-126345000D01*
G75*
G02*
X128290000Y-126365500I0J-20500D01*
G01*
X128290000Y-127894500D01*
G75*
G02*
X128269500Y-127915000I-20500J0D01*
G01*
G37*
G36*
G01*
X128919500Y-127915000D02*
X128550500Y-127915000D01*
G75*
G02*
X128530000Y-127894500I0J20500D01*
G01*
X128530000Y-126365500D01*
G75*
G02*
X128550500Y-126345000I20500J0D01*
G01*
X128919500Y-126345000D01*
G75*
G02*
X128940000Y-126365500I0J-20500D01*
G01*
X128940000Y-127894500D01*
G75*
G02*
X128919500Y-127915000I-20500J0D01*
G01*
G37*
G36*
G01*
X129569500Y-127915000D02*
X129200500Y-127915000D01*
G75*
G02*
X129180000Y-127894500I0J20500D01*
G01*
X129180000Y-126365500D01*
G75*
G02*
X129200500Y-126345000I20500J0D01*
G01*
X129569500Y-126345000D01*
G75*
G02*
X129590000Y-126365500I0J-20500D01*
G01*
X129590000Y-127894500D01*
G75*
G02*
X129569500Y-127915000I-20500J0D01*
G01*
G37*
G36*
G01*
X129569500Y-133655000D02*
X129200500Y-133655000D01*
G75*
G02*
X129180000Y-133634500I0J20500D01*
G01*
X129180000Y-132105500D01*
G75*
G02*
X129200500Y-132085000I20500J0D01*
G01*
X129569500Y-132085000D01*
G75*
G02*
X129590000Y-132105500I0J-20500D01*
G01*
X129590000Y-133634500D01*
G75*
G02*
X129569500Y-133655000I-20500J0D01*
G01*
G37*
G36*
G01*
X128919500Y-133655000D02*
X128550500Y-133655000D01*
G75*
G02*
X128530000Y-133634500I0J20500D01*
G01*
X128530000Y-132105500D01*
G75*
G02*
X128550500Y-132085000I20500J0D01*
G01*
X128919500Y-132085000D01*
G75*
G02*
X128940000Y-132105500I0J-20500D01*
G01*
X128940000Y-133634500D01*
G75*
G02*
X128919500Y-133655000I-20500J0D01*
G01*
G37*
G36*
G01*
X128269500Y-133655000D02*
X127900500Y-133655000D01*
G75*
G02*
X127880000Y-133634500I0J20500D01*
G01*
X127880000Y-132105500D01*
G75*
G02*
X127900500Y-132085000I20500J0D01*
G01*
X128269500Y-132085000D01*
G75*
G02*
X128290000Y-132105500I0J-20500D01*
G01*
X128290000Y-133634500D01*
G75*
G02*
X128269500Y-133655000I-20500J0D01*
G01*
G37*
G36*
G01*
X127619500Y-133655000D02*
X127250500Y-133655000D01*
G75*
G02*
X127230000Y-133634500I0J20500D01*
G01*
X127230000Y-132105500D01*
G75*
G02*
X127250500Y-132085000I20500J0D01*
G01*
X127619500Y-132085000D01*
G75*
G02*
X127640000Y-132105500I0J-20500D01*
G01*
X127640000Y-133634500D01*
G75*
G02*
X127619500Y-133655000I-20500J0D01*
G01*
G37*
G36*
G01*
X126969500Y-133655000D02*
X126600500Y-133655000D01*
G75*
G02*
X126580000Y-133634500I0J20500D01*
G01*
X126580000Y-132105500D01*
G75*
G02*
X126600500Y-132085000I20500J0D01*
G01*
X126969500Y-132085000D01*
G75*
G02*
X126990000Y-132105500I0J-20500D01*
G01*
X126990000Y-133634500D01*
G75*
G02*
X126969500Y-133655000I-20500J0D01*
G01*
G37*
G36*
G01*
X126319500Y-133655000D02*
X125950500Y-133655000D01*
G75*
G02*
X125930000Y-133634500I0J20500D01*
G01*
X125930000Y-132105500D01*
G75*
G02*
X125950500Y-132085000I20500J0D01*
G01*
X126319500Y-132085000D01*
G75*
G02*
X126340000Y-132105500I0J-20500D01*
G01*
X126340000Y-133634500D01*
G75*
G02*
X126319500Y-133655000I-20500J0D01*
G01*
G37*
G36*
G01*
X125669500Y-133655000D02*
X125300500Y-133655000D01*
G75*
G02*
X125280000Y-133634500I0J20500D01*
G01*
X125280000Y-132105500D01*
G75*
G02*
X125300500Y-132085000I20500J0D01*
G01*
X125669500Y-132085000D01*
G75*
G02*
X125690000Y-132105500I0J-20500D01*
G01*
X125690000Y-133634500D01*
G75*
G02*
X125669500Y-133655000I-20500J0D01*
G01*
G37*
G36*
G01*
X125019500Y-133655000D02*
X124650500Y-133655000D01*
G75*
G02*
X124630000Y-133634500I0J20500D01*
G01*
X124630000Y-132105500D01*
G75*
G02*
X124650500Y-132085000I20500J0D01*
G01*
X125019500Y-132085000D01*
G75*
G02*
X125040000Y-132105500I0J-20500D01*
G01*
X125040000Y-133634500D01*
G75*
G02*
X125019500Y-133655000I-20500J0D01*
G01*
G37*
G36*
G01*
X124369500Y-133655000D02*
X124000500Y-133655000D01*
G75*
G02*
X123980000Y-133634500I0J20500D01*
G01*
X123980000Y-132105500D01*
G75*
G02*
X124000500Y-132085000I20500J0D01*
G01*
X124369500Y-132085000D01*
G75*
G02*
X124390000Y-132105500I0J-20500D01*
G01*
X124390000Y-133634500D01*
G75*
G02*
X124369500Y-133655000I-20500J0D01*
G01*
G37*
G36*
G01*
X123719500Y-133655000D02*
X123350500Y-133655000D01*
G75*
G02*
X123330000Y-133634500I0J20500D01*
G01*
X123330000Y-132105500D01*
G75*
G02*
X123350500Y-132085000I20500J0D01*
G01*
X123719500Y-132085000D01*
G75*
G02*
X123740000Y-132105500I0J-20500D01*
G01*
X123740000Y-133634500D01*
G75*
G02*
X123719500Y-133655000I-20500J0D01*
G01*
G37*
%TD*%
%TO.C,U7*%
G36*
G01*
X134719500Y-127915000D02*
X134350500Y-127915000D01*
G75*
G02*
X134330000Y-127894500I0J20500D01*
G01*
X134330000Y-126365500D01*
G75*
G02*
X134350500Y-126345000I20500J0D01*
G01*
X134719500Y-126345000D01*
G75*
G02*
X134740000Y-126365500I0J-20500D01*
G01*
X134740000Y-127894500D01*
G75*
G02*
X134719500Y-127915000I-20500J0D01*
G01*
G37*
G36*
G01*
X135369500Y-127915000D02*
X135000500Y-127915000D01*
G75*
G02*
X134980000Y-127894500I0J20500D01*
G01*
X134980000Y-126365500D01*
G75*
G02*
X135000500Y-126345000I20500J0D01*
G01*
X135369500Y-126345000D01*
G75*
G02*
X135390000Y-126365500I0J-20500D01*
G01*
X135390000Y-127894500D01*
G75*
G02*
X135369500Y-127915000I-20500J0D01*
G01*
G37*
G36*
G01*
X136019500Y-127915000D02*
X135650500Y-127915000D01*
G75*
G02*
X135630000Y-127894500I0J20500D01*
G01*
X135630000Y-126365500D01*
G75*
G02*
X135650500Y-126345000I20500J0D01*
G01*
X136019500Y-126345000D01*
G75*
G02*
X136040000Y-126365500I0J-20500D01*
G01*
X136040000Y-127894500D01*
G75*
G02*
X136019500Y-127915000I-20500J0D01*
G01*
G37*
G36*
G01*
X136669500Y-127915000D02*
X136300500Y-127915000D01*
G75*
G02*
X136280000Y-127894500I0J20500D01*
G01*
X136280000Y-126365500D01*
G75*
G02*
X136300500Y-126345000I20500J0D01*
G01*
X136669500Y-126345000D01*
G75*
G02*
X136690000Y-126365500I0J-20500D01*
G01*
X136690000Y-127894500D01*
G75*
G02*
X136669500Y-127915000I-20500J0D01*
G01*
G37*
G36*
G01*
X137319500Y-127915000D02*
X136950500Y-127915000D01*
G75*
G02*
X136930000Y-127894500I0J20500D01*
G01*
X136930000Y-126365500D01*
G75*
G02*
X136950500Y-126345000I20500J0D01*
G01*
X137319500Y-126345000D01*
G75*
G02*
X137340000Y-126365500I0J-20500D01*
G01*
X137340000Y-127894500D01*
G75*
G02*
X137319500Y-127915000I-20500J0D01*
G01*
G37*
G36*
G01*
X137969500Y-127915000D02*
X137600500Y-127915000D01*
G75*
G02*
X137580000Y-127894500I0J20500D01*
G01*
X137580000Y-126365500D01*
G75*
G02*
X137600500Y-126345000I20500J0D01*
G01*
X137969500Y-126345000D01*
G75*
G02*
X137990000Y-126365500I0J-20500D01*
G01*
X137990000Y-127894500D01*
G75*
G02*
X137969500Y-127915000I-20500J0D01*
G01*
G37*
G36*
G01*
X138619500Y-127915000D02*
X138250500Y-127915000D01*
G75*
G02*
X138230000Y-127894500I0J20500D01*
G01*
X138230000Y-126365500D01*
G75*
G02*
X138250500Y-126345000I20500J0D01*
G01*
X138619500Y-126345000D01*
G75*
G02*
X138640000Y-126365500I0J-20500D01*
G01*
X138640000Y-127894500D01*
G75*
G02*
X138619500Y-127915000I-20500J0D01*
G01*
G37*
G36*
G01*
X139269500Y-127915000D02*
X138900500Y-127915000D01*
G75*
G02*
X138880000Y-127894500I0J20500D01*
G01*
X138880000Y-126365500D01*
G75*
G02*
X138900500Y-126345000I20500J0D01*
G01*
X139269500Y-126345000D01*
G75*
G02*
X139290000Y-126365500I0J-20500D01*
G01*
X139290000Y-127894500D01*
G75*
G02*
X139269500Y-127915000I-20500J0D01*
G01*
G37*
G36*
G01*
X139919500Y-127915000D02*
X139550500Y-127915000D01*
G75*
G02*
X139530000Y-127894500I0J20500D01*
G01*
X139530000Y-126365500D01*
G75*
G02*
X139550500Y-126345000I20500J0D01*
G01*
X139919500Y-126345000D01*
G75*
G02*
X139940000Y-126365500I0J-20500D01*
G01*
X139940000Y-127894500D01*
G75*
G02*
X139919500Y-127915000I-20500J0D01*
G01*
G37*
G36*
G01*
X140569500Y-127915000D02*
X140200500Y-127915000D01*
G75*
G02*
X140180000Y-127894500I0J20500D01*
G01*
X140180000Y-126365500D01*
G75*
G02*
X140200500Y-126345000I20500J0D01*
G01*
X140569500Y-126345000D01*
G75*
G02*
X140590000Y-126365500I0J-20500D01*
G01*
X140590000Y-127894500D01*
G75*
G02*
X140569500Y-127915000I-20500J0D01*
G01*
G37*
G36*
G01*
X140569500Y-133655000D02*
X140200500Y-133655000D01*
G75*
G02*
X140180000Y-133634500I0J20500D01*
G01*
X140180000Y-132105500D01*
G75*
G02*
X140200500Y-132085000I20500J0D01*
G01*
X140569500Y-132085000D01*
G75*
G02*
X140590000Y-132105500I0J-20500D01*
G01*
X140590000Y-133634500D01*
G75*
G02*
X140569500Y-133655000I-20500J0D01*
G01*
G37*
G36*
G01*
X139919500Y-133655000D02*
X139550500Y-133655000D01*
G75*
G02*
X139530000Y-133634500I0J20500D01*
G01*
X139530000Y-132105500D01*
G75*
G02*
X139550500Y-132085000I20500J0D01*
G01*
X139919500Y-132085000D01*
G75*
G02*
X139940000Y-132105500I0J-20500D01*
G01*
X139940000Y-133634500D01*
G75*
G02*
X139919500Y-133655000I-20500J0D01*
G01*
G37*
G36*
G01*
X139269500Y-133655000D02*
X138900500Y-133655000D01*
G75*
G02*
X138880000Y-133634500I0J20500D01*
G01*
X138880000Y-132105500D01*
G75*
G02*
X138900500Y-132085000I20500J0D01*
G01*
X139269500Y-132085000D01*
G75*
G02*
X139290000Y-132105500I0J-20500D01*
G01*
X139290000Y-133634500D01*
G75*
G02*
X139269500Y-133655000I-20500J0D01*
G01*
G37*
G36*
G01*
X138619500Y-133655000D02*
X138250500Y-133655000D01*
G75*
G02*
X138230000Y-133634500I0J20500D01*
G01*
X138230000Y-132105500D01*
G75*
G02*
X138250500Y-132085000I20500J0D01*
G01*
X138619500Y-132085000D01*
G75*
G02*
X138640000Y-132105500I0J-20500D01*
G01*
X138640000Y-133634500D01*
G75*
G02*
X138619500Y-133655000I-20500J0D01*
G01*
G37*
G36*
G01*
X137969500Y-133655000D02*
X137600500Y-133655000D01*
G75*
G02*
X137580000Y-133634500I0J20500D01*
G01*
X137580000Y-132105500D01*
G75*
G02*
X137600500Y-132085000I20500J0D01*
G01*
X137969500Y-132085000D01*
G75*
G02*
X137990000Y-132105500I0J-20500D01*
G01*
X137990000Y-133634500D01*
G75*
G02*
X137969500Y-133655000I-20500J0D01*
G01*
G37*
G36*
G01*
X137319500Y-133655000D02*
X136950500Y-133655000D01*
G75*
G02*
X136930000Y-133634500I0J20500D01*
G01*
X136930000Y-132105500D01*
G75*
G02*
X136950500Y-132085000I20500J0D01*
G01*
X137319500Y-132085000D01*
G75*
G02*
X137340000Y-132105500I0J-20500D01*
G01*
X137340000Y-133634500D01*
G75*
G02*
X137319500Y-133655000I-20500J0D01*
G01*
G37*
G36*
G01*
X136669500Y-133655000D02*
X136300500Y-133655000D01*
G75*
G02*
X136280000Y-133634500I0J20500D01*
G01*
X136280000Y-132105500D01*
G75*
G02*
X136300500Y-132085000I20500J0D01*
G01*
X136669500Y-132085000D01*
G75*
G02*
X136690000Y-132105500I0J-20500D01*
G01*
X136690000Y-133634500D01*
G75*
G02*
X136669500Y-133655000I-20500J0D01*
G01*
G37*
G36*
G01*
X136019500Y-133655000D02*
X135650500Y-133655000D01*
G75*
G02*
X135630000Y-133634500I0J20500D01*
G01*
X135630000Y-132105500D01*
G75*
G02*
X135650500Y-132085000I20500J0D01*
G01*
X136019500Y-132085000D01*
G75*
G02*
X136040000Y-132105500I0J-20500D01*
G01*
X136040000Y-133634500D01*
G75*
G02*
X136019500Y-133655000I-20500J0D01*
G01*
G37*
G36*
G01*
X135369500Y-133655000D02*
X135000500Y-133655000D01*
G75*
G02*
X134980000Y-133634500I0J20500D01*
G01*
X134980000Y-132105500D01*
G75*
G02*
X135000500Y-132085000I20500J0D01*
G01*
X135369500Y-132085000D01*
G75*
G02*
X135390000Y-132105500I0J-20500D01*
G01*
X135390000Y-133634500D01*
G75*
G02*
X135369500Y-133655000I-20500J0D01*
G01*
G37*
G36*
G01*
X134719500Y-133655000D02*
X134350500Y-133655000D01*
G75*
G02*
X134330000Y-133634500I0J20500D01*
G01*
X134330000Y-132105500D01*
G75*
G02*
X134350500Y-132085000I20500J0D01*
G01*
X134719500Y-132085000D01*
G75*
G02*
X134740000Y-132105500I0J-20500D01*
G01*
X134740000Y-133634500D01*
G75*
G02*
X134719500Y-133655000I-20500J0D01*
G01*
G37*
%TD*%
%TO.C,U6*%
G36*
G01*
X145719500Y-127915000D02*
X145350500Y-127915000D01*
G75*
G02*
X145330000Y-127894500I0J20500D01*
G01*
X145330000Y-126365500D01*
G75*
G02*
X145350500Y-126345000I20500J0D01*
G01*
X145719500Y-126345000D01*
G75*
G02*
X145740000Y-126365500I0J-20500D01*
G01*
X145740000Y-127894500D01*
G75*
G02*
X145719500Y-127915000I-20500J0D01*
G01*
G37*
G36*
G01*
X146369500Y-127915000D02*
X146000500Y-127915000D01*
G75*
G02*
X145980000Y-127894500I0J20500D01*
G01*
X145980000Y-126365500D01*
G75*
G02*
X146000500Y-126345000I20500J0D01*
G01*
X146369500Y-126345000D01*
G75*
G02*
X146390000Y-126365500I0J-20500D01*
G01*
X146390000Y-127894500D01*
G75*
G02*
X146369500Y-127915000I-20500J0D01*
G01*
G37*
G36*
G01*
X147019500Y-127915000D02*
X146650500Y-127915000D01*
G75*
G02*
X146630000Y-127894500I0J20500D01*
G01*
X146630000Y-126365500D01*
G75*
G02*
X146650500Y-126345000I20500J0D01*
G01*
X147019500Y-126345000D01*
G75*
G02*
X147040000Y-126365500I0J-20500D01*
G01*
X147040000Y-127894500D01*
G75*
G02*
X147019500Y-127915000I-20500J0D01*
G01*
G37*
G36*
G01*
X147669500Y-127915000D02*
X147300500Y-127915000D01*
G75*
G02*
X147280000Y-127894500I0J20500D01*
G01*
X147280000Y-126365500D01*
G75*
G02*
X147300500Y-126345000I20500J0D01*
G01*
X147669500Y-126345000D01*
G75*
G02*
X147690000Y-126365500I0J-20500D01*
G01*
X147690000Y-127894500D01*
G75*
G02*
X147669500Y-127915000I-20500J0D01*
G01*
G37*
G36*
G01*
X148319500Y-127915000D02*
X147950500Y-127915000D01*
G75*
G02*
X147930000Y-127894500I0J20500D01*
G01*
X147930000Y-126365500D01*
G75*
G02*
X147950500Y-126345000I20500J0D01*
G01*
X148319500Y-126345000D01*
G75*
G02*
X148340000Y-126365500I0J-20500D01*
G01*
X148340000Y-127894500D01*
G75*
G02*
X148319500Y-127915000I-20500J0D01*
G01*
G37*
G36*
G01*
X148969500Y-127915000D02*
X148600500Y-127915000D01*
G75*
G02*
X148580000Y-127894500I0J20500D01*
G01*
X148580000Y-126365500D01*
G75*
G02*
X148600500Y-126345000I20500J0D01*
G01*
X148969500Y-126345000D01*
G75*
G02*
X148990000Y-126365500I0J-20500D01*
G01*
X148990000Y-127894500D01*
G75*
G02*
X148969500Y-127915000I-20500J0D01*
G01*
G37*
G36*
G01*
X149619500Y-127915000D02*
X149250500Y-127915000D01*
G75*
G02*
X149230000Y-127894500I0J20500D01*
G01*
X149230000Y-126365500D01*
G75*
G02*
X149250500Y-126345000I20500J0D01*
G01*
X149619500Y-126345000D01*
G75*
G02*
X149640000Y-126365500I0J-20500D01*
G01*
X149640000Y-127894500D01*
G75*
G02*
X149619500Y-127915000I-20500J0D01*
G01*
G37*
G36*
G01*
X150269500Y-127915000D02*
X149900500Y-127915000D01*
G75*
G02*
X149880000Y-127894500I0J20500D01*
G01*
X149880000Y-126365500D01*
G75*
G02*
X149900500Y-126345000I20500J0D01*
G01*
X150269500Y-126345000D01*
G75*
G02*
X150290000Y-126365500I0J-20500D01*
G01*
X150290000Y-127894500D01*
G75*
G02*
X150269500Y-127915000I-20500J0D01*
G01*
G37*
G36*
G01*
X150919500Y-127915000D02*
X150550500Y-127915000D01*
G75*
G02*
X150530000Y-127894500I0J20500D01*
G01*
X150530000Y-126365500D01*
G75*
G02*
X150550500Y-126345000I20500J0D01*
G01*
X150919500Y-126345000D01*
G75*
G02*
X150940000Y-126365500I0J-20500D01*
G01*
X150940000Y-127894500D01*
G75*
G02*
X150919500Y-127915000I-20500J0D01*
G01*
G37*
G36*
G01*
X151569500Y-127915000D02*
X151200500Y-127915000D01*
G75*
G02*
X151180000Y-127894500I0J20500D01*
G01*
X151180000Y-126365500D01*
G75*
G02*
X151200500Y-126345000I20500J0D01*
G01*
X151569500Y-126345000D01*
G75*
G02*
X151590000Y-126365500I0J-20500D01*
G01*
X151590000Y-127894500D01*
G75*
G02*
X151569500Y-127915000I-20500J0D01*
G01*
G37*
G36*
G01*
X151569500Y-133655000D02*
X151200500Y-133655000D01*
G75*
G02*
X151180000Y-133634500I0J20500D01*
G01*
X151180000Y-132105500D01*
G75*
G02*
X151200500Y-132085000I20500J0D01*
G01*
X151569500Y-132085000D01*
G75*
G02*
X151590000Y-132105500I0J-20500D01*
G01*
X151590000Y-133634500D01*
G75*
G02*
X151569500Y-133655000I-20500J0D01*
G01*
G37*
G36*
G01*
X150919500Y-133655000D02*
X150550500Y-133655000D01*
G75*
G02*
X150530000Y-133634500I0J20500D01*
G01*
X150530000Y-132105500D01*
G75*
G02*
X150550500Y-132085000I20500J0D01*
G01*
X150919500Y-132085000D01*
G75*
G02*
X150940000Y-132105500I0J-20500D01*
G01*
X150940000Y-133634500D01*
G75*
G02*
X150919500Y-133655000I-20500J0D01*
G01*
G37*
G36*
G01*
X150269500Y-133655000D02*
X149900500Y-133655000D01*
G75*
G02*
X149880000Y-133634500I0J20500D01*
G01*
X149880000Y-132105500D01*
G75*
G02*
X149900500Y-132085000I20500J0D01*
G01*
X150269500Y-132085000D01*
G75*
G02*
X150290000Y-132105500I0J-20500D01*
G01*
X150290000Y-133634500D01*
G75*
G02*
X150269500Y-133655000I-20500J0D01*
G01*
G37*
G36*
G01*
X149619500Y-133655000D02*
X149250500Y-133655000D01*
G75*
G02*
X149230000Y-133634500I0J20500D01*
G01*
X149230000Y-132105500D01*
G75*
G02*
X149250500Y-132085000I20500J0D01*
G01*
X149619500Y-132085000D01*
G75*
G02*
X149640000Y-132105500I0J-20500D01*
G01*
X149640000Y-133634500D01*
G75*
G02*
X149619500Y-133655000I-20500J0D01*
G01*
G37*
G36*
G01*
X148969500Y-133655000D02*
X148600500Y-133655000D01*
G75*
G02*
X148580000Y-133634500I0J20500D01*
G01*
X148580000Y-132105500D01*
G75*
G02*
X148600500Y-132085000I20500J0D01*
G01*
X148969500Y-132085000D01*
G75*
G02*
X148990000Y-132105500I0J-20500D01*
G01*
X148990000Y-133634500D01*
G75*
G02*
X148969500Y-133655000I-20500J0D01*
G01*
G37*
G36*
G01*
X148319500Y-133655000D02*
X147950500Y-133655000D01*
G75*
G02*
X147930000Y-133634500I0J20500D01*
G01*
X147930000Y-132105500D01*
G75*
G02*
X147950500Y-132085000I20500J0D01*
G01*
X148319500Y-132085000D01*
G75*
G02*
X148340000Y-132105500I0J-20500D01*
G01*
X148340000Y-133634500D01*
G75*
G02*
X148319500Y-133655000I-20500J0D01*
G01*
G37*
G36*
G01*
X147669500Y-133655000D02*
X147300500Y-133655000D01*
G75*
G02*
X147280000Y-133634500I0J20500D01*
G01*
X147280000Y-132105500D01*
G75*
G02*
X147300500Y-132085000I20500J0D01*
G01*
X147669500Y-132085000D01*
G75*
G02*
X147690000Y-132105500I0J-20500D01*
G01*
X147690000Y-133634500D01*
G75*
G02*
X147669500Y-133655000I-20500J0D01*
G01*
G37*
G36*
G01*
X147019500Y-133655000D02*
X146650500Y-133655000D01*
G75*
G02*
X146630000Y-133634500I0J20500D01*
G01*
X146630000Y-132105500D01*
G75*
G02*
X146650500Y-132085000I20500J0D01*
G01*
X147019500Y-132085000D01*
G75*
G02*
X147040000Y-132105500I0J-20500D01*
G01*
X147040000Y-133634500D01*
G75*
G02*
X147019500Y-133655000I-20500J0D01*
G01*
G37*
G36*
G01*
X146369500Y-133655000D02*
X146000500Y-133655000D01*
G75*
G02*
X145980000Y-133634500I0J20500D01*
G01*
X145980000Y-132105500D01*
G75*
G02*
X146000500Y-132085000I20500J0D01*
G01*
X146369500Y-132085000D01*
G75*
G02*
X146390000Y-132105500I0J-20500D01*
G01*
X146390000Y-133634500D01*
G75*
G02*
X146369500Y-133655000I-20500J0D01*
G01*
G37*
G36*
G01*
X145719500Y-133655000D02*
X145350500Y-133655000D01*
G75*
G02*
X145330000Y-133634500I0J20500D01*
G01*
X145330000Y-132105500D01*
G75*
G02*
X145350500Y-132085000I20500J0D01*
G01*
X145719500Y-132085000D01*
G75*
G02*
X145740000Y-132105500I0J-20500D01*
G01*
X145740000Y-133634500D01*
G75*
G02*
X145719500Y-133655000I-20500J0D01*
G01*
G37*
%TD*%
%TO.C,U5*%
G36*
G01*
X178719500Y-127915000D02*
X178350500Y-127915000D01*
G75*
G02*
X178330000Y-127894500I0J20500D01*
G01*
X178330000Y-126365500D01*
G75*
G02*
X178350500Y-126345000I20500J0D01*
G01*
X178719500Y-126345000D01*
G75*
G02*
X178740000Y-126365500I0J-20500D01*
G01*
X178740000Y-127894500D01*
G75*
G02*
X178719500Y-127915000I-20500J0D01*
G01*
G37*
G36*
G01*
X179369500Y-127915000D02*
X179000500Y-127915000D01*
G75*
G02*
X178980000Y-127894500I0J20500D01*
G01*
X178980000Y-126365500D01*
G75*
G02*
X179000500Y-126345000I20500J0D01*
G01*
X179369500Y-126345000D01*
G75*
G02*
X179390000Y-126365500I0J-20500D01*
G01*
X179390000Y-127894500D01*
G75*
G02*
X179369500Y-127915000I-20500J0D01*
G01*
G37*
G36*
G01*
X180019500Y-127915000D02*
X179650500Y-127915000D01*
G75*
G02*
X179630000Y-127894500I0J20500D01*
G01*
X179630000Y-126365500D01*
G75*
G02*
X179650500Y-126345000I20500J0D01*
G01*
X180019500Y-126345000D01*
G75*
G02*
X180040000Y-126365500I0J-20500D01*
G01*
X180040000Y-127894500D01*
G75*
G02*
X180019500Y-127915000I-20500J0D01*
G01*
G37*
G36*
G01*
X180669500Y-127915000D02*
X180300500Y-127915000D01*
G75*
G02*
X180280000Y-127894500I0J20500D01*
G01*
X180280000Y-126365500D01*
G75*
G02*
X180300500Y-126345000I20500J0D01*
G01*
X180669500Y-126345000D01*
G75*
G02*
X180690000Y-126365500I0J-20500D01*
G01*
X180690000Y-127894500D01*
G75*
G02*
X180669500Y-127915000I-20500J0D01*
G01*
G37*
G36*
G01*
X181319500Y-127915000D02*
X180950500Y-127915000D01*
G75*
G02*
X180930000Y-127894500I0J20500D01*
G01*
X180930000Y-126365500D01*
G75*
G02*
X180950500Y-126345000I20500J0D01*
G01*
X181319500Y-126345000D01*
G75*
G02*
X181340000Y-126365500I0J-20500D01*
G01*
X181340000Y-127894500D01*
G75*
G02*
X181319500Y-127915000I-20500J0D01*
G01*
G37*
G36*
G01*
X181969500Y-127915000D02*
X181600500Y-127915000D01*
G75*
G02*
X181580000Y-127894500I0J20500D01*
G01*
X181580000Y-126365500D01*
G75*
G02*
X181600500Y-126345000I20500J0D01*
G01*
X181969500Y-126345000D01*
G75*
G02*
X181990000Y-126365500I0J-20500D01*
G01*
X181990000Y-127894500D01*
G75*
G02*
X181969500Y-127915000I-20500J0D01*
G01*
G37*
G36*
G01*
X182619500Y-127915000D02*
X182250500Y-127915000D01*
G75*
G02*
X182230000Y-127894500I0J20500D01*
G01*
X182230000Y-126365500D01*
G75*
G02*
X182250500Y-126345000I20500J0D01*
G01*
X182619500Y-126345000D01*
G75*
G02*
X182640000Y-126365500I0J-20500D01*
G01*
X182640000Y-127894500D01*
G75*
G02*
X182619500Y-127915000I-20500J0D01*
G01*
G37*
G36*
G01*
X183269500Y-127915000D02*
X182900500Y-127915000D01*
G75*
G02*
X182880000Y-127894500I0J20500D01*
G01*
X182880000Y-126365500D01*
G75*
G02*
X182900500Y-126345000I20500J0D01*
G01*
X183269500Y-126345000D01*
G75*
G02*
X183290000Y-126365500I0J-20500D01*
G01*
X183290000Y-127894500D01*
G75*
G02*
X183269500Y-127915000I-20500J0D01*
G01*
G37*
G36*
G01*
X183919500Y-127915000D02*
X183550500Y-127915000D01*
G75*
G02*
X183530000Y-127894500I0J20500D01*
G01*
X183530000Y-126365500D01*
G75*
G02*
X183550500Y-126345000I20500J0D01*
G01*
X183919500Y-126345000D01*
G75*
G02*
X183940000Y-126365500I0J-20500D01*
G01*
X183940000Y-127894500D01*
G75*
G02*
X183919500Y-127915000I-20500J0D01*
G01*
G37*
G36*
G01*
X184569500Y-127915000D02*
X184200500Y-127915000D01*
G75*
G02*
X184180000Y-127894500I0J20500D01*
G01*
X184180000Y-126365500D01*
G75*
G02*
X184200500Y-126345000I20500J0D01*
G01*
X184569500Y-126345000D01*
G75*
G02*
X184590000Y-126365500I0J-20500D01*
G01*
X184590000Y-127894500D01*
G75*
G02*
X184569500Y-127915000I-20500J0D01*
G01*
G37*
G36*
G01*
X184569500Y-133655000D02*
X184200500Y-133655000D01*
G75*
G02*
X184180000Y-133634500I0J20500D01*
G01*
X184180000Y-132105500D01*
G75*
G02*
X184200500Y-132085000I20500J0D01*
G01*
X184569500Y-132085000D01*
G75*
G02*
X184590000Y-132105500I0J-20500D01*
G01*
X184590000Y-133634500D01*
G75*
G02*
X184569500Y-133655000I-20500J0D01*
G01*
G37*
G36*
G01*
X183919500Y-133655000D02*
X183550500Y-133655000D01*
G75*
G02*
X183530000Y-133634500I0J20500D01*
G01*
X183530000Y-132105500D01*
G75*
G02*
X183550500Y-132085000I20500J0D01*
G01*
X183919500Y-132085000D01*
G75*
G02*
X183940000Y-132105500I0J-20500D01*
G01*
X183940000Y-133634500D01*
G75*
G02*
X183919500Y-133655000I-20500J0D01*
G01*
G37*
G36*
G01*
X183269500Y-133655000D02*
X182900500Y-133655000D01*
G75*
G02*
X182880000Y-133634500I0J20500D01*
G01*
X182880000Y-132105500D01*
G75*
G02*
X182900500Y-132085000I20500J0D01*
G01*
X183269500Y-132085000D01*
G75*
G02*
X183290000Y-132105500I0J-20500D01*
G01*
X183290000Y-133634500D01*
G75*
G02*
X183269500Y-133655000I-20500J0D01*
G01*
G37*
G36*
G01*
X182619500Y-133655000D02*
X182250500Y-133655000D01*
G75*
G02*
X182230000Y-133634500I0J20500D01*
G01*
X182230000Y-132105500D01*
G75*
G02*
X182250500Y-132085000I20500J0D01*
G01*
X182619500Y-132085000D01*
G75*
G02*
X182640000Y-132105500I0J-20500D01*
G01*
X182640000Y-133634500D01*
G75*
G02*
X182619500Y-133655000I-20500J0D01*
G01*
G37*
G36*
G01*
X181969500Y-133655000D02*
X181600500Y-133655000D01*
G75*
G02*
X181580000Y-133634500I0J20500D01*
G01*
X181580000Y-132105500D01*
G75*
G02*
X181600500Y-132085000I20500J0D01*
G01*
X181969500Y-132085000D01*
G75*
G02*
X181990000Y-132105500I0J-20500D01*
G01*
X181990000Y-133634500D01*
G75*
G02*
X181969500Y-133655000I-20500J0D01*
G01*
G37*
G36*
G01*
X181319500Y-133655000D02*
X180950500Y-133655000D01*
G75*
G02*
X180930000Y-133634500I0J20500D01*
G01*
X180930000Y-132105500D01*
G75*
G02*
X180950500Y-132085000I20500J0D01*
G01*
X181319500Y-132085000D01*
G75*
G02*
X181340000Y-132105500I0J-20500D01*
G01*
X181340000Y-133634500D01*
G75*
G02*
X181319500Y-133655000I-20500J0D01*
G01*
G37*
G36*
G01*
X180669500Y-133655000D02*
X180300500Y-133655000D01*
G75*
G02*
X180280000Y-133634500I0J20500D01*
G01*
X180280000Y-132105500D01*
G75*
G02*
X180300500Y-132085000I20500J0D01*
G01*
X180669500Y-132085000D01*
G75*
G02*
X180690000Y-132105500I0J-20500D01*
G01*
X180690000Y-133634500D01*
G75*
G02*
X180669500Y-133655000I-20500J0D01*
G01*
G37*
G36*
G01*
X180019500Y-133655000D02*
X179650500Y-133655000D01*
G75*
G02*
X179630000Y-133634500I0J20500D01*
G01*
X179630000Y-132105500D01*
G75*
G02*
X179650500Y-132085000I20500J0D01*
G01*
X180019500Y-132085000D01*
G75*
G02*
X180040000Y-132105500I0J-20500D01*
G01*
X180040000Y-133634500D01*
G75*
G02*
X180019500Y-133655000I-20500J0D01*
G01*
G37*
G36*
G01*
X179369500Y-133655000D02*
X179000500Y-133655000D01*
G75*
G02*
X178980000Y-133634500I0J20500D01*
G01*
X178980000Y-132105500D01*
G75*
G02*
X179000500Y-132085000I20500J0D01*
G01*
X179369500Y-132085000D01*
G75*
G02*
X179390000Y-132105500I0J-20500D01*
G01*
X179390000Y-133634500D01*
G75*
G02*
X179369500Y-133655000I-20500J0D01*
G01*
G37*
G36*
G01*
X178719500Y-133655000D02*
X178350500Y-133655000D01*
G75*
G02*
X178330000Y-133634500I0J20500D01*
G01*
X178330000Y-132105500D01*
G75*
G02*
X178350500Y-132085000I20500J0D01*
G01*
X178719500Y-132085000D01*
G75*
G02*
X178740000Y-132105500I0J-20500D01*
G01*
X178740000Y-133634500D01*
G75*
G02*
X178719500Y-133655000I-20500J0D01*
G01*
G37*
%TD*%
%TO.C,U4*%
G36*
G01*
X189719500Y-127915000D02*
X189350500Y-127915000D01*
G75*
G02*
X189330000Y-127894500I0J20500D01*
G01*
X189330000Y-126365500D01*
G75*
G02*
X189350500Y-126345000I20500J0D01*
G01*
X189719500Y-126345000D01*
G75*
G02*
X189740000Y-126365500I0J-20500D01*
G01*
X189740000Y-127894500D01*
G75*
G02*
X189719500Y-127915000I-20500J0D01*
G01*
G37*
G36*
G01*
X190369500Y-127915000D02*
X190000500Y-127915000D01*
G75*
G02*
X189980000Y-127894500I0J20500D01*
G01*
X189980000Y-126365500D01*
G75*
G02*
X190000500Y-126345000I20500J0D01*
G01*
X190369500Y-126345000D01*
G75*
G02*
X190390000Y-126365500I0J-20500D01*
G01*
X190390000Y-127894500D01*
G75*
G02*
X190369500Y-127915000I-20500J0D01*
G01*
G37*
G36*
G01*
X191019500Y-127915000D02*
X190650500Y-127915000D01*
G75*
G02*
X190630000Y-127894500I0J20500D01*
G01*
X190630000Y-126365500D01*
G75*
G02*
X190650500Y-126345000I20500J0D01*
G01*
X191019500Y-126345000D01*
G75*
G02*
X191040000Y-126365500I0J-20500D01*
G01*
X191040000Y-127894500D01*
G75*
G02*
X191019500Y-127915000I-20500J0D01*
G01*
G37*
G36*
G01*
X191669500Y-127915000D02*
X191300500Y-127915000D01*
G75*
G02*
X191280000Y-127894500I0J20500D01*
G01*
X191280000Y-126365500D01*
G75*
G02*
X191300500Y-126345000I20500J0D01*
G01*
X191669500Y-126345000D01*
G75*
G02*
X191690000Y-126365500I0J-20500D01*
G01*
X191690000Y-127894500D01*
G75*
G02*
X191669500Y-127915000I-20500J0D01*
G01*
G37*
G36*
G01*
X192319500Y-127915000D02*
X191950500Y-127915000D01*
G75*
G02*
X191930000Y-127894500I0J20500D01*
G01*
X191930000Y-126365500D01*
G75*
G02*
X191950500Y-126345000I20500J0D01*
G01*
X192319500Y-126345000D01*
G75*
G02*
X192340000Y-126365500I0J-20500D01*
G01*
X192340000Y-127894500D01*
G75*
G02*
X192319500Y-127915000I-20500J0D01*
G01*
G37*
G36*
G01*
X192969500Y-127915000D02*
X192600500Y-127915000D01*
G75*
G02*
X192580000Y-127894500I0J20500D01*
G01*
X192580000Y-126365500D01*
G75*
G02*
X192600500Y-126345000I20500J0D01*
G01*
X192969500Y-126345000D01*
G75*
G02*
X192990000Y-126365500I0J-20500D01*
G01*
X192990000Y-127894500D01*
G75*
G02*
X192969500Y-127915000I-20500J0D01*
G01*
G37*
G36*
G01*
X193619500Y-127915000D02*
X193250500Y-127915000D01*
G75*
G02*
X193230000Y-127894500I0J20500D01*
G01*
X193230000Y-126365500D01*
G75*
G02*
X193250500Y-126345000I20500J0D01*
G01*
X193619500Y-126345000D01*
G75*
G02*
X193640000Y-126365500I0J-20500D01*
G01*
X193640000Y-127894500D01*
G75*
G02*
X193619500Y-127915000I-20500J0D01*
G01*
G37*
G36*
G01*
X194269500Y-127915000D02*
X193900500Y-127915000D01*
G75*
G02*
X193880000Y-127894500I0J20500D01*
G01*
X193880000Y-126365500D01*
G75*
G02*
X193900500Y-126345000I20500J0D01*
G01*
X194269500Y-126345000D01*
G75*
G02*
X194290000Y-126365500I0J-20500D01*
G01*
X194290000Y-127894500D01*
G75*
G02*
X194269500Y-127915000I-20500J0D01*
G01*
G37*
G36*
G01*
X194919500Y-127915000D02*
X194550500Y-127915000D01*
G75*
G02*
X194530000Y-127894500I0J20500D01*
G01*
X194530000Y-126365500D01*
G75*
G02*
X194550500Y-126345000I20500J0D01*
G01*
X194919500Y-126345000D01*
G75*
G02*
X194940000Y-126365500I0J-20500D01*
G01*
X194940000Y-127894500D01*
G75*
G02*
X194919500Y-127915000I-20500J0D01*
G01*
G37*
G36*
G01*
X195569500Y-127915000D02*
X195200500Y-127915000D01*
G75*
G02*
X195180000Y-127894500I0J20500D01*
G01*
X195180000Y-126365500D01*
G75*
G02*
X195200500Y-126345000I20500J0D01*
G01*
X195569500Y-126345000D01*
G75*
G02*
X195590000Y-126365500I0J-20500D01*
G01*
X195590000Y-127894500D01*
G75*
G02*
X195569500Y-127915000I-20500J0D01*
G01*
G37*
G36*
G01*
X195569500Y-133655000D02*
X195200500Y-133655000D01*
G75*
G02*
X195180000Y-133634500I0J20500D01*
G01*
X195180000Y-132105500D01*
G75*
G02*
X195200500Y-132085000I20500J0D01*
G01*
X195569500Y-132085000D01*
G75*
G02*
X195590000Y-132105500I0J-20500D01*
G01*
X195590000Y-133634500D01*
G75*
G02*
X195569500Y-133655000I-20500J0D01*
G01*
G37*
G36*
G01*
X194919500Y-133655000D02*
X194550500Y-133655000D01*
G75*
G02*
X194530000Y-133634500I0J20500D01*
G01*
X194530000Y-132105500D01*
G75*
G02*
X194550500Y-132085000I20500J0D01*
G01*
X194919500Y-132085000D01*
G75*
G02*
X194940000Y-132105500I0J-20500D01*
G01*
X194940000Y-133634500D01*
G75*
G02*
X194919500Y-133655000I-20500J0D01*
G01*
G37*
G36*
G01*
X194269500Y-133655000D02*
X193900500Y-133655000D01*
G75*
G02*
X193880000Y-133634500I0J20500D01*
G01*
X193880000Y-132105500D01*
G75*
G02*
X193900500Y-132085000I20500J0D01*
G01*
X194269500Y-132085000D01*
G75*
G02*
X194290000Y-132105500I0J-20500D01*
G01*
X194290000Y-133634500D01*
G75*
G02*
X194269500Y-133655000I-20500J0D01*
G01*
G37*
G36*
G01*
X193619500Y-133655000D02*
X193250500Y-133655000D01*
G75*
G02*
X193230000Y-133634500I0J20500D01*
G01*
X193230000Y-132105500D01*
G75*
G02*
X193250500Y-132085000I20500J0D01*
G01*
X193619500Y-132085000D01*
G75*
G02*
X193640000Y-132105500I0J-20500D01*
G01*
X193640000Y-133634500D01*
G75*
G02*
X193619500Y-133655000I-20500J0D01*
G01*
G37*
G36*
G01*
X192969500Y-133655000D02*
X192600500Y-133655000D01*
G75*
G02*
X192580000Y-133634500I0J20500D01*
G01*
X192580000Y-132105500D01*
G75*
G02*
X192600500Y-132085000I20500J0D01*
G01*
X192969500Y-132085000D01*
G75*
G02*
X192990000Y-132105500I0J-20500D01*
G01*
X192990000Y-133634500D01*
G75*
G02*
X192969500Y-133655000I-20500J0D01*
G01*
G37*
G36*
G01*
X192319500Y-133655000D02*
X191950500Y-133655000D01*
G75*
G02*
X191930000Y-133634500I0J20500D01*
G01*
X191930000Y-132105500D01*
G75*
G02*
X191950500Y-132085000I20500J0D01*
G01*
X192319500Y-132085000D01*
G75*
G02*
X192340000Y-132105500I0J-20500D01*
G01*
X192340000Y-133634500D01*
G75*
G02*
X192319500Y-133655000I-20500J0D01*
G01*
G37*
G36*
G01*
X191669500Y-133655000D02*
X191300500Y-133655000D01*
G75*
G02*
X191280000Y-133634500I0J20500D01*
G01*
X191280000Y-132105500D01*
G75*
G02*
X191300500Y-132085000I20500J0D01*
G01*
X191669500Y-132085000D01*
G75*
G02*
X191690000Y-132105500I0J-20500D01*
G01*
X191690000Y-133634500D01*
G75*
G02*
X191669500Y-133655000I-20500J0D01*
G01*
G37*
G36*
G01*
X191019500Y-133655000D02*
X190650500Y-133655000D01*
G75*
G02*
X190630000Y-133634500I0J20500D01*
G01*
X190630000Y-132105500D01*
G75*
G02*
X190650500Y-132085000I20500J0D01*
G01*
X191019500Y-132085000D01*
G75*
G02*
X191040000Y-132105500I0J-20500D01*
G01*
X191040000Y-133634500D01*
G75*
G02*
X191019500Y-133655000I-20500J0D01*
G01*
G37*
G36*
G01*
X190369500Y-133655000D02*
X190000500Y-133655000D01*
G75*
G02*
X189980000Y-133634500I0J20500D01*
G01*
X189980000Y-132105500D01*
G75*
G02*
X190000500Y-132085000I20500J0D01*
G01*
X190369500Y-132085000D01*
G75*
G02*
X190390000Y-132105500I0J-20500D01*
G01*
X190390000Y-133634500D01*
G75*
G02*
X190369500Y-133655000I-20500J0D01*
G01*
G37*
G36*
G01*
X189719500Y-133655000D02*
X189350500Y-133655000D01*
G75*
G02*
X189330000Y-133634500I0J20500D01*
G01*
X189330000Y-132105500D01*
G75*
G02*
X189350500Y-132085000I20500J0D01*
G01*
X189719500Y-132085000D01*
G75*
G02*
X189740000Y-132105500I0J-20500D01*
G01*
X189740000Y-133634500D01*
G75*
G02*
X189719500Y-133655000I-20500J0D01*
G01*
G37*
%TD*%
%TO.C,U3*%
G36*
G01*
X200719500Y-127915000D02*
X200350500Y-127915000D01*
G75*
G02*
X200330000Y-127894500I0J20500D01*
G01*
X200330000Y-126365500D01*
G75*
G02*
X200350500Y-126345000I20500J0D01*
G01*
X200719500Y-126345000D01*
G75*
G02*
X200740000Y-126365500I0J-20500D01*
G01*
X200740000Y-127894500D01*
G75*
G02*
X200719500Y-127915000I-20500J0D01*
G01*
G37*
G36*
G01*
X201369500Y-127915000D02*
X201000500Y-127915000D01*
G75*
G02*
X200980000Y-127894500I0J20500D01*
G01*
X200980000Y-126365500D01*
G75*
G02*
X201000500Y-126345000I20500J0D01*
G01*
X201369500Y-126345000D01*
G75*
G02*
X201390000Y-126365500I0J-20500D01*
G01*
X201390000Y-127894500D01*
G75*
G02*
X201369500Y-127915000I-20500J0D01*
G01*
G37*
G36*
G01*
X202019500Y-127915000D02*
X201650500Y-127915000D01*
G75*
G02*
X201630000Y-127894500I0J20500D01*
G01*
X201630000Y-126365500D01*
G75*
G02*
X201650500Y-126345000I20500J0D01*
G01*
X202019500Y-126345000D01*
G75*
G02*
X202040000Y-126365500I0J-20500D01*
G01*
X202040000Y-127894500D01*
G75*
G02*
X202019500Y-127915000I-20500J0D01*
G01*
G37*
G36*
G01*
X202669500Y-127915000D02*
X202300500Y-127915000D01*
G75*
G02*
X202280000Y-127894500I0J20500D01*
G01*
X202280000Y-126365500D01*
G75*
G02*
X202300500Y-126345000I20500J0D01*
G01*
X202669500Y-126345000D01*
G75*
G02*
X202690000Y-126365500I0J-20500D01*
G01*
X202690000Y-127894500D01*
G75*
G02*
X202669500Y-127915000I-20500J0D01*
G01*
G37*
G36*
G01*
X203319500Y-127915000D02*
X202950500Y-127915000D01*
G75*
G02*
X202930000Y-127894500I0J20500D01*
G01*
X202930000Y-126365500D01*
G75*
G02*
X202950500Y-126345000I20500J0D01*
G01*
X203319500Y-126345000D01*
G75*
G02*
X203340000Y-126365500I0J-20500D01*
G01*
X203340000Y-127894500D01*
G75*
G02*
X203319500Y-127915000I-20500J0D01*
G01*
G37*
G36*
G01*
X203969500Y-127915000D02*
X203600500Y-127915000D01*
G75*
G02*
X203580000Y-127894500I0J20500D01*
G01*
X203580000Y-126365500D01*
G75*
G02*
X203600500Y-126345000I20500J0D01*
G01*
X203969500Y-126345000D01*
G75*
G02*
X203990000Y-126365500I0J-20500D01*
G01*
X203990000Y-127894500D01*
G75*
G02*
X203969500Y-127915000I-20500J0D01*
G01*
G37*
G36*
G01*
X204619500Y-127915000D02*
X204250500Y-127915000D01*
G75*
G02*
X204230000Y-127894500I0J20500D01*
G01*
X204230000Y-126365500D01*
G75*
G02*
X204250500Y-126345000I20500J0D01*
G01*
X204619500Y-126345000D01*
G75*
G02*
X204640000Y-126365500I0J-20500D01*
G01*
X204640000Y-127894500D01*
G75*
G02*
X204619500Y-127915000I-20500J0D01*
G01*
G37*
G36*
G01*
X205269500Y-127915000D02*
X204900500Y-127915000D01*
G75*
G02*
X204880000Y-127894500I0J20500D01*
G01*
X204880000Y-126365500D01*
G75*
G02*
X204900500Y-126345000I20500J0D01*
G01*
X205269500Y-126345000D01*
G75*
G02*
X205290000Y-126365500I0J-20500D01*
G01*
X205290000Y-127894500D01*
G75*
G02*
X205269500Y-127915000I-20500J0D01*
G01*
G37*
G36*
G01*
X205919500Y-127915000D02*
X205550500Y-127915000D01*
G75*
G02*
X205530000Y-127894500I0J20500D01*
G01*
X205530000Y-126365500D01*
G75*
G02*
X205550500Y-126345000I20500J0D01*
G01*
X205919500Y-126345000D01*
G75*
G02*
X205940000Y-126365500I0J-20500D01*
G01*
X205940000Y-127894500D01*
G75*
G02*
X205919500Y-127915000I-20500J0D01*
G01*
G37*
G36*
G01*
X206569500Y-127915000D02*
X206200500Y-127915000D01*
G75*
G02*
X206180000Y-127894500I0J20500D01*
G01*
X206180000Y-126365500D01*
G75*
G02*
X206200500Y-126345000I20500J0D01*
G01*
X206569500Y-126345000D01*
G75*
G02*
X206590000Y-126365500I0J-20500D01*
G01*
X206590000Y-127894500D01*
G75*
G02*
X206569500Y-127915000I-20500J0D01*
G01*
G37*
G36*
G01*
X206569500Y-133655000D02*
X206200500Y-133655000D01*
G75*
G02*
X206180000Y-133634500I0J20500D01*
G01*
X206180000Y-132105500D01*
G75*
G02*
X206200500Y-132085000I20500J0D01*
G01*
X206569500Y-132085000D01*
G75*
G02*
X206590000Y-132105500I0J-20500D01*
G01*
X206590000Y-133634500D01*
G75*
G02*
X206569500Y-133655000I-20500J0D01*
G01*
G37*
G36*
G01*
X205919500Y-133655000D02*
X205550500Y-133655000D01*
G75*
G02*
X205530000Y-133634500I0J20500D01*
G01*
X205530000Y-132105500D01*
G75*
G02*
X205550500Y-132085000I20500J0D01*
G01*
X205919500Y-132085000D01*
G75*
G02*
X205940000Y-132105500I0J-20500D01*
G01*
X205940000Y-133634500D01*
G75*
G02*
X205919500Y-133655000I-20500J0D01*
G01*
G37*
G36*
G01*
X205269500Y-133655000D02*
X204900500Y-133655000D01*
G75*
G02*
X204880000Y-133634500I0J20500D01*
G01*
X204880000Y-132105500D01*
G75*
G02*
X204900500Y-132085000I20500J0D01*
G01*
X205269500Y-132085000D01*
G75*
G02*
X205290000Y-132105500I0J-20500D01*
G01*
X205290000Y-133634500D01*
G75*
G02*
X205269500Y-133655000I-20500J0D01*
G01*
G37*
G36*
G01*
X204619500Y-133655000D02*
X204250500Y-133655000D01*
G75*
G02*
X204230000Y-133634500I0J20500D01*
G01*
X204230000Y-132105500D01*
G75*
G02*
X204250500Y-132085000I20500J0D01*
G01*
X204619500Y-132085000D01*
G75*
G02*
X204640000Y-132105500I0J-20500D01*
G01*
X204640000Y-133634500D01*
G75*
G02*
X204619500Y-133655000I-20500J0D01*
G01*
G37*
G36*
G01*
X203969500Y-133655000D02*
X203600500Y-133655000D01*
G75*
G02*
X203580000Y-133634500I0J20500D01*
G01*
X203580000Y-132105500D01*
G75*
G02*
X203600500Y-132085000I20500J0D01*
G01*
X203969500Y-132085000D01*
G75*
G02*
X203990000Y-132105500I0J-20500D01*
G01*
X203990000Y-133634500D01*
G75*
G02*
X203969500Y-133655000I-20500J0D01*
G01*
G37*
G36*
G01*
X203319500Y-133655000D02*
X202950500Y-133655000D01*
G75*
G02*
X202930000Y-133634500I0J20500D01*
G01*
X202930000Y-132105500D01*
G75*
G02*
X202950500Y-132085000I20500J0D01*
G01*
X203319500Y-132085000D01*
G75*
G02*
X203340000Y-132105500I0J-20500D01*
G01*
X203340000Y-133634500D01*
G75*
G02*
X203319500Y-133655000I-20500J0D01*
G01*
G37*
G36*
G01*
X202669500Y-133655000D02*
X202300500Y-133655000D01*
G75*
G02*
X202280000Y-133634500I0J20500D01*
G01*
X202280000Y-132105500D01*
G75*
G02*
X202300500Y-132085000I20500J0D01*
G01*
X202669500Y-132085000D01*
G75*
G02*
X202690000Y-132105500I0J-20500D01*
G01*
X202690000Y-133634500D01*
G75*
G02*
X202669500Y-133655000I-20500J0D01*
G01*
G37*
G36*
G01*
X202019500Y-133655000D02*
X201650500Y-133655000D01*
G75*
G02*
X201630000Y-133634500I0J20500D01*
G01*
X201630000Y-132105500D01*
G75*
G02*
X201650500Y-132085000I20500J0D01*
G01*
X202019500Y-132085000D01*
G75*
G02*
X202040000Y-132105500I0J-20500D01*
G01*
X202040000Y-133634500D01*
G75*
G02*
X202019500Y-133655000I-20500J0D01*
G01*
G37*
G36*
G01*
X201369500Y-133655000D02*
X201000500Y-133655000D01*
G75*
G02*
X200980000Y-133634500I0J20500D01*
G01*
X200980000Y-132105500D01*
G75*
G02*
X201000500Y-132085000I20500J0D01*
G01*
X201369500Y-132085000D01*
G75*
G02*
X201390000Y-132105500I0J-20500D01*
G01*
X201390000Y-133634500D01*
G75*
G02*
X201369500Y-133655000I-20500J0D01*
G01*
G37*
G36*
G01*
X200719500Y-133655000D02*
X200350500Y-133655000D01*
G75*
G02*
X200330000Y-133634500I0J20500D01*
G01*
X200330000Y-132105500D01*
G75*
G02*
X200350500Y-132085000I20500J0D01*
G01*
X200719500Y-132085000D01*
G75*
G02*
X200740000Y-132105500I0J-20500D01*
G01*
X200740000Y-133634500D01*
G75*
G02*
X200719500Y-133655000I-20500J0D01*
G01*
G37*
%TD*%
%TO.C,U2*%
G36*
G01*
X167719500Y-127915000D02*
X167350500Y-127915000D01*
G75*
G02*
X167330000Y-127894500I0J20500D01*
G01*
X167330000Y-126365500D01*
G75*
G02*
X167350500Y-126345000I20500J0D01*
G01*
X167719500Y-126345000D01*
G75*
G02*
X167740000Y-126365500I0J-20500D01*
G01*
X167740000Y-127894500D01*
G75*
G02*
X167719500Y-127915000I-20500J0D01*
G01*
G37*
G36*
G01*
X168369500Y-127915000D02*
X168000500Y-127915000D01*
G75*
G02*
X167980000Y-127894500I0J20500D01*
G01*
X167980000Y-126365500D01*
G75*
G02*
X168000500Y-126345000I20500J0D01*
G01*
X168369500Y-126345000D01*
G75*
G02*
X168390000Y-126365500I0J-20500D01*
G01*
X168390000Y-127894500D01*
G75*
G02*
X168369500Y-127915000I-20500J0D01*
G01*
G37*
G36*
G01*
X169019500Y-127915000D02*
X168650500Y-127915000D01*
G75*
G02*
X168630000Y-127894500I0J20500D01*
G01*
X168630000Y-126365500D01*
G75*
G02*
X168650500Y-126345000I20500J0D01*
G01*
X169019500Y-126345000D01*
G75*
G02*
X169040000Y-126365500I0J-20500D01*
G01*
X169040000Y-127894500D01*
G75*
G02*
X169019500Y-127915000I-20500J0D01*
G01*
G37*
G36*
G01*
X169669500Y-127915000D02*
X169300500Y-127915000D01*
G75*
G02*
X169280000Y-127894500I0J20500D01*
G01*
X169280000Y-126365500D01*
G75*
G02*
X169300500Y-126345000I20500J0D01*
G01*
X169669500Y-126345000D01*
G75*
G02*
X169690000Y-126365500I0J-20500D01*
G01*
X169690000Y-127894500D01*
G75*
G02*
X169669500Y-127915000I-20500J0D01*
G01*
G37*
G36*
G01*
X170319500Y-127915000D02*
X169950500Y-127915000D01*
G75*
G02*
X169930000Y-127894500I0J20500D01*
G01*
X169930000Y-126365500D01*
G75*
G02*
X169950500Y-126345000I20500J0D01*
G01*
X170319500Y-126345000D01*
G75*
G02*
X170340000Y-126365500I0J-20500D01*
G01*
X170340000Y-127894500D01*
G75*
G02*
X170319500Y-127915000I-20500J0D01*
G01*
G37*
G36*
G01*
X170969500Y-127915000D02*
X170600500Y-127915000D01*
G75*
G02*
X170580000Y-127894500I0J20500D01*
G01*
X170580000Y-126365500D01*
G75*
G02*
X170600500Y-126345000I20500J0D01*
G01*
X170969500Y-126345000D01*
G75*
G02*
X170990000Y-126365500I0J-20500D01*
G01*
X170990000Y-127894500D01*
G75*
G02*
X170969500Y-127915000I-20500J0D01*
G01*
G37*
G36*
G01*
X171619500Y-127915000D02*
X171250500Y-127915000D01*
G75*
G02*
X171230000Y-127894500I0J20500D01*
G01*
X171230000Y-126365500D01*
G75*
G02*
X171250500Y-126345000I20500J0D01*
G01*
X171619500Y-126345000D01*
G75*
G02*
X171640000Y-126365500I0J-20500D01*
G01*
X171640000Y-127894500D01*
G75*
G02*
X171619500Y-127915000I-20500J0D01*
G01*
G37*
G36*
G01*
X172269500Y-127915000D02*
X171900500Y-127915000D01*
G75*
G02*
X171880000Y-127894500I0J20500D01*
G01*
X171880000Y-126365500D01*
G75*
G02*
X171900500Y-126345000I20500J0D01*
G01*
X172269500Y-126345000D01*
G75*
G02*
X172290000Y-126365500I0J-20500D01*
G01*
X172290000Y-127894500D01*
G75*
G02*
X172269500Y-127915000I-20500J0D01*
G01*
G37*
G36*
G01*
X172919500Y-127915000D02*
X172550500Y-127915000D01*
G75*
G02*
X172530000Y-127894500I0J20500D01*
G01*
X172530000Y-126365500D01*
G75*
G02*
X172550500Y-126345000I20500J0D01*
G01*
X172919500Y-126345000D01*
G75*
G02*
X172940000Y-126365500I0J-20500D01*
G01*
X172940000Y-127894500D01*
G75*
G02*
X172919500Y-127915000I-20500J0D01*
G01*
G37*
G36*
G01*
X173569500Y-127915000D02*
X173200500Y-127915000D01*
G75*
G02*
X173180000Y-127894500I0J20500D01*
G01*
X173180000Y-126365500D01*
G75*
G02*
X173200500Y-126345000I20500J0D01*
G01*
X173569500Y-126345000D01*
G75*
G02*
X173590000Y-126365500I0J-20500D01*
G01*
X173590000Y-127894500D01*
G75*
G02*
X173569500Y-127915000I-20500J0D01*
G01*
G37*
G36*
G01*
X173569500Y-133655000D02*
X173200500Y-133655000D01*
G75*
G02*
X173180000Y-133634500I0J20500D01*
G01*
X173180000Y-132105500D01*
G75*
G02*
X173200500Y-132085000I20500J0D01*
G01*
X173569500Y-132085000D01*
G75*
G02*
X173590000Y-132105500I0J-20500D01*
G01*
X173590000Y-133634500D01*
G75*
G02*
X173569500Y-133655000I-20500J0D01*
G01*
G37*
G36*
G01*
X172919500Y-133655000D02*
X172550500Y-133655000D01*
G75*
G02*
X172530000Y-133634500I0J20500D01*
G01*
X172530000Y-132105500D01*
G75*
G02*
X172550500Y-132085000I20500J0D01*
G01*
X172919500Y-132085000D01*
G75*
G02*
X172940000Y-132105500I0J-20500D01*
G01*
X172940000Y-133634500D01*
G75*
G02*
X172919500Y-133655000I-20500J0D01*
G01*
G37*
G36*
G01*
X172269500Y-133655000D02*
X171900500Y-133655000D01*
G75*
G02*
X171880000Y-133634500I0J20500D01*
G01*
X171880000Y-132105500D01*
G75*
G02*
X171900500Y-132085000I20500J0D01*
G01*
X172269500Y-132085000D01*
G75*
G02*
X172290000Y-132105500I0J-20500D01*
G01*
X172290000Y-133634500D01*
G75*
G02*
X172269500Y-133655000I-20500J0D01*
G01*
G37*
G36*
G01*
X171619500Y-133655000D02*
X171250500Y-133655000D01*
G75*
G02*
X171230000Y-133634500I0J20500D01*
G01*
X171230000Y-132105500D01*
G75*
G02*
X171250500Y-132085000I20500J0D01*
G01*
X171619500Y-132085000D01*
G75*
G02*
X171640000Y-132105500I0J-20500D01*
G01*
X171640000Y-133634500D01*
G75*
G02*
X171619500Y-133655000I-20500J0D01*
G01*
G37*
G36*
G01*
X170969500Y-133655000D02*
X170600500Y-133655000D01*
G75*
G02*
X170580000Y-133634500I0J20500D01*
G01*
X170580000Y-132105500D01*
G75*
G02*
X170600500Y-132085000I20500J0D01*
G01*
X170969500Y-132085000D01*
G75*
G02*
X170990000Y-132105500I0J-20500D01*
G01*
X170990000Y-133634500D01*
G75*
G02*
X170969500Y-133655000I-20500J0D01*
G01*
G37*
G36*
G01*
X170319500Y-133655000D02*
X169950500Y-133655000D01*
G75*
G02*
X169930000Y-133634500I0J20500D01*
G01*
X169930000Y-132105500D01*
G75*
G02*
X169950500Y-132085000I20500J0D01*
G01*
X170319500Y-132085000D01*
G75*
G02*
X170340000Y-132105500I0J-20500D01*
G01*
X170340000Y-133634500D01*
G75*
G02*
X170319500Y-133655000I-20500J0D01*
G01*
G37*
G36*
G01*
X169669500Y-133655000D02*
X169300500Y-133655000D01*
G75*
G02*
X169280000Y-133634500I0J20500D01*
G01*
X169280000Y-132105500D01*
G75*
G02*
X169300500Y-132085000I20500J0D01*
G01*
X169669500Y-132085000D01*
G75*
G02*
X169690000Y-132105500I0J-20500D01*
G01*
X169690000Y-133634500D01*
G75*
G02*
X169669500Y-133655000I-20500J0D01*
G01*
G37*
G36*
G01*
X169019500Y-133655000D02*
X168650500Y-133655000D01*
G75*
G02*
X168630000Y-133634500I0J20500D01*
G01*
X168630000Y-132105500D01*
G75*
G02*
X168650500Y-132085000I20500J0D01*
G01*
X169019500Y-132085000D01*
G75*
G02*
X169040000Y-132105500I0J-20500D01*
G01*
X169040000Y-133634500D01*
G75*
G02*
X169019500Y-133655000I-20500J0D01*
G01*
G37*
G36*
G01*
X168369500Y-133655000D02*
X168000500Y-133655000D01*
G75*
G02*
X167980000Y-133634500I0J20500D01*
G01*
X167980000Y-132105500D01*
G75*
G02*
X168000500Y-132085000I20500J0D01*
G01*
X168369500Y-132085000D01*
G75*
G02*
X168390000Y-132105500I0J-20500D01*
G01*
X168390000Y-133634500D01*
G75*
G02*
X168369500Y-133655000I-20500J0D01*
G01*
G37*
G36*
G01*
X167719500Y-133655000D02*
X167350500Y-133655000D01*
G75*
G02*
X167330000Y-133634500I0J20500D01*
G01*
X167330000Y-132105500D01*
G75*
G02*
X167350500Y-132085000I20500J0D01*
G01*
X167719500Y-132085000D01*
G75*
G02*
X167740000Y-132105500I0J-20500D01*
G01*
X167740000Y-133634500D01*
G75*
G02*
X167719500Y-133655000I-20500J0D01*
G01*
G37*
%TD*%
%TO.C,U1*%
G36*
G01*
X156719500Y-127915000D02*
X156350500Y-127915000D01*
G75*
G02*
X156330000Y-127894500I0J20500D01*
G01*
X156330000Y-126365500D01*
G75*
G02*
X156350500Y-126345000I20500J0D01*
G01*
X156719500Y-126345000D01*
G75*
G02*
X156740000Y-126365500I0J-20500D01*
G01*
X156740000Y-127894500D01*
G75*
G02*
X156719500Y-127915000I-20500J0D01*
G01*
G37*
G36*
G01*
X157369500Y-127915000D02*
X157000500Y-127915000D01*
G75*
G02*
X156980000Y-127894500I0J20500D01*
G01*
X156980000Y-126365500D01*
G75*
G02*
X157000500Y-126345000I20500J0D01*
G01*
X157369500Y-126345000D01*
G75*
G02*
X157390000Y-126365500I0J-20500D01*
G01*
X157390000Y-127894500D01*
G75*
G02*
X157369500Y-127915000I-20500J0D01*
G01*
G37*
G36*
G01*
X158019500Y-127915000D02*
X157650500Y-127915000D01*
G75*
G02*
X157630000Y-127894500I0J20500D01*
G01*
X157630000Y-126365500D01*
G75*
G02*
X157650500Y-126345000I20500J0D01*
G01*
X158019500Y-126345000D01*
G75*
G02*
X158040000Y-126365500I0J-20500D01*
G01*
X158040000Y-127894500D01*
G75*
G02*
X158019500Y-127915000I-20500J0D01*
G01*
G37*
G36*
G01*
X158669500Y-127915000D02*
X158300500Y-127915000D01*
G75*
G02*
X158280000Y-127894500I0J20500D01*
G01*
X158280000Y-126365500D01*
G75*
G02*
X158300500Y-126345000I20500J0D01*
G01*
X158669500Y-126345000D01*
G75*
G02*
X158690000Y-126365500I0J-20500D01*
G01*
X158690000Y-127894500D01*
G75*
G02*
X158669500Y-127915000I-20500J0D01*
G01*
G37*
G36*
G01*
X159319500Y-127915000D02*
X158950500Y-127915000D01*
G75*
G02*
X158930000Y-127894500I0J20500D01*
G01*
X158930000Y-126365500D01*
G75*
G02*
X158950500Y-126345000I20500J0D01*
G01*
X159319500Y-126345000D01*
G75*
G02*
X159340000Y-126365500I0J-20500D01*
G01*
X159340000Y-127894500D01*
G75*
G02*
X159319500Y-127915000I-20500J0D01*
G01*
G37*
G36*
G01*
X159969500Y-127915000D02*
X159600500Y-127915000D01*
G75*
G02*
X159580000Y-127894500I0J20500D01*
G01*
X159580000Y-126365500D01*
G75*
G02*
X159600500Y-126345000I20500J0D01*
G01*
X159969500Y-126345000D01*
G75*
G02*
X159990000Y-126365500I0J-20500D01*
G01*
X159990000Y-127894500D01*
G75*
G02*
X159969500Y-127915000I-20500J0D01*
G01*
G37*
G36*
G01*
X160619500Y-127915000D02*
X160250500Y-127915000D01*
G75*
G02*
X160230000Y-127894500I0J20500D01*
G01*
X160230000Y-126365500D01*
G75*
G02*
X160250500Y-126345000I20500J0D01*
G01*
X160619500Y-126345000D01*
G75*
G02*
X160640000Y-126365500I0J-20500D01*
G01*
X160640000Y-127894500D01*
G75*
G02*
X160619500Y-127915000I-20500J0D01*
G01*
G37*
G36*
G01*
X161269500Y-127915000D02*
X160900500Y-127915000D01*
G75*
G02*
X160880000Y-127894500I0J20500D01*
G01*
X160880000Y-126365500D01*
G75*
G02*
X160900500Y-126345000I20500J0D01*
G01*
X161269500Y-126345000D01*
G75*
G02*
X161290000Y-126365500I0J-20500D01*
G01*
X161290000Y-127894500D01*
G75*
G02*
X161269500Y-127915000I-20500J0D01*
G01*
G37*
G36*
G01*
X161919500Y-127915000D02*
X161550500Y-127915000D01*
G75*
G02*
X161530000Y-127894500I0J20500D01*
G01*
X161530000Y-126365500D01*
G75*
G02*
X161550500Y-126345000I20500J0D01*
G01*
X161919500Y-126345000D01*
G75*
G02*
X161940000Y-126365500I0J-20500D01*
G01*
X161940000Y-127894500D01*
G75*
G02*
X161919500Y-127915000I-20500J0D01*
G01*
G37*
G36*
G01*
X162569500Y-127915000D02*
X162200500Y-127915000D01*
G75*
G02*
X162180000Y-127894500I0J20500D01*
G01*
X162180000Y-126365500D01*
G75*
G02*
X162200500Y-126345000I20500J0D01*
G01*
X162569500Y-126345000D01*
G75*
G02*
X162590000Y-126365500I0J-20500D01*
G01*
X162590000Y-127894500D01*
G75*
G02*
X162569500Y-127915000I-20500J0D01*
G01*
G37*
G36*
G01*
X162569500Y-133655000D02*
X162200500Y-133655000D01*
G75*
G02*
X162180000Y-133634500I0J20500D01*
G01*
X162180000Y-132105500D01*
G75*
G02*
X162200500Y-132085000I20500J0D01*
G01*
X162569500Y-132085000D01*
G75*
G02*
X162590000Y-132105500I0J-20500D01*
G01*
X162590000Y-133634500D01*
G75*
G02*
X162569500Y-133655000I-20500J0D01*
G01*
G37*
G36*
G01*
X161919500Y-133655000D02*
X161550500Y-133655000D01*
G75*
G02*
X161530000Y-133634500I0J20500D01*
G01*
X161530000Y-132105500D01*
G75*
G02*
X161550500Y-132085000I20500J0D01*
G01*
X161919500Y-132085000D01*
G75*
G02*
X161940000Y-132105500I0J-20500D01*
G01*
X161940000Y-133634500D01*
G75*
G02*
X161919500Y-133655000I-20500J0D01*
G01*
G37*
G36*
G01*
X161269500Y-133655000D02*
X160900500Y-133655000D01*
G75*
G02*
X160880000Y-133634500I0J20500D01*
G01*
X160880000Y-132105500D01*
G75*
G02*
X160900500Y-132085000I20500J0D01*
G01*
X161269500Y-132085000D01*
G75*
G02*
X161290000Y-132105500I0J-20500D01*
G01*
X161290000Y-133634500D01*
G75*
G02*
X161269500Y-133655000I-20500J0D01*
G01*
G37*
G36*
G01*
X160619500Y-133655000D02*
X160250500Y-133655000D01*
G75*
G02*
X160230000Y-133634500I0J20500D01*
G01*
X160230000Y-132105500D01*
G75*
G02*
X160250500Y-132085000I20500J0D01*
G01*
X160619500Y-132085000D01*
G75*
G02*
X160640000Y-132105500I0J-20500D01*
G01*
X160640000Y-133634500D01*
G75*
G02*
X160619500Y-133655000I-20500J0D01*
G01*
G37*
G36*
G01*
X159969500Y-133655000D02*
X159600500Y-133655000D01*
G75*
G02*
X159580000Y-133634500I0J20500D01*
G01*
X159580000Y-132105500D01*
G75*
G02*
X159600500Y-132085000I20500J0D01*
G01*
X159969500Y-132085000D01*
G75*
G02*
X159990000Y-132105500I0J-20500D01*
G01*
X159990000Y-133634500D01*
G75*
G02*
X159969500Y-133655000I-20500J0D01*
G01*
G37*
G36*
G01*
X159319500Y-133655000D02*
X158950500Y-133655000D01*
G75*
G02*
X158930000Y-133634500I0J20500D01*
G01*
X158930000Y-132105500D01*
G75*
G02*
X158950500Y-132085000I20500J0D01*
G01*
X159319500Y-132085000D01*
G75*
G02*
X159340000Y-132105500I0J-20500D01*
G01*
X159340000Y-133634500D01*
G75*
G02*
X159319500Y-133655000I-20500J0D01*
G01*
G37*
G36*
G01*
X158669500Y-133655000D02*
X158300500Y-133655000D01*
G75*
G02*
X158280000Y-133634500I0J20500D01*
G01*
X158280000Y-132105500D01*
G75*
G02*
X158300500Y-132085000I20500J0D01*
G01*
X158669500Y-132085000D01*
G75*
G02*
X158690000Y-132105500I0J-20500D01*
G01*
X158690000Y-133634500D01*
G75*
G02*
X158669500Y-133655000I-20500J0D01*
G01*
G37*
G36*
G01*
X158019500Y-133655000D02*
X157650500Y-133655000D01*
G75*
G02*
X157630000Y-133634500I0J20500D01*
G01*
X157630000Y-132105500D01*
G75*
G02*
X157650500Y-132085000I20500J0D01*
G01*
X158019500Y-132085000D01*
G75*
G02*
X158040000Y-132105500I0J-20500D01*
G01*
X158040000Y-133634500D01*
G75*
G02*
X158019500Y-133655000I-20500J0D01*
G01*
G37*
G36*
G01*
X157369500Y-133655000D02*
X157000500Y-133655000D01*
G75*
G02*
X156980000Y-133634500I0J20500D01*
G01*
X156980000Y-132105500D01*
G75*
G02*
X157000500Y-132085000I20500J0D01*
G01*
X157369500Y-132085000D01*
G75*
G02*
X157390000Y-132105500I0J-20500D01*
G01*
X157390000Y-133634500D01*
G75*
G02*
X157369500Y-133655000I-20500J0D01*
G01*
G37*
G36*
G01*
X156719500Y-133655000D02*
X156350500Y-133655000D01*
G75*
G02*
X156330000Y-133634500I0J20500D01*
G01*
X156330000Y-132105500D01*
G75*
G02*
X156350500Y-132085000I20500J0D01*
G01*
X156719500Y-132085000D01*
G75*
G02*
X156740000Y-132105500I0J-20500D01*
G01*
X156740000Y-133634500D01*
G75*
G02*
X156719500Y-133655000I-20500J0D01*
G01*
G37*
%TD*%
%TO.C,R1*%
G36*
G01*
X115735000Y-62575000D02*
X115185000Y-62575000D01*
G75*
G02*
X114985000Y-62375000I0J200000D01*
G01*
X114985000Y-61975000D01*
G75*
G02*
X115185000Y-61775000I200000J0D01*
G01*
X115735000Y-61775000D01*
G75*
G02*
X115935000Y-61975000I0J-200000D01*
G01*
X115935000Y-62375000D01*
G75*
G02*
X115735000Y-62575000I-200000J0D01*
G01*
G37*
G36*
G01*
X115735000Y-64225000D02*
X115185000Y-64225000D01*
G75*
G02*
X114985000Y-64025000I0J200000D01*
G01*
X114985000Y-63625000D01*
G75*
G02*
X115185000Y-63425000I200000J0D01*
G01*
X115735000Y-63425000D01*
G75*
G02*
X115935000Y-63625000I0J-200000D01*
G01*
X115935000Y-64025000D01*
G75*
G02*
X115735000Y-64225000I-200000J0D01*
G01*
G37*
%TD*%
%TO.C,D1*%
G36*
G01*
X115203750Y-59350000D02*
X115716250Y-59350000D01*
G75*
G02*
X115935000Y-59568750I0J-218750D01*
G01*
X115935000Y-60006250D01*
G75*
G02*
X115716250Y-60225000I-218750J0D01*
G01*
X115203750Y-60225000D01*
G75*
G02*
X114985000Y-60006250I0J218750D01*
G01*
X114985000Y-59568750D01*
G75*
G02*
X115203750Y-59350000I218750J0D01*
G01*
G37*
G36*
G01*
X115203750Y-57775000D02*
X115716250Y-57775000D01*
G75*
G02*
X115935000Y-57993750I0J-218750D01*
G01*
X115935000Y-58431250D01*
G75*
G02*
X115716250Y-58650000I-218750J0D01*
G01*
X115203750Y-58650000D01*
G75*
G02*
X114985000Y-58431250I0J218750D01*
G01*
X114985000Y-57993750D01*
G75*
G02*
X115203750Y-57775000I218750J0D01*
G01*
G37*
%TD*%
%TO.C,C14*%
G36*
G01*
X156385000Y-104675000D02*
X156385000Y-105175000D01*
G75*
G02*
X156160000Y-105400000I-225000J0D01*
G01*
X155710000Y-105400000D01*
G75*
G02*
X155485000Y-105175000I0J225000D01*
G01*
X155485000Y-104675000D01*
G75*
G02*
X155710000Y-104450000I225000J0D01*
G01*
X156160000Y-104450000D01*
G75*
G02*
X156385000Y-104675000I0J-225000D01*
G01*
G37*
G36*
G01*
X157935000Y-104675000D02*
X157935000Y-105175000D01*
G75*
G02*
X157710000Y-105400000I-225000J0D01*
G01*
X157260000Y-105400000D01*
G75*
G02*
X157035000Y-105175000I0J225000D01*
G01*
X157035000Y-104675000D01*
G75*
G02*
X157260000Y-104450000I225000J0D01*
G01*
X157710000Y-104450000D01*
G75*
G02*
X157935000Y-104675000I0J-225000D01*
G01*
G37*
%TD*%
%TO.C,C13*%
G36*
G01*
X101785000Y-122925000D02*
X101285000Y-122925000D01*
G75*
G02*
X101060000Y-122700000I0J225000D01*
G01*
X101060000Y-122250000D01*
G75*
G02*
X101285000Y-122025000I225000J0D01*
G01*
X101785000Y-122025000D01*
G75*
G02*
X102010000Y-122250000I0J-225000D01*
G01*
X102010000Y-122700000D01*
G75*
G02*
X101785000Y-122925000I-225000J0D01*
G01*
G37*
G36*
G01*
X101785000Y-124475000D02*
X101285000Y-124475000D01*
G75*
G02*
X101060000Y-124250000I0J225000D01*
G01*
X101060000Y-123800000D01*
G75*
G02*
X101285000Y-123575000I225000J0D01*
G01*
X101785000Y-123575000D01*
G75*
G02*
X102010000Y-123800000I0J-225000D01*
G01*
X102010000Y-124250000D01*
G75*
G02*
X101785000Y-124475000I-225000J0D01*
G01*
G37*
%TD*%
%TO.C,C12*%
G36*
G01*
X112785000Y-122925000D02*
X112285000Y-122925000D01*
G75*
G02*
X112060000Y-122700000I0J225000D01*
G01*
X112060000Y-122250000D01*
G75*
G02*
X112285000Y-122025000I225000J0D01*
G01*
X112785000Y-122025000D01*
G75*
G02*
X113010000Y-122250000I0J-225000D01*
G01*
X113010000Y-122700000D01*
G75*
G02*
X112785000Y-122925000I-225000J0D01*
G01*
G37*
G36*
G01*
X112785000Y-124475000D02*
X112285000Y-124475000D01*
G75*
G02*
X112060000Y-124250000I0J225000D01*
G01*
X112060000Y-123800000D01*
G75*
G02*
X112285000Y-123575000I225000J0D01*
G01*
X112785000Y-123575000D01*
G75*
G02*
X113010000Y-123800000I0J-225000D01*
G01*
X113010000Y-124250000D01*
G75*
G02*
X112785000Y-124475000I-225000J0D01*
G01*
G37*
%TD*%
%TO.C,C11*%
G36*
G01*
X123785000Y-122925000D02*
X123285000Y-122925000D01*
G75*
G02*
X123060000Y-122700000I0J225000D01*
G01*
X123060000Y-122250000D01*
G75*
G02*
X123285000Y-122025000I225000J0D01*
G01*
X123785000Y-122025000D01*
G75*
G02*
X124010000Y-122250000I0J-225000D01*
G01*
X124010000Y-122700000D01*
G75*
G02*
X123785000Y-122925000I-225000J0D01*
G01*
G37*
G36*
G01*
X123785000Y-124475000D02*
X123285000Y-124475000D01*
G75*
G02*
X123060000Y-124250000I0J225000D01*
G01*
X123060000Y-123800000D01*
G75*
G02*
X123285000Y-123575000I225000J0D01*
G01*
X123785000Y-123575000D01*
G75*
G02*
X124010000Y-123800000I0J-225000D01*
G01*
X124010000Y-124250000D01*
G75*
G02*
X123785000Y-124475000I-225000J0D01*
G01*
G37*
%TD*%
%TO.C,C10*%
G36*
G01*
X134785000Y-122925000D02*
X134285000Y-122925000D01*
G75*
G02*
X134060000Y-122700000I0J225000D01*
G01*
X134060000Y-122250000D01*
G75*
G02*
X134285000Y-122025000I225000J0D01*
G01*
X134785000Y-122025000D01*
G75*
G02*
X135010000Y-122250000I0J-225000D01*
G01*
X135010000Y-122700000D01*
G75*
G02*
X134785000Y-122925000I-225000J0D01*
G01*
G37*
G36*
G01*
X134785000Y-124475000D02*
X134285000Y-124475000D01*
G75*
G02*
X134060000Y-124250000I0J225000D01*
G01*
X134060000Y-123800000D01*
G75*
G02*
X134285000Y-123575000I225000J0D01*
G01*
X134785000Y-123575000D01*
G75*
G02*
X135010000Y-123800000I0J-225000D01*
G01*
X135010000Y-124250000D01*
G75*
G02*
X134785000Y-124475000I-225000J0D01*
G01*
G37*
%TD*%
%TO.C,C9*%
G36*
G01*
X145785000Y-122925000D02*
X145285000Y-122925000D01*
G75*
G02*
X145060000Y-122700000I0J225000D01*
G01*
X145060000Y-122250000D01*
G75*
G02*
X145285000Y-122025000I225000J0D01*
G01*
X145785000Y-122025000D01*
G75*
G02*
X146010000Y-122250000I0J-225000D01*
G01*
X146010000Y-122700000D01*
G75*
G02*
X145785000Y-122925000I-225000J0D01*
G01*
G37*
G36*
G01*
X145785000Y-124475000D02*
X145285000Y-124475000D01*
G75*
G02*
X145060000Y-124250000I0J225000D01*
G01*
X145060000Y-123800000D01*
G75*
G02*
X145285000Y-123575000I225000J0D01*
G01*
X145785000Y-123575000D01*
G75*
G02*
X146010000Y-123800000I0J-225000D01*
G01*
X146010000Y-124250000D01*
G75*
G02*
X145785000Y-124475000I-225000J0D01*
G01*
G37*
%TD*%
%TO.C,C8*%
G36*
G01*
X178785000Y-122925000D02*
X178285000Y-122925000D01*
G75*
G02*
X178060000Y-122700000I0J225000D01*
G01*
X178060000Y-122250000D01*
G75*
G02*
X178285000Y-122025000I225000J0D01*
G01*
X178785000Y-122025000D01*
G75*
G02*
X179010000Y-122250000I0J-225000D01*
G01*
X179010000Y-122700000D01*
G75*
G02*
X178785000Y-122925000I-225000J0D01*
G01*
G37*
G36*
G01*
X178785000Y-124475000D02*
X178285000Y-124475000D01*
G75*
G02*
X178060000Y-124250000I0J225000D01*
G01*
X178060000Y-123800000D01*
G75*
G02*
X178285000Y-123575000I225000J0D01*
G01*
X178785000Y-123575000D01*
G75*
G02*
X179010000Y-123800000I0J-225000D01*
G01*
X179010000Y-124250000D01*
G75*
G02*
X178785000Y-124475000I-225000J0D01*
G01*
G37*
%TD*%
%TO.C,C7*%
G36*
G01*
X189785000Y-122925000D02*
X189285000Y-122925000D01*
G75*
G02*
X189060000Y-122700000I0J225000D01*
G01*
X189060000Y-122250000D01*
G75*
G02*
X189285000Y-122025000I225000J0D01*
G01*
X189785000Y-122025000D01*
G75*
G02*
X190010000Y-122250000I0J-225000D01*
G01*
X190010000Y-122700000D01*
G75*
G02*
X189785000Y-122925000I-225000J0D01*
G01*
G37*
G36*
G01*
X189785000Y-124475000D02*
X189285000Y-124475000D01*
G75*
G02*
X189060000Y-124250000I0J225000D01*
G01*
X189060000Y-123800000D01*
G75*
G02*
X189285000Y-123575000I225000J0D01*
G01*
X189785000Y-123575000D01*
G75*
G02*
X190010000Y-123800000I0J-225000D01*
G01*
X190010000Y-124250000D01*
G75*
G02*
X189785000Y-124475000I-225000J0D01*
G01*
G37*
%TD*%
%TO.C,C6*%
G36*
G01*
X200785000Y-122925000D02*
X200285000Y-122925000D01*
G75*
G02*
X200060000Y-122700000I0J225000D01*
G01*
X200060000Y-122250000D01*
G75*
G02*
X200285000Y-122025000I225000J0D01*
G01*
X200785000Y-122025000D01*
G75*
G02*
X201010000Y-122250000I0J-225000D01*
G01*
X201010000Y-122700000D01*
G75*
G02*
X200785000Y-122925000I-225000J0D01*
G01*
G37*
G36*
G01*
X200785000Y-124475000D02*
X200285000Y-124475000D01*
G75*
G02*
X200060000Y-124250000I0J225000D01*
G01*
X200060000Y-123800000D01*
G75*
G02*
X200285000Y-123575000I225000J0D01*
G01*
X200785000Y-123575000D01*
G75*
G02*
X201010000Y-123800000I0J-225000D01*
G01*
X201010000Y-124250000D01*
G75*
G02*
X200785000Y-124475000I-225000J0D01*
G01*
G37*
%TD*%
%TO.C,C5*%
G36*
G01*
X167785000Y-122925000D02*
X167285000Y-122925000D01*
G75*
G02*
X167060000Y-122700000I0J225000D01*
G01*
X167060000Y-122250000D01*
G75*
G02*
X167285000Y-122025000I225000J0D01*
G01*
X167785000Y-122025000D01*
G75*
G02*
X168010000Y-122250000I0J-225000D01*
G01*
X168010000Y-122700000D01*
G75*
G02*
X167785000Y-122925000I-225000J0D01*
G01*
G37*
G36*
G01*
X167785000Y-124475000D02*
X167285000Y-124475000D01*
G75*
G02*
X167060000Y-124250000I0J225000D01*
G01*
X167060000Y-123800000D01*
G75*
G02*
X167285000Y-123575000I225000J0D01*
G01*
X167785000Y-123575000D01*
G75*
G02*
X168010000Y-123800000I0J-225000D01*
G01*
X168010000Y-124250000D01*
G75*
G02*
X167785000Y-124475000I-225000J0D01*
G01*
G37*
%TD*%
%TO.C,C4*%
G36*
G01*
X156785000Y-122925000D02*
X156285000Y-122925000D01*
G75*
G02*
X156060000Y-122700000I0J225000D01*
G01*
X156060000Y-122250000D01*
G75*
G02*
X156285000Y-122025000I225000J0D01*
G01*
X156785000Y-122025000D01*
G75*
G02*
X157010000Y-122250000I0J-225000D01*
G01*
X157010000Y-122700000D01*
G75*
G02*
X156785000Y-122925000I-225000J0D01*
G01*
G37*
G36*
G01*
X156785000Y-124475000D02*
X156285000Y-124475000D01*
G75*
G02*
X156060000Y-124250000I0J225000D01*
G01*
X156060000Y-123800000D01*
G75*
G02*
X156285000Y-123575000I225000J0D01*
G01*
X156785000Y-123575000D01*
G75*
G02*
X157010000Y-123800000I0J-225000D01*
G01*
X157010000Y-124250000D01*
G75*
G02*
X156785000Y-124475000I-225000J0D01*
G01*
G37*
%TD*%
%TO.C,C3*%
G36*
G01*
X117615000Y-108900001D02*
X117615000Y-107599999D01*
G75*
G02*
X117864999Y-107350000I249999J0D01*
G01*
X118515001Y-107350000D01*
G75*
G02*
X118765000Y-107599999I0J-249999D01*
G01*
X118765000Y-108900001D01*
G75*
G02*
X118515001Y-109150000I-249999J0D01*
G01*
X117864999Y-109150000D01*
G75*
G02*
X117615000Y-108900001I0J249999D01*
G01*
G37*
G36*
G01*
X114665000Y-108900001D02*
X114665000Y-107599999D01*
G75*
G02*
X114914999Y-107350000I249999J0D01*
G01*
X115565001Y-107350000D01*
G75*
G02*
X115815000Y-107599999I0J-249999D01*
G01*
X115815000Y-108900001D01*
G75*
G02*
X115565001Y-109150000I-249999J0D01*
G01*
X114914999Y-109150000D01*
G75*
G02*
X114665000Y-108900001I0J249999D01*
G01*
G37*
%TD*%
%TO.C,C2*%
G36*
G01*
X154440000Y-87250000D02*
X154440000Y-86750000D01*
G75*
G02*
X154665000Y-86525000I225000J0D01*
G01*
X155115000Y-86525000D01*
G75*
G02*
X155340000Y-86750000I0J-225000D01*
G01*
X155340000Y-87250000D01*
G75*
G02*
X155115000Y-87475000I-225000J0D01*
G01*
X154665000Y-87475000D01*
G75*
G02*
X154440000Y-87250000I0J225000D01*
G01*
G37*
G36*
G01*
X152890000Y-87250000D02*
X152890000Y-86750000D01*
G75*
G02*
X153115000Y-86525000I225000J0D01*
G01*
X153565000Y-86525000D01*
G75*
G02*
X153790000Y-86750000I0J-225000D01*
G01*
X153790000Y-87250000D01*
G75*
G02*
X153565000Y-87475000I-225000J0D01*
G01*
X153115000Y-87475000D01*
G75*
G02*
X152890000Y-87250000I0J225000D01*
G01*
G37*
%TD*%
%TO.C,C1*%
G36*
G01*
X151900000Y-108750000D02*
X151900000Y-108250000D01*
G75*
G02*
X152125000Y-108025000I225000J0D01*
G01*
X152575000Y-108025000D01*
G75*
G02*
X152800000Y-108250000I0J-225000D01*
G01*
X152800000Y-108750000D01*
G75*
G02*
X152575000Y-108975000I-225000J0D01*
G01*
X152125000Y-108975000D01*
G75*
G02*
X151900000Y-108750000I0J225000D01*
G01*
G37*
G36*
G01*
X150350000Y-108750000D02*
X150350000Y-108250000D01*
G75*
G02*
X150575000Y-108025000I225000J0D01*
G01*
X151025000Y-108025000D01*
G75*
G02*
X151250000Y-108250000I0J-225000D01*
G01*
X151250000Y-108750000D01*
G75*
G02*
X151025000Y-108975000I-225000J0D01*
G01*
X150575000Y-108975000D01*
G75*
G02*
X150350000Y-108750000I0J225000D01*
G01*
G37*
%TD*%
M02*
