%TF.GenerationSoftware,KiCad,Pcbnew,(5.1.9-0-10_14)*%
%TF.CreationDate,2023-06-03T10:49:55+02:00*%
%TF.ProjectId,IIsi-to-ztex,49497369-2d74-46f2-9d7a-7465782e6b69,rev?*%
%TF.SameCoordinates,Original*%
%TF.FileFunction,Soldermask,Bot*%
%TF.FilePolarity,Negative*%
%FSLAX46Y46*%
G04 Gerber Fmt 4.6, Leading zero omitted, Abs format (unit mm)*
G04 Created by KiCad (PCBNEW (5.1.9-0-10_14)) date 2023-06-03 10:49:55*
%MOMM*%
%LPD*%
G01*
G04 APERTURE LIST*
%ADD10C,0.800000*%
%ADD11O,1.700000X1.700000*%
%ADD12R,1.700000X1.700000*%
%ADD13C,2.000000*%
%ADD14C,4.400000*%
%ADD15C,10.000000*%
%ADD16R,1.350000X1.350000*%
%ADD17O,1.350000X1.350000*%
%ADD18C,4.335000*%
%ADD19C,1.605000*%
%ADD20R,1.605000X1.605000*%
G04 APERTURE END LIST*
D10*
%TO.C,S1*%
X193500000Y-54500000D03*
X196500000Y-54500000D03*
%TD*%
D11*
%TO.C,J4*%
X173510000Y-61210000D03*
X173510000Y-63750000D03*
X176050000Y-61210000D03*
X176050000Y-63750000D03*
X178590000Y-61210000D03*
X178590000Y-63750000D03*
X181130000Y-61210000D03*
X181130000Y-63750000D03*
X183670000Y-61210000D03*
X183670000Y-63750000D03*
X186210000Y-61210000D03*
D12*
X186210000Y-63750000D03*
%TD*%
D13*
%TO.C,J3*%
X156080000Y-54770000D03*
X140380000Y-54770000D03*
X155480000Y-59720000D03*
X140980000Y-59720000D03*
%TD*%
D14*
%TO.C,H5*%
X133460000Y-56000000D03*
%TD*%
D15*
%TO.C,H2*%
X208570000Y-65450000D03*
%TD*%
%TO.C,H1*%
X100570000Y-65450000D03*
%TD*%
D16*
%TO.C,J1*%
X203910000Y-89860000D03*
D17*
X205910000Y-89860000D03*
X203910000Y-91860000D03*
X205910000Y-91860000D03*
X203910000Y-93860000D03*
X205910000Y-93860000D03*
X203910000Y-95860000D03*
X205910000Y-95860000D03*
X203910000Y-97860000D03*
X205910000Y-97860000D03*
X203910000Y-99860000D03*
X205910000Y-99860000D03*
X203910000Y-101860000D03*
X205910000Y-101860000D03*
%TD*%
D12*
%TO.C,JCD1*%
X115240000Y-83250000D03*
D11*
X115240000Y-80710000D03*
X117780000Y-83250000D03*
X117780000Y-80710000D03*
X120320000Y-83250000D03*
X120320000Y-80710000D03*
X122860000Y-83250000D03*
X122860000Y-80710000D03*
X125400000Y-83250000D03*
X125400000Y-80710000D03*
X127940000Y-83250000D03*
X127940000Y-80710000D03*
X130480000Y-83250000D03*
X130480000Y-80710000D03*
X133020000Y-83250000D03*
X133020000Y-80710000D03*
X135560000Y-83250000D03*
X135560000Y-80710000D03*
X138100000Y-83250000D03*
X138100000Y-80710000D03*
X140640000Y-83250000D03*
X140640000Y-80710000D03*
X143180000Y-83250000D03*
X143180000Y-80710000D03*
X145720000Y-83250000D03*
X145720000Y-80710000D03*
X148260000Y-83250000D03*
X148260000Y-80710000D03*
X150800000Y-83250000D03*
X150800000Y-80710000D03*
X153340000Y-83250000D03*
X153340000Y-80710000D03*
X155880000Y-83250000D03*
X155880000Y-80710000D03*
X158420000Y-83250000D03*
X158420000Y-80710000D03*
X160960000Y-83250000D03*
X160960000Y-80710000D03*
X163500000Y-83250000D03*
X163500000Y-80710000D03*
X166040000Y-83250000D03*
X166040000Y-80710000D03*
X168580000Y-83250000D03*
X168580000Y-80710000D03*
X171120000Y-83250000D03*
X171120000Y-80710000D03*
X173660000Y-83250000D03*
X173660000Y-80710000D03*
X176200000Y-83250000D03*
X176200000Y-80710000D03*
X178740000Y-83250000D03*
X178740000Y-80710000D03*
X181280000Y-83250000D03*
X181280000Y-80710000D03*
X183820000Y-83250000D03*
X183820000Y-80710000D03*
X186360000Y-83250000D03*
X186360000Y-80710000D03*
X188900000Y-83250000D03*
X188900000Y-80710000D03*
X191440000Y-83250000D03*
X191440000Y-80710000D03*
X193980000Y-83250000D03*
X193980000Y-80710000D03*
%TD*%
D12*
%TO.C,JAB1*%
X115240000Y-115000000D03*
D11*
X115240000Y-112460000D03*
X117780000Y-115000000D03*
X117780000Y-112460000D03*
X120320000Y-115000000D03*
X120320000Y-112460000D03*
X122860000Y-115000000D03*
X122860000Y-112460000D03*
X125400000Y-115000000D03*
X125400000Y-112460000D03*
X127940000Y-115000000D03*
X127940000Y-112460000D03*
X130480000Y-115000000D03*
X130480000Y-112460000D03*
X133020000Y-115000000D03*
X133020000Y-112460000D03*
X135560000Y-115000000D03*
X135560000Y-112460000D03*
X138100000Y-115000000D03*
X138100000Y-112460000D03*
X140640000Y-115000000D03*
X140640000Y-112460000D03*
X143180000Y-115000000D03*
X143180000Y-112460000D03*
X145720000Y-115000000D03*
X145720000Y-112460000D03*
X148260000Y-115000000D03*
X148260000Y-112460000D03*
X150800000Y-115000000D03*
X150800000Y-112460000D03*
X153340000Y-115000000D03*
X153340000Y-112460000D03*
X155880000Y-115000000D03*
X155880000Y-112460000D03*
X158420000Y-115000000D03*
X158420000Y-112460000D03*
X160960000Y-115000000D03*
X160960000Y-112460000D03*
X163500000Y-115000000D03*
X163500000Y-112460000D03*
X166040000Y-115000000D03*
X166040000Y-112460000D03*
X168580000Y-115000000D03*
X168580000Y-112460000D03*
X171120000Y-115000000D03*
X171120000Y-112460000D03*
X173660000Y-115000000D03*
X173660000Y-112460000D03*
X176200000Y-115000000D03*
X176200000Y-112460000D03*
X178740000Y-115000000D03*
X178740000Y-112460000D03*
X181280000Y-115000000D03*
X181280000Y-112460000D03*
X183820000Y-115000000D03*
X183820000Y-112460000D03*
X186360000Y-115000000D03*
X186360000Y-112460000D03*
X188900000Y-115000000D03*
X188900000Y-112460000D03*
X191440000Y-115000000D03*
X191440000Y-112460000D03*
X193980000Y-115000000D03*
X193980000Y-112460000D03*
%TD*%
D18*
%TO.C,J2*%
X100000000Y-150000000D03*
X209220000Y-150000000D03*
D19*
X105080000Y-142380000D03*
X107620000Y-142380000D03*
X110160000Y-142380000D03*
X112700000Y-142380000D03*
X115240000Y-142380000D03*
X117780000Y-142380000D03*
X120320000Y-142380000D03*
X122860000Y-142380000D03*
X125400000Y-142380000D03*
X127940000Y-142380000D03*
X130480000Y-142380000D03*
X133020000Y-142380000D03*
X135560000Y-142380000D03*
X138100000Y-142380000D03*
X140640000Y-142380000D03*
X143180000Y-142380000D03*
X145720000Y-142380000D03*
X148260000Y-142380000D03*
X150800000Y-142380000D03*
X153340000Y-142380000D03*
X155880000Y-142380000D03*
X158420000Y-142380000D03*
X160960000Y-142380000D03*
X163500000Y-142380000D03*
X166040000Y-142380000D03*
X168580000Y-142380000D03*
X171120000Y-142380000D03*
X173660000Y-142380000D03*
X176200000Y-142380000D03*
X178740000Y-142380000D03*
X181280000Y-142380000D03*
X183820000Y-142380000D03*
X186360000Y-142380000D03*
X188900000Y-142380000D03*
X191440000Y-142380000D03*
X193980000Y-142380000D03*
X196520000Y-142380000D03*
X199060000Y-142380000D03*
X201600000Y-142380000D03*
X204140000Y-142380000D03*
X105080000Y-144920000D03*
X107620000Y-144920000D03*
X110160000Y-144920000D03*
X112700000Y-144920000D03*
X115240000Y-144920000D03*
X117780000Y-144920000D03*
X120320000Y-144920000D03*
X122860000Y-144920000D03*
X125400000Y-144920000D03*
X127940000Y-144920000D03*
X130480000Y-144920000D03*
X133020000Y-144920000D03*
X135560000Y-144920000D03*
X138100000Y-144920000D03*
X140640000Y-144920000D03*
X143180000Y-144920000D03*
X145720000Y-144920000D03*
X148260000Y-144920000D03*
X150800000Y-144920000D03*
X153340000Y-144920000D03*
X155880000Y-144920000D03*
X158420000Y-144920000D03*
X160960000Y-144920000D03*
X163500000Y-144920000D03*
X166040000Y-144920000D03*
X168580000Y-144920000D03*
X171120000Y-144920000D03*
X173660000Y-144920000D03*
X176200000Y-144920000D03*
X178740000Y-144920000D03*
X181280000Y-144920000D03*
X183820000Y-144920000D03*
X186360000Y-144920000D03*
X188900000Y-144920000D03*
X191440000Y-144920000D03*
X193980000Y-144920000D03*
X196520000Y-144920000D03*
X199060000Y-144920000D03*
X201600000Y-144920000D03*
X204140000Y-144920000D03*
X105080000Y-147460000D03*
X107620000Y-147460000D03*
X110160000Y-147460000D03*
X112700000Y-147460000D03*
X115240000Y-147460000D03*
X117780000Y-147460000D03*
X120320000Y-147460000D03*
X122860000Y-147460000D03*
X125400000Y-147460000D03*
X127940000Y-147460000D03*
X130480000Y-147460000D03*
X133020000Y-147460000D03*
X135560000Y-147460000D03*
X138100000Y-147460000D03*
X140640000Y-147460000D03*
X143180000Y-147460000D03*
X145720000Y-147460000D03*
X148260000Y-147460000D03*
X150800000Y-147460000D03*
X153340000Y-147460000D03*
X155880000Y-147460000D03*
X158420000Y-147460000D03*
X160960000Y-147460000D03*
X163500000Y-147460000D03*
X166040000Y-147460000D03*
X168580000Y-147460000D03*
X171120000Y-147460000D03*
X173660000Y-147460000D03*
X176200000Y-147460000D03*
X178740000Y-147460000D03*
X181280000Y-147460000D03*
X183820000Y-147460000D03*
X186360000Y-147460000D03*
X188900000Y-147460000D03*
X191440000Y-147460000D03*
X193980000Y-147460000D03*
X196520000Y-147460000D03*
X199060000Y-147460000D03*
X201600000Y-147460000D03*
D20*
X204140000Y-147460000D03*
%TD*%
M02*
