%TF.GenerationSoftware,KiCad,Pcbnew,5.1.9+dfsg1-1~bpo10+1*%
%TF.CreationDate,2023-03-27T12:10:43+02:00*%
%TF.ProjectId,IIsi-to-ztex,49497369-2d74-46f2-9d7a-7465782e6b69,rev?*%
%TF.SameCoordinates,Original*%
%TF.FileFunction,Legend,Top*%
%TF.FilePolarity,Positive*%
%FSLAX46Y46*%
G04 Gerber Fmt 4.6, Leading zero omitted, Abs format (unit mm)*
G04 Created by KiCad (PCBNEW 5.1.9+dfsg1-1~bpo10+1) date 2023-03-27 12:10:43*
%MOMM*%
%LPD*%
G01*
G04 APERTURE LIST*
%ADD10C,0.100000*%
%ADD11C,0.150000*%
%ADD12C,0.120000*%
%ADD13C,0.200000*%
%ADD14C,0.127000*%
%ADD15C,0.254000*%
G04 APERTURE END LIST*
D10*
X115484285Y-117419285D02*
X115055714Y-117419285D01*
X115270000Y-117419285D02*
X115270000Y-116669285D01*
X115198571Y-116776428D01*
X115127142Y-116847857D01*
X115055714Y-116883571D01*
X115484285Y-85619285D02*
X115055714Y-85619285D01*
X115270000Y-85619285D02*
X115270000Y-84869285D01*
X115198571Y-84976428D01*
X115127142Y-85047857D01*
X115055714Y-85083571D01*
D11*
X203703333Y-86282380D02*
X203703333Y-86996666D01*
X203655714Y-87139523D01*
X203560476Y-87234761D01*
X203417619Y-87282380D01*
X203322380Y-87282380D01*
X204036666Y-86282380D02*
X204608095Y-86282380D01*
X204322380Y-87282380D02*
X204322380Y-86282380D01*
X204893809Y-86996666D02*
X205370000Y-86996666D01*
X204798571Y-87282380D02*
X205131904Y-86282380D01*
X205465238Y-87282380D01*
X206322380Y-86330000D02*
X206227142Y-86282380D01*
X206084285Y-86282380D01*
X205941428Y-86330000D01*
X205846190Y-86425238D01*
X205798571Y-86520476D01*
X205750952Y-86710952D01*
X205750952Y-86853809D01*
X205798571Y-87044285D01*
X205846190Y-87139523D01*
X205941428Y-87234761D01*
X206084285Y-87282380D01*
X206179523Y-87282380D01*
X206322380Y-87234761D01*
X206370000Y-87187142D01*
X206370000Y-86853809D01*
X206179523Y-86853809D01*
X109698571Y-54682380D02*
X110317619Y-54682380D01*
X109984285Y-55063333D01*
X110127142Y-55063333D01*
X110222380Y-55110952D01*
X110270000Y-55158571D01*
X110317619Y-55253809D01*
X110317619Y-55491904D01*
X110270000Y-55587142D01*
X110222380Y-55634761D01*
X110127142Y-55682380D01*
X109841428Y-55682380D01*
X109746190Y-55634761D01*
X109698571Y-55587142D01*
X110603333Y-54682380D02*
X110936666Y-55682380D01*
X111270000Y-54682380D01*
X111508095Y-54682380D02*
X112127142Y-54682380D01*
X111793809Y-55063333D01*
X111936666Y-55063333D01*
X112031904Y-55110952D01*
X112079523Y-55158571D01*
X112127142Y-55253809D01*
X112127142Y-55491904D01*
X112079523Y-55587142D01*
X112031904Y-55634761D01*
X111936666Y-55682380D01*
X111650952Y-55682380D01*
X111555714Y-55634761D01*
X111508095Y-55587142D01*
X113317619Y-55015714D02*
X113317619Y-56015714D01*
X113317619Y-55063333D02*
X113412857Y-55015714D01*
X113603333Y-55015714D01*
X113698571Y-55063333D01*
X113746190Y-55110952D01*
X113793809Y-55206190D01*
X113793809Y-55491904D01*
X113746190Y-55587142D01*
X113698571Y-55634761D01*
X113603333Y-55682380D01*
X113412857Y-55682380D01*
X113317619Y-55634761D01*
X114365238Y-55682380D02*
X114270000Y-55634761D01*
X114222380Y-55587142D01*
X114174761Y-55491904D01*
X114174761Y-55206190D01*
X114222380Y-55110952D01*
X114270000Y-55063333D01*
X114365238Y-55015714D01*
X114508095Y-55015714D01*
X114603333Y-55063333D01*
X114650952Y-55110952D01*
X114698571Y-55206190D01*
X114698571Y-55491904D01*
X114650952Y-55587142D01*
X114603333Y-55634761D01*
X114508095Y-55682380D01*
X114365238Y-55682380D01*
X115031904Y-55015714D02*
X115222380Y-55682380D01*
X115412857Y-55206190D01*
X115603333Y-55682380D01*
X115793809Y-55015714D01*
X116555714Y-55634761D02*
X116460476Y-55682380D01*
X116270000Y-55682380D01*
X116174761Y-55634761D01*
X116127142Y-55539523D01*
X116127142Y-55158571D01*
X116174761Y-55063333D01*
X116270000Y-55015714D01*
X116460476Y-55015714D01*
X116555714Y-55063333D01*
X116603333Y-55158571D01*
X116603333Y-55253809D01*
X116127142Y-55349047D01*
X117031904Y-55682380D02*
X117031904Y-55015714D01*
X117031904Y-55206190D02*
X117079523Y-55110952D01*
X117127142Y-55063333D01*
X117222380Y-55015714D01*
X117317619Y-55015714D01*
X118555714Y-55682380D02*
X118460476Y-55634761D01*
X118412857Y-55587142D01*
X118365238Y-55491904D01*
X118365238Y-55206190D01*
X118412857Y-55110952D01*
X118460476Y-55063333D01*
X118555714Y-55015714D01*
X118698571Y-55015714D01*
X118793809Y-55063333D01*
X118841428Y-55110952D01*
X118889047Y-55206190D01*
X118889047Y-55491904D01*
X118841428Y-55587142D01*
X118793809Y-55634761D01*
X118698571Y-55682380D01*
X118555714Y-55682380D01*
X119317619Y-55015714D02*
X119317619Y-55682380D01*
X119317619Y-55110952D02*
X119365238Y-55063333D01*
X119460476Y-55015714D01*
X119603333Y-55015714D01*
X119698571Y-55063333D01*
X119746190Y-55158571D01*
X119746190Y-55682380D01*
X204495714Y-140202380D02*
X203924285Y-140202380D01*
X204210000Y-140202380D02*
X204210000Y-139202380D01*
X204114761Y-139345238D01*
X204019523Y-139440476D01*
X203924285Y-139488095D01*
X212031904Y-147566666D02*
X212508095Y-147566666D01*
X211936666Y-147852380D02*
X212270000Y-146852380D01*
X212603333Y-147852380D01*
X212371428Y-144828571D02*
X212514285Y-144876190D01*
X212561904Y-144923809D01*
X212609523Y-145019047D01*
X212609523Y-145161904D01*
X212561904Y-145257142D01*
X212514285Y-145304761D01*
X212419047Y-145352380D01*
X212038095Y-145352380D01*
X212038095Y-144352380D01*
X212371428Y-144352380D01*
X212466666Y-144400000D01*
X212514285Y-144447619D01*
X212561904Y-144542857D01*
X212561904Y-144638095D01*
X212514285Y-144733333D01*
X212466666Y-144780952D01*
X212371428Y-144828571D01*
X212038095Y-144828571D01*
X212589523Y-142797142D02*
X212541904Y-142844761D01*
X212399047Y-142892380D01*
X212303809Y-142892380D01*
X212160952Y-142844761D01*
X212065714Y-142749523D01*
X212018095Y-142654285D01*
X211970476Y-142463809D01*
X211970476Y-142320952D01*
X212018095Y-142130476D01*
X212065714Y-142035238D01*
X212160952Y-141940000D01*
X212303809Y-141892380D01*
X212399047Y-141892380D01*
X212541904Y-141940000D01*
X212589523Y-141987619D01*
D10*
X142064285Y-75979285D02*
X141635714Y-75979285D01*
X141850000Y-75979285D02*
X141850000Y-75229285D01*
X141778571Y-75336428D01*
X141707142Y-75407857D01*
X141635714Y-75443571D01*
X168424285Y-105889285D02*
X167995714Y-105889285D01*
X168210000Y-105889285D02*
X168210000Y-105139285D01*
X168138571Y-105246428D01*
X168067142Y-105317857D01*
X167995714Y-105353571D01*
X101244285Y-134879285D02*
X100815714Y-134879285D01*
X101030000Y-134879285D02*
X101030000Y-134129285D01*
X100958571Y-134236428D01*
X100887142Y-134307857D01*
X100815714Y-134343571D01*
X112244285Y-134879285D02*
X111815714Y-134879285D01*
X112030000Y-134879285D02*
X112030000Y-134129285D01*
X111958571Y-134236428D01*
X111887142Y-134307857D01*
X111815714Y-134343571D01*
X123244285Y-134879285D02*
X122815714Y-134879285D01*
X123030000Y-134879285D02*
X123030000Y-134129285D01*
X122958571Y-134236428D01*
X122887142Y-134307857D01*
X122815714Y-134343571D01*
X134244285Y-134879285D02*
X133815714Y-134879285D01*
X134030000Y-134879285D02*
X134030000Y-134129285D01*
X133958571Y-134236428D01*
X133887142Y-134307857D01*
X133815714Y-134343571D01*
X145244285Y-134879285D02*
X144815714Y-134879285D01*
X145030000Y-134879285D02*
X145030000Y-134129285D01*
X144958571Y-134236428D01*
X144887142Y-134307857D01*
X144815714Y-134343571D01*
X156244285Y-134879285D02*
X155815714Y-134879285D01*
X156030000Y-134879285D02*
X156030000Y-134129285D01*
X155958571Y-134236428D01*
X155887142Y-134307857D01*
X155815714Y-134343571D01*
X167244285Y-134879285D02*
X166815714Y-134879285D01*
X167030000Y-134879285D02*
X167030000Y-134129285D01*
X166958571Y-134236428D01*
X166887142Y-134307857D01*
X166815714Y-134343571D01*
X178244285Y-134879285D02*
X177815714Y-134879285D01*
X178030000Y-134879285D02*
X178030000Y-134129285D01*
X177958571Y-134236428D01*
X177887142Y-134307857D01*
X177815714Y-134343571D01*
X189244285Y-134879285D02*
X188815714Y-134879285D01*
X189030000Y-134879285D02*
X189030000Y-134129285D01*
X188958571Y-134236428D01*
X188887142Y-134307857D01*
X188815714Y-134343571D01*
X200244285Y-134879285D02*
X199815714Y-134879285D01*
X200030000Y-134879285D02*
X200030000Y-134129285D01*
X199958571Y-134236428D01*
X199887142Y-134307857D01*
X199815714Y-134343571D01*
D11*
X112922380Y-75032380D02*
X113589047Y-75032380D01*
X112922380Y-76032380D01*
X113589047Y-76032380D01*
X113827142Y-75032380D02*
X114398571Y-75032380D01*
X114112857Y-76032380D02*
X114112857Y-75032380D01*
X115112857Y-75984761D02*
X115017619Y-76032380D01*
X114827142Y-76032380D01*
X114731904Y-75984761D01*
X114684285Y-75889523D01*
X114684285Y-75508571D01*
X114731904Y-75413333D01*
X114827142Y-75365714D01*
X115017619Y-75365714D01*
X115112857Y-75413333D01*
X115160476Y-75508571D01*
X115160476Y-75603809D01*
X114684285Y-75699047D01*
X115493809Y-76032380D02*
X116017619Y-75365714D01*
X115493809Y-75365714D02*
X116017619Y-76032380D01*
X117112857Y-75127619D02*
X117160476Y-75080000D01*
X117255714Y-75032380D01*
X117493809Y-75032380D01*
X117589047Y-75080000D01*
X117636666Y-75127619D01*
X117684285Y-75222857D01*
X117684285Y-75318095D01*
X117636666Y-75460952D01*
X117065238Y-76032380D01*
X117684285Y-76032380D01*
X118112857Y-75937142D02*
X118160476Y-75984761D01*
X118112857Y-76032380D01*
X118065238Y-75984761D01*
X118112857Y-75937142D01*
X118112857Y-76032380D01*
X119112857Y-76032380D02*
X118541428Y-76032380D01*
X118827142Y-76032380D02*
X118827142Y-75032380D01*
X118731904Y-75175238D01*
X118636666Y-75270476D01*
X118541428Y-75318095D01*
X119446190Y-75032380D02*
X120065238Y-75032380D01*
X119731904Y-75413333D01*
X119874761Y-75413333D01*
X119970000Y-75460952D01*
X120017619Y-75508571D01*
X120065238Y-75603809D01*
X120065238Y-75841904D01*
X120017619Y-75937142D01*
X119970000Y-75984761D01*
X119874761Y-76032380D01*
X119589047Y-76032380D01*
X119493809Y-75984761D01*
X119446190Y-75937142D01*
X121398571Y-76032380D02*
X121303333Y-75984761D01*
X121255714Y-75937142D01*
X121208095Y-75841904D01*
X121208095Y-75556190D01*
X121255714Y-75460952D01*
X121303333Y-75413333D01*
X121398571Y-75365714D01*
X121541428Y-75365714D01*
X121636666Y-75413333D01*
X121684285Y-75460952D01*
X121731904Y-75556190D01*
X121731904Y-75841904D01*
X121684285Y-75937142D01*
X121636666Y-75984761D01*
X121541428Y-76032380D01*
X121398571Y-76032380D01*
X122589047Y-75365714D02*
X122589047Y-76032380D01*
X122160476Y-75365714D02*
X122160476Y-75889523D01*
X122208095Y-75984761D01*
X122303333Y-76032380D01*
X122446190Y-76032380D01*
X122541428Y-75984761D01*
X122589047Y-75937142D01*
X122922380Y-75365714D02*
X123303333Y-75365714D01*
X123065238Y-75032380D02*
X123065238Y-75889523D01*
X123112857Y-75984761D01*
X123208095Y-76032380D01*
X123303333Y-76032380D01*
X123779523Y-76032380D02*
X123684285Y-75984761D01*
X123636666Y-75889523D01*
X123636666Y-75032380D01*
X124160476Y-76032380D02*
X124160476Y-75365714D01*
X124160476Y-75032380D02*
X124112857Y-75080000D01*
X124160476Y-75127619D01*
X124208095Y-75080000D01*
X124160476Y-75032380D01*
X124160476Y-75127619D01*
X124636666Y-75365714D02*
X124636666Y-76032380D01*
X124636666Y-75460952D02*
X124684285Y-75413333D01*
X124779523Y-75365714D01*
X124922380Y-75365714D01*
X125017619Y-75413333D01*
X125065238Y-75508571D01*
X125065238Y-76032380D01*
X125922380Y-75984761D02*
X125827142Y-76032380D01*
X125636666Y-76032380D01*
X125541428Y-75984761D01*
X125493809Y-75889523D01*
X125493809Y-75508571D01*
X125541428Y-75413333D01*
X125636666Y-75365714D01*
X125827142Y-75365714D01*
X125922380Y-75413333D01*
X125970000Y-75508571D01*
X125970000Y-75603809D01*
X125493809Y-75699047D01*
D12*
X112720000Y-127730000D02*
X112720000Y-76930000D01*
X196520000Y-76930000D02*
X196520000Y-127730000D01*
X196520000Y-127730000D02*
X112720000Y-127730000D01*
X196520000Y-76930000D02*
X112720000Y-76930000D01*
X203570000Y-7650000D02*
X203570000Y5150000D01*
X213570000Y-7650000D02*
X203570000Y-7650000D01*
X105570000Y-7650000D02*
X105570000Y5150000D01*
X95570000Y-7650000D02*
X105570000Y-7650000D01*
X200640000Y-55500000D02*
X213570000Y-55500000D01*
X200640000Y-75500000D02*
X200640000Y-55500000D01*
D11*
X200640000Y-75500000D02*
X213570000Y-75500000D01*
X89000000Y-55500000D02*
X89000000Y-75500000D01*
X108500000Y-55500000D02*
X89000000Y-55500000D01*
X108500000Y-75500000D02*
X108500000Y-55500000D01*
X89000000Y-75500000D02*
X108500000Y-75500000D01*
X97698095Y-147452380D02*
X97793333Y-147452380D01*
X97888571Y-147500000D01*
X97936190Y-147547619D01*
X97983809Y-147642857D01*
X98031428Y-147833333D01*
X98031428Y-148071428D01*
X97983809Y-148261904D01*
X97936190Y-148357142D01*
X97888571Y-148404761D01*
X97793333Y-148452380D01*
X97698095Y-148452380D01*
X97602857Y-148404761D01*
X97555238Y-148357142D01*
X97507619Y-148261904D01*
X97460000Y-148071428D01*
X97460000Y-147833333D01*
X97507619Y-147642857D01*
X97555238Y-147547619D01*
X97602857Y-147500000D01*
X97698095Y-147452380D01*
X98507619Y-148404761D02*
X98507619Y-148452380D01*
X98460000Y-148547619D01*
X98412380Y-148595238D01*
X99126666Y-147452380D02*
X99221904Y-147452380D01*
X99317142Y-147500000D01*
X99364761Y-147547619D01*
X99412380Y-147642857D01*
X99460000Y-147833333D01*
X99460000Y-148071428D01*
X99412380Y-148261904D01*
X99364761Y-148357142D01*
X99317142Y-148404761D01*
X99221904Y-148452380D01*
X99126666Y-148452380D01*
X99031428Y-148404761D01*
X98983809Y-148357142D01*
X98936190Y-148261904D01*
X98888571Y-148071428D01*
X98888571Y-147833333D01*
X98936190Y-147642857D01*
X98983809Y-147547619D01*
X99031428Y-147500000D01*
X99126666Y-147452380D01*
D12*
%TO.C,J4*%
X187540000Y-63750000D02*
X187540000Y-64860000D01*
X187540000Y-64860000D02*
X186210000Y-64860000D01*
X187540000Y-51120000D02*
X172180000Y-51120000D01*
X172180000Y-51120000D02*
X172180000Y-59750000D01*
X187540000Y-59750000D02*
X172180000Y-59750000D01*
X187540000Y-51120000D02*
X187540000Y-59750000D01*
X174780000Y-51120000D02*
X174780000Y-59750000D01*
X177320000Y-51120000D02*
X177320000Y-59750000D01*
X179860000Y-51120000D02*
X179860000Y-59750000D01*
X182400000Y-51120000D02*
X182400000Y-59750000D01*
X184940000Y-51120000D02*
X184940000Y-59750000D01*
X173150000Y-62260000D02*
X173150000Y-62700000D01*
X173150000Y-59750000D02*
X173150000Y-60160000D01*
X173870000Y-62260000D02*
X173870000Y-62700000D01*
X173870000Y-59750000D02*
X173870000Y-60160000D01*
X175690000Y-62260000D02*
X175690000Y-62700000D01*
X175690000Y-59750000D02*
X175690000Y-60160000D01*
X176410000Y-62260000D02*
X176410000Y-62700000D01*
X176410000Y-59750000D02*
X176410000Y-60160000D01*
X178230000Y-62260000D02*
X178230000Y-62700000D01*
X178230000Y-59750000D02*
X178230000Y-60160000D01*
X178950000Y-62260000D02*
X178950000Y-62700000D01*
X178950000Y-59750000D02*
X178950000Y-60160000D01*
X180770000Y-62260000D02*
X180770000Y-62700000D01*
X180770000Y-59750000D02*
X180770000Y-60160000D01*
X181490000Y-62260000D02*
X181490000Y-62700000D01*
X181490000Y-59750000D02*
X181490000Y-60160000D01*
X183310000Y-62260000D02*
X183310000Y-62700000D01*
X183310000Y-59750000D02*
X183310000Y-60160000D01*
X184030000Y-62260000D02*
X184030000Y-62700000D01*
X184030000Y-59750000D02*
X184030000Y-60160000D01*
X185850000Y-62260000D02*
X185850000Y-62640000D01*
X185850000Y-59750000D02*
X185850000Y-60160000D01*
X186570000Y-62260000D02*
X186570000Y-62640000D01*
X186570000Y-59750000D02*
X186570000Y-60160000D01*
X185058100Y-51120000D02*
X185058100Y-59750000D01*
X185176195Y-51120000D02*
X185176195Y-59750000D01*
X185294290Y-51120000D02*
X185294290Y-59750000D01*
X185412385Y-51120000D02*
X185412385Y-59750000D01*
X185530480Y-51120000D02*
X185530480Y-59750000D01*
X185648575Y-51120000D02*
X185648575Y-59750000D01*
X185766670Y-51120000D02*
X185766670Y-59750000D01*
X185884765Y-51120000D02*
X185884765Y-59750000D01*
X186002860Y-51120000D02*
X186002860Y-59750000D01*
X186120955Y-51120000D02*
X186120955Y-59750000D01*
X186239050Y-51120000D02*
X186239050Y-59750000D01*
X186357145Y-51120000D02*
X186357145Y-59750000D01*
X186475240Y-51120000D02*
X186475240Y-59750000D01*
X186593335Y-51120000D02*
X186593335Y-59750000D01*
X186711430Y-51120000D02*
X186711430Y-59750000D01*
X186829525Y-51120000D02*
X186829525Y-59750000D01*
X186947620Y-51120000D02*
X186947620Y-59750000D01*
X187065715Y-51120000D02*
X187065715Y-59750000D01*
X187183810Y-51120000D02*
X187183810Y-59750000D01*
X187301905Y-51120000D02*
X187301905Y-59750000D01*
X187420000Y-51120000D02*
X187420000Y-59750000D01*
%TO.C,C21*%
X174144420Y-66990000D02*
X174425580Y-66990000D01*
X174144420Y-68010000D02*
X174425580Y-68010000D01*
D13*
%TO.C,U12*%
X142670000Y-76250000D02*
G75*
G03*
X142670000Y-76250000I-100000J0D01*
G01*
D14*
X142455000Y-74010000D02*
X142455000Y-69610000D01*
X150655000Y-74010000D02*
X150655000Y-69610000D01*
D12*
%TO.C,R2*%
X127724564Y-60910000D02*
X126270436Y-60910000D01*
X127724564Y-59090000D02*
X126270436Y-59090000D01*
%TO.C,J3*%
X156430000Y-55970000D02*
X156430000Y-58970000D01*
X156430000Y-61070000D02*
X153230000Y-61070000D01*
X156430000Y-53470000D02*
X156430000Y-52470000D01*
X140030000Y-52470000D02*
X140030000Y-53470000D01*
X140030000Y-61070000D02*
X140030000Y-60470000D01*
X140030000Y-61070000D02*
X142730000Y-61070000D01*
X142730000Y-61070000D02*
X142730000Y-61720000D01*
X156430000Y-61070000D02*
X156430000Y-60470000D01*
X140030000Y-55970000D02*
X140030000Y-58970000D01*
%TO.C,C20*%
X127771252Y-56735000D02*
X127248748Y-56735000D01*
X127771252Y-55265000D02*
X127248748Y-55265000D01*
%TO.C,C19*%
X152414420Y-62870000D02*
X152695580Y-62870000D01*
X152414420Y-63890000D02*
X152695580Y-63890000D01*
%TO.C,C18*%
X152689420Y-72120000D02*
X152970580Y-72120000D01*
X152689420Y-73140000D02*
X152970580Y-73140000D01*
%TO.C,C17*%
X154384420Y-74170000D02*
X154665580Y-74170000D01*
X154384420Y-75190000D02*
X154665580Y-75190000D01*
%TO.C,C16*%
X140316252Y-69290000D02*
X138893748Y-69290000D01*
X140316252Y-67470000D02*
X138893748Y-67470000D01*
%TO.C,C15*%
X141970580Y-66390000D02*
X141689420Y-66390000D01*
X141970580Y-65370000D02*
X141689420Y-65370000D01*
D13*
%TO.C,U11*%
X167750000Y-104925000D02*
G75*
G03*
X167750000Y-104925000I-100000J0D01*
G01*
D14*
X165660000Y-105450000D02*
X161260000Y-105450000D01*
X165660000Y-98550000D02*
X161260000Y-98550000D01*
D13*
%TO.C,U10*%
X101635000Y-134190000D02*
G75*
G03*
X101635000Y-134190000I-100000J0D01*
G01*
D14*
X101010000Y-132200000D02*
X101010000Y-127800000D01*
X107910000Y-132200000D02*
X107910000Y-127800000D01*
D13*
%TO.C,U9*%
X112635000Y-134190000D02*
G75*
G03*
X112635000Y-134190000I-100000J0D01*
G01*
D14*
X112010000Y-132200000D02*
X112010000Y-127800000D01*
X118910000Y-132200000D02*
X118910000Y-127800000D01*
D13*
%TO.C,U8*%
X123635000Y-134190000D02*
G75*
G03*
X123635000Y-134190000I-100000J0D01*
G01*
D14*
X123010000Y-132200000D02*
X123010000Y-127800000D01*
X129910000Y-132200000D02*
X129910000Y-127800000D01*
D13*
%TO.C,U7*%
X134635000Y-134190000D02*
G75*
G03*
X134635000Y-134190000I-100000J0D01*
G01*
D14*
X134010000Y-132200000D02*
X134010000Y-127800000D01*
X140910000Y-132200000D02*
X140910000Y-127800000D01*
D13*
%TO.C,U6*%
X145635000Y-134190000D02*
G75*
G03*
X145635000Y-134190000I-100000J0D01*
G01*
D14*
X145010000Y-132200000D02*
X145010000Y-127800000D01*
X151910000Y-132200000D02*
X151910000Y-127800000D01*
D13*
%TO.C,U5*%
X178635000Y-134190000D02*
G75*
G03*
X178635000Y-134190000I-100000J0D01*
G01*
D14*
X178010000Y-132200000D02*
X178010000Y-127800000D01*
X184910000Y-132200000D02*
X184910000Y-127800000D01*
D13*
%TO.C,U4*%
X189635000Y-134190000D02*
G75*
G03*
X189635000Y-134190000I-100000J0D01*
G01*
D14*
X189010000Y-132200000D02*
X189010000Y-127800000D01*
X195910000Y-132200000D02*
X195910000Y-127800000D01*
D13*
%TO.C,U3*%
X200635000Y-134190000D02*
G75*
G03*
X200635000Y-134190000I-100000J0D01*
G01*
D14*
X200010000Y-132200000D02*
X200010000Y-127800000D01*
X206910000Y-132200000D02*
X206910000Y-127800000D01*
D13*
%TO.C,U2*%
X167635000Y-134190000D02*
G75*
G03*
X167635000Y-134190000I-100000J0D01*
G01*
D14*
X167010000Y-132200000D02*
X167010000Y-127800000D01*
X173910000Y-132200000D02*
X173910000Y-127800000D01*
D13*
%TO.C,U1*%
X156635000Y-134190000D02*
G75*
G03*
X156635000Y-134190000I-100000J0D01*
G01*
D14*
X156010000Y-132200000D02*
X156010000Y-127800000D01*
X162910000Y-132200000D02*
X162910000Y-127800000D01*
D12*
%TO.C,R1*%
X114937500Y-63237258D02*
X114937500Y-62762742D01*
X115982500Y-63237258D02*
X115982500Y-62762742D01*
%TO.C,J1*%
X202910000Y-88860000D02*
X203910000Y-88860000D01*
X202910000Y-89860000D02*
X202910000Y-88860000D01*
X204792114Y-102170000D02*
X205027886Y-102170000D01*
X204792114Y-101550000D02*
X205027886Y-101550000D01*
X206792114Y-102170000D02*
X207350000Y-102170000D01*
X206792114Y-101550000D02*
X207350000Y-101550000D01*
X213170000Y-102170000D02*
X208970000Y-102170000D01*
X213170000Y-101550000D02*
X213170000Y-102170000D01*
X208970000Y-101550000D02*
X213170000Y-101550000D01*
X207350000Y-100860000D02*
X208970000Y-100860000D01*
X204792114Y-100170000D02*
X205027886Y-100170000D01*
X204792114Y-99550000D02*
X205027886Y-99550000D01*
X206792114Y-100170000D02*
X207350000Y-100170000D01*
X206792114Y-99550000D02*
X207350000Y-99550000D01*
X213170000Y-100170000D02*
X208970000Y-100170000D01*
X213170000Y-99550000D02*
X213170000Y-100170000D01*
X208970000Y-99550000D02*
X213170000Y-99550000D01*
X207350000Y-98860000D02*
X208970000Y-98860000D01*
X204792114Y-98170000D02*
X205027886Y-98170000D01*
X204792114Y-97550000D02*
X205027886Y-97550000D01*
X206792114Y-98170000D02*
X207350000Y-98170000D01*
X206792114Y-97550000D02*
X207350000Y-97550000D01*
X213170000Y-98170000D02*
X208970000Y-98170000D01*
X213170000Y-97550000D02*
X213170000Y-98170000D01*
X208970000Y-97550000D02*
X213170000Y-97550000D01*
X207350000Y-96860000D02*
X208970000Y-96860000D01*
X204792114Y-96170000D02*
X205027886Y-96170000D01*
X204792114Y-95550000D02*
X205027886Y-95550000D01*
X206792114Y-96170000D02*
X207350000Y-96170000D01*
X206792114Y-95550000D02*
X207350000Y-95550000D01*
X213170000Y-96170000D02*
X208970000Y-96170000D01*
X213170000Y-95550000D02*
X213170000Y-96170000D01*
X208970000Y-95550000D02*
X213170000Y-95550000D01*
X207350000Y-94860000D02*
X208970000Y-94860000D01*
X204792114Y-94170000D02*
X205027886Y-94170000D01*
X204792114Y-93550000D02*
X205027886Y-93550000D01*
X206792114Y-94170000D02*
X207350000Y-94170000D01*
X206792114Y-93550000D02*
X207350000Y-93550000D01*
X213170000Y-94170000D02*
X208970000Y-94170000D01*
X213170000Y-93550000D02*
X213170000Y-94170000D01*
X208970000Y-93550000D02*
X213170000Y-93550000D01*
X207350000Y-92860000D02*
X208970000Y-92860000D01*
X204792114Y-92170000D02*
X205027886Y-92170000D01*
X204792114Y-91550000D02*
X205027886Y-91550000D01*
X206792114Y-92170000D02*
X207350000Y-92170000D01*
X206792114Y-91550000D02*
X207350000Y-91550000D01*
X213170000Y-92170000D02*
X208970000Y-92170000D01*
X213170000Y-91550000D02*
X213170000Y-92170000D01*
X208970000Y-91550000D02*
X213170000Y-91550000D01*
X207350000Y-90860000D02*
X208970000Y-90860000D01*
X204845000Y-90170000D02*
X205027886Y-90170000D01*
X204845000Y-89550000D02*
X205027886Y-89550000D01*
X206792114Y-90170000D02*
X207350000Y-90170000D01*
X206792114Y-89550000D02*
X207350000Y-89550000D01*
X208970000Y-90090000D02*
X213170000Y-90090000D01*
X208970000Y-89970000D02*
X213170000Y-89970000D01*
X208970000Y-89850000D02*
X213170000Y-89850000D01*
X208970000Y-89730000D02*
X213170000Y-89730000D01*
X208970000Y-89610000D02*
X213170000Y-89610000D01*
X213170000Y-90170000D02*
X208970000Y-90170000D01*
X213170000Y-89550000D02*
X213170000Y-90170000D01*
X208970000Y-89550000D02*
X213170000Y-89550000D01*
X208970000Y-88800000D02*
X207350000Y-88800000D01*
X208970000Y-102920000D02*
X208970000Y-88800000D01*
X207350000Y-102920000D02*
X208970000Y-102920000D01*
X207350000Y-88800000D02*
X207350000Y-102920000D01*
%TO.C,D1*%
X116195000Y-59800000D02*
X116195000Y-57515000D01*
X116195000Y-57515000D02*
X114725000Y-57515000D01*
X114725000Y-57515000D02*
X114725000Y-59800000D01*
%TO.C,C14*%
X156850580Y-105435000D02*
X156569420Y-105435000D01*
X156850580Y-104415000D02*
X156569420Y-104415000D01*
%TO.C,C13*%
X101025000Y-123390580D02*
X101025000Y-123109420D01*
X102045000Y-123390580D02*
X102045000Y-123109420D01*
%TO.C,C12*%
X112025000Y-123390580D02*
X112025000Y-123109420D01*
X113045000Y-123390580D02*
X113045000Y-123109420D01*
%TO.C,C11*%
X123025000Y-123390580D02*
X123025000Y-123109420D01*
X124045000Y-123390580D02*
X124045000Y-123109420D01*
%TO.C,C10*%
X134025000Y-123390580D02*
X134025000Y-123109420D01*
X135045000Y-123390580D02*
X135045000Y-123109420D01*
%TO.C,C9*%
X145025000Y-123390580D02*
X145025000Y-123109420D01*
X146045000Y-123390580D02*
X146045000Y-123109420D01*
%TO.C,C8*%
X178025000Y-123390580D02*
X178025000Y-123109420D01*
X179045000Y-123390580D02*
X179045000Y-123109420D01*
%TO.C,C7*%
X189025000Y-123390580D02*
X189025000Y-123109420D01*
X190045000Y-123390580D02*
X190045000Y-123109420D01*
%TO.C,C6*%
X200025000Y-123390580D02*
X200025000Y-123109420D01*
X201045000Y-123390580D02*
X201045000Y-123109420D01*
%TO.C,C5*%
X167025000Y-123390580D02*
X167025000Y-123109420D01*
X168045000Y-123390580D02*
X168045000Y-123109420D01*
%TO.C,C4*%
X156025000Y-123390580D02*
X156025000Y-123109420D01*
X157045000Y-123390580D02*
X157045000Y-123109420D01*
%TO.C,C3*%
X116003748Y-107340000D02*
X117426252Y-107340000D01*
X116003748Y-109160000D02*
X117426252Y-109160000D01*
%TO.C,C2*%
X153974420Y-87200000D02*
X154255580Y-87200000D01*
X153974420Y-88220000D02*
X154255580Y-88220000D01*
%TO.C,C1*%
X151434420Y-107490000D02*
X151715580Y-107490000D01*
X151434420Y-108510000D02*
X151715580Y-108510000D01*
%TO.C,JCD1*%
X195310000Y-84580000D02*
X195310000Y-79380000D01*
X116510000Y-84580000D02*
X195310000Y-84580000D01*
X113910000Y-79380000D02*
X195310000Y-79380000D01*
X116510000Y-84580000D02*
X116510000Y-81980000D01*
X116510000Y-81980000D02*
X113910000Y-81980000D01*
X113910000Y-81980000D02*
X113910000Y-79380000D01*
X115240000Y-84580000D02*
X113910000Y-84580000D01*
X113910000Y-84580000D02*
X113910000Y-83250000D01*
%TO.C,JAB1*%
X195310000Y-116330000D02*
X195310000Y-111130000D01*
X116510000Y-116330000D02*
X195310000Y-116330000D01*
X113910000Y-111130000D02*
X195310000Y-111130000D01*
X116510000Y-116330000D02*
X116510000Y-113730000D01*
X116510000Y-113730000D02*
X113910000Y-113730000D01*
X113910000Y-113730000D02*
X113910000Y-111130000D01*
X115240000Y-116330000D02*
X113910000Y-116330000D01*
X113910000Y-116330000D02*
X113910000Y-115000000D01*
D10*
%TO.C,J2*%
X211760000Y-147480000D02*
X211760000Y-147480000D01*
X205640000Y-147480000D02*
X211760000Y-147480000D01*
X205640000Y-147480000D02*
X205640000Y-147480000D01*
X211760000Y-147480000D02*
X205640000Y-147480000D01*
X211760000Y-147480000D02*
X211760000Y-160100000D01*
X211760000Y-147480000D02*
X211760000Y-147480000D01*
X211760000Y-160100000D02*
X211760000Y-147480000D01*
X211760000Y-160100000D02*
X211760000Y-160100000D01*
X97460000Y-160100000D02*
X97460000Y-160100000D01*
X211760000Y-160100000D02*
X97460000Y-160100000D01*
X211760000Y-160100000D02*
X211760000Y-160100000D01*
X97460000Y-160100000D02*
X211760000Y-160100000D01*
X97460000Y-160100000D02*
X97460000Y-147480000D01*
X97460000Y-160100000D02*
X97460000Y-160100000D01*
X97460000Y-147480000D02*
X97460000Y-160100000D01*
X97460000Y-147480000D02*
X97460000Y-147480000D01*
X103640000Y-147480000D02*
X103640000Y-147480000D01*
X97460000Y-147480000D02*
X103640000Y-147480000D01*
X97460000Y-147480000D02*
X97460000Y-147480000D01*
X103640000Y-147480000D02*
X97460000Y-147480000D01*
%TO.C,J4*%
D11*
X188432380Y-58433333D02*
X189146666Y-58433333D01*
X189289523Y-58480952D01*
X189384761Y-58576190D01*
X189432380Y-58719047D01*
X189432380Y-58814285D01*
X188765714Y-57528571D02*
X189432380Y-57528571D01*
X188384761Y-57766666D02*
X189099047Y-58004761D01*
X189099047Y-57385714D01*
%TO.C,C21*%
X177037142Y-68007142D02*
X176989523Y-68054761D01*
X176846666Y-68102380D01*
X176751428Y-68102380D01*
X176608571Y-68054761D01*
X176513333Y-67959523D01*
X176465714Y-67864285D01*
X176418095Y-67673809D01*
X176418095Y-67530952D01*
X176465714Y-67340476D01*
X176513333Y-67245238D01*
X176608571Y-67150000D01*
X176751428Y-67102380D01*
X176846666Y-67102380D01*
X176989523Y-67150000D01*
X177037142Y-67197619D01*
X177418095Y-67197619D02*
X177465714Y-67150000D01*
X177560952Y-67102380D01*
X177799047Y-67102380D01*
X177894285Y-67150000D01*
X177941904Y-67197619D01*
X177989523Y-67292857D01*
X177989523Y-67388095D01*
X177941904Y-67530952D01*
X177370476Y-68102380D01*
X177989523Y-68102380D01*
X178941904Y-68102380D02*
X178370476Y-68102380D01*
X178656190Y-68102380D02*
X178656190Y-67102380D01*
X178560952Y-67245238D01*
X178465714Y-67340476D01*
X178370476Y-67388095D01*
%TO.C,U12*%
X151111904Y-67822380D02*
X151111904Y-68631904D01*
X151159523Y-68727142D01*
X151207142Y-68774761D01*
X151302380Y-68822380D01*
X151492857Y-68822380D01*
X151588095Y-68774761D01*
X151635714Y-68727142D01*
X151683333Y-68631904D01*
X151683333Y-67822380D01*
X152683333Y-68822380D02*
X152111904Y-68822380D01*
X152397619Y-68822380D02*
X152397619Y-67822380D01*
X152302380Y-67965238D01*
X152207142Y-68060476D01*
X152111904Y-68108095D01*
X153064285Y-67917619D02*
X153111904Y-67870000D01*
X153207142Y-67822380D01*
X153445238Y-67822380D01*
X153540476Y-67870000D01*
X153588095Y-67917619D01*
X153635714Y-68012857D01*
X153635714Y-68108095D01*
X153588095Y-68250952D01*
X153016666Y-68822380D01*
X153635714Y-68822380D01*
%TO.C,R2*%
X126830833Y-62272380D02*
X126497500Y-61796190D01*
X126259404Y-62272380D02*
X126259404Y-61272380D01*
X126640357Y-61272380D01*
X126735595Y-61320000D01*
X126783214Y-61367619D01*
X126830833Y-61462857D01*
X126830833Y-61605714D01*
X126783214Y-61700952D01*
X126735595Y-61748571D01*
X126640357Y-61796190D01*
X126259404Y-61796190D01*
X127211785Y-61367619D02*
X127259404Y-61320000D01*
X127354642Y-61272380D01*
X127592738Y-61272380D01*
X127687976Y-61320000D01*
X127735595Y-61367619D01*
X127783214Y-61462857D01*
X127783214Y-61558095D01*
X127735595Y-61700952D01*
X127164166Y-62272380D01*
X127783214Y-62272380D01*
%TO.C,J3*%
X147896666Y-61922380D02*
X147896666Y-62636666D01*
X147849047Y-62779523D01*
X147753809Y-62874761D01*
X147610952Y-62922380D01*
X147515714Y-62922380D01*
X148277619Y-61922380D02*
X148896666Y-61922380D01*
X148563333Y-62303333D01*
X148706190Y-62303333D01*
X148801428Y-62350952D01*
X148849047Y-62398571D01*
X148896666Y-62493809D01*
X148896666Y-62731904D01*
X148849047Y-62827142D01*
X148801428Y-62874761D01*
X148706190Y-62922380D01*
X148420476Y-62922380D01*
X148325238Y-62874761D01*
X148277619Y-62827142D01*
%TO.C,H5*%
X132698095Y-53252380D02*
X132698095Y-52252380D01*
X132698095Y-52728571D02*
X133269523Y-52728571D01*
X133269523Y-53252380D02*
X133269523Y-52252380D01*
X134221904Y-52252380D02*
X133745714Y-52252380D01*
X133698095Y-52728571D01*
X133745714Y-52680952D01*
X133840952Y-52633333D01*
X134079047Y-52633333D01*
X134174285Y-52680952D01*
X134221904Y-52728571D01*
X134269523Y-52823809D01*
X134269523Y-53061904D01*
X134221904Y-53157142D01*
X134174285Y-53204761D01*
X134079047Y-53252380D01*
X133840952Y-53252380D01*
X133745714Y-53204761D01*
X133698095Y-53157142D01*
%TO.C,C20*%
X126867142Y-58037142D02*
X126819523Y-58084761D01*
X126676666Y-58132380D01*
X126581428Y-58132380D01*
X126438571Y-58084761D01*
X126343333Y-57989523D01*
X126295714Y-57894285D01*
X126248095Y-57703809D01*
X126248095Y-57560952D01*
X126295714Y-57370476D01*
X126343333Y-57275238D01*
X126438571Y-57180000D01*
X126581428Y-57132380D01*
X126676666Y-57132380D01*
X126819523Y-57180000D01*
X126867142Y-57227619D01*
X127248095Y-57227619D02*
X127295714Y-57180000D01*
X127390952Y-57132380D01*
X127629047Y-57132380D01*
X127724285Y-57180000D01*
X127771904Y-57227619D01*
X127819523Y-57322857D01*
X127819523Y-57418095D01*
X127771904Y-57560952D01*
X127200476Y-58132380D01*
X127819523Y-58132380D01*
X128438571Y-57132380D02*
X128533809Y-57132380D01*
X128629047Y-57180000D01*
X128676666Y-57227619D01*
X128724285Y-57322857D01*
X128771904Y-57513333D01*
X128771904Y-57751428D01*
X128724285Y-57941904D01*
X128676666Y-58037142D01*
X128629047Y-58084761D01*
X128533809Y-58132380D01*
X128438571Y-58132380D01*
X128343333Y-58084761D01*
X128295714Y-58037142D01*
X128248095Y-57941904D01*
X128200476Y-57751428D01*
X128200476Y-57513333D01*
X128248095Y-57322857D01*
X128295714Y-57227619D01*
X128343333Y-57180000D01*
X128438571Y-57132380D01*
%TO.C,C19*%
X153617142Y-65357142D02*
X153569523Y-65404761D01*
X153426666Y-65452380D01*
X153331428Y-65452380D01*
X153188571Y-65404761D01*
X153093333Y-65309523D01*
X153045714Y-65214285D01*
X152998095Y-65023809D01*
X152998095Y-64880952D01*
X153045714Y-64690476D01*
X153093333Y-64595238D01*
X153188571Y-64500000D01*
X153331428Y-64452380D01*
X153426666Y-64452380D01*
X153569523Y-64500000D01*
X153617142Y-64547619D01*
X154569523Y-65452380D02*
X153998095Y-65452380D01*
X154283809Y-65452380D02*
X154283809Y-64452380D01*
X154188571Y-64595238D01*
X154093333Y-64690476D01*
X153998095Y-64738095D01*
X155045714Y-65452380D02*
X155236190Y-65452380D01*
X155331428Y-65404761D01*
X155379047Y-65357142D01*
X155474285Y-65214285D01*
X155521904Y-65023809D01*
X155521904Y-64642857D01*
X155474285Y-64547619D01*
X155426666Y-64500000D01*
X155331428Y-64452380D01*
X155140952Y-64452380D01*
X155045714Y-64500000D01*
X154998095Y-64547619D01*
X154950476Y-64642857D01*
X154950476Y-64880952D01*
X154998095Y-64976190D01*
X155045714Y-65023809D01*
X155140952Y-65071428D01*
X155331428Y-65071428D01*
X155426666Y-65023809D01*
X155474285Y-64976190D01*
X155521904Y-64880952D01*
%TO.C,C18*%
X152187142Y-71557142D02*
X152139523Y-71604761D01*
X151996666Y-71652380D01*
X151901428Y-71652380D01*
X151758571Y-71604761D01*
X151663333Y-71509523D01*
X151615714Y-71414285D01*
X151568095Y-71223809D01*
X151568095Y-71080952D01*
X151615714Y-70890476D01*
X151663333Y-70795238D01*
X151758571Y-70700000D01*
X151901428Y-70652380D01*
X151996666Y-70652380D01*
X152139523Y-70700000D01*
X152187142Y-70747619D01*
X153139523Y-71652380D02*
X152568095Y-71652380D01*
X152853809Y-71652380D02*
X152853809Y-70652380D01*
X152758571Y-70795238D01*
X152663333Y-70890476D01*
X152568095Y-70938095D01*
X153710952Y-71080952D02*
X153615714Y-71033333D01*
X153568095Y-70985714D01*
X153520476Y-70890476D01*
X153520476Y-70842857D01*
X153568095Y-70747619D01*
X153615714Y-70700000D01*
X153710952Y-70652380D01*
X153901428Y-70652380D01*
X153996666Y-70700000D01*
X154044285Y-70747619D01*
X154091904Y-70842857D01*
X154091904Y-70890476D01*
X154044285Y-70985714D01*
X153996666Y-71033333D01*
X153901428Y-71080952D01*
X153710952Y-71080952D01*
X153615714Y-71128571D01*
X153568095Y-71176190D01*
X153520476Y-71271428D01*
X153520476Y-71461904D01*
X153568095Y-71557142D01*
X153615714Y-71604761D01*
X153710952Y-71652380D01*
X153901428Y-71652380D01*
X153996666Y-71604761D01*
X154044285Y-71557142D01*
X154091904Y-71461904D01*
X154091904Y-71271428D01*
X154044285Y-71176190D01*
X153996666Y-71128571D01*
X153901428Y-71080952D01*
%TO.C,C17*%
X153692142Y-76467142D02*
X153644523Y-76514761D01*
X153501666Y-76562380D01*
X153406428Y-76562380D01*
X153263571Y-76514761D01*
X153168333Y-76419523D01*
X153120714Y-76324285D01*
X153073095Y-76133809D01*
X153073095Y-75990952D01*
X153120714Y-75800476D01*
X153168333Y-75705238D01*
X153263571Y-75610000D01*
X153406428Y-75562380D01*
X153501666Y-75562380D01*
X153644523Y-75610000D01*
X153692142Y-75657619D01*
X154644523Y-76562380D02*
X154073095Y-76562380D01*
X154358809Y-76562380D02*
X154358809Y-75562380D01*
X154263571Y-75705238D01*
X154168333Y-75800476D01*
X154073095Y-75848095D01*
X154977857Y-75562380D02*
X155644523Y-75562380D01*
X155215952Y-76562380D01*
%TO.C,C16*%
X138962142Y-70587142D02*
X138914523Y-70634761D01*
X138771666Y-70682380D01*
X138676428Y-70682380D01*
X138533571Y-70634761D01*
X138438333Y-70539523D01*
X138390714Y-70444285D01*
X138343095Y-70253809D01*
X138343095Y-70110952D01*
X138390714Y-69920476D01*
X138438333Y-69825238D01*
X138533571Y-69730000D01*
X138676428Y-69682380D01*
X138771666Y-69682380D01*
X138914523Y-69730000D01*
X138962142Y-69777619D01*
X139914523Y-70682380D02*
X139343095Y-70682380D01*
X139628809Y-70682380D02*
X139628809Y-69682380D01*
X139533571Y-69825238D01*
X139438333Y-69920476D01*
X139343095Y-69968095D01*
X140771666Y-69682380D02*
X140581190Y-69682380D01*
X140485952Y-69730000D01*
X140438333Y-69777619D01*
X140343095Y-69920476D01*
X140295476Y-70110952D01*
X140295476Y-70491904D01*
X140343095Y-70587142D01*
X140390714Y-70634761D01*
X140485952Y-70682380D01*
X140676428Y-70682380D01*
X140771666Y-70634761D01*
X140819285Y-70587142D01*
X140866904Y-70491904D01*
X140866904Y-70253809D01*
X140819285Y-70158571D01*
X140771666Y-70110952D01*
X140676428Y-70063333D01*
X140485952Y-70063333D01*
X140390714Y-70110952D01*
X140343095Y-70158571D01*
X140295476Y-70253809D01*
%TO.C,C15*%
X141187142Y-64737142D02*
X141139523Y-64784761D01*
X140996666Y-64832380D01*
X140901428Y-64832380D01*
X140758571Y-64784761D01*
X140663333Y-64689523D01*
X140615714Y-64594285D01*
X140568095Y-64403809D01*
X140568095Y-64260952D01*
X140615714Y-64070476D01*
X140663333Y-63975238D01*
X140758571Y-63880000D01*
X140901428Y-63832380D01*
X140996666Y-63832380D01*
X141139523Y-63880000D01*
X141187142Y-63927619D01*
X142139523Y-64832380D02*
X141568095Y-64832380D01*
X141853809Y-64832380D02*
X141853809Y-63832380D01*
X141758571Y-63975238D01*
X141663333Y-64070476D01*
X141568095Y-64118095D01*
X143044285Y-63832380D02*
X142568095Y-63832380D01*
X142520476Y-64308571D01*
X142568095Y-64260952D01*
X142663333Y-64213333D01*
X142901428Y-64213333D01*
X142996666Y-64260952D01*
X143044285Y-64308571D01*
X143091904Y-64403809D01*
X143091904Y-64641904D01*
X143044285Y-64737142D01*
X142996666Y-64784761D01*
X142901428Y-64832380D01*
X142663333Y-64832380D01*
X142568095Y-64784761D01*
X142520476Y-64737142D01*
%TO.C,H2*%
X207808095Y-59902380D02*
X207808095Y-58902380D01*
X207808095Y-59378571D02*
X208379523Y-59378571D01*
X208379523Y-59902380D02*
X208379523Y-58902380D01*
X208808095Y-58997619D02*
X208855714Y-58950000D01*
X208950952Y-58902380D01*
X209189047Y-58902380D01*
X209284285Y-58950000D01*
X209331904Y-58997619D01*
X209379523Y-59092857D01*
X209379523Y-59188095D01*
X209331904Y-59330952D01*
X208760476Y-59902380D01*
X209379523Y-59902380D01*
%TO.C,H1*%
X99808095Y-59902380D02*
X99808095Y-58902380D01*
X99808095Y-59378571D02*
X100379523Y-59378571D01*
X100379523Y-59902380D02*
X100379523Y-58902380D01*
X101379523Y-59902380D02*
X100808095Y-59902380D01*
X101093809Y-59902380D02*
X101093809Y-58902380D01*
X100998571Y-59045238D01*
X100903333Y-59140476D01*
X100808095Y-59188095D01*
%TO.C,U11*%
X162546904Y-105837380D02*
X162546904Y-106646904D01*
X162594523Y-106742142D01*
X162642142Y-106789761D01*
X162737380Y-106837380D01*
X162927857Y-106837380D01*
X163023095Y-106789761D01*
X163070714Y-106742142D01*
X163118333Y-106646904D01*
X163118333Y-105837380D01*
X164118333Y-106837380D02*
X163546904Y-106837380D01*
X163832619Y-106837380D02*
X163832619Y-105837380D01*
X163737380Y-105980238D01*
X163642142Y-106075476D01*
X163546904Y-106123095D01*
X165070714Y-106837380D02*
X164499285Y-106837380D01*
X164785000Y-106837380D02*
X164785000Y-105837380D01*
X164689761Y-105980238D01*
X164594523Y-106075476D01*
X164499285Y-106123095D01*
%TO.C,U10*%
X99527380Y-131563095D02*
X100336904Y-131563095D01*
X100432142Y-131515476D01*
X100479761Y-131467857D01*
X100527380Y-131372619D01*
X100527380Y-131182142D01*
X100479761Y-131086904D01*
X100432142Y-131039285D01*
X100336904Y-130991666D01*
X99527380Y-130991666D01*
X100527380Y-129991666D02*
X100527380Y-130563095D01*
X100527380Y-130277380D02*
X99527380Y-130277380D01*
X99670238Y-130372619D01*
X99765476Y-130467857D01*
X99813095Y-130563095D01*
X99527380Y-129372619D02*
X99527380Y-129277380D01*
X99575000Y-129182142D01*
X99622619Y-129134523D01*
X99717857Y-129086904D01*
X99908333Y-129039285D01*
X100146428Y-129039285D01*
X100336904Y-129086904D01*
X100432142Y-129134523D01*
X100479761Y-129182142D01*
X100527380Y-129277380D01*
X100527380Y-129372619D01*
X100479761Y-129467857D01*
X100432142Y-129515476D01*
X100336904Y-129563095D01*
X100146428Y-129610714D01*
X99908333Y-129610714D01*
X99717857Y-129563095D01*
X99622619Y-129515476D01*
X99575000Y-129467857D01*
X99527380Y-129372619D01*
%TO.C,U9*%
X110527380Y-131086904D02*
X111336904Y-131086904D01*
X111432142Y-131039285D01*
X111479761Y-130991666D01*
X111527380Y-130896428D01*
X111527380Y-130705952D01*
X111479761Y-130610714D01*
X111432142Y-130563095D01*
X111336904Y-130515476D01*
X110527380Y-130515476D01*
X111527380Y-129991666D02*
X111527380Y-129801190D01*
X111479761Y-129705952D01*
X111432142Y-129658333D01*
X111289285Y-129563095D01*
X111098809Y-129515476D01*
X110717857Y-129515476D01*
X110622619Y-129563095D01*
X110575000Y-129610714D01*
X110527380Y-129705952D01*
X110527380Y-129896428D01*
X110575000Y-129991666D01*
X110622619Y-130039285D01*
X110717857Y-130086904D01*
X110955952Y-130086904D01*
X111051190Y-130039285D01*
X111098809Y-129991666D01*
X111146428Y-129896428D01*
X111146428Y-129705952D01*
X111098809Y-129610714D01*
X111051190Y-129563095D01*
X110955952Y-129515476D01*
%TO.C,U8*%
X121527380Y-131086904D02*
X122336904Y-131086904D01*
X122432142Y-131039285D01*
X122479761Y-130991666D01*
X122527380Y-130896428D01*
X122527380Y-130705952D01*
X122479761Y-130610714D01*
X122432142Y-130563095D01*
X122336904Y-130515476D01*
X121527380Y-130515476D01*
X121955952Y-129896428D02*
X121908333Y-129991666D01*
X121860714Y-130039285D01*
X121765476Y-130086904D01*
X121717857Y-130086904D01*
X121622619Y-130039285D01*
X121575000Y-129991666D01*
X121527380Y-129896428D01*
X121527380Y-129705952D01*
X121575000Y-129610714D01*
X121622619Y-129563095D01*
X121717857Y-129515476D01*
X121765476Y-129515476D01*
X121860714Y-129563095D01*
X121908333Y-129610714D01*
X121955952Y-129705952D01*
X121955952Y-129896428D01*
X122003571Y-129991666D01*
X122051190Y-130039285D01*
X122146428Y-130086904D01*
X122336904Y-130086904D01*
X122432142Y-130039285D01*
X122479761Y-129991666D01*
X122527380Y-129896428D01*
X122527380Y-129705952D01*
X122479761Y-129610714D01*
X122432142Y-129563095D01*
X122336904Y-129515476D01*
X122146428Y-129515476D01*
X122051190Y-129563095D01*
X122003571Y-129610714D01*
X121955952Y-129705952D01*
%TO.C,U7*%
X132527380Y-131086904D02*
X133336904Y-131086904D01*
X133432142Y-131039285D01*
X133479761Y-130991666D01*
X133527380Y-130896428D01*
X133527380Y-130705952D01*
X133479761Y-130610714D01*
X133432142Y-130563095D01*
X133336904Y-130515476D01*
X132527380Y-130515476D01*
X132527380Y-130134523D02*
X132527380Y-129467857D01*
X133527380Y-129896428D01*
%TO.C,U6*%
X143527380Y-131086904D02*
X144336904Y-131086904D01*
X144432142Y-131039285D01*
X144479761Y-130991666D01*
X144527380Y-130896428D01*
X144527380Y-130705952D01*
X144479761Y-130610714D01*
X144432142Y-130563095D01*
X144336904Y-130515476D01*
X143527380Y-130515476D01*
X143527380Y-129610714D02*
X143527380Y-129801190D01*
X143575000Y-129896428D01*
X143622619Y-129944047D01*
X143765476Y-130039285D01*
X143955952Y-130086904D01*
X144336904Y-130086904D01*
X144432142Y-130039285D01*
X144479761Y-129991666D01*
X144527380Y-129896428D01*
X144527380Y-129705952D01*
X144479761Y-129610714D01*
X144432142Y-129563095D01*
X144336904Y-129515476D01*
X144098809Y-129515476D01*
X144003571Y-129563095D01*
X143955952Y-129610714D01*
X143908333Y-129705952D01*
X143908333Y-129896428D01*
X143955952Y-129991666D01*
X144003571Y-130039285D01*
X144098809Y-130086904D01*
%TO.C,U5*%
X176527380Y-131086904D02*
X177336904Y-131086904D01*
X177432142Y-131039285D01*
X177479761Y-130991666D01*
X177527380Y-130896428D01*
X177527380Y-130705952D01*
X177479761Y-130610714D01*
X177432142Y-130563095D01*
X177336904Y-130515476D01*
X176527380Y-130515476D01*
X176527380Y-129563095D02*
X176527380Y-130039285D01*
X177003571Y-130086904D01*
X176955952Y-130039285D01*
X176908333Y-129944047D01*
X176908333Y-129705952D01*
X176955952Y-129610714D01*
X177003571Y-129563095D01*
X177098809Y-129515476D01*
X177336904Y-129515476D01*
X177432142Y-129563095D01*
X177479761Y-129610714D01*
X177527380Y-129705952D01*
X177527380Y-129944047D01*
X177479761Y-130039285D01*
X177432142Y-130086904D01*
%TO.C,U4*%
X187527380Y-131086904D02*
X188336904Y-131086904D01*
X188432142Y-131039285D01*
X188479761Y-130991666D01*
X188527380Y-130896428D01*
X188527380Y-130705952D01*
X188479761Y-130610714D01*
X188432142Y-130563095D01*
X188336904Y-130515476D01*
X187527380Y-130515476D01*
X187860714Y-129610714D02*
X188527380Y-129610714D01*
X187479761Y-129848809D02*
X188194047Y-130086904D01*
X188194047Y-129467857D01*
%TO.C,U3*%
X198527380Y-131086904D02*
X199336904Y-131086904D01*
X199432142Y-131039285D01*
X199479761Y-130991666D01*
X199527380Y-130896428D01*
X199527380Y-130705952D01*
X199479761Y-130610714D01*
X199432142Y-130563095D01*
X199336904Y-130515476D01*
X198527380Y-130515476D01*
X198527380Y-130134523D02*
X198527380Y-129515476D01*
X198908333Y-129848809D01*
X198908333Y-129705952D01*
X198955952Y-129610714D01*
X199003571Y-129563095D01*
X199098809Y-129515476D01*
X199336904Y-129515476D01*
X199432142Y-129563095D01*
X199479761Y-129610714D01*
X199527380Y-129705952D01*
X199527380Y-129991666D01*
X199479761Y-130086904D01*
X199432142Y-130134523D01*
%TO.C,U2*%
X165527380Y-131086904D02*
X166336904Y-131086904D01*
X166432142Y-131039285D01*
X166479761Y-130991666D01*
X166527380Y-130896428D01*
X166527380Y-130705952D01*
X166479761Y-130610714D01*
X166432142Y-130563095D01*
X166336904Y-130515476D01*
X165527380Y-130515476D01*
X165622619Y-130086904D02*
X165575000Y-130039285D01*
X165527380Y-129944047D01*
X165527380Y-129705952D01*
X165575000Y-129610714D01*
X165622619Y-129563095D01*
X165717857Y-129515476D01*
X165813095Y-129515476D01*
X165955952Y-129563095D01*
X166527380Y-130134523D01*
X166527380Y-129515476D01*
%TO.C,U1*%
X154527380Y-131086904D02*
X155336904Y-131086904D01*
X155432142Y-131039285D01*
X155479761Y-130991666D01*
X155527380Y-130896428D01*
X155527380Y-130705952D01*
X155479761Y-130610714D01*
X155432142Y-130563095D01*
X155336904Y-130515476D01*
X154527380Y-130515476D01*
X155527380Y-129515476D02*
X155527380Y-130086904D01*
X155527380Y-129801190D02*
X154527380Y-129801190D01*
X154670238Y-129896428D01*
X154765476Y-129991666D01*
X154813095Y-130086904D01*
%TO.C,R1*%
X114482380Y-63166666D02*
X114006190Y-63500000D01*
X114482380Y-63738095D02*
X113482380Y-63738095D01*
X113482380Y-63357142D01*
X113530000Y-63261904D01*
X113577619Y-63214285D01*
X113672857Y-63166666D01*
X113815714Y-63166666D01*
X113910952Y-63214285D01*
X113958571Y-63261904D01*
X114006190Y-63357142D01*
X114006190Y-63738095D01*
X114482380Y-62214285D02*
X114482380Y-62785714D01*
X114482380Y-62500000D02*
X113482380Y-62500000D01*
X113625238Y-62595238D01*
X113720476Y-62690476D01*
X113768095Y-62785714D01*
%TO.C,J1*%
X207676666Y-87312380D02*
X207676666Y-88026666D01*
X207629047Y-88169523D01*
X207533809Y-88264761D01*
X207390952Y-88312380D01*
X207295714Y-88312380D01*
X208676666Y-88312380D02*
X208105238Y-88312380D01*
X208390952Y-88312380D02*
X208390952Y-87312380D01*
X208295714Y-87455238D01*
X208200476Y-87550476D01*
X208105238Y-87598095D01*
%TO.C,D1*%
X117342380Y-59738095D02*
X116342380Y-59738095D01*
X116342380Y-59500000D01*
X116390000Y-59357142D01*
X116485238Y-59261904D01*
X116580476Y-59214285D01*
X116770952Y-59166666D01*
X116913809Y-59166666D01*
X117104285Y-59214285D01*
X117199523Y-59261904D01*
X117294761Y-59357142D01*
X117342380Y-59500000D01*
X117342380Y-59738095D01*
X117342380Y-58214285D02*
X117342380Y-58785714D01*
X117342380Y-58500000D02*
X116342380Y-58500000D01*
X116485238Y-58595238D01*
X116580476Y-58690476D01*
X116628095Y-58785714D01*
%TO.C,C14*%
X156067142Y-106712142D02*
X156019523Y-106759761D01*
X155876666Y-106807380D01*
X155781428Y-106807380D01*
X155638571Y-106759761D01*
X155543333Y-106664523D01*
X155495714Y-106569285D01*
X155448095Y-106378809D01*
X155448095Y-106235952D01*
X155495714Y-106045476D01*
X155543333Y-105950238D01*
X155638571Y-105855000D01*
X155781428Y-105807380D01*
X155876666Y-105807380D01*
X156019523Y-105855000D01*
X156067142Y-105902619D01*
X157019523Y-106807380D02*
X156448095Y-106807380D01*
X156733809Y-106807380D02*
X156733809Y-105807380D01*
X156638571Y-105950238D01*
X156543333Y-106045476D01*
X156448095Y-106093095D01*
X157876666Y-106140714D02*
X157876666Y-106807380D01*
X157638571Y-105759761D02*
X157400476Y-106474047D01*
X158019523Y-106474047D01*
%TO.C,C13*%
X100352142Y-125082857D02*
X100399761Y-125130476D01*
X100447380Y-125273333D01*
X100447380Y-125368571D01*
X100399761Y-125511428D01*
X100304523Y-125606666D01*
X100209285Y-125654285D01*
X100018809Y-125701904D01*
X99875952Y-125701904D01*
X99685476Y-125654285D01*
X99590238Y-125606666D01*
X99495000Y-125511428D01*
X99447380Y-125368571D01*
X99447380Y-125273333D01*
X99495000Y-125130476D01*
X99542619Y-125082857D01*
X100447380Y-124130476D02*
X100447380Y-124701904D01*
X100447380Y-124416190D02*
X99447380Y-124416190D01*
X99590238Y-124511428D01*
X99685476Y-124606666D01*
X99733095Y-124701904D01*
X99447380Y-123797142D02*
X99447380Y-123178095D01*
X99828333Y-123511428D01*
X99828333Y-123368571D01*
X99875952Y-123273333D01*
X99923571Y-123225714D01*
X100018809Y-123178095D01*
X100256904Y-123178095D01*
X100352142Y-123225714D01*
X100399761Y-123273333D01*
X100447380Y-123368571D01*
X100447380Y-123654285D01*
X100399761Y-123749523D01*
X100352142Y-123797142D01*
%TO.C,C12*%
X111352142Y-125082857D02*
X111399761Y-125130476D01*
X111447380Y-125273333D01*
X111447380Y-125368571D01*
X111399761Y-125511428D01*
X111304523Y-125606666D01*
X111209285Y-125654285D01*
X111018809Y-125701904D01*
X110875952Y-125701904D01*
X110685476Y-125654285D01*
X110590238Y-125606666D01*
X110495000Y-125511428D01*
X110447380Y-125368571D01*
X110447380Y-125273333D01*
X110495000Y-125130476D01*
X110542619Y-125082857D01*
X111447380Y-124130476D02*
X111447380Y-124701904D01*
X111447380Y-124416190D02*
X110447380Y-124416190D01*
X110590238Y-124511428D01*
X110685476Y-124606666D01*
X110733095Y-124701904D01*
X110542619Y-123749523D02*
X110495000Y-123701904D01*
X110447380Y-123606666D01*
X110447380Y-123368571D01*
X110495000Y-123273333D01*
X110542619Y-123225714D01*
X110637857Y-123178095D01*
X110733095Y-123178095D01*
X110875952Y-123225714D01*
X111447380Y-123797142D01*
X111447380Y-123178095D01*
%TO.C,C11*%
X122352142Y-125082857D02*
X122399761Y-125130476D01*
X122447380Y-125273333D01*
X122447380Y-125368571D01*
X122399761Y-125511428D01*
X122304523Y-125606666D01*
X122209285Y-125654285D01*
X122018809Y-125701904D01*
X121875952Y-125701904D01*
X121685476Y-125654285D01*
X121590238Y-125606666D01*
X121495000Y-125511428D01*
X121447380Y-125368571D01*
X121447380Y-125273333D01*
X121495000Y-125130476D01*
X121542619Y-125082857D01*
X122447380Y-124130476D02*
X122447380Y-124701904D01*
X122447380Y-124416190D02*
X121447380Y-124416190D01*
X121590238Y-124511428D01*
X121685476Y-124606666D01*
X121733095Y-124701904D01*
X122447380Y-123178095D02*
X122447380Y-123749523D01*
X122447380Y-123463809D02*
X121447380Y-123463809D01*
X121590238Y-123559047D01*
X121685476Y-123654285D01*
X121733095Y-123749523D01*
%TO.C,C10*%
X133352142Y-125082857D02*
X133399761Y-125130476D01*
X133447380Y-125273333D01*
X133447380Y-125368571D01*
X133399761Y-125511428D01*
X133304523Y-125606666D01*
X133209285Y-125654285D01*
X133018809Y-125701904D01*
X132875952Y-125701904D01*
X132685476Y-125654285D01*
X132590238Y-125606666D01*
X132495000Y-125511428D01*
X132447380Y-125368571D01*
X132447380Y-125273333D01*
X132495000Y-125130476D01*
X132542619Y-125082857D01*
X133447380Y-124130476D02*
X133447380Y-124701904D01*
X133447380Y-124416190D02*
X132447380Y-124416190D01*
X132590238Y-124511428D01*
X132685476Y-124606666D01*
X132733095Y-124701904D01*
X132447380Y-123511428D02*
X132447380Y-123416190D01*
X132495000Y-123320952D01*
X132542619Y-123273333D01*
X132637857Y-123225714D01*
X132828333Y-123178095D01*
X133066428Y-123178095D01*
X133256904Y-123225714D01*
X133352142Y-123273333D01*
X133399761Y-123320952D01*
X133447380Y-123416190D01*
X133447380Y-123511428D01*
X133399761Y-123606666D01*
X133352142Y-123654285D01*
X133256904Y-123701904D01*
X133066428Y-123749523D01*
X132828333Y-123749523D01*
X132637857Y-123701904D01*
X132542619Y-123654285D01*
X132495000Y-123606666D01*
X132447380Y-123511428D01*
%TO.C,C9*%
X144352142Y-124606666D02*
X144399761Y-124654285D01*
X144447380Y-124797142D01*
X144447380Y-124892380D01*
X144399761Y-125035238D01*
X144304523Y-125130476D01*
X144209285Y-125178095D01*
X144018809Y-125225714D01*
X143875952Y-125225714D01*
X143685476Y-125178095D01*
X143590238Y-125130476D01*
X143495000Y-125035238D01*
X143447380Y-124892380D01*
X143447380Y-124797142D01*
X143495000Y-124654285D01*
X143542619Y-124606666D01*
X144447380Y-124130476D02*
X144447380Y-123940000D01*
X144399761Y-123844761D01*
X144352142Y-123797142D01*
X144209285Y-123701904D01*
X144018809Y-123654285D01*
X143637857Y-123654285D01*
X143542619Y-123701904D01*
X143495000Y-123749523D01*
X143447380Y-123844761D01*
X143447380Y-124035238D01*
X143495000Y-124130476D01*
X143542619Y-124178095D01*
X143637857Y-124225714D01*
X143875952Y-124225714D01*
X143971190Y-124178095D01*
X144018809Y-124130476D01*
X144066428Y-124035238D01*
X144066428Y-123844761D01*
X144018809Y-123749523D01*
X143971190Y-123701904D01*
X143875952Y-123654285D01*
%TO.C,C8*%
X177352142Y-124606666D02*
X177399761Y-124654285D01*
X177447380Y-124797142D01*
X177447380Y-124892380D01*
X177399761Y-125035238D01*
X177304523Y-125130476D01*
X177209285Y-125178095D01*
X177018809Y-125225714D01*
X176875952Y-125225714D01*
X176685476Y-125178095D01*
X176590238Y-125130476D01*
X176495000Y-125035238D01*
X176447380Y-124892380D01*
X176447380Y-124797142D01*
X176495000Y-124654285D01*
X176542619Y-124606666D01*
X176875952Y-124035238D02*
X176828333Y-124130476D01*
X176780714Y-124178095D01*
X176685476Y-124225714D01*
X176637857Y-124225714D01*
X176542619Y-124178095D01*
X176495000Y-124130476D01*
X176447380Y-124035238D01*
X176447380Y-123844761D01*
X176495000Y-123749523D01*
X176542619Y-123701904D01*
X176637857Y-123654285D01*
X176685476Y-123654285D01*
X176780714Y-123701904D01*
X176828333Y-123749523D01*
X176875952Y-123844761D01*
X176875952Y-124035238D01*
X176923571Y-124130476D01*
X176971190Y-124178095D01*
X177066428Y-124225714D01*
X177256904Y-124225714D01*
X177352142Y-124178095D01*
X177399761Y-124130476D01*
X177447380Y-124035238D01*
X177447380Y-123844761D01*
X177399761Y-123749523D01*
X177352142Y-123701904D01*
X177256904Y-123654285D01*
X177066428Y-123654285D01*
X176971190Y-123701904D01*
X176923571Y-123749523D01*
X176875952Y-123844761D01*
%TO.C,C7*%
X188352142Y-124606666D02*
X188399761Y-124654285D01*
X188447380Y-124797142D01*
X188447380Y-124892380D01*
X188399761Y-125035238D01*
X188304523Y-125130476D01*
X188209285Y-125178095D01*
X188018809Y-125225714D01*
X187875952Y-125225714D01*
X187685476Y-125178095D01*
X187590238Y-125130476D01*
X187495000Y-125035238D01*
X187447380Y-124892380D01*
X187447380Y-124797142D01*
X187495000Y-124654285D01*
X187542619Y-124606666D01*
X187447380Y-124273333D02*
X187447380Y-123606666D01*
X188447380Y-124035238D01*
%TO.C,C6*%
X199352142Y-124606666D02*
X199399761Y-124654285D01*
X199447380Y-124797142D01*
X199447380Y-124892380D01*
X199399761Y-125035238D01*
X199304523Y-125130476D01*
X199209285Y-125178095D01*
X199018809Y-125225714D01*
X198875952Y-125225714D01*
X198685476Y-125178095D01*
X198590238Y-125130476D01*
X198495000Y-125035238D01*
X198447380Y-124892380D01*
X198447380Y-124797142D01*
X198495000Y-124654285D01*
X198542619Y-124606666D01*
X198447380Y-123749523D02*
X198447380Y-123940000D01*
X198495000Y-124035238D01*
X198542619Y-124082857D01*
X198685476Y-124178095D01*
X198875952Y-124225714D01*
X199256904Y-124225714D01*
X199352142Y-124178095D01*
X199399761Y-124130476D01*
X199447380Y-124035238D01*
X199447380Y-123844761D01*
X199399761Y-123749523D01*
X199352142Y-123701904D01*
X199256904Y-123654285D01*
X199018809Y-123654285D01*
X198923571Y-123701904D01*
X198875952Y-123749523D01*
X198828333Y-123844761D01*
X198828333Y-124035238D01*
X198875952Y-124130476D01*
X198923571Y-124178095D01*
X199018809Y-124225714D01*
%TO.C,C5*%
X166352142Y-124606666D02*
X166399761Y-124654285D01*
X166447380Y-124797142D01*
X166447380Y-124892380D01*
X166399761Y-125035238D01*
X166304523Y-125130476D01*
X166209285Y-125178095D01*
X166018809Y-125225714D01*
X165875952Y-125225714D01*
X165685476Y-125178095D01*
X165590238Y-125130476D01*
X165495000Y-125035238D01*
X165447380Y-124892380D01*
X165447380Y-124797142D01*
X165495000Y-124654285D01*
X165542619Y-124606666D01*
X165447380Y-123701904D02*
X165447380Y-124178095D01*
X165923571Y-124225714D01*
X165875952Y-124178095D01*
X165828333Y-124082857D01*
X165828333Y-123844761D01*
X165875952Y-123749523D01*
X165923571Y-123701904D01*
X166018809Y-123654285D01*
X166256904Y-123654285D01*
X166352142Y-123701904D01*
X166399761Y-123749523D01*
X166447380Y-123844761D01*
X166447380Y-124082857D01*
X166399761Y-124178095D01*
X166352142Y-124225714D01*
%TO.C,C4*%
X155352142Y-124606666D02*
X155399761Y-124654285D01*
X155447380Y-124797142D01*
X155447380Y-124892380D01*
X155399761Y-125035238D01*
X155304523Y-125130476D01*
X155209285Y-125178095D01*
X155018809Y-125225714D01*
X154875952Y-125225714D01*
X154685476Y-125178095D01*
X154590238Y-125130476D01*
X154495000Y-125035238D01*
X154447380Y-124892380D01*
X154447380Y-124797142D01*
X154495000Y-124654285D01*
X154542619Y-124606666D01*
X154780714Y-123749523D02*
X155447380Y-123749523D01*
X154399761Y-123987619D02*
X155114047Y-124225714D01*
X155114047Y-123606666D01*
%TO.C,C3*%
X116548333Y-106757142D02*
X116500714Y-106804761D01*
X116357857Y-106852380D01*
X116262619Y-106852380D01*
X116119761Y-106804761D01*
X116024523Y-106709523D01*
X115976904Y-106614285D01*
X115929285Y-106423809D01*
X115929285Y-106280952D01*
X115976904Y-106090476D01*
X116024523Y-105995238D01*
X116119761Y-105900000D01*
X116262619Y-105852380D01*
X116357857Y-105852380D01*
X116500714Y-105900000D01*
X116548333Y-105947619D01*
X116881666Y-105852380D02*
X117500714Y-105852380D01*
X117167380Y-106233333D01*
X117310238Y-106233333D01*
X117405476Y-106280952D01*
X117453095Y-106328571D01*
X117500714Y-106423809D01*
X117500714Y-106661904D01*
X117453095Y-106757142D01*
X117405476Y-106804761D01*
X117310238Y-106852380D01*
X117024523Y-106852380D01*
X116929285Y-106804761D01*
X116881666Y-106757142D01*
%TO.C,C2*%
X153948333Y-86637142D02*
X153900714Y-86684761D01*
X153757857Y-86732380D01*
X153662619Y-86732380D01*
X153519761Y-86684761D01*
X153424523Y-86589523D01*
X153376904Y-86494285D01*
X153329285Y-86303809D01*
X153329285Y-86160952D01*
X153376904Y-85970476D01*
X153424523Y-85875238D01*
X153519761Y-85780000D01*
X153662619Y-85732380D01*
X153757857Y-85732380D01*
X153900714Y-85780000D01*
X153948333Y-85827619D01*
X154329285Y-85827619D02*
X154376904Y-85780000D01*
X154472142Y-85732380D01*
X154710238Y-85732380D01*
X154805476Y-85780000D01*
X154853095Y-85827619D01*
X154900714Y-85922857D01*
X154900714Y-86018095D01*
X154853095Y-86160952D01*
X154281666Y-86732380D01*
X154900714Y-86732380D01*
%TO.C,C1*%
X151408333Y-106927142D02*
X151360714Y-106974761D01*
X151217857Y-107022380D01*
X151122619Y-107022380D01*
X150979761Y-106974761D01*
X150884523Y-106879523D01*
X150836904Y-106784285D01*
X150789285Y-106593809D01*
X150789285Y-106450952D01*
X150836904Y-106260476D01*
X150884523Y-106165238D01*
X150979761Y-106070000D01*
X151122619Y-106022380D01*
X151217857Y-106022380D01*
X151360714Y-106070000D01*
X151408333Y-106117619D01*
X152360714Y-107022380D02*
X151789285Y-107022380D01*
X152075000Y-107022380D02*
X152075000Y-106022380D01*
X151979761Y-106165238D01*
X151884523Y-106260476D01*
X151789285Y-106308095D01*
%TO.C,JCD1*%
X111092380Y-83233333D02*
X111806666Y-83233333D01*
X111949523Y-83280952D01*
X112044761Y-83376190D01*
X112092380Y-83519047D01*
X112092380Y-83614285D01*
X111997142Y-82185714D02*
X112044761Y-82233333D01*
X112092380Y-82376190D01*
X112092380Y-82471428D01*
X112044761Y-82614285D01*
X111949523Y-82709523D01*
X111854285Y-82757142D01*
X111663809Y-82804761D01*
X111520952Y-82804761D01*
X111330476Y-82757142D01*
X111235238Y-82709523D01*
X111140000Y-82614285D01*
X111092380Y-82471428D01*
X111092380Y-82376190D01*
X111140000Y-82233333D01*
X111187619Y-82185714D01*
X112092380Y-81757142D02*
X111092380Y-81757142D01*
X111092380Y-81519047D01*
X111140000Y-81376190D01*
X111235238Y-81280952D01*
X111330476Y-81233333D01*
X111520952Y-81185714D01*
X111663809Y-81185714D01*
X111854285Y-81233333D01*
X111949523Y-81280952D01*
X112044761Y-81376190D01*
X112092380Y-81519047D01*
X112092380Y-81757142D01*
X112092380Y-80233333D02*
X112092380Y-80804761D01*
X112092380Y-80519047D02*
X111092380Y-80519047D01*
X111235238Y-80614285D01*
X111330476Y-80709523D01*
X111378095Y-80804761D01*
%TO.C,JAB1*%
X111142380Y-115011904D02*
X111856666Y-115011904D01*
X111999523Y-115059523D01*
X112094761Y-115154761D01*
X112142380Y-115297619D01*
X112142380Y-115392857D01*
X111856666Y-114583333D02*
X111856666Y-114107142D01*
X112142380Y-114678571D02*
X111142380Y-114345238D01*
X112142380Y-114011904D01*
X111618571Y-113345238D02*
X111666190Y-113202380D01*
X111713809Y-113154761D01*
X111809047Y-113107142D01*
X111951904Y-113107142D01*
X112047142Y-113154761D01*
X112094761Y-113202380D01*
X112142380Y-113297619D01*
X112142380Y-113678571D01*
X111142380Y-113678571D01*
X111142380Y-113345238D01*
X111190000Y-113250000D01*
X111237619Y-113202380D01*
X111332857Y-113154761D01*
X111428095Y-113154761D01*
X111523333Y-113202380D01*
X111570952Y-113250000D01*
X111618571Y-113345238D01*
X111618571Y-113678571D01*
X112142380Y-112154761D02*
X112142380Y-112726190D01*
X112142380Y-112440476D02*
X111142380Y-112440476D01*
X111285238Y-112535714D01*
X111380476Y-112630952D01*
X111428095Y-112726190D01*
%TO.C,J2*%
D15*
X205736666Y-138334523D02*
X205736666Y-139241666D01*
X205676190Y-139423095D01*
X205555238Y-139544047D01*
X205373809Y-139604523D01*
X205252857Y-139604523D01*
X206280952Y-138455476D02*
X206341428Y-138395000D01*
X206462380Y-138334523D01*
X206764761Y-138334523D01*
X206885714Y-138395000D01*
X206946190Y-138455476D01*
X207006666Y-138576428D01*
X207006666Y-138697380D01*
X206946190Y-138878809D01*
X206220476Y-139604523D01*
X207006666Y-139604523D01*
%TD*%
M02*
