M48
; DRILL file {KiCad 5.1.9+dfsg1-1~bpo10+1} date Tue Jun  6 10:59:44 2023
; FORMAT={-:-/ absolute / inch / decimal}
; #@! TF.CreationDate,2023-06-06T10:59:44+02:00
; #@! TF.GenerationSoftware,Kicad,Pcbnew,5.1.9+dfsg1-1~bpo10+1
; #@! TF.FileFunction,Plated,1,4,PTH
FMAT,2
INCH
T1C0.0118
T2C0.0157
T3C0.0354
T4C0.0394
T5C0.0421
T6C0.0449
T7C0.0512
T8C0.0866
T9C0.1138
T10C0.1969
%
G90
G05
T1
X4.337Y-5.222
X4.7559Y-5.1138
X6.2392Y-3.4055
X6.2392Y-3.8189
X6.2583Y-3.9262
X6.2583Y-3.9774
X6.2583Y-4.0285
X6.2583Y-4.0797
X6.2648Y-3.6811
X6.2904Y-3.4449
X6.2904Y-3.8189
X6.2992Y-3.6417
X6.3415Y-3.8189
X6.3671Y-3.6811
X6.3927Y-3.4449
X6.3986Y-3.6319
X6.4183Y-3.4055
X6.4183Y-3.6516
X6.6126Y-3.9518
X6.6126Y-4.003
X6.6126Y-4.0541
X6.6126Y-4.1053
X7.6772Y-2.2343
T2
X3.9354Y-4.8219
X3.9974Y-4.9409
X4.023Y-5.0689
X4.0486Y-4.9372
X4.2278Y-5.1673
X4.3301Y-4.8829
X4.3685Y-4.8219
X4.4193Y-4.3701
X4.4193Y-4.5669
X4.4561Y-5.0689
X4.537Y-4.3323
X4.537Y-4.6953
X4.5457Y-2.2417
X4.5457Y-2.561
X4.6457Y-4.6949
X4.6531Y-4.3323
X4.6608Y-5.1673
X4.8016Y-4.8219
X4.8636Y-4.9409
X4.8768Y-2.3622
X4.8892Y-5.0689
X4.9138Y-2.2047
X5.0939Y-5.1673
X5.2346Y-4.8219
X5.2967Y-4.9409
X5.3222Y-5.0689
X5.3772Y-2.6921
X5.4957Y-2.515
X5.4957Y-2.5937
X5.527Y-5.1673
X5.6291Y-2.6496
X5.6685Y-2.313
X5.7187Y-3.0118
X5.7276Y-2.313
X5.7297Y-4.9409
X5.7553Y-5.0689
X5.7699Y-3.0118
X5.7866Y-2.313
X5.7917Y-4.8219
X5.8457Y-2.313
X5.8988Y-2.6331
X5.9087Y-2.8791
X5.937Y-4.3406
X5.96Y-5.1673
X5.9638Y-2.313
X5.9748Y-3.5902
X5.9756Y-2.5465
X5.9823Y-2.9402
X6.0059Y-3.5189
X6.037Y-3.3661
X6.037Y-4.3406
X6.0728Y-3.9262
X6.0984Y-2.4953
X6.1142Y-2.8594
X6.137Y-3.3661
X6.1628Y-4.9409
X6.1707Y-3.5189
X6.1797Y-2.9402
X6.1805Y-4.3213
X6.1884Y-5.0689
X6.2248Y-4.8219
X6.2557Y-4.1309
X6.3862Y-4.1053
X6.3931Y-5.1673
X6.4439Y-3.6811
X6.5959Y-4.9409
X6.6142Y-3.9006
X6.6215Y-5.0689
X6.6579Y-4.8219
X6.8262Y-5.1673
X6.8311Y-2.6028
X6.912Y-2.6041
X6.9669Y-4.8219
X7.0289Y-4.9409
X7.0545Y-5.0689
X7.2593Y-5.1673
X7.3327Y-5.2451
X7.3327Y-5.3061
X7.4Y-4.8219
X7.462Y-4.9409
X7.4876Y-5.0689
X7.5984Y-3.435
X7.6378Y-2.3868
X7.6923Y-5.1673
X7.7165Y-2.3868
X7.8331Y-4.8219
X7.8951Y-4.9409
X7.9207Y-5.0689
X8.1254Y-5.1673
T3
X8.028Y-3.5378
X8.028Y-3.6165
X8.028Y-3.6953
X8.028Y-3.774
X8.028Y-3.8528
X8.028Y-3.9315
X8.028Y-4.0102
X8.1067Y-3.5378
X8.1067Y-3.6165
X8.1067Y-3.6953
X8.1067Y-3.774
X8.1067Y-3.8528
X8.1067Y-3.9315
X8.1067Y-4.0102
T4
X6.8311Y-2.4098
X6.8311Y-2.5098
X6.9311Y-2.4098
X6.9311Y-2.5098
X7.0311Y-2.4098
X7.0311Y-2.5098
X7.1311Y-2.4098
X7.1311Y-2.5098
X7.2311Y-2.4098
X7.2311Y-2.5098
X7.3311Y-2.4098
X7.3311Y-2.5098
T5
X4.137Y-5.6055
X4.137Y-5.7055
X4.137Y-5.8055
X4.237Y-5.6055
X4.237Y-5.7055
X4.237Y-5.8055
X4.337Y-5.6055
X4.337Y-5.7055
X4.337Y-5.8055
X4.437Y-5.6055
X4.437Y-5.7055
X4.437Y-5.8055
X4.537Y-5.6055
X4.537Y-5.7055
X4.537Y-5.8055
X4.637Y-5.6055
X4.637Y-5.7055
X4.637Y-5.8055
X4.737Y-5.6055
X4.737Y-5.7055
X4.737Y-5.8055
X4.837Y-5.6055
X4.837Y-5.7055
X4.837Y-5.8055
X4.937Y-5.6055
X4.937Y-5.7055
X4.937Y-5.8055
X5.037Y-5.6055
X5.037Y-5.7055
X5.037Y-5.8055
X5.137Y-5.6055
X5.137Y-5.7055
X5.137Y-5.8055
X5.237Y-5.6055
X5.237Y-5.7055
X5.237Y-5.8055
X5.337Y-5.6055
X5.337Y-5.7055
X5.337Y-5.8055
X5.437Y-5.6055
X5.437Y-5.7055
X5.437Y-5.8055
X5.537Y-5.6055
X5.537Y-5.7055
X5.537Y-5.8055
X5.637Y-5.6055
X5.637Y-5.7055
X5.637Y-5.8055
X5.737Y-5.6055
X5.737Y-5.7055
X5.737Y-5.8055
X5.837Y-5.6055
X5.837Y-5.7055
X5.837Y-5.8055
X5.937Y-5.6055
X5.937Y-5.7055
X5.937Y-5.8055
X6.037Y-5.6055
X6.037Y-5.7055
X6.037Y-5.8055
X6.137Y-5.6055
X6.137Y-5.7055
X6.137Y-5.8055
X6.237Y-5.6055
X6.237Y-5.7055
X6.237Y-5.8055
X6.337Y-5.6055
X6.337Y-5.7055
X6.337Y-5.8055
X6.437Y-5.6055
X6.437Y-5.7055
X6.437Y-5.8055
X6.537Y-5.6055
X6.537Y-5.7055
X6.537Y-5.8055
X6.637Y-5.6055
X6.637Y-5.7055
X6.637Y-5.8055
X6.737Y-5.6055
X6.737Y-5.7055
X6.737Y-5.8055
X6.837Y-5.6055
X6.837Y-5.7055
X6.837Y-5.8055
X6.937Y-5.6055
X6.937Y-5.7055
X6.937Y-5.8055
X7.037Y-5.6055
X7.037Y-5.7055
X7.037Y-5.8055
X7.137Y-5.6055
X7.137Y-5.7055
X7.137Y-5.8055
X7.237Y-5.6055
X7.237Y-5.7055
X7.237Y-5.8055
X7.337Y-5.6055
X7.337Y-5.7055
X7.337Y-5.8055
X7.437Y-5.6055
X7.437Y-5.7055
X7.437Y-5.8055
X7.537Y-5.6055
X7.537Y-5.7055
X7.537Y-5.8055
X7.637Y-5.6055
X7.637Y-5.7055
X7.637Y-5.8055
X7.737Y-5.6055
X7.737Y-5.7055
X7.737Y-5.8055
X7.837Y-5.6055
X7.837Y-5.7055
X7.837Y-5.8055
X7.937Y-5.6055
X7.937Y-5.7055
X7.937Y-5.8055
X8.037Y-5.6055
X8.037Y-5.7055
X8.037Y-5.8055
T6
X4.537Y-3.1776
X4.537Y-3.2776
X4.537Y-4.4276
X4.537Y-4.5276
X4.637Y-3.1776
X4.637Y-3.2776
X4.637Y-4.4276
X4.637Y-4.5276
X4.737Y-3.1776
X4.737Y-3.2776
X4.737Y-4.4276
X4.737Y-4.5276
X4.837Y-3.1776
X4.837Y-3.2776
X4.837Y-4.4276
X4.837Y-4.5276
X4.937Y-3.1776
X4.937Y-3.2776
X4.937Y-4.4276
X4.937Y-4.5276
X5.037Y-3.1776
X5.037Y-3.2776
X5.037Y-4.4276
X5.037Y-4.5276
X5.137Y-3.1776
X5.137Y-3.2776
X5.137Y-4.4276
X5.137Y-4.5276
X5.237Y-3.1776
X5.237Y-3.2776
X5.237Y-4.4276
X5.237Y-4.5276
X5.337Y-3.1776
X5.337Y-3.2776
X5.337Y-4.4276
X5.337Y-4.5276
X5.437Y-3.1776
X5.437Y-3.2776
X5.437Y-4.4276
X5.437Y-4.5276
X5.537Y-3.1776
X5.537Y-3.2776
X5.537Y-4.4276
X5.537Y-4.5276
X5.637Y-3.1776
X5.637Y-3.2776
X5.637Y-4.4276
X5.637Y-4.5276
X5.737Y-3.1776
X5.737Y-3.2776
X5.737Y-4.4276
X5.737Y-4.5276
X5.837Y-3.1776
X5.837Y-3.2776
X5.837Y-4.4276
X5.837Y-4.5276
X5.937Y-3.1776
X5.937Y-3.2776
X5.937Y-4.4276
X5.937Y-4.5276
X6.037Y-3.1776
X6.037Y-3.2776
X6.037Y-4.4276
X6.037Y-4.5276
X6.137Y-3.1776
X6.137Y-3.2776
X6.137Y-4.4276
X6.137Y-4.5276
X6.237Y-3.1776
X6.237Y-3.2776
X6.237Y-4.4276
X6.237Y-4.5276
X6.337Y-3.1776
X6.337Y-3.2776
X6.337Y-4.4276
X6.337Y-4.5276
X6.437Y-3.1776
X6.437Y-3.2776
X6.437Y-4.4276
X6.437Y-4.5276
X6.537Y-3.1776
X6.537Y-3.2776
X6.537Y-4.4276
X6.537Y-4.5276
X6.637Y-3.1776
X6.637Y-3.2776
X6.637Y-4.4276
X6.637Y-4.5276
X6.737Y-3.1776
X6.737Y-3.2776
X6.737Y-4.4276
X6.737Y-4.5276
X6.837Y-3.1776
X6.837Y-3.2776
X6.837Y-4.4276
X6.837Y-4.5276
X6.937Y-3.1776
X6.937Y-3.2776
X6.937Y-4.4276
X6.937Y-4.5276
X7.037Y-3.1776
X7.037Y-3.2776
X7.037Y-4.4276
X7.037Y-4.5276
X7.137Y-3.1776
X7.137Y-3.2776
X7.137Y-4.4276
X7.137Y-4.5276
X7.237Y-3.1776
X7.237Y-3.2776
X7.237Y-4.4276
X7.237Y-4.5276
X7.337Y-3.1776
X7.337Y-3.2776
X7.337Y-4.4276
X7.337Y-4.5276
X7.437Y-3.1776
X7.437Y-3.2776
X7.437Y-4.4276
X7.437Y-4.5276
X7.537Y-3.1776
X7.537Y-3.2776
X7.537Y-4.4276
X7.537Y-4.5276
X7.637Y-3.1776
X7.637Y-3.2776
X7.637Y-4.4276
X7.637Y-4.5276
T7
X5.5268Y-2.1563
X5.5504Y-2.3512
X6.1213Y-2.3512
X6.1449Y-2.1563
T8
X5.2543Y-2.2047
T9
X3.937Y-5.9055
X8.237Y-5.9055
T10
X3.9594Y-2.5768
X8.2114Y-2.5768
T0
M30
