M48
; DRILL file {KiCad 5.1.9+dfsg1-1~bpo10+1} date Sat May 27 15:22:24 2023
; FORMAT={-:-/ absolute / inch / decimal}
; #@! TF.CreationDate,2023-05-27T15:22:24+02:00
; #@! TF.GenerationSoftware,Kicad,Pcbnew,5.1.9+dfsg1-1~bpo10+1
; #@! TF.FileFunction,Plated,1,4,PTH
FMAT,2
INCH
T1C0.0118
T2C0.0157
T3C0.0354
T4C0.0394
T5C0.0421
T6C0.0449
T7C0.0512
T8C0.0866
T9C0.1138
T10C0.1969
%
G90
G05
T1
X4.1766Y-4.5551
X4.2022Y-4.1929
X4.2278Y-4.2106
X4.4817Y-4.2283
X4.5073Y-4.2461
X4.5329Y-4.2638
X4.5585Y-4.3346
X4.5841Y-4.3524
X4.6096Y-4.626
X4.6352Y-4.3701
X4.6608Y-4.2815
X4.9945Y-4.3169
X5.037Y-4.2992
X5.7254Y-4.1929
X5.7254Y-4.5551
X5.747Y-4.2106
X5.747Y-4.5728
X5.7687Y-4.2283
X5.7687Y-4.5906
X5.7904Y-4.2461
X5.812Y-4.2638
X5.8337Y-4.2815
X5.8553Y-4.2992
X5.8986Y-4.1043
X5.9203Y-4.3169
X5.9419Y-4.3346
X5.9636Y-4.3524
X5.9852Y-4.3701
X5.9852Y-4.6083
X6.0069Y-4.3878
X6.0069Y-4.626
X6.0614Y-2.9419
X6.0614Y-2.9931
X6.0614Y-3.2411
X6.0614Y-3.2923
X6.2372Y-4.1929
X6.2372Y-4.5551
X6.2392Y-2.6181
X6.2392Y-3.0315
X6.2589Y-4.2106
X6.2589Y-4.5728
X6.2648Y-3.0118
X6.2805Y-4.2283
X6.2805Y-4.5906
X6.2904Y-2.6575
X6.2904Y-3.0315
X6.3022Y-4.2461
X6.3159Y-3.0118
X6.3238Y-4.2638
X6.3415Y-3.0315
X6.3455Y-4.2815
X6.3671Y-3.0118
X6.3671Y-4.2992
X6.3927Y-2.6575
X6.3927Y-3.0315
X6.4104Y-4.1043
X6.4183Y-2.6181
X6.4183Y-3.0118
X6.4321Y-4.3169
X6.4352Y-3.2395
X6.4537Y-4.3346
X6.4754Y-4.3524
X6.497Y-4.3701
X6.497Y-4.6083
X6.5187Y-4.1043
X6.5187Y-4.3878
X6.5187Y-4.626
X6.6126Y-3.1644
X6.6126Y-3.2156
X6.6126Y-3.2667
X6.6126Y-3.3179
X6.6398Y-4.0551
X6.6575Y-4.0748
X6.6752Y-4.0551
X6.749Y-4.1929
X6.749Y-4.5551
X6.7707Y-4.2106
X6.7707Y-4.5728
X6.7923Y-4.2283
X6.7923Y-4.5906
X6.814Y-4.2461
X6.8356Y-4.2638
X6.8573Y-4.2815
X6.8789Y-4.2992
X6.9222Y-4.1043
X6.9439Y-4.3169
X6.9656Y-4.3346
X6.9872Y-4.3524
X7.0089Y-4.3701
X7.0089Y-4.6083
X7.0305Y-4.3878
X7.0305Y-4.626
X7.2608Y-4.1929
X7.2608Y-4.5551
X7.2825Y-4.2106
X7.2825Y-4.5728
X7.3041Y-4.2283
X7.3041Y-4.5906
X7.3258Y-4.2461
X7.337Y-4.0587
X7.3474Y-4.2638
X7.3691Y-4.2815
X7.3862Y-5.0295
X7.3907Y-4.2992
X7.4341Y-4.1043
X7.4557Y-4.3169
X7.4774Y-4.3346
X7.4827Y-4.4343
X7.4827Y-4.4343
X7.499Y-4.3524
X7.5207Y-4.3701
X7.5207Y-4.6083
X7.5423Y-4.3878
X7.5423Y-4.626
X7.6772Y-1.4469
T2
X3.9354Y-4.8451
X3.937Y-4.6654
X3.937Y-4.7835
X3.9974Y-4.9409
X4.023Y-5.0689
X4.0486Y-4.1498
X4.2278Y-5.1673
X4.3301Y-4.8829
X4.3685Y-4.8451
X4.4193Y-3.6402
X4.4193Y-3.7402
X4.4561Y-5.0689
X4.537Y-3.5449
X4.537Y-3.9079
X4.5457Y-1.4543
X4.5457Y-1.7736
X4.6457Y-3.9075
X4.6531Y-3.5449
X4.6608Y-5.1673
X4.8016Y-4.8451
X4.8636Y-4.9409
X4.8768Y-1.5748
X4.8892Y-5.0689
X4.9138Y-1.4173
X5.0939Y-5.1673
X5.2346Y-4.8451
X5.2967Y-4.9409
X5.3222Y-5.0689
X5.3772Y-1.9047
X5.527Y-5.1673
X5.5315Y-1.7472
X5.5315Y-1.8063
X5.6291Y-1.8622
X5.6677Y-4.8451
X5.6685Y-1.5256
X5.7187Y-2.2244
X5.7276Y-1.5256
X5.7297Y-4.9409
X5.7553Y-5.0689
X5.7699Y-2.2244
X5.7866Y-1.5256
X5.8457Y-1.5256
X5.8553Y-4.7146
X5.8553Y-4.7638
X5.876Y-3.9573
X5.877Y-4.0748
X5.9016Y-1.8457
X5.9087Y-2.0917
X5.937Y-3.5429
X5.96Y-5.1673
X5.9638Y-1.5256
X5.9646Y-2.1528
X5.9756Y-1.7717
X6.0134Y-1.752
X6.0185Y-3.5339
X6.037Y-2.5953
X6.0433Y-2.7315
X6.063Y-2.0917
X6.1008Y-4.8451
X6.1024Y-2.1528
X6.1177Y-2.5945
X6.1319Y-3.3435
X6.137Y-3.878
X6.137Y-3.9961
X6.1614Y-2.7315
X6.1628Y-4.9409
X6.1884Y-5.0689
X6.2557Y-3.3435
X6.3671Y-4.7146
X6.3671Y-4.7638
X6.3862Y-3.3179
X6.3878Y-3.9573
X6.3888Y-4.0748
X6.3931Y-5.1673
X6.4439Y-2.8937
X6.4846Y-3.1132
X6.5339Y-4.8451
X6.5959Y-4.9409
X6.6215Y-5.0689
X6.8262Y-5.1673
X6.8311Y-1.8154
X6.8789Y-4.5276
X6.8789Y-4.7146
X6.8996Y-3.9573
X6.9006Y-4.0748
X6.912Y-1.8167
X6.9669Y-4.8451
X7.0289Y-4.9409
X7.0545Y-5.0689
X7.2593Y-5.1673
X7.3862Y-5.2165
X7.3862Y-5.3346
X7.3907Y-4.5276
X7.3907Y-4.7146
X7.4Y-4.8451
X7.4114Y-3.9573
X7.4124Y-4.0748
X7.462Y-4.9409
X7.4876Y-5.0689
X7.6378Y-1.5748
X7.6923Y-5.1673
X7.7165Y-1.5748
X7.7165Y-3.878
X7.7165Y-3.9961
X7.8331Y-4.8451
X7.8951Y-4.9409
X7.9207Y-5.0689
X8.1254Y-5.1673
T3
X8.028Y-1.3724
X8.028Y-1.4512
X8.028Y-1.5299
X8.028Y-1.6087
X8.028Y-1.6874
X8.028Y-1.7661
X8.028Y-1.8449
X8.1067Y-1.3724
X8.1067Y-1.4512
X8.1067Y-1.5299
X8.1067Y-1.6087
X8.1067Y-1.6874
X8.1067Y-1.7661
X8.1067Y-1.8449
T4
X6.8311Y-1.6224
X6.8311Y-1.7224
X6.9311Y-1.6224
X6.9311Y-1.7224
X7.0311Y-1.6224
X7.0311Y-1.7224
X7.1311Y-1.6224
X7.1311Y-1.7224
X7.2311Y-1.6224
X7.2311Y-1.7224
X7.3311Y-1.6224
X7.3311Y-1.7224
T5
X4.137Y-5.6055
X4.137Y-5.7055
X4.137Y-5.8055
X4.237Y-5.6055
X4.237Y-5.7055
X4.237Y-5.8055
X4.337Y-5.6055
X4.337Y-5.7055
X4.337Y-5.8055
X4.437Y-5.6055
X4.437Y-5.7055
X4.437Y-5.8055
X4.537Y-5.6055
X4.537Y-5.7055
X4.537Y-5.8055
X4.637Y-5.6055
X4.637Y-5.7055
X4.637Y-5.8055
X4.737Y-5.6055
X4.737Y-5.7055
X4.737Y-5.8055
X4.837Y-5.6055
X4.837Y-5.7055
X4.837Y-5.8055
X4.937Y-5.6055
X4.937Y-5.7055
X4.937Y-5.8055
X5.037Y-5.6055
X5.037Y-5.7055
X5.037Y-5.8055
X5.137Y-5.6055
X5.137Y-5.7055
X5.137Y-5.8055
X5.237Y-5.6055
X5.237Y-5.7055
X5.237Y-5.8055
X5.337Y-5.6055
X5.337Y-5.7055
X5.337Y-5.8055
X5.437Y-5.6055
X5.437Y-5.7055
X5.437Y-5.8055
X5.537Y-5.6055
X5.537Y-5.7055
X5.537Y-5.8055
X5.637Y-5.6055
X5.637Y-5.7055
X5.637Y-5.8055
X5.737Y-5.6055
X5.737Y-5.7055
X5.737Y-5.8055
X5.837Y-5.6055
X5.837Y-5.7055
X5.837Y-5.8055
X5.937Y-5.6055
X5.937Y-5.7055
X5.937Y-5.8055
X6.037Y-5.6055
X6.037Y-5.7055
X6.037Y-5.8055
X6.137Y-5.6055
X6.137Y-5.7055
X6.137Y-5.8055
X6.237Y-5.6055
X6.237Y-5.7055
X6.237Y-5.8055
X6.337Y-5.6055
X6.337Y-5.7055
X6.337Y-5.8055
X6.437Y-5.6055
X6.437Y-5.7055
X6.437Y-5.8055
X6.537Y-5.6055
X6.537Y-5.7055
X6.537Y-5.8055
X6.637Y-5.6055
X6.637Y-5.7055
X6.637Y-5.8055
X6.737Y-5.6055
X6.737Y-5.7055
X6.737Y-5.8055
X6.837Y-5.6055
X6.837Y-5.7055
X6.837Y-5.8055
X6.937Y-5.6055
X6.937Y-5.7055
X6.937Y-5.8055
X7.037Y-5.6055
X7.037Y-5.7055
X7.037Y-5.8055
X7.137Y-5.6055
X7.137Y-5.7055
X7.137Y-5.8055
X7.237Y-5.6055
X7.237Y-5.7055
X7.237Y-5.8055
X7.337Y-5.6055
X7.337Y-5.7055
X7.337Y-5.8055
X7.437Y-5.6055
X7.437Y-5.7055
X7.437Y-5.8055
X7.537Y-5.6055
X7.537Y-5.7055
X7.537Y-5.8055
X7.637Y-5.6055
X7.637Y-5.7055
X7.637Y-5.8055
X7.737Y-5.6055
X7.737Y-5.7055
X7.737Y-5.8055
X7.837Y-5.6055
X7.837Y-5.7055
X7.837Y-5.8055
X7.937Y-5.6055
X7.937Y-5.7055
X7.937Y-5.8055
X8.037Y-5.6055
X8.037Y-5.7055
X8.037Y-5.8055
T6
X4.537Y-2.3902
X4.537Y-2.4902
X4.537Y-3.6402
X4.537Y-3.7402
X4.637Y-2.3902
X4.637Y-2.4902
X4.637Y-3.6402
X4.637Y-3.7402
X4.737Y-2.3902
X4.737Y-2.4902
X4.737Y-3.6402
X4.737Y-3.7402
X4.837Y-2.3902
X4.837Y-2.4902
X4.837Y-3.6402
X4.837Y-3.7402
X4.937Y-2.3902
X4.937Y-2.4902
X4.937Y-3.6402
X4.937Y-3.7402
X5.037Y-2.3902
X5.037Y-2.4902
X5.037Y-3.6402
X5.037Y-3.7402
X5.137Y-2.3902
X5.137Y-2.4902
X5.137Y-3.6402
X5.137Y-3.7402
X5.237Y-2.3902
X5.237Y-2.4902
X5.237Y-3.6402
X5.237Y-3.7402
X5.337Y-2.3902
X5.337Y-2.4902
X5.337Y-3.6402
X5.337Y-3.7402
X5.437Y-2.3902
X5.437Y-2.4902
X5.437Y-3.6402
X5.437Y-3.7402
X5.537Y-2.3902
X5.537Y-2.4902
X5.537Y-3.6402
X5.537Y-3.7402
X5.637Y-2.3902
X5.637Y-2.4902
X5.637Y-3.6402
X5.637Y-3.7402
X5.737Y-2.3902
X5.737Y-2.4902
X5.737Y-3.6402
X5.737Y-3.7402
X5.837Y-2.3902
X5.837Y-2.4902
X5.837Y-3.6402
X5.837Y-3.7402
X5.937Y-2.3902
X5.937Y-2.4902
X5.937Y-3.6402
X5.937Y-3.7402
X6.037Y-2.3902
X6.037Y-2.4902
X6.037Y-3.6402
X6.037Y-3.7402
X6.137Y-2.3902
X6.137Y-2.4902
X6.137Y-3.6402
X6.137Y-3.7402
X6.237Y-2.3902
X6.237Y-2.4902
X6.237Y-3.6402
X6.237Y-3.7402
X6.337Y-2.3902
X6.337Y-2.4902
X6.337Y-3.6402
X6.337Y-3.7402
X6.437Y-2.3902
X6.437Y-2.4902
X6.437Y-3.6402
X6.437Y-3.7402
X6.537Y-2.3902
X6.537Y-2.4902
X6.537Y-3.6402
X6.537Y-3.7402
X6.637Y-2.3902
X6.637Y-2.4902
X6.637Y-3.6402
X6.637Y-3.7402
X6.737Y-2.3902
X6.737Y-2.4902
X6.737Y-3.6402
X6.737Y-3.7402
X6.837Y-2.3902
X6.837Y-2.4902
X6.837Y-3.6402
X6.837Y-3.7402
X6.937Y-2.3902
X6.937Y-2.4902
X6.937Y-3.6402
X6.937Y-3.7402
X7.037Y-2.3902
X7.037Y-2.4902
X7.037Y-3.6402
X7.037Y-3.7402
X7.137Y-2.3902
X7.137Y-2.4902
X7.137Y-3.6402
X7.137Y-3.7402
X7.237Y-2.3902
X7.237Y-2.4902
X7.237Y-3.6402
X7.237Y-3.7402
X7.337Y-2.3902
X7.337Y-2.4902
X7.337Y-3.6402
X7.337Y-3.7402
X7.437Y-2.3902
X7.437Y-2.4902
X7.437Y-3.6402
X7.437Y-3.7402
X7.537Y-2.3902
X7.537Y-2.4902
X7.537Y-3.6402
X7.537Y-3.7402
X7.637Y-2.3902
X7.637Y-2.4902
X7.637Y-3.6402
X7.637Y-3.7402
T7
X5.5268Y-1.3689
X5.5504Y-1.5638
X6.1213Y-1.5638
X6.1449Y-1.3689
T8
X5.2543Y-1.4173
T9
X3.937Y-5.9055
X8.237Y-5.9055
T10
X3.9594Y-2.5768
X8.2114Y-2.5768
T0
M30
